<?xml version="1.0" encoding="utf-8" standalone="no"?>
<!DOCTYPE svg PUBLIC "-//W3C//DTD SVG 1.1//EN"
  "http://www.w3.org/Graphics/SVG/1.1/DTD/svg11.dtd">
<!-- Created with matplotlib (https://matplotlib.org/) -->
<svg height="216pt" version="1.1" viewBox="0 0 432 216" width="432pt" xmlns="http://www.w3.org/2000/svg" xmlns:xlink="http://www.w3.org/1999/xlink">
 <defs>
  <style type="text/css">
*{stroke-linecap:butt;stroke-linejoin:round;}
  </style>
 </defs>
 <g id="figure_1">
  <g id="patch_1">
   <path d="M 0 216 
L 432 216 
L 432 0 
L 0 0 
z
" style="fill:#ffffff;"/>
  </g>
  <g id="axes_1">
   <g id="patch_2">
    <path d="M 54 189 
L 206.181818 189 
L 206.181818 25.92 
L 54 25.92 
z
" style="fill:#e3dcd0;"/>
   </g>
   <g id="matplotlib.axis_1">
    <g id="xtick_1">
     <g id="text_1">
      <!-- $\mathdefault{10^{3}}$ -->
      <defs>
       <path d="M 26.171875 0 
L 26.171875 65.046875 
L 14.75 65.046875 
L 14.75 71.09375 
L 35.84375 72.90625 
L 35.84375 0 
z
" id="LucidaSansUnicode-49"/>
       <path d="M 31.640625 -1.8125 
Q 20.265625 -1.8125 13.296875 8.609375 
Q 6.34375 19.046875 6.34375 36.140625 
Q 6.34375 53.21875 13.296875 63.640625 
Q 20.265625 74.078125 31.640625 74.078125 
Q 43.0625 74.078125 50 63.671875 
Q 56.9375 53.265625 56.9375 36.140625 
Q 56.9375 19.046875 50 8.609375 
Q 43.0625 -1.8125 31.640625 -1.8125 
z
M 31.640625 5.421875 
Q 46.734375 5.421875 46.734375 36.140625 
Q 46.734375 66.84375 31.640625 66.84375 
Q 16.609375 66.84375 16.609375 36.140625 
Q 16.609375 5.421875 31.640625 5.421875 
z
" id="LucidaSansUnicode-48"/>
       <path d="M 10.15625 0.53125 
L 10.15625 9.515625 
Q 20.453125 5.421875 26.375 5.421875 
Q 33.34375 5.421875 37.671875 9.421875 
Q 42 13.421875 42 19.875 
Q 42 35.109375 20.65625 35.109375 
L 16.84375 35.109375 
L 16.84375 41.609375 
L 20.21875 41.65625 
Q 40.234375 41.65625 40.234375 55.765625 
Q 40.234375 66.84375 26.953125 66.84375 
Q 19.828125 66.84375 11.140625 62.796875 
L 11.140625 71.1875 
Q 19.671875 74.078125 27.59375 74.078125 
Q 38.375 74.078125 44.140625 69.78125 
Q 49.90625 65.484375 49.90625 57.328125 
Q 49.90625 44.578125 34.8125 39.15625 
Q 52.296875 35.109375 52.296875 20.015625 
Q 52.296875 9.8125 45.546875 4 
Q 38.8125 -1.8125 27.046875 -1.8125 
Q 20.359375 -1.8125 10.15625 0.53125 
z
" id="LucidaSansUnicode-51"/>
      </defs>
      <g transform="translate(48.75 197.125625)scale(0.06 -0.06)">
       <use transform="translate(0 0.023438)" xlink:href="#LucidaSansUnicode-49"/>
       <use transform="translate(63.232422 0.023438)" xlink:href="#LucidaSansUnicode-48"/>
       <use transform="translate(127.392891 37.145312)scale(0.7)" xlink:href="#LucidaSansUnicode-51"/>
      </g>
     </g>
    </g>
    <g id="xtick_2">
     <g id="text_2">
      <!-- $\mathdefault{10^{4}}$ -->
      <defs>
       <path d="M 37.640625 0 
L 37.640625 20.453125 
L 5.125 20.453125 
L 5.125 27.734375 
L 37.640625 72.265625 
L 46.6875 72.265625 
L 46.6875 28.328125 
L 56.34375 28.328125 
L 56.34375 20.453125 
L 46.6875 20.453125 
L 46.6875 0 
z
M 14.546875 28.328125 
L 38.28125 28.328125 
L 38.28125 60.453125 
z
" id="LucidaSansUnicode-52"/>
      </defs>
      <g transform="translate(99.477273 197.125625)scale(0.06 -0.06)">
       <use transform="translate(0 0.292188)" xlink:href="#LucidaSansUnicode-49"/>
       <use transform="translate(63.232422 0.292188)" xlink:href="#LucidaSansUnicode-48"/>
       <use transform="translate(127.392891 37.414063)scale(0.7)" xlink:href="#LucidaSansUnicode-52"/>
      </g>
     </g>
    </g>
    <g id="xtick_3">
     <g id="text_3">
      <!-- $\mathdefault{10^{5}}$ -->
      <defs>
       <path d="M 12.15625 -0.296875 
L 12.15625 8.296875 
Q 19.34375 5.421875 25.828125 5.421875 
Q 32.953125 5.421875 37.03125 9.609375 
Q 41.109375 13.8125 41.109375 21.1875 
Q 41.109375 29.109375 35.34375 33.28125 
Q 29.59375 37.453125 18.703125 37.453125 
Q 16.15625 37.453125 13.375 37.109375 
L 13.375 72.265625 
L 49.953125 72.265625 
L 49.953125 63.875 
L 21.828125 63.875 
L 21.828125 44.828125 
Q 35.75 44.828125 43.5625 38.421875 
Q 51.375 32.03125 51.375 20.703125 
Q 51.375 10.15625 44.265625 4.171875 
Q 37.15625 -1.8125 24.65625 -1.8125 
Q 19.09375 -1.8125 12.15625 -0.296875 
z
" id="LucidaSansUnicode-53"/>
      </defs>
      <g transform="translate(150.204545 197.125625)scale(0.06 -0.06)">
       <use transform="translate(0 0.292188)" xlink:href="#LucidaSansUnicode-49"/>
       <use transform="translate(63.232422 0.292188)" xlink:href="#LucidaSansUnicode-48"/>
       <use transform="translate(127.392891 37.414063)scale(0.7)" xlink:href="#LucidaSansUnicode-53"/>
      </g>
     </g>
    </g>
    <g id="xtick_4">
     <g id="text_4">
      <!-- $\mathdefault{10^{6}}$ -->
      <defs>
       <path d="M 17.1875 37.453125 
Q 24.078125 46.390625 34.515625 46.390625 
Q 44 46.390625 50.03125 40.109375 
Q 56.0625 33.84375 56.0625 24.03125 
Q 56.0625 12.75 49.296875 5.46875 
Q 42.53125 -1.8125 32.078125 -1.8125 
Q 20.171875 -1.8125 13.421875 7.828125 
Q 6.6875 17.484375 6.6875 34.515625 
Q 6.6875 57.46875 18.453125 68.21875 
Q 24.859375 74.125 36.140625 74.125 
Q 42.671875 74.125 52.34375 71.390625 
L 52.34375 62.984375 
Q 42.140625 66.890625 35.546875 66.890625 
Q 17.1875 66.890625 17.1875 37.453125 
z
M 46.390625 22.125 
Q 46.390625 30.125 42.671875 34.78125 
Q 38.96875 39.453125 32.515625 39.453125 
Q 26.375 39.453125 21.96875 35.34375 
Q 17.578125 31.25 17.578125 25.484375 
Q 17.578125 16.40625 21.75 10.90625 
Q 25.921875 5.421875 32.8125 5.421875 
Q 39.0625 5.421875 42.71875 9.90625 
Q 46.390625 14.40625 46.390625 22.125 
z
" id="LucidaSansUnicode-54"/>
      </defs>
      <g transform="translate(200.931818 197.125625)scale(0.06 -0.06)">
       <use transform="translate(0 0.990625)" xlink:href="#LucidaSansUnicode-49"/>
       <use transform="translate(63.232422 0.990625)" xlink:href="#LucidaSansUnicode-48"/>
       <use transform="translate(127.392891 38.1125)scale(0.7)" xlink:href="#LucidaSansUnicode-54"/>
      </g>
     </g>
    </g>
    <g id="xtick_5"/>
    <g id="xtick_6"/>
    <g id="xtick_7"/>
    <g id="xtick_8"/>
    <g id="xtick_9"/>
    <g id="xtick_10"/>
    <g id="xtick_11"/>
    <g id="xtick_12"/>
    <g id="xtick_13"/>
    <g id="xtick_14"/>
    <g id="xtick_15"/>
    <g id="xtick_16"/>
    <g id="xtick_17"/>
    <g id="xtick_18"/>
    <g id="xtick_19"/>
    <g id="xtick_20"/>
    <g id="xtick_21"/>
    <g id="xtick_22"/>
    <g id="xtick_23"/>
    <g id="xtick_24"/>
    <g id="xtick_25"/>
    <g id="xtick_26"/>
    <g id="xtick_27"/>
    <g id="xtick_28"/>
    <g id="text_5">
     <!-- ribosomes per µm$^{3}$ -->
     <defs>
      <path d="M 9.625 0 
L 9.625 53.03125 
L 19.234375 53.03125 
L 19.234375 43.0625 
Q 24.953125 54.203125 35.84375 54.203125 
Q 37.3125 54.203125 38.921875 53.953125 
L 38.921875 44.96875 
Q 36.421875 45.796875 34.515625 45.796875 
Q 25.390625 45.796875 19.234375 34.96875 
L 19.234375 0 
z
" id="LucidaSansUnicode-114"/>
      <path d="M 9.625 0 
L 9.625 53.03125 
L 19.234375 53.03125 
L 19.234375 0 
z
M 9.625 62.640625 
L 9.625 72.265625 
L 19.234375 72.265625 
L 19.234375 62.640625 
z
" id="LucidaSansUnicode-105"/>
      <path d="M 9.625 -0.59375 
L 9.625 77.09375 
L 19.234375 77.09375 
L 19.234375 43.0625 
Q 25.140625 54.203125 36.96875 54.203125 
Q 46.53125 54.203125 52.015625 47.21875 
Q 57.515625 40.234375 57.515625 28.125 
Q 57.515625 14.9375 51.28125 6.859375 
Q 45.0625 -1.21875 34.90625 -1.21875 
Q 25.484375 -1.21875 19.234375 6 
L 18.0625 -0.59375 
z
M 19.234375 12.640625 
Q 26.65625 6 33.40625 6 
Q 40.046875 6 43.65625 11.546875 
Q 47.265625 17.09375 47.265625 27.15625 
Q 47.265625 45.796875 34.96875 45.796875 
Q 26.90625 45.796875 19.234375 37.0625 
z
" id="LucidaSansUnicode-98"/>
      <path d="M 30.71875 -1.21875 
Q 19.046875 -1.21875 12.234375 6.25 
Q 5.421875 13.71875 5.421875 26.515625 
Q 5.421875 39.3125 12.234375 46.75 
Q 19.046875 54.203125 30.71875 54.203125 
Q 42.390625 54.203125 49.1875 46.75 
Q 56 39.3125 56 26.515625 
Q 56 13.71875 49.1875 6.25 
Q 42.390625 -1.21875 30.71875 -1.21875 
z
M 30.71875 6 
Q 37.890625 6 41.84375 11.375 
Q 45.796875 16.75 45.796875 26.515625 
Q 45.796875 36.28125 41.84375 41.625 
Q 37.890625 46.96875 30.71875 46.96875 
Q 23.53125 46.96875 19.59375 41.625 
Q 15.671875 36.28125 15.671875 26.515625 
Q 15.671875 16.75 19.59375 11.375 
Q 23.53125 6 30.71875 6 
z
" id="LucidaSansUnicode-111"/>
      <path d="M 7.671875 1.859375 
L 7.671875 10.6875 
Q 17.09375 6 24.078125 6 
Q 28.21875 6 30.953125 8.25 
Q 33.6875 10.5 33.6875 13.875 
Q 33.6875 18.796875 26.03125 22.015625 
L 20.40625 24.421875 
Q 7.953125 29.59375 7.953125 39.3125 
Q 7.953125 46.234375 12.859375 50.21875 
Q 17.78125 54.203125 26.3125 54.203125 
Q 30.765625 54.203125 37.3125 52.984375 
L 39.3125 52.59375 
L 39.3125 44.578125 
Q 31.25 46.96875 26.46875 46.96875 
Q 22.265625 46.96875 19.75 45.140625 
Q 17.234375 43.3125 17.234375 40.234375 
Q 17.234375 35.890625 24.265625 32.90625 
L 28.90625 30.953125 
Q 36.765625 27.640625 40.03125 23.953125 
Q 43.3125 20.265625 43.3125 14.75 
Q 43.3125 7.765625 37.796875 3.265625 
Q 32.28125 -1.21875 23.6875 -1.21875 
Q 17.09375 -1.21875 7.671875 1.859375 
z
" id="LucidaSansUnicode-115"/>
      <path d="M 9.625 0 
L 9.625 53.03125 
L 19.234375 53.03125 
L 19.234375 43.0625 
Q 26.265625 54.203125 37.3125 54.203125 
Q 47.953125 54.203125 51.8125 43.0625 
Q 58.640625 54.25 69.578125 54.25 
Q 76.5625 54.25 80.4375 50.125 
Q 84.328125 46 84.328125 38.578125 
L 84.328125 0 
L 74.65625 0 
L 74.65625 37.0625 
Q 74.65625 46.140625 67.484375 46.140625 
Q 60.015625 46.140625 51.8125 35.546875 
L 51.8125 0 
L 42.140625 0 
L 42.140625 37.0625 
Q 42.140625 46.1875 34.8125 46.1875 
Q 27.546875 46.1875 19.234375 35.546875 
L 19.234375 0 
z
" id="LucidaSansUnicode-109"/>
      <path d="M 48.484375 1.703125 
Q 38.8125 -1.21875 31.9375 -1.21875 
Q 20.171875 -1.21875 12.796875 6.5625 
Q 5.421875 14.359375 5.421875 26.765625 
Q 5.421875 38.8125 11.9375 46.53125 
Q 18.453125 54.25 28.609375 54.25 
Q 38.234375 54.25 43.484375 47.390625 
Q 48.734375 40.53125 48.734375 27.9375 
L 48.6875 25 
L 15.234375 25 
Q 17.328125 6.109375 33.734375 6.109375 
Q 39.75 6.109375 48.484375 9.328125 
z
M 15.671875 32.234375 
L 39.0625 32.234375 
Q 39.0625 47.015625 28.03125 47.015625 
Q 16.9375 47.015625 15.671875 32.234375 
z
" id="LucidaSansUnicode-101"/>
      <path id="LucidaSansUnicode-32"/>
      <path d="M 9.625 -19.28125 
L 9.625 53.03125 
L 19.234375 53.03125 
L 19.234375 43.0625 
Q 25.140625 54.203125 36.96875 54.203125 
Q 46.53125 54.203125 52.015625 47.21875 
Q 57.515625 40.234375 57.515625 28.125 
Q 57.515625 14.9375 51.28125 6.859375 
Q 45.0625 -1.21875 34.90625 -1.21875 
Q 25.484375 -1.21875 19.234375 6 
L 19.234375 -19.28125 
z
M 19.234375 12.640625 
Q 26.65625 6 33.40625 6 
Q 40.046875 6 43.65625 11.546875 
Q 47.265625 17.09375 47.265625 27.15625 
Q 47.265625 45.796875 34.96875 45.796875 
Q 26.90625 45.796875 19.234375 37.0625 
z
" id="LucidaSansUnicode-112"/>
      <path d="M 9.625 -19.28125 
L 9.625 53.03125 
L 19.234375 53.03125 
L 19.234375 18.0625 
Q 19.234375 7.8125 28.125 7.8125 
Q 36.1875 7.8125 43.359375 18.65625 
L 43.359375 53.03125 
L 52.984375 53.03125 
L 52.984375 0 
L 43.359375 0 
L 43.359375 9.96875 
Q 36.53125 -1.21875 27.9375 -1.21875 
Q 22.953125 -1.21875 19.234375 1.21875 
L 19.234375 -19.28125 
z
" id="LucidaSansUnicode-181"/>
      <path d="M 11.296875 49.203125 
L 4.203125 50.90625 
Q 6.40625 58.703125 11.5 63.140625 
Q 16.59375 67.59375 24.296875 67.59375 
Q 31.40625 67.59375 36.203125 63.09375 
Q 41 58.59375 41 51.90625 
Q 41 43 32.40625 37 
Q 38 35 41.046875 30.34375 
Q 44.09375 25.703125 44.09375 21 
Q 44.09375 11.296875 37.796875 5 
Q 31.40625 -1.40625 20.5 -1.40625 
Q 9.5 -1.40625 3.09375 5.59375 
L 7.796875 11.203125 
Q 12.90625 5.703125 20 5.703125 
Q 27.40625 5.703125 31.59375 9.296875 
Q 36.203125 13.203125 36.203125 19.09375 
Q 36.203125 24.296875 32.453125 27.796875 
Q 28.703125 31.296875 22.203125 32.203125 
L 15.796875 32.203125 
L 15.796875 34.296875 
L 20.59375 39.40625 
Q 25.09375 39.40625 29.09375 42.84375 
Q 33.09375 46.296875 33.09375 51.203125 
Q 33.09375 55.40625 30.4375 57.953125 
Q 27.796875 60.5 24 60.5 
Q 20 60.5 16.546875 57.640625 
Q 13.09375 54.796875 11.296875 49.203125 
z
" id="STIXGeneral-Regular-120805"/>
     </defs>
     <g style="fill:#262626;" transform="translate(102.370909 207.3225)scale(0.06 -0.06)">
      <use transform="translate(0 0.446875)" xlink:href="#LucidaSansUnicode-114"/>
      <use transform="translate(40.917969 0.446875)" xlink:href="#LucidaSansUnicode-105"/>
      <use transform="translate(69.824219 0.446875)" xlink:href="#LucidaSansUnicode-98"/>
      <use transform="translate(132.763672 0.446875)" xlink:href="#LucidaSansUnicode-111"/>
      <use transform="translate(194.189453 0.446875)" xlink:href="#LucidaSansUnicode-115"/>
      <use transform="translate(245.166016 0.446875)" xlink:href="#LucidaSansUnicode-111"/>
      <use transform="translate(306.591797 0.446875)" xlink:href="#LucidaSansUnicode-109"/>
      <use transform="translate(399.951172 0.446875)" xlink:href="#LucidaSansUnicode-101"/>
      <use transform="translate(455.664062 0.446875)" xlink:href="#LucidaSansUnicode-115"/>
      <use transform="translate(506.640625 0.446875)" xlink:href="#LucidaSansUnicode-32"/>
      <use transform="translate(538.28125 0.446875)" xlink:href="#LucidaSansUnicode-112"/>
      <use transform="translate(601.220703 0.446875)" xlink:href="#LucidaSansUnicode-101"/>
      <use transform="translate(656.933594 0.446875)" xlink:href="#LucidaSansUnicode-114"/>
      <use transform="translate(697.851562 0.446875)" xlink:href="#LucidaSansUnicode-32"/>
      <use transform="translate(729.492188 0.446875)" xlink:href="#LucidaSansUnicode-181"/>
      <use transform="translate(792.138672 0.446875)" xlink:href="#LucidaSansUnicode-109"/>
      <use transform="translate(886.290742 36.684375)scale(0.7)" xlink:href="#STIXGeneral-Regular-120805"/>
     </g>
    </g>
   </g>
   <g id="matplotlib.axis_2">
    <g id="ytick_1">
     <g id="text_6">
      <!-- 0.0 -->
      <defs>
       <path d="M 9.765625 0 
L 9.765625 12.0625 
L 21.828125 12.0625 
L 21.828125 0 
z
" id="LucidaSansUnicode-46"/>
      </defs>
      <g transform="translate(41.013438 183.986835)scale(0.06 -0.06)">
       <use xlink:href="#LucidaSansUnicode-48"/>
       <use x="63.232422" xlink:href="#LucidaSansUnicode-46"/>
       <use x="94.873047" xlink:href="#LucidaSansUnicode-48"/>
      </g>
     </g>
    </g>
    <g id="ytick_2">
     <g id="text_7">
      <!-- 2.5 -->
      <defs>
       <path d="M 8.296875 0 
L 8.296875 8.453125 
Q 12.5 18.265625 25.296875 29.828125 
L 30.8125 34.765625 
Q 41.453125 44.390625 41.453125 53.859375 
Q 41.453125 59.90625 37.8125 63.375 
Q 34.1875 66.84375 27.78125 66.84375 
Q 20.3125 66.84375 10.109375 61.03125 
L 10.109375 69.53125 
Q 19.734375 74.078125 29.25 74.078125 
Q 39.40625 74.078125 45.53125 68.609375 
Q 51.65625 63.140625 51.65625 54.109375 
Q 51.65625 47.609375 48.546875 42.578125 
Q 45.453125 37.546875 37.015625 30.375 
L 33.296875 27.203125 
Q 21.734375 17.390625 19.921875 8.453125 
L 51.3125 8.453125 
L 51.3125 0 
z
" id="LucidaSansUnicode-50"/>
      </defs>
      <g transform="translate(41.013438 162.299333)scale(0.06 -0.06)">
       <use xlink:href="#LucidaSansUnicode-50"/>
       <use x="63.232422" xlink:href="#LucidaSansUnicode-46"/>
       <use x="94.873047" xlink:href="#LucidaSansUnicode-53"/>
      </g>
     </g>
    </g>
    <g id="ytick_3">
     <g id="text_8">
      <!-- 5.0 -->
      <g transform="translate(41.013438 140.611832)scale(0.06 -0.06)">
       <use xlink:href="#LucidaSansUnicode-53"/>
       <use x="63.232422" xlink:href="#LucidaSansUnicode-46"/>
       <use x="94.873047" xlink:href="#LucidaSansUnicode-48"/>
      </g>
     </g>
    </g>
    <g id="ytick_4">
     <g id="text_9">
      <!-- 7.5 -->
      <defs>
       <path d="M 15.046875 0 
Q 16.453125 8.453125 19.0625 14.59375 
Q 21.6875 20.75 28.328125 31.5 
L 48.046875 63.234375 
L 10.84375 63.234375 
L 10.84375 72.265625 
L 57.234375 72.265625 
L 57.234375 63.234375 
Q 29.4375 22.265625 26.125 0 
z
" id="LucidaSansUnicode-55"/>
      </defs>
      <g transform="translate(41.013438 118.92433)scale(0.06 -0.06)">
       <use xlink:href="#LucidaSansUnicode-55"/>
       <use x="63.232422" xlink:href="#LucidaSansUnicode-46"/>
       <use x="94.873047" xlink:href="#LucidaSansUnicode-53"/>
      </g>
     </g>
    </g>
    <g id="ytick_5">
     <g id="text_10">
      <!-- 10.0 -->
      <g transform="translate(37.219375 97.236828)scale(0.06 -0.06)">
       <use xlink:href="#LucidaSansUnicode-49"/>
       <use x="63.232422" xlink:href="#LucidaSansUnicode-48"/>
       <use x="126.464844" xlink:href="#LucidaSansUnicode-46"/>
       <use x="158.105469" xlink:href="#LucidaSansUnicode-48"/>
      </g>
     </g>
    </g>
    <g id="ytick_6">
     <g id="text_11">
      <!-- 12.5 -->
      <g transform="translate(37.219375 75.549327)scale(0.06 -0.06)">
       <use xlink:href="#LucidaSansUnicode-49"/>
       <use x="63.232422" xlink:href="#LucidaSansUnicode-50"/>
       <use x="126.464844" xlink:href="#LucidaSansUnicode-46"/>
       <use x="158.105469" xlink:href="#LucidaSansUnicode-53"/>
      </g>
     </g>
    </g>
    <g id="ytick_7">
     <g id="text_12">
      <!-- 15.0 -->
      <g transform="translate(37.219375 53.861825)scale(0.06 -0.06)">
       <use xlink:href="#LucidaSansUnicode-49"/>
       <use x="63.232422" xlink:href="#LucidaSansUnicode-53"/>
       <use x="126.464844" xlink:href="#LucidaSansUnicode-46"/>
       <use x="158.105469" xlink:href="#LucidaSansUnicode-48"/>
      </g>
     </g>
    </g>
    <g id="ytick_8">
     <g id="text_13">
      <!-- 17.5 -->
      <g transform="translate(37.219375 32.174323)scale(0.06 -0.06)">
       <use xlink:href="#LucidaSansUnicode-49"/>
       <use x="63.232422" xlink:href="#LucidaSansUnicode-55"/>
       <use x="126.464844" xlink:href="#LucidaSansUnicode-46"/>
       <use x="158.105469" xlink:href="#LucidaSansUnicode-53"/>
      </g>
     </g>
    </g>
    <g id="text_14">
     <!-- elongation rate [AA / s] -->
     <defs>
      <path d="M 9.625 0 
L 9.625 77.09375 
L 19.234375 77.09375 
L 19.234375 0 
z
" id="LucidaSansUnicode-108"/>
      <path d="M 9.625 0 
L 9.625 53.03125 
L 19.234375 53.03125 
L 19.234375 43.0625 
Q 26.859375 54.203125 37.890625 54.203125 
Q 44.828125 54.203125 48.90625 49.828125 
Q 52.984375 45.453125 52.984375 38.09375 
L 52.984375 0 
L 43.359375 0 
L 43.359375 34.96875 
Q 43.359375 40.875 41.625 43.390625 
Q 39.890625 45.90625 35.890625 45.90625 
Q 27.046875 45.90625 19.234375 34.328125 
L 19.234375 0 
z
" id="LucidaSansUnicode-110"/>
      <path d="M 9.8125 -17.625 
L 10.9375 -9.28125 
Q 19.28125 -13.234375 27.4375 -13.234375 
Q 43.65625 -13.234375 43.65625 4 
L 43.65625 12.359375 
Q 41.15625 7.078125 36.546875 4.140625 
Q 31.9375 1.21875 26.265625 1.21875 
Q 16.65625 1.21875 11.03125 8.125 
Q 5.421875 15.046875 5.421875 26.859375 
Q 5.421875 38.96875 11.8125 46.578125 
Q 18.21875 54.203125 28.375 54.203125 
Q 37.25 54.203125 43.65625 46.96875 
L 43.65625 53.03125 
L 53.328125 53.03125 
L 53.328125 14.453125 
Q 53.328125 2 52.03125 -3.984375 
Q 50.734375 -9.96875 47.171875 -13.765625 
Q 40.875 -20.453125 27.484375 -20.453125 
Q 18.3125 -20.453125 9.8125 -17.625 
z
M 43.65625 18.359375 
L 43.65625 40.375 
Q 37.3125 46.96875 29.828125 46.96875 
Q 23.1875 46.96875 19.421875 41.640625 
Q 15.671875 36.328125 15.671875 26.90625 
Q 15.671875 9.625 27.9375 9.625 
Q 36.28125 9.625 43.65625 18.359375 
z
" id="LucidaSansUnicode-103"/>
      <path d="M 36.96875 6.734375 
Q 28.328125 -1.21875 20.3125 -1.21875 
Q 13.71875 -1.21875 9.375 2.90625 
Q 5.03125 7.03125 5.03125 13.328125 
Q 5.03125 22.015625 12.328125 26.671875 
Q 19.625 31.34375 33.296875 31.34375 
L 35.546875 31.34375 
L 35.546875 37.75 
Q 35.546875 46.96875 25.921875 46.96875 
Q 18.453125 46.96875 9.625 42.28125 
L 9.625 50.25 
Q 19.34375 54.203125 27.9375 54.203125 
Q 36.765625 54.203125 40.96875 50.171875 
Q 45.171875 46.140625 45.171875 37.75 
L 45.171875 13.71875 
Q 45.171875 5.46875 50.25 5.46875 
Q 50.875 5.46875 52.09375 5.671875 
L 52.78125 0.34375 
Q 49.515625 -1.21875 45.5625 -1.21875 
Q 38.8125 -1.21875 36.96875 6.734375 
z
M 35.546875 11.96875 
L 35.546875 25.6875 
L 32.46875 25.78125 
Q 24.46875 25.78125 19.5625 22.796875 
Q 14.65625 19.828125 14.65625 14.890625 
Q 14.65625 11.421875 17.09375 9.03125 
Q 19.53125 6.640625 23.046875 6.640625 
Q 29.046875 6.640625 35.546875 11.96875 
z
" id="LucidaSansUnicode-97"/>
      <path d="M 33.25 0 
Q 28.8125 -1.21875 25.53125 -1.21875 
Q 18.21875 -1.21875 14.109375 2.96875 
Q 10.015625 7.171875 10.015625 14.65625 
L 10.015625 45.796875 
L 3.375 45.796875 
L 3.375 53.03125 
L 10.015625 53.03125 
L 10.015625 62.640625 
L 19.625 63.578125 
L 19.625 53.03125 
L 33.5 53.03125 
L 33.5 45.796875 
L 19.625 45.796875 
L 19.625 16.40625 
Q 19.625 6 28.609375 6 
Q 30.515625 6 33.25 6.640625 
z
" id="LucidaSansUnicode-116"/>
      <path d="M 9.625 -14.453125 
L 9.625 77.09375 
L 28.90625 77.09375 
L 28.90625 69.875 
L 18.0625 69.875 
L 18.0625 -7.234375 
L 28.90625 -7.234375 
L 28.90625 -14.453125 
z
" id="LucidaSansUnicode-91"/>
      <path d="M 0.828125 0 
L 29.5 72.265625 
L 39.65625 72.265625 
L 67.875 0 
L 56.78125 0 
L 48.921875 20.015625 
L 18.3125 20.015625 
L 10.359375 0 
z
M 21.296875 27.640625 
L 45.953125 27.640625 
L 33.640625 58.796875 
z
" id="LucidaSansUnicode-65"/>
      <path d="M 10.84375 -14.453125 
L 36.53125 72.3125 
L 41.609375 72.3125 
L 15.921875 -14.453125 
z
" id="LucidaSansUnicode-47"/>
      <path d="M 22.90625 77.09375 
L 22.90625 -14.453125 
L 3.609375 -14.453125 
L 3.609375 -7.234375 
L 14.453125 -7.234375 
L 14.453125 69.875 
L 3.609375 69.875 
L 3.609375 77.09375 
z
" id="LucidaSansUnicode-93"/>
     </defs>
     <g style="fill:#262626;" transform="translate(31.992188 141.592969)rotate(-90)scale(0.06 -0.06)">
      <use xlink:href="#LucidaSansUnicode-101"/>
      <use x="55.712891" xlink:href="#LucidaSansUnicode-108"/>
      <use x="84.619141" xlink:href="#LucidaSansUnicode-111"/>
      <use x="146.044922" xlink:href="#LucidaSansUnicode-110"/>
      <use x="208.105469" xlink:href="#LucidaSansUnicode-103"/>
      <use x="270.458984" xlink:href="#LucidaSansUnicode-97"/>
      <use x="325.683594" xlink:href="#LucidaSansUnicode-116"/>
      <use x="363.085938" xlink:href="#LucidaSansUnicode-105"/>
      <use x="391.992188" xlink:href="#LucidaSansUnicode-111"/>
      <use x="453.417969" xlink:href="#LucidaSansUnicode-110"/>
      <use x="515.478516" xlink:href="#LucidaSansUnicode-32"/>
      <use x="547.119141" xlink:href="#LucidaSansUnicode-114"/>
      <use x="588.037109" xlink:href="#LucidaSansUnicode-97"/>
      <use x="643.261719" xlink:href="#LucidaSansUnicode-116"/>
      <use x="680.664062" xlink:href="#LucidaSansUnicode-101"/>
      <use x="736.376953" xlink:href="#LucidaSansUnicode-32"/>
      <use x="768.017578" xlink:href="#LucidaSansUnicode-91"/>
      <use x="800.537109" xlink:href="#LucidaSansUnicode-65"/>
      <use x="869.53125" xlink:href="#LucidaSansUnicode-65"/>
      <use x="938.525391" xlink:href="#LucidaSansUnicode-32"/>
      <use x="970.166016" xlink:href="#LucidaSansUnicode-47"/>
      <use x="1022.607422" xlink:href="#LucidaSansUnicode-32"/>
      <use x="1054.248047" xlink:href="#LucidaSansUnicode-115"/>
      <use x="1105.224609" xlink:href="#LucidaSansUnicode-93"/>
     </g>
    </g>
   </g>
   <g id="line2d_1">
    <path clip-path="url(#p5b9f5971a5)" d="M 54 95.495878 
L 56.544846 104.783431 
L 59.089693 113.100656 
L 61.634539 120.535105 
L 64.179386 127.173486 
L 66.724232 133.097229 
L 69.269079 138.381062 
L 71.813925 143.092775 
L 74.358772 147.293475 
L 76.903618 151.03804 
L 79.448465 154.375637 
L 81.993311 157.350248 
L 84.538157 160.00118 
L 87.083004 162.363532 
L 90.13682 164.861298 
L 93.190635 167.036229 
L 96.244451 168.92998 
L 99.298267 170.578855 
L 102.861052 172.235011 
L 106.423837 173.644039 
L 110.495591 174.998765 
L 114.567346 176.124987 
L 119.148069 177.166562 
L 124.237762 178.096264 
L 129.836424 178.899077 
L 136.453025 179.618938 
L 144.087565 180.220787 
L 153.249012 180.715196 
L 164.955306 181.110417 
L 180.733354 181.398637 
L 204.145941 181.578874 
L 206.181818 181.587273 
L 206.181818 181.587273 
" style="fill:none;stroke:#472d7b;stroke-linecap:round;"/>
   </g>
   <g id="line2d_2">
    <path clip-path="url(#p5b9f5971a5)" d="M 54 33.477662 
L 69.778048 33.708096 
L 77.412587 34.007332 
L 81.993311 34.388781 
L 84.538157 34.771535 
L 86.574035 35.274778 
L 88.100943 35.881155 
L 89.118881 36.484936 
L 90.13682 37.36164 
L 91.154758 38.684621 
L 92.172697 40.710027 
L 93.190635 43.683138 
L 94.208574 47.611489 
L 95.735482 54.658542 
L 100.825175 79.148954 
L 103.370021 90.073364 
L 105.914868 99.921878 
L 108.459714 108.753417 
L 111.004561 116.653031 
L 113.549407 123.709477 
L 116.094254 130.007725 
L 118.6391 135.626419 
L 121.183946 140.637211 
L 123.728793 145.104843 
L 126.273639 149.087534 
L 128.818486 152.637489 
L 131.363332 155.801435 
L 133.908179 158.621146 
L 136.453025 161.133935 
L 138.997872 163.373108 
L 142.051687 165.740564 
L 145.105503 167.80197 
L 148.159319 169.59683 
L 151.213135 171.159567 
L 154.77592 172.729173 
L 158.338705 174.064539 
L 162.410459 175.348416 
L 166.991183 176.535793 
L 172.080876 177.595631 
L 177.679538 178.510809 
L 183.787169 179.276667 
L 190.912739 179.939148 
L 199.565217 180.502631 
L 206.181818 180.806525 
L 206.181818 180.806525 
" style="fill:none;stroke:#3b528b;stroke-linecap:round;"/>
   </g>
   <g id="line2d_3">
    <path clip-path="url(#p5b9f5971a5)" d="M 54 33.343862 
L 106.932806 33.483952 
L 123.219824 33.722054 
L 130.854363 34.035891 
L 134.926117 34.410989 
L 137.470964 34.869273 
L 138.997872 35.346501 
L 140.01581 35.836435 
L 141.033749 36.578144 
L 142.051687 37.769696 
L 142.560657 38.634687 
L 143.069626 39.747275 
L 144.087565 42.86236 
L 145.105503 47.086935 
L 147.14138 57.155896 
L 150.704165 74.842389 
L 153.249012 86.262933 
L 155.793858 96.549546 
L 158.338705 105.765906 
L 160.883551 114.004058 
L 163.428398 121.35899 
L 165.973244 127.920911 
L 168.518091 133.772867 
L 171.062937 138.990249 
L 173.607784 143.641003 
L 176.15263 147.786122 
L 178.697476 151.480228 
L 181.242323 154.772159 
L 183.787169 157.705542 
L 186.332016 160.319322 
L 188.876862 162.648246 
L 191.930678 165.110342 
L 194.984494 167.253939 
L 198.03831 169.120201 
L 201.092125 170.744981 
L 204.65491 172.376786 
L 206.181818 172.999301 
L 206.181818 172.999301 
" style="fill:none;stroke:#2c728e;stroke-linecap:round;"/>
   </g>
   <g id="line2d_4">
    <path clip-path="url(#p5b9f5971a5)" d="M 54 33.332727 
L 166.482213 33.449757 
L 184.296139 33.631776 
L 188.876862 33.849103 
L 190.912739 34.115869 
L 191.930678 34.393725 
L 192.948617 34.95897 
L 193.457586 35.497612 
L 193.966555 36.392496 
L 194.475524 37.842737 
L 195.493463 42.431802 
L 201.601095 75.043552 
L 204.145941 86.62041 
L 206.181818 94.987045 
L 206.181818 94.987045 
" style="fill:none;stroke:#21918c;stroke-linecap:round;"/>
   </g>
   <g id="patch_3">
    <path d="M 54 189 
L 54 25.92 
" style="fill:none;stroke:#ffffff;stroke-linecap:square;stroke-linejoin:miter;stroke-width:0.8;"/>
   </g>
   <g id="patch_4">
    <path d="M 206.181818 189 
L 206.181818 25.92 
" style="fill:none;stroke:#ffffff;stroke-linecap:square;stroke-linejoin:miter;stroke-width:0.8;"/>
   </g>
   <g id="patch_5">
    <path d="M 54 189 
L 206.181818 189 
" style="fill:none;stroke:#ffffff;stroke-linecap:square;stroke-linejoin:miter;stroke-width:0.8;"/>
   </g>
   <g id="patch_6">
    <path d="M 54 25.92 
L 206.181818 25.92 
" style="fill:none;stroke:#ffffff;stroke-linecap:square;stroke-linejoin:miter;stroke-width:0.8;"/>
   </g>
  </g>
  <g id="axes_2">
   <g id="patch_7">
    <path d="M 236.618182 189 
L 388.8 189 
L 388.8 25.92 
L 236.618182 25.92 
z
" style="fill:#e3dcd0;"/>
   </g>
   <g id="matplotlib.axis_3">
    <g id="xtick_29">
     <g id="text_15">
      <!-- $\mathdefault{10^{3}}$ -->
      <g transform="translate(231.368182 197.125625)scale(0.06 -0.06)">
       <use transform="translate(0 0.023438)" xlink:href="#LucidaSansUnicode-49"/>
       <use transform="translate(63.232422 0.023438)" xlink:href="#LucidaSansUnicode-48"/>
       <use transform="translate(127.392891 37.145312)scale(0.7)" xlink:href="#LucidaSansUnicode-51"/>
      </g>
     </g>
    </g>
    <g id="xtick_30">
     <g id="text_16">
      <!-- $\mathdefault{10^{4}}$ -->
      <g transform="translate(282.095455 197.125625)scale(0.06 -0.06)">
       <use transform="translate(0 0.292188)" xlink:href="#LucidaSansUnicode-49"/>
       <use transform="translate(63.232422 0.292188)" xlink:href="#LucidaSansUnicode-48"/>
       <use transform="translate(127.392891 37.414063)scale(0.7)" xlink:href="#LucidaSansUnicode-52"/>
      </g>
     </g>
    </g>
    <g id="xtick_31">
     <g id="text_17">
      <!-- $\mathdefault{10^{5}}$ -->
      <g transform="translate(332.822727 197.125625)scale(0.06 -0.06)">
       <use transform="translate(0 0.292188)" xlink:href="#LucidaSansUnicode-49"/>
       <use transform="translate(63.232422 0.292188)" xlink:href="#LucidaSansUnicode-48"/>
       <use transform="translate(127.392891 37.414063)scale(0.7)" xlink:href="#LucidaSansUnicode-53"/>
      </g>
     </g>
    </g>
    <g id="xtick_32">
     <g id="text_18">
      <!-- $\mathdefault{10^{6}}$ -->
      <g transform="translate(383.55 197.125625)scale(0.06 -0.06)">
       <use transform="translate(0 0.990625)" xlink:href="#LucidaSansUnicode-49"/>
       <use transform="translate(63.232422 0.990625)" xlink:href="#LucidaSansUnicode-48"/>
       <use transform="translate(127.392891 38.1125)scale(0.7)" xlink:href="#LucidaSansUnicode-54"/>
      </g>
     </g>
    </g>
    <g id="xtick_33"/>
    <g id="xtick_34"/>
    <g id="xtick_35"/>
    <g id="xtick_36"/>
    <g id="xtick_37"/>
    <g id="xtick_38"/>
    <g id="xtick_39"/>
    <g id="xtick_40"/>
    <g id="xtick_41"/>
    <g id="xtick_42"/>
    <g id="xtick_43"/>
    <g id="xtick_44"/>
    <g id="xtick_45"/>
    <g id="xtick_46"/>
    <g id="xtick_47"/>
    <g id="xtick_48"/>
    <g id="xtick_49"/>
    <g id="xtick_50"/>
    <g id="xtick_51"/>
    <g id="xtick_52"/>
    <g id="xtick_53"/>
    <g id="xtick_54"/>
    <g id="xtick_55"/>
    <g id="xtick_56"/>
    <g id="text_19">
     <!-- ribosomes per µm$^{3}$ -->
     <g style="fill:#262626;" transform="translate(284.989091 207.3225)scale(0.06 -0.06)">
      <use transform="translate(0 0.446875)" xlink:href="#LucidaSansUnicode-114"/>
      <use transform="translate(40.917969 0.446875)" xlink:href="#LucidaSansUnicode-105"/>
      <use transform="translate(69.824219 0.446875)" xlink:href="#LucidaSansUnicode-98"/>
      <use transform="translate(132.763672 0.446875)" xlink:href="#LucidaSansUnicode-111"/>
      <use transform="translate(194.189453 0.446875)" xlink:href="#LucidaSansUnicode-115"/>
      <use transform="translate(245.166016 0.446875)" xlink:href="#LucidaSansUnicode-111"/>
      <use transform="translate(306.591797 0.446875)" xlink:href="#LucidaSansUnicode-109"/>
      <use transform="translate(399.951172 0.446875)" xlink:href="#LucidaSansUnicode-101"/>
      <use transform="translate(455.664062 0.446875)" xlink:href="#LucidaSansUnicode-115"/>
      <use transform="translate(506.640625 0.446875)" xlink:href="#LucidaSansUnicode-32"/>
      <use transform="translate(538.28125 0.446875)" xlink:href="#LucidaSansUnicode-112"/>
      <use transform="translate(601.220703 0.446875)" xlink:href="#LucidaSansUnicode-101"/>
      <use transform="translate(656.933594 0.446875)" xlink:href="#LucidaSansUnicode-114"/>
      <use transform="translate(697.851562 0.446875)" xlink:href="#LucidaSansUnicode-32"/>
      <use transform="translate(729.492188 0.446875)" xlink:href="#LucidaSansUnicode-181"/>
      <use transform="translate(792.138672 0.446875)" xlink:href="#LucidaSansUnicode-109"/>
      <use transform="translate(886.290742 36.684375)scale(0.7)" xlink:href="#STIXGeneral-Regular-120805"/>
     </g>
    </g>
   </g>
   <g id="matplotlib.axis_4">
    <g id="ytick_9">
     <g id="text_20">
      <!-- 0 -->
      <g transform="translate(229.324119 183.995499)scale(0.06 -0.06)">
       <use xlink:href="#LucidaSansUnicode-48"/>
      </g>
     </g>
    </g>
    <g id="ytick_10">
     <g id="text_21">
      <!-- 1 -->
      <g transform="translate(229.324119 161.732316)scale(0.06 -0.06)">
       <use xlink:href="#LucidaSansUnicode-49"/>
      </g>
     </g>
    </g>
    <g id="ytick_11">
     <g id="text_22">
      <!-- 2 -->
      <g transform="translate(229.324119 139.469133)scale(0.06 -0.06)">
       <use xlink:href="#LucidaSansUnicode-50"/>
      </g>
     </g>
    </g>
    <g id="ytick_12">
     <g id="text_23">
      <!-- 3 -->
      <g transform="translate(229.324119 117.20595)scale(0.06 -0.06)">
       <use xlink:href="#LucidaSansUnicode-51"/>
      </g>
     </g>
    </g>
    <g id="ytick_13">
     <g id="text_24">
      <!-- 4 -->
      <g transform="translate(229.324119 94.942767)scale(0.06 -0.06)">
       <use xlink:href="#LucidaSansUnicode-52"/>
      </g>
     </g>
    </g>
    <g id="ytick_14">
     <g id="text_25">
      <!-- 5 -->
      <g transform="translate(229.324119 72.679585)scale(0.06 -0.06)">
       <use xlink:href="#LucidaSansUnicode-53"/>
      </g>
     </g>
    </g>
    <g id="ytick_15">
     <g id="text_26">
      <!-- 6 -->
      <g transform="translate(229.324119 50.416402)scale(0.06 -0.06)">
       <use xlink:href="#LucidaSansUnicode-54"/>
      </g>
     </g>
    </g>
    <g id="ytick_16">
     <g id="text_27">
      <!-- 7 -->
      <g transform="translate(229.324119 28.153219)scale(0.06 -0.06)">
       <use xlink:href="#LucidaSansUnicode-55"/>
      </g>
     </g>
    </g>
    <g id="text_28">
     <!-- growth rate [hr$^{-1}$] -->
     <defs>
      <path d="M 15.765625 0 
L 0.59375 53.03125 
L 10.015625 53.03125 
L 21.625 11.96875 
L 34.1875 53.03125 
L 43.796875 53.03125 
L 54.78125 11.96875 
L 68.109375 53.03125 
L 76.375 53.03125 
L 59.078125 0 
L 49.421875 0 
L 38.1875 41.0625 
L 25.484375 0 
z
" id="LucidaSansUnicode-119"/>
      <path d="M 9.625 0 
L 9.625 77.09375 
L 19.234375 77.09375 
L 19.234375 43.0625 
Q 26.859375 54.203125 37.890625 54.203125 
Q 44.828125 54.203125 48.90625 49.828125 
Q 52.984375 45.453125 52.984375 38.09375 
L 52.984375 0 
L 43.359375 0 
L 43.359375 34.96875 
Q 43.359375 40.875 41.625 43.390625 
Q 39.890625 45.90625 35.890625 45.90625 
Q 27.046875 45.90625 19.234375 34.328125 
L 19.234375 0 
z
" id="LucidaSansUnicode-104"/>
      <path d="M 62.09375 22 
L 6.40625 22 
L 6.40625 28.59375 
L 62.09375 28.59375 
z
" id="STIXGeneral-Regular-8722"/>
      <path d="M 30.203125 0 
L 22.296875 0 
L 22.296875 57 
Q 20.09375 56 15.75 53.75 
Q 11.40625 51.5 10.796875 51.203125 
L 10.796875 58.5 
L 28.796875 67.703125 
L 30.203125 67.203125 
z
" id="STIXGeneral-Regular-120803"/>
     </defs>
     <g style="fill:#262626;" transform="translate(224.064119 132.9)rotate(-90)scale(0.06 -0.06)">
      <use transform="translate(0 0.370312)" xlink:href="#LucidaSansUnicode-103"/>
      <use transform="translate(62.353516 0.370312)" xlink:href="#LucidaSansUnicode-114"/>
      <use transform="translate(103.271484 0.370312)" xlink:href="#LucidaSansUnicode-111"/>
      <use transform="translate(164.697266 0.370312)" xlink:href="#LucidaSansUnicode-119"/>
      <use transform="translate(241.748047 0.370312)" xlink:href="#LucidaSansUnicode-116"/>
      <use transform="translate(279.150391 0.370312)" xlink:href="#LucidaSansUnicode-104"/>
      <use transform="translate(341.210938 0.370312)" xlink:href="#LucidaSansUnicode-32"/>
      <use transform="translate(372.851562 0.370312)" xlink:href="#LucidaSansUnicode-114"/>
      <use transform="translate(413.769531 0.370312)" xlink:href="#LucidaSansUnicode-97"/>
      <use transform="translate(468.994141 0.370312)" xlink:href="#LucidaSansUnicode-116"/>
      <use transform="translate(506.396484 0.370312)" xlink:href="#LucidaSansUnicode-101"/>
      <use transform="translate(562.109375 0.370312)" xlink:href="#LucidaSansUnicode-32"/>
      <use transform="translate(593.75 0.370312)" xlink:href="#LucidaSansUnicode-91"/>
      <use transform="translate(626.269531 0.370312)" xlink:href="#LucidaSansUnicode-104"/>
      <use transform="translate(688.330078 0.370312)" xlink:href="#LucidaSansUnicode-114"/>
      <use transform="translate(730.040742 36.607813)scale(0.7)" xlink:href="#STIXGeneral-Regular-8722"/>
      <use transform="translate(777.990732 36.607813)scale(0.7)" xlink:href="#STIXGeneral-Regular-120803"/>
      <use transform="translate(815.255565 0.370312)" xlink:href="#LucidaSansUnicode-93"/>
     </g>
    </g>
   </g>
   <g id="line2d_5">
    <path clip-path="url(#p4034ce9d73)" d="M 236.618182 180.805341 
L 298.203466 180.899182 
L 335.358224 181.169934 
L 388.291031 181.585287 
L 388.8 181.587273 
L 388.8 181.587273 
" style="fill:none;stroke:#472d7b;stroke-linecap:round;"/>
   </g>
   <g id="line2d_6">
    <path clip-path="url(#p4034ce9d73)" d="M 236.618182 180.173958 
L 244.76169 179.508519 
L 251.378291 178.761445 
L 257.485923 177.852882 
L 263.084585 176.786339 
L 268.174278 175.58834 
L 275.808817 173.686591 
L 277.844694 173.491921 
L 281.407479 173.42582 
L 289.042019 173.554768 
L 300.748313 173.974943 
L 311.945637 174.590744 
L 323.142961 175.428051 
L 336.376163 176.656833 
L 362.842566 179.184885 
L 374.039891 179.991073 
L 385.746184 180.603875 
L 388.8 180.728553 
L 388.8 180.728553 
" style="fill:none;stroke:#3b528b;stroke-linecap:round;"/>
   </g>
   <g id="line2d_7">
    <path clip-path="url(#p4034ce9d73)" d="M 236.618182 180.172596 
L 244.76169 179.50538 
L 251.378291 178.754987 
L 257.485923 177.839541 
L 262.575616 176.867334 
L 267.156339 175.79069 
L 271.737063 174.483195 
L 275.808817 173.091201 
L 279.880572 171.446011 
L 283.443357 169.767856 
L 287.006142 167.837094 
L 290.568927 165.623508 
L 293.622742 163.477432 
L 296.676558 161.081039 
L 299.730374 158.415352 
L 302.78419 155.462895 
L 305.838005 152.208809 
L 308.891821 148.642404 
L 311.945637 144.759547 
L 315.508422 139.839888 
L 319.580176 133.777384 
L 323.651931 127.670645 
L 324.669869 126.371377 
L 325.687808 125.382493 
L 326.196777 125.062689 
L 326.705746 124.879235 
L 327.214716 124.829043 
L 328.232654 125.056404 
L 329.250593 125.577773 
L 330.777501 126.652958 
L 333.322347 128.804737 
L 337.394102 132.62634 
L 345.028641 140.191514 
L 352.66318 147.668325 
L 357.752873 152.365125 
L 362.333597 156.295142 
L 366.405351 159.510111 
L 370.477106 162.441812 
L 374.54886 165.082562 
L 378.620614 167.435115 
L 382.692369 169.510435 
L 386.764123 171.325406 
L 388.8 172.141629 
L 388.8 172.141629 
" style="fill:none;stroke:#2c728e;stroke-linecap:round;"/>
   </g>
   <g id="line2d_8">
    <path clip-path="url(#p4034ce9d73)" d="M 236.618182 180.172482 
L 244.76169 179.505142 
L 251.378291 178.754553 
L 257.485923 177.838784 
L 262.575616 176.86613 
L 267.156339 175.78886 
L 271.737063 174.480411 
L 275.808817 173.087154 
L 279.880572 171.44012 
L 283.443357 169.759658 
L 287.006142 167.825661 
L 290.568927 165.607514 
L 293.622742 163.456033 
L 296.676558 161.052288 
L 299.730374 158.376501 
L 302.78419 155.40998 
L 305.838005 152.135935 
L 308.891821 148.540427 
L 311.945637 144.613413 
L 314.999453 140.349846 
L 318.562238 134.9521 
L 322.125023 129.111967 
L 325.687808 122.858235 
L 329.759562 115.262462 
L 334.849255 105.231658 
L 341.974825 90.608601 
L 350.627303 72.919959 
L 355.716996 63.046485 
L 359.78875 55.625336 
L 363.351535 49.559742 
L 366.91432 43.949544 
L 369.968136 39.553618 
L 372.512983 36.262556 
L 374.039891 34.559208 
L 375.057829 33.675084 
L 375.566798 33.396542 
L 376.075768 33.332727 
L 376.584737 33.645394 
L 377.093706 34.542412 
L 377.602676 36.095716 
L 378.620614 40.45147 
L 385.237215 71.735154 
L 387.782061 82.345106 
L 388.8 86.338369 
L 388.8 86.338369 
" style="fill:none;stroke:#21918c;stroke-linecap:round;"/>
   </g>
   <g id="patch_8">
    <path d="M 236.618182 189 
L 236.618182 25.92 
" style="fill:none;stroke:#ffffff;stroke-linecap:square;stroke-linejoin:miter;stroke-width:0.8;"/>
   </g>
   <g id="patch_9">
    <path d="M 388.8 189 
L 388.8 25.92 
" style="fill:none;stroke:#ffffff;stroke-linecap:square;stroke-linejoin:miter;stroke-width:0.8;"/>
   </g>
   <g id="patch_10">
    <path d="M 236.618182 189 
L 388.8 189 
" style="fill:none;stroke:#ffffff;stroke-linecap:square;stroke-linejoin:miter;stroke-width:0.8;"/>
   </g>
   <g id="patch_11">
    <path d="M 236.618182 25.92 
L 388.8 25.92 
" style="fill:none;stroke:#ffffff;stroke-linecap:square;stroke-linejoin:miter;stroke-width:0.8;"/>
   </g>
   <g id="legend_1">
    <g id="patch_12">
     <path d="M 240.818182 75.48 
L 288.398182 75.48 
Q 289.598182 75.48 289.598182 74.28 
L 289.598182 30.12 
Q 289.598182 28.92 288.398182 28.92 
L 240.818182 28.92 
Q 239.618182 28.92 239.618182 30.12 
L 239.618182 74.28 
Q 239.618182 75.48 240.818182 75.48 
z
" style="fill:#e3dcd0;opacity:0.8;stroke:#cccccc;stroke-linejoin:miter;"/>
    </g>
    <g id="text_29">
     <!-- r$_AA$ [AA/s•µm$^3$] -->
     <defs>
      <path d="M 63.5 0 
L 53.90625 0 
L 50.59375 20 
L 25.703125 20 
L 12.703125 0 
L 3.09375 0 
L 48.796875 67.40625 
L 51.40625 67.40625 
z
M 49.5 27.40625 
L 45.796875 50.296875 
L 30.703125 27.40625 
z
" id="STIXGeneral-Italic-120328"/>
      <path d="M 31.640625 19.578125 
Q 27.875 19.578125 25.234375 22.21875 
Q 22.609375 24.859375 22.609375 28.609375 
Q 22.609375 32.375 25.234375 35 
Q 27.875 37.640625 31.640625 37.640625 
Q 35.40625 37.640625 38.03125 35 
Q 40.671875 32.375 40.671875 28.609375 
Q 40.671875 24.859375 38.03125 22.21875 
Q 35.40625 19.578125 31.640625 19.578125 
z
" id="LucidaSansUnicode-8226"/>
     </defs>
     <g style="fill:#262626;" transform="translate(242.018182 36.36)scale(0.06 -0.06)">
      <use transform="translate(0 0.446875)" xlink:href="#LucidaSansUnicode-114"/>
      <use transform="translate(41.710664 -13.142187)scale(0.7)" xlink:href="#STIXGeneral-Italic-120328"/>
      <use transform="translate(90.595501 0.446875)" xlink:href="#STIXGeneral-Italic-120328"/>
      <use transform="translate(157.195492 0.446875)" xlink:href="#LucidaSansUnicode-32"/>
      <use transform="translate(188.836117 0.446875)" xlink:href="#LucidaSansUnicode-91"/>
      <use transform="translate(221.355648 0.446875)" xlink:href="#LucidaSansUnicode-65"/>
      <use transform="translate(290.349789 0.446875)" xlink:href="#LucidaSansUnicode-65"/>
      <use transform="translate(359.34393 0.446875)" xlink:href="#LucidaSansUnicode-47"/>
      <use transform="translate(411.785336 0.446875)" xlink:href="#LucidaSansUnicode-115"/>
      <use transform="translate(462.761898 0.446875)" xlink:href="#LucidaSansUnicode-8226"/>
      <use transform="translate(525.99432 0.446875)" xlink:href="#LucidaSansUnicode-181"/>
      <use transform="translate(588.640805 0.446875)" xlink:href="#LucidaSansUnicode-109"/>
      <use transform="translate(682.792875 36.684375)scale(0.7)" xlink:href="#STIXGeneral-Regular-120805"/>
      <use transform="translate(720.057708 0.446875)" xlink:href="#LucidaSansUnicode-93"/>
     </g>
    </g>
    <g id="line2d_9">
     <path d="M 243.098182 43.183125 
L 255.098182 43.183125 
" style="fill:none;stroke:#472d7b;stroke-linecap:round;"/>
    </g>
    <g id="line2d_10"/>
    <g id="text_30">
     <!-- $r_{AA}$ = 10$^{4}$ -->
     <defs>
      <path d="M 43.90625 44.703125 
L 42.09375 37.703125 
L 40.09375 37.703125 
Q 39.796875 38.40625 38.59375 38.796875 
Q 37.40625 39.203125 36.59375 39.203125 
Q 32.296875 39.203125 27.890625 35 
Q 23.5 30.796875 20 23.40625 
L 14.203125 0 
L 6.296875 0 
L 17.203125 44 
L 24.796875 46.40625 
L 25.59375 45.90625 
L 24.203125 39.5 
Q 30.59375 46.296875 38.59375 46.296875 
Q 42.296875 46.296875 43.90625 44.703125 
z
" id="STIXGeneral-Italic-120371"/>
      <path d="M 10.84375 17.484375 
L 10.84375 22.265625 
L 68.65625 22.265625 
L 68.65625 17.484375 
z
M 10.84375 35.546875 
L 10.84375 40.375 
L 68.65625 40.375 
L 68.65625 35.546875 
z
" id="LucidaSansUnicode-61"/>
      <path d="M 48.90625 23.59375 
L 45.59375 16.5 
L 37.296875 16.5 
L 37.296875 0 
L 29.40625 0 
L 29.40625 16.5 
L 1.09375 16.5 
L 1.09375 23.296875 
L 32.296875 67.59375 
L 37.296875 67.59375 
L 37.296875 23.59375 
z
M 29.40625 23.59375 
L 29.40625 51 
L 10 23.59375 
z
" id="STIXGeneral-Regular-120806"/>
     </defs>
     <g style="fill:#262626;" transform="translate(259.898182 45.283125)scale(0.06 -0.06)">
      <use transform="translate(0 0.446875)" xlink:href="#STIXGeneral-Italic-120371"/>
      <use transform="translate(33.599991 -13.142187)scale(0.7)" xlink:href="#STIXGeneral-Italic-120328"/>
      <use transform="translate(80.219984 -13.142187)scale(0.7)" xlink:href="#STIXGeneral-Italic-120328"/>
      <use transform="translate(129.104822 0.446875)" xlink:href="#LucidaSansUnicode-32"/>
      <use transform="translate(160.745447 0.446875)" xlink:href="#LucidaSansUnicode-61"/>
      <use transform="translate(240.237634 0.446875)" xlink:href="#LucidaSansUnicode-32"/>
      <use transform="translate(271.878259 0.446875)" xlink:href="#LucidaSansUnicode-49"/>
      <use transform="translate(335.110681 0.446875)" xlink:href="#LucidaSansUnicode-48"/>
      <use transform="translate(399.135798 36.684375)scale(0.7)" xlink:href="#STIXGeneral-Regular-120806"/>
     </g>
    </g>
    <g id="line2d_11">
     <path d="M 243.098182 52.063125 
L 255.098182 52.063125 
" style="fill:none;stroke:#3b528b;stroke-linecap:round;"/>
    </g>
    <g id="line2d_12"/>
    <g id="text_31">
     <!-- $r_{AA}$ = 10$^{5}$ -->
     <defs>
      <path d="M 45.796875 67.59375 
L 42.59375 60.5 
L 24.90625 60.5 
L 18.5 47.796875 
Q 29.90625 46.203125 37.25 39.75 
Q 44.59375 33.296875 44.59375 22.59375 
Q 44.59375 12.703125 37.84375 5.640625 
Q 31.09375 -1.40625 21 -1.40625 
Q 10 -1.40625 3.59375 5.59375 
L 8.296875 11.203125 
Q 13.40625 5.703125 20.5 5.703125 
Q 27.90625 5.703125 32.296875 10.75 
Q 36.703125 15.796875 36.703125 22.59375 
Q 36.703125 30 30.09375 35.203125 
Q 23.40625 40.703125 9.40625 40.703125 
L 8 42.40625 
L 19.59375 67.59375 
z
" id="STIXGeneral-Regular-120807"/>
     </defs>
     <g style="fill:#262626;" transform="translate(259.898182 54.163125)scale(0.06 -0.06)">
      <use transform="translate(0 0.446875)" xlink:href="#STIXGeneral-Italic-120371"/>
      <use transform="translate(33.599991 -13.142187)scale(0.7)" xlink:href="#STIXGeneral-Italic-120328"/>
      <use transform="translate(80.219984 -13.142187)scale(0.7)" xlink:href="#STIXGeneral-Italic-120328"/>
      <use transform="translate(129.104822 0.446875)" xlink:href="#LucidaSansUnicode-32"/>
      <use transform="translate(160.745447 0.446875)" xlink:href="#LucidaSansUnicode-61"/>
      <use transform="translate(240.237634 0.446875)" xlink:href="#LucidaSansUnicode-32"/>
      <use transform="translate(271.878259 0.446875)" xlink:href="#LucidaSansUnicode-49"/>
      <use transform="translate(335.110681 0.446875)" xlink:href="#LucidaSansUnicode-48"/>
      <use transform="translate(399.135798 36.684375)scale(0.7)" xlink:href="#STIXGeneral-Regular-120807"/>
     </g>
    </g>
    <g id="line2d_13">
     <path d="M 243.098182 61.003125 
L 255.098182 61.003125 
" style="fill:none;stroke:#2c728e;stroke-linecap:round;"/>
    </g>
    <g id="line2d_14"/>
    <g id="text_32">
     <!-- $r_{AA}$ = 10$^{6}$ -->
     <defs>
      <path d="M 44.796875 66.796875 
L 43 61.5 
Q 31.59375 60.703125 23.640625 54.953125 
Q 15.703125 49.203125 12.203125 38.796875 
Q 18.09375 43.09375 25.90625 43.09375 
Q 34.5 43.09375 40.75 37.296875 
Q 47 31.5 47 22 
Q 47 12.296875 40.953125 5.4375 
Q 34.90625 -1.40625 25.703125 -1.40625 
Q 18 -1.40625 12.75 2.640625 
Q 7.5 6.703125 5.34375 12.75 
Q 3.203125 18.796875 3.203125 26.40625 
Q 3.203125 34.90625 6.203125 43.046875 
Q 9.203125 51.203125 14.296875 56.203125 
Q 21 62.796875 27.09375 65.046875 
Q 33.203125 67.296875 44.703125 68.40625 
z
M 39 20.703125 
Q 39 27.90625 34.890625 31.953125 
Q 30.796875 36 25.09375 36 
Q 19.90625 36 16 32.953125 
Q 12.09375 29.90625 11.203125 24 
Q 11.203125 15.90625 15.203125 10.796875 
Q 19.203125 5.703125 26 5.703125 
Q 31.5 5.703125 35.25 9.953125 
Q 39 14.203125 39 20.703125 
z
" id="STIXGeneral-Regular-120808"/>
     </defs>
     <g style="fill:#262626;" transform="translate(259.898182 63.103125)scale(0.06 -0.06)">
      <use transform="translate(0 0.878125)" xlink:href="#STIXGeneral-Italic-120371"/>
      <use transform="translate(33.599991 -12.710938)scale(0.7)" xlink:href="#STIXGeneral-Italic-120328"/>
      <use transform="translate(80.219984 -12.710938)scale(0.7)" xlink:href="#STIXGeneral-Italic-120328"/>
      <use transform="translate(129.104822 0.878125)" xlink:href="#LucidaSansUnicode-32"/>
      <use transform="translate(160.745447 0.878125)" xlink:href="#LucidaSansUnicode-61"/>
      <use transform="translate(240.237634 0.878125)" xlink:href="#LucidaSansUnicode-32"/>
      <use transform="translate(271.878259 0.878125)" xlink:href="#LucidaSansUnicode-49"/>
      <use transform="translate(335.110681 0.878125)" xlink:href="#LucidaSansUnicode-48"/>
      <use transform="translate(399.135798 37.115625)scale(0.7)" xlink:href="#STIXGeneral-Regular-120808"/>
     </g>
    </g>
    <g id="line2d_15">
     <path d="M 243.098182 69.823125 
L 255.098182 69.823125 
" style="fill:none;stroke:#21918c;stroke-linecap:round;"/>
    </g>
    <g id="line2d_16"/>
    <g id="text_33">
     <!-- $r_{AA}$ = 10$^{7}$ -->
     <defs>
      <path d="M 45.09375 64.203125 
L 23 -0.796875 
L 14.796875 -0.796875 
L 35.40625 59.09375 
L 3.796875 59.09375 
L 6.90625 66.203125 
L 45.09375 66.203125 
z
" id="STIXGeneral-Regular-120809"/>
     </defs>
     <g style="fill:#262626;" transform="translate(259.898182 71.923125)scale(0.06 -0.06)">
      <use transform="translate(0 0.420312)" xlink:href="#STIXGeneral-Italic-120371"/>
      <use transform="translate(33.599991 -13.16875)scale(0.7)" xlink:href="#STIXGeneral-Italic-120328"/>
      <use transform="translate(80.219984 -13.16875)scale(0.7)" xlink:href="#STIXGeneral-Italic-120328"/>
      <use transform="translate(129.104822 0.420312)" xlink:href="#LucidaSansUnicode-32"/>
      <use transform="translate(160.745447 0.420312)" xlink:href="#LucidaSansUnicode-61"/>
      <use transform="translate(240.237634 0.420312)" xlink:href="#LucidaSansUnicode-32"/>
      <use transform="translate(271.878259 0.420312)" xlink:href="#LucidaSansUnicode-49"/>
      <use transform="translate(335.110681 0.420312)" xlink:href="#LucidaSansUnicode-48"/>
      <use transform="translate(399.135798 36.657812)scale(0.7)" xlink:href="#STIXGeneral-Regular-120809"/>
     </g>
    </g>
   </g>
  </g>
 </g>
 <defs>
  <clipPath id="p5b9f5971a5">
   <rect height="163.08" width="152.181818" x="54" y="25.92"/>
  </clipPath>
  <clipPath id="p4034ce9d73">
   <rect height="163.08" width="152.181818" x="236.618182" y="25.92"/>
  </clipPath>
 </defs>
</svg>
