<?xml version="1.0" encoding="utf-8" standalone="no"?>
<!DOCTYPE svg PUBLIC "-//W3C//DTD SVG 1.1//EN"
  "http://www.w3.org/Graphics/SVG/1.1/DTD/svg11.dtd">
<!-- Created with matplotlib (https://matplotlib.org/) -->
<svg height="216pt" version="1.1" viewBox="0 0 432 216" width="432pt" xmlns="http://www.w3.org/2000/svg" xmlns:xlink="http://www.w3.org/1999/xlink">
 <defs>
  <style type="text/css">
*{stroke-linecap:butt;stroke-linejoin:round;}
  </style>
 </defs>
 <g id="figure_1">
  <g id="patch_1">
   <path d="M 0 216 
L 432 216 
L 432 0 
L 0 0 
z
" style="fill:#ffffff;"/>
  </g>
  <g id="axes_1">
   <g id="patch_2">
    <path d="M 54 189 
L 206.181818 189 
L 206.181818 25.92 
L 54 25.92 
z
" style="fill:#e3dcd0;"/>
   </g>
   <g id="matplotlib.axis_1">
    <g id="xtick_1">
     <g id="text_1">
      <!-- $\mathdefault{10^{3}}$ -->
      <defs>
       <path d="M 26.171875 0 
L 26.171875 65.046875 
L 14.75 65.046875 
L 14.75 71.09375 
L 35.84375 72.90625 
L 35.84375 0 
z
" id="LucidaSansUnicode-49"/>
       <path d="M 31.640625 -1.8125 
Q 20.265625 -1.8125 13.296875 8.609375 
Q 6.34375 19.046875 6.34375 36.140625 
Q 6.34375 53.21875 13.296875 63.640625 
Q 20.265625 74.078125 31.640625 74.078125 
Q 43.0625 74.078125 50 63.671875 
Q 56.9375 53.265625 56.9375 36.140625 
Q 56.9375 19.046875 50 8.609375 
Q 43.0625 -1.8125 31.640625 -1.8125 
z
M 31.640625 5.421875 
Q 46.734375 5.421875 46.734375 36.140625 
Q 46.734375 66.84375 31.640625 66.84375 
Q 16.609375 66.84375 16.609375 36.140625 
Q 16.609375 5.421875 31.640625 5.421875 
z
" id="LucidaSansUnicode-48"/>
       <path d="M 10.15625 0.53125 
L 10.15625 9.515625 
Q 20.453125 5.421875 26.375 5.421875 
Q 33.34375 5.421875 37.671875 9.421875 
Q 42 13.421875 42 19.875 
Q 42 35.109375 20.65625 35.109375 
L 16.84375 35.109375 
L 16.84375 41.609375 
L 20.21875 41.65625 
Q 40.234375 41.65625 40.234375 55.765625 
Q 40.234375 66.84375 26.953125 66.84375 
Q 19.828125 66.84375 11.140625 62.796875 
L 11.140625 71.1875 
Q 19.671875 74.078125 27.59375 74.078125 
Q 38.375 74.078125 44.140625 69.78125 
Q 49.90625 65.484375 49.90625 57.328125 
Q 49.90625 44.578125 34.8125 39.15625 
Q 52.296875 35.109375 52.296875 20.015625 
Q 52.296875 9.8125 45.546875 4 
Q 38.8125 -1.8125 27.046875 -1.8125 
Q 20.359375 -1.8125 10.15625 0.53125 
z
" id="LucidaSansUnicode-51"/>
      </defs>
      <g transform="translate(48.75 197.125625)scale(0.06 -0.06)">
       <use transform="translate(0 0.023438)" xlink:href="#LucidaSansUnicode-49"/>
       <use transform="translate(63.232422 0.023438)" xlink:href="#LucidaSansUnicode-48"/>
       <use transform="translate(127.392891 37.145312)scale(0.7)" xlink:href="#LucidaSansUnicode-51"/>
      </g>
     </g>
    </g>
    <g id="xtick_2">
     <g id="text_2">
      <!-- $\mathdefault{10^{4}}$ -->
      <defs>
       <path d="M 37.640625 0 
L 37.640625 20.453125 
L 5.125 20.453125 
L 5.125 27.734375 
L 37.640625 72.265625 
L 46.6875 72.265625 
L 46.6875 28.328125 
L 56.34375 28.328125 
L 56.34375 20.453125 
L 46.6875 20.453125 
L 46.6875 0 
z
M 14.546875 28.328125 
L 38.28125 28.328125 
L 38.28125 60.453125 
z
" id="LucidaSansUnicode-52"/>
      </defs>
      <g transform="translate(99.477273 197.125625)scale(0.06 -0.06)">
       <use transform="translate(0 0.292188)" xlink:href="#LucidaSansUnicode-49"/>
       <use transform="translate(63.232422 0.292188)" xlink:href="#LucidaSansUnicode-48"/>
       <use transform="translate(127.392891 37.414063)scale(0.7)" xlink:href="#LucidaSansUnicode-52"/>
      </g>
     </g>
    </g>
    <g id="xtick_3">
     <g id="text_3">
      <!-- $\mathdefault{10^{5}}$ -->
      <defs>
       <path d="M 12.15625 -0.296875 
L 12.15625 8.296875 
Q 19.34375 5.421875 25.828125 5.421875 
Q 32.953125 5.421875 37.03125 9.609375 
Q 41.109375 13.8125 41.109375 21.1875 
Q 41.109375 29.109375 35.34375 33.28125 
Q 29.59375 37.453125 18.703125 37.453125 
Q 16.15625 37.453125 13.375 37.109375 
L 13.375 72.265625 
L 49.953125 72.265625 
L 49.953125 63.875 
L 21.828125 63.875 
L 21.828125 44.828125 
Q 35.75 44.828125 43.5625 38.421875 
Q 51.375 32.03125 51.375 20.703125 
Q 51.375 10.15625 44.265625 4.171875 
Q 37.15625 -1.8125 24.65625 -1.8125 
Q 19.09375 -1.8125 12.15625 -0.296875 
z
" id="LucidaSansUnicode-53"/>
      </defs>
      <g transform="translate(150.204545 197.125625)scale(0.06 -0.06)">
       <use transform="translate(0 0.292188)" xlink:href="#LucidaSansUnicode-49"/>
       <use transform="translate(63.232422 0.292188)" xlink:href="#LucidaSansUnicode-48"/>
       <use transform="translate(127.392891 37.414063)scale(0.7)" xlink:href="#LucidaSansUnicode-53"/>
      </g>
     </g>
    </g>
    <g id="xtick_4">
     <g id="text_4">
      <!-- $\mathdefault{10^{6}}$ -->
      <defs>
       <path d="M 17.1875 37.453125 
Q 24.078125 46.390625 34.515625 46.390625 
Q 44 46.390625 50.03125 40.109375 
Q 56.0625 33.84375 56.0625 24.03125 
Q 56.0625 12.75 49.296875 5.46875 
Q 42.53125 -1.8125 32.078125 -1.8125 
Q 20.171875 -1.8125 13.421875 7.828125 
Q 6.6875 17.484375 6.6875 34.515625 
Q 6.6875 57.46875 18.453125 68.21875 
Q 24.859375 74.125 36.140625 74.125 
Q 42.671875 74.125 52.34375 71.390625 
L 52.34375 62.984375 
Q 42.140625 66.890625 35.546875 66.890625 
Q 17.1875 66.890625 17.1875 37.453125 
z
M 46.390625 22.125 
Q 46.390625 30.125 42.671875 34.78125 
Q 38.96875 39.453125 32.515625 39.453125 
Q 26.375 39.453125 21.96875 35.34375 
Q 17.578125 31.25 17.578125 25.484375 
Q 17.578125 16.40625 21.75 10.90625 
Q 25.921875 5.421875 32.8125 5.421875 
Q 39.0625 5.421875 42.71875 9.90625 
Q 46.390625 14.40625 46.390625 22.125 
z
" id="LucidaSansUnicode-54"/>
      </defs>
      <g transform="translate(200.931818 197.125625)scale(0.06 -0.06)">
       <use transform="translate(0 0.990625)" xlink:href="#LucidaSansUnicode-49"/>
       <use transform="translate(63.232422 0.990625)" xlink:href="#LucidaSansUnicode-48"/>
       <use transform="translate(127.392891 38.1125)scale(0.7)" xlink:href="#LucidaSansUnicode-54"/>
      </g>
     </g>
    </g>
    <g id="xtick_5"/>
    <g id="xtick_6"/>
    <g id="xtick_7"/>
    <g id="xtick_8"/>
    <g id="xtick_9"/>
    <g id="xtick_10"/>
    <g id="xtick_11"/>
    <g id="xtick_12"/>
    <g id="xtick_13"/>
    <g id="xtick_14"/>
    <g id="xtick_15"/>
    <g id="xtick_16"/>
    <g id="xtick_17"/>
    <g id="xtick_18"/>
    <g id="xtick_19"/>
    <g id="xtick_20"/>
    <g id="xtick_21"/>
    <g id="xtick_22"/>
    <g id="xtick_23"/>
    <g id="xtick_24"/>
    <g id="xtick_25"/>
    <g id="xtick_26"/>
    <g id="xtick_27"/>
    <g id="xtick_28"/>
    <g id="text_5">
     <!-- ribosomes per µm$^{3}$ -->
     <defs>
      <path d="M 9.625 0 
L 9.625 53.03125 
L 19.234375 53.03125 
L 19.234375 43.0625 
Q 24.953125 54.203125 35.84375 54.203125 
Q 37.3125 54.203125 38.921875 53.953125 
L 38.921875 44.96875 
Q 36.421875 45.796875 34.515625 45.796875 
Q 25.390625 45.796875 19.234375 34.96875 
L 19.234375 0 
z
" id="LucidaSansUnicode-114"/>
      <path d="M 9.625 0 
L 9.625 53.03125 
L 19.234375 53.03125 
L 19.234375 0 
z
M 9.625 62.640625 
L 9.625 72.265625 
L 19.234375 72.265625 
L 19.234375 62.640625 
z
" id="LucidaSansUnicode-105"/>
      <path d="M 9.625 -0.59375 
L 9.625 77.09375 
L 19.234375 77.09375 
L 19.234375 43.0625 
Q 25.140625 54.203125 36.96875 54.203125 
Q 46.53125 54.203125 52.015625 47.21875 
Q 57.515625 40.234375 57.515625 28.125 
Q 57.515625 14.9375 51.28125 6.859375 
Q 45.0625 -1.21875 34.90625 -1.21875 
Q 25.484375 -1.21875 19.234375 6 
L 18.0625 -0.59375 
z
M 19.234375 12.640625 
Q 26.65625 6 33.40625 6 
Q 40.046875 6 43.65625 11.546875 
Q 47.265625 17.09375 47.265625 27.15625 
Q 47.265625 45.796875 34.96875 45.796875 
Q 26.90625 45.796875 19.234375 37.0625 
z
" id="LucidaSansUnicode-98"/>
      <path d="M 30.71875 -1.21875 
Q 19.046875 -1.21875 12.234375 6.25 
Q 5.421875 13.71875 5.421875 26.515625 
Q 5.421875 39.3125 12.234375 46.75 
Q 19.046875 54.203125 30.71875 54.203125 
Q 42.390625 54.203125 49.1875 46.75 
Q 56 39.3125 56 26.515625 
Q 56 13.71875 49.1875 6.25 
Q 42.390625 -1.21875 30.71875 -1.21875 
z
M 30.71875 6 
Q 37.890625 6 41.84375 11.375 
Q 45.796875 16.75 45.796875 26.515625 
Q 45.796875 36.28125 41.84375 41.625 
Q 37.890625 46.96875 30.71875 46.96875 
Q 23.53125 46.96875 19.59375 41.625 
Q 15.671875 36.28125 15.671875 26.515625 
Q 15.671875 16.75 19.59375 11.375 
Q 23.53125 6 30.71875 6 
z
" id="LucidaSansUnicode-111"/>
      <path d="M 7.671875 1.859375 
L 7.671875 10.6875 
Q 17.09375 6 24.078125 6 
Q 28.21875 6 30.953125 8.25 
Q 33.6875 10.5 33.6875 13.875 
Q 33.6875 18.796875 26.03125 22.015625 
L 20.40625 24.421875 
Q 7.953125 29.59375 7.953125 39.3125 
Q 7.953125 46.234375 12.859375 50.21875 
Q 17.78125 54.203125 26.3125 54.203125 
Q 30.765625 54.203125 37.3125 52.984375 
L 39.3125 52.59375 
L 39.3125 44.578125 
Q 31.25 46.96875 26.46875 46.96875 
Q 22.265625 46.96875 19.75 45.140625 
Q 17.234375 43.3125 17.234375 40.234375 
Q 17.234375 35.890625 24.265625 32.90625 
L 28.90625 30.953125 
Q 36.765625 27.640625 40.03125 23.953125 
Q 43.3125 20.265625 43.3125 14.75 
Q 43.3125 7.765625 37.796875 3.265625 
Q 32.28125 -1.21875 23.6875 -1.21875 
Q 17.09375 -1.21875 7.671875 1.859375 
z
" id="LucidaSansUnicode-115"/>
      <path d="M 9.625 0 
L 9.625 53.03125 
L 19.234375 53.03125 
L 19.234375 43.0625 
Q 26.265625 54.203125 37.3125 54.203125 
Q 47.953125 54.203125 51.8125 43.0625 
Q 58.640625 54.25 69.578125 54.25 
Q 76.5625 54.25 80.4375 50.125 
Q 84.328125 46 84.328125 38.578125 
L 84.328125 0 
L 74.65625 0 
L 74.65625 37.0625 
Q 74.65625 46.140625 67.484375 46.140625 
Q 60.015625 46.140625 51.8125 35.546875 
L 51.8125 0 
L 42.140625 0 
L 42.140625 37.0625 
Q 42.140625 46.1875 34.8125 46.1875 
Q 27.546875 46.1875 19.234375 35.546875 
L 19.234375 0 
z
" id="LucidaSansUnicode-109"/>
      <path d="M 48.484375 1.703125 
Q 38.8125 -1.21875 31.9375 -1.21875 
Q 20.171875 -1.21875 12.796875 6.5625 
Q 5.421875 14.359375 5.421875 26.765625 
Q 5.421875 38.8125 11.9375 46.53125 
Q 18.453125 54.25 28.609375 54.25 
Q 38.234375 54.25 43.484375 47.390625 
Q 48.734375 40.53125 48.734375 27.9375 
L 48.6875 25 
L 15.234375 25 
Q 17.328125 6.109375 33.734375 6.109375 
Q 39.75 6.109375 48.484375 9.328125 
z
M 15.671875 32.234375 
L 39.0625 32.234375 
Q 39.0625 47.015625 28.03125 47.015625 
Q 16.9375 47.015625 15.671875 32.234375 
z
" id="LucidaSansUnicode-101"/>
      <path id="LucidaSansUnicode-32"/>
      <path d="M 9.625 -19.28125 
L 9.625 53.03125 
L 19.234375 53.03125 
L 19.234375 43.0625 
Q 25.140625 54.203125 36.96875 54.203125 
Q 46.53125 54.203125 52.015625 47.21875 
Q 57.515625 40.234375 57.515625 28.125 
Q 57.515625 14.9375 51.28125 6.859375 
Q 45.0625 -1.21875 34.90625 -1.21875 
Q 25.484375 -1.21875 19.234375 6 
L 19.234375 -19.28125 
z
M 19.234375 12.640625 
Q 26.65625 6 33.40625 6 
Q 40.046875 6 43.65625 11.546875 
Q 47.265625 17.09375 47.265625 27.15625 
Q 47.265625 45.796875 34.96875 45.796875 
Q 26.90625 45.796875 19.234375 37.0625 
z
" id="LucidaSansUnicode-112"/>
      <path d="M 9.625 -19.28125 
L 9.625 53.03125 
L 19.234375 53.03125 
L 19.234375 18.0625 
Q 19.234375 7.8125 28.125 7.8125 
Q 36.1875 7.8125 43.359375 18.65625 
L 43.359375 53.03125 
L 52.984375 53.03125 
L 52.984375 0 
L 43.359375 0 
L 43.359375 9.96875 
Q 36.53125 -1.21875 27.9375 -1.21875 
Q 22.953125 -1.21875 19.234375 1.21875 
L 19.234375 -19.28125 
z
" id="LucidaSansUnicode-181"/>
      <path d="M 11.296875 49.203125 
L 4.203125 50.90625 
Q 6.40625 58.703125 11.5 63.140625 
Q 16.59375 67.59375 24.296875 67.59375 
Q 31.40625 67.59375 36.203125 63.09375 
Q 41 58.59375 41 51.90625 
Q 41 43 32.40625 37 
Q 38 35 41.046875 30.34375 
Q 44.09375 25.703125 44.09375 21 
Q 44.09375 11.296875 37.796875 5 
Q 31.40625 -1.40625 20.5 -1.40625 
Q 9.5 -1.40625 3.09375 5.59375 
L 7.796875 11.203125 
Q 12.90625 5.703125 20 5.703125 
Q 27.40625 5.703125 31.59375 9.296875 
Q 36.203125 13.203125 36.203125 19.09375 
Q 36.203125 24.296875 32.453125 27.796875 
Q 28.703125 31.296875 22.203125 32.203125 
L 15.796875 32.203125 
L 15.796875 34.296875 
L 20.59375 39.40625 
Q 25.09375 39.40625 29.09375 42.84375 
Q 33.09375 46.296875 33.09375 51.203125 
Q 33.09375 55.40625 30.4375 57.953125 
Q 27.796875 60.5 24 60.5 
Q 20 60.5 16.546875 57.640625 
Q 13.09375 54.796875 11.296875 49.203125 
z
" id="STIXGeneral-Regular-120805"/>
     </defs>
     <g style="fill:#262626;" transform="translate(102.370909 207.3225)scale(0.06 -0.06)">
      <use transform="translate(0 0.446875)" xlink:href="#LucidaSansUnicode-114"/>
      <use transform="translate(40.917969 0.446875)" xlink:href="#LucidaSansUnicode-105"/>
      <use transform="translate(69.824219 0.446875)" xlink:href="#LucidaSansUnicode-98"/>
      <use transform="translate(132.763672 0.446875)" xlink:href="#LucidaSansUnicode-111"/>
      <use transform="translate(194.189453 0.446875)" xlink:href="#LucidaSansUnicode-115"/>
      <use transform="translate(245.166016 0.446875)" xlink:href="#LucidaSansUnicode-111"/>
      <use transform="translate(306.591797 0.446875)" xlink:href="#LucidaSansUnicode-109"/>
      <use transform="translate(399.951172 0.446875)" xlink:href="#LucidaSansUnicode-101"/>
      <use transform="translate(455.664062 0.446875)" xlink:href="#LucidaSansUnicode-115"/>
      <use transform="translate(506.640625 0.446875)" xlink:href="#LucidaSansUnicode-32"/>
      <use transform="translate(538.28125 0.446875)" xlink:href="#LucidaSansUnicode-112"/>
      <use transform="translate(601.220703 0.446875)" xlink:href="#LucidaSansUnicode-101"/>
      <use transform="translate(656.933594 0.446875)" xlink:href="#LucidaSansUnicode-114"/>
      <use transform="translate(697.851562 0.446875)" xlink:href="#LucidaSansUnicode-32"/>
      <use transform="translate(729.492188 0.446875)" xlink:href="#LucidaSansUnicode-181"/>
      <use transform="translate(792.138672 0.446875)" xlink:href="#LucidaSansUnicode-109"/>
      <use transform="translate(886.290742 36.684375)scale(0.7)" xlink:href="#STIXGeneral-Regular-120805"/>
     </g>
    </g>
   </g>
   <g id="matplotlib.axis_2">
    <g id="ytick_1">
     <g id="text_6">
      <!-- 2 -->
      <defs>
       <path d="M 8.296875 0 
L 8.296875 8.453125 
Q 12.5 18.265625 25.296875 29.828125 
L 30.8125 34.765625 
Q 41.453125 44.390625 41.453125 53.859375 
Q 41.453125 59.90625 37.8125 63.375 
Q 34.1875 66.84375 27.78125 66.84375 
Q 20.3125 66.84375 10.109375 61.03125 
L 10.109375 69.53125 
Q 19.734375 74.078125 29.25 74.078125 
Q 39.40625 74.078125 45.53125 68.609375 
Q 51.65625 63.140625 51.65625 54.109375 
Q 51.65625 47.609375 48.546875 42.578125 
Q 45.453125 37.546875 37.015625 30.375 
L 33.296875 27.203125 
Q 21.734375 17.390625 19.921875 8.453125 
L 51.3125 8.453125 
L 51.3125 0 
z
" id="LucidaSansUnicode-50"/>
      </defs>
      <g transform="translate(46.705937 174.690637)scale(0.06 -0.06)">
       <use xlink:href="#LucidaSansUnicode-50"/>
      </g>
     </g>
    </g>
    <g id="ytick_2">
     <g id="text_7">
      <!-- 4 -->
      <g transform="translate(46.705937 156.272331)scale(0.06 -0.06)">
       <use xlink:href="#LucidaSansUnicode-52"/>
      </g>
     </g>
    </g>
    <g id="ytick_3">
     <g id="text_8">
      <!-- 6 -->
      <g transform="translate(46.705937 137.854025)scale(0.06 -0.06)">
       <use xlink:href="#LucidaSansUnicode-54"/>
      </g>
     </g>
    </g>
    <g id="ytick_4">
     <g id="text_9">
      <!-- 8 -->
      <defs>
       <path d="M 23 39.359375 
Q 17.046875 43.5 14.71875 47.0625 
Q 12.40625 50.640625 12.40625 55.671875 
Q 12.40625 63.875 18.40625 69 
Q 24.421875 74.125 34.078125 74.125 
Q 43.015625 74.125 48.5625 69.78125 
Q 54.109375 65.4375 54.109375 58.5 
Q 54.109375 48 40.625 39.359375 
Q 56.984375 31.34375 56.984375 18.703125 
Q 56.984375 9.671875 50.140625 3.921875 
Q 43.3125 -1.8125 32.5625 -1.8125 
Q 21.828125 -1.8125 15.234375 3.578125 
Q 8.640625 8.984375 8.640625 17.78125 
Q 8.640625 30.765625 23 39.359375 
z
M 35.25 42.390625 
Q 45.359375 49.03125 45.359375 57.171875 
Q 45.359375 61.53125 41.96875 64.1875 
Q 38.578125 66.84375 33.109375 66.84375 
Q 27.78125 66.84375 24.453125 64.234375 
Q 21.140625 61.625 21.140625 57.46875 
Q 21.140625 53.421875 24.140625 50.1875 
Q 27.15625 46.96875 35.25 42.390625 
z
M 28.21875 35.453125 
Q 22.40625 30.953125 20.328125 27.609375 
Q 18.265625 24.265625 18.265625 19.28125 
Q 18.265625 13.09375 22.265625 9.25 
Q 26.265625 5.421875 32.8125 5.421875 
Q 39.109375 5.421875 43.09375 8.6875 
Q 47.078125 11.96875 47.078125 17.1875 
Q 47.078125 21.390625 44.609375 24.296875 
Q 42.140625 27.203125 35.0625 31.390625 
z
" id="LucidaSansUnicode-56"/>
      </defs>
      <g transform="translate(46.705937 119.435719)scale(0.06 -0.06)">
       <use xlink:href="#LucidaSansUnicode-56"/>
      </g>
     </g>
    </g>
    <g id="ytick_5">
     <g id="text_10">
      <!-- 10 -->
      <g transform="translate(42.911875 101.017413)scale(0.06 -0.06)">
       <use xlink:href="#LucidaSansUnicode-49"/>
       <use x="63.232422" xlink:href="#LucidaSansUnicode-48"/>
      </g>
     </g>
    </g>
    <g id="ytick_6">
     <g id="text_11">
      <!-- 12 -->
      <g transform="translate(42.911875 82.599108)scale(0.06 -0.06)">
       <use xlink:href="#LucidaSansUnicode-49"/>
       <use x="63.232422" xlink:href="#LucidaSansUnicode-50"/>
      </g>
     </g>
    </g>
    <g id="ytick_7">
     <g id="text_12">
      <!-- 14 -->
      <g transform="translate(42.911875 64.180802)scale(0.06 -0.06)">
       <use xlink:href="#LucidaSansUnicode-49"/>
       <use x="63.232422" xlink:href="#LucidaSansUnicode-52"/>
      </g>
     </g>
    </g>
    <g id="ytick_8">
     <g id="text_13">
      <!-- 16 -->
      <g transform="translate(42.911875 45.762496)scale(0.06 -0.06)">
       <use xlink:href="#LucidaSansUnicode-49"/>
       <use x="63.232422" xlink:href="#LucidaSansUnicode-54"/>
      </g>
     </g>
    </g>
    <g id="text_14">
     <!-- elongation rate [AA / s] -->
     <defs>
      <path d="M 9.625 0 
L 9.625 77.09375 
L 19.234375 77.09375 
L 19.234375 0 
z
" id="LucidaSansUnicode-108"/>
      <path d="M 9.625 0 
L 9.625 53.03125 
L 19.234375 53.03125 
L 19.234375 43.0625 
Q 26.859375 54.203125 37.890625 54.203125 
Q 44.828125 54.203125 48.90625 49.828125 
Q 52.984375 45.453125 52.984375 38.09375 
L 52.984375 0 
L 43.359375 0 
L 43.359375 34.96875 
Q 43.359375 40.875 41.625 43.390625 
Q 39.890625 45.90625 35.890625 45.90625 
Q 27.046875 45.90625 19.234375 34.328125 
L 19.234375 0 
z
" id="LucidaSansUnicode-110"/>
      <path d="M 9.8125 -17.625 
L 10.9375 -9.28125 
Q 19.28125 -13.234375 27.4375 -13.234375 
Q 43.65625 -13.234375 43.65625 4 
L 43.65625 12.359375 
Q 41.15625 7.078125 36.546875 4.140625 
Q 31.9375 1.21875 26.265625 1.21875 
Q 16.65625 1.21875 11.03125 8.125 
Q 5.421875 15.046875 5.421875 26.859375 
Q 5.421875 38.96875 11.8125 46.578125 
Q 18.21875 54.203125 28.375 54.203125 
Q 37.25 54.203125 43.65625 46.96875 
L 43.65625 53.03125 
L 53.328125 53.03125 
L 53.328125 14.453125 
Q 53.328125 2 52.03125 -3.984375 
Q 50.734375 -9.96875 47.171875 -13.765625 
Q 40.875 -20.453125 27.484375 -20.453125 
Q 18.3125 -20.453125 9.8125 -17.625 
z
M 43.65625 18.359375 
L 43.65625 40.375 
Q 37.3125 46.96875 29.828125 46.96875 
Q 23.1875 46.96875 19.421875 41.640625 
Q 15.671875 36.328125 15.671875 26.90625 
Q 15.671875 9.625 27.9375 9.625 
Q 36.28125 9.625 43.65625 18.359375 
z
" id="LucidaSansUnicode-103"/>
      <path d="M 36.96875 6.734375 
Q 28.328125 -1.21875 20.3125 -1.21875 
Q 13.71875 -1.21875 9.375 2.90625 
Q 5.03125 7.03125 5.03125 13.328125 
Q 5.03125 22.015625 12.328125 26.671875 
Q 19.625 31.34375 33.296875 31.34375 
L 35.546875 31.34375 
L 35.546875 37.75 
Q 35.546875 46.96875 25.921875 46.96875 
Q 18.453125 46.96875 9.625 42.28125 
L 9.625 50.25 
Q 19.34375 54.203125 27.9375 54.203125 
Q 36.765625 54.203125 40.96875 50.171875 
Q 45.171875 46.140625 45.171875 37.75 
L 45.171875 13.71875 
Q 45.171875 5.46875 50.25 5.46875 
Q 50.875 5.46875 52.09375 5.671875 
L 52.78125 0.34375 
Q 49.515625 -1.21875 45.5625 -1.21875 
Q 38.8125 -1.21875 36.96875 6.734375 
z
M 35.546875 11.96875 
L 35.546875 25.6875 
L 32.46875 25.78125 
Q 24.46875 25.78125 19.5625 22.796875 
Q 14.65625 19.828125 14.65625 14.890625 
Q 14.65625 11.421875 17.09375 9.03125 
Q 19.53125 6.640625 23.046875 6.640625 
Q 29.046875 6.640625 35.546875 11.96875 
z
" id="LucidaSansUnicode-97"/>
      <path d="M 33.25 0 
Q 28.8125 -1.21875 25.53125 -1.21875 
Q 18.21875 -1.21875 14.109375 2.96875 
Q 10.015625 7.171875 10.015625 14.65625 
L 10.015625 45.796875 
L 3.375 45.796875 
L 3.375 53.03125 
L 10.015625 53.03125 
L 10.015625 62.640625 
L 19.625 63.578125 
L 19.625 53.03125 
L 33.5 53.03125 
L 33.5 45.796875 
L 19.625 45.796875 
L 19.625 16.40625 
Q 19.625 6 28.609375 6 
Q 30.515625 6 33.25 6.640625 
z
" id="LucidaSansUnicode-116"/>
      <path d="M 9.625 -14.453125 
L 9.625 77.09375 
L 28.90625 77.09375 
L 28.90625 69.875 
L 18.0625 69.875 
L 18.0625 -7.234375 
L 28.90625 -7.234375 
L 28.90625 -14.453125 
z
" id="LucidaSansUnicode-91"/>
      <path d="M 0.828125 0 
L 29.5 72.265625 
L 39.65625 72.265625 
L 67.875 0 
L 56.78125 0 
L 48.921875 20.015625 
L 18.3125 20.015625 
L 10.359375 0 
z
M 21.296875 27.640625 
L 45.953125 27.640625 
L 33.640625 58.796875 
z
" id="LucidaSansUnicode-65"/>
      <path d="M 10.84375 -14.453125 
L 36.53125 72.3125 
L 41.609375 72.3125 
L 15.921875 -14.453125 
z
" id="LucidaSansUnicode-47"/>
      <path d="M 22.90625 77.09375 
L 22.90625 -14.453125 
L 3.609375 -14.453125 
L 3.609375 -7.234375 
L 14.453125 -7.234375 
L 14.453125 69.875 
L 3.609375 69.875 
L 3.609375 77.09375 
z
" id="LucidaSansUnicode-93"/>
     </defs>
     <g style="fill:#262626;" transform="translate(37.684688 141.592969)rotate(-90)scale(0.06 -0.06)">
      <use xlink:href="#LucidaSansUnicode-101"/>
      <use x="55.712891" xlink:href="#LucidaSansUnicode-108"/>
      <use x="84.619141" xlink:href="#LucidaSansUnicode-111"/>
      <use x="146.044922" xlink:href="#LucidaSansUnicode-110"/>
      <use x="208.105469" xlink:href="#LucidaSansUnicode-103"/>
      <use x="270.458984" xlink:href="#LucidaSansUnicode-97"/>
      <use x="325.683594" xlink:href="#LucidaSansUnicode-116"/>
      <use x="363.085938" xlink:href="#LucidaSansUnicode-105"/>
      <use x="391.992188" xlink:href="#LucidaSansUnicode-111"/>
      <use x="453.417969" xlink:href="#LucidaSansUnicode-110"/>
      <use x="515.478516" xlink:href="#LucidaSansUnicode-32"/>
      <use x="547.119141" xlink:href="#LucidaSansUnicode-114"/>
      <use x="588.037109" xlink:href="#LucidaSansUnicode-97"/>
      <use x="643.261719" xlink:href="#LucidaSansUnicode-116"/>
      <use x="680.664062" xlink:href="#LucidaSansUnicode-101"/>
      <use x="736.376953" xlink:href="#LucidaSansUnicode-32"/>
      <use x="768.017578" xlink:href="#LucidaSansUnicode-91"/>
      <use x="800.537109" xlink:href="#LucidaSansUnicode-65"/>
      <use x="869.53125" xlink:href="#LucidaSansUnicode-65"/>
      <use x="938.525391" xlink:href="#LucidaSansUnicode-32"/>
      <use x="970.166016" xlink:href="#LucidaSansUnicode-47"/>
      <use x="1022.607422" xlink:href="#LucidaSansUnicode-32"/>
      <use x="1054.248047" xlink:href="#LucidaSansUnicode-115"/>
      <use x="1105.224609" xlink:href="#LucidaSansUnicode-93"/>
     </g>
    </g>
   </g>
   <g id="line2d_1">
    <path clip-path="url(#p4844cd0abf)" d="M 54 33.332727 
L 105.914868 33.473131 
L 122.201885 33.70716 
L 129.836424 34.002707 
L 133.908179 34.336935 
L 136.453025 34.720308 
L 138.488902 35.261818 
L 139.506841 35.693884 
L 140.52478 36.32898 
L 141.542718 37.320162 
L 142.051687 38.031075 
L 142.560657 38.949328 
L 143.069626 40.130422 
L 144.087565 43.437314 
L 145.105503 47.922012 
L 147.14138 58.610957 
L 150.704165 77.386473 
L 153.249012 89.510223 
L 155.793858 100.430221 
L 158.338705 110.214067 
L 160.883551 118.959472 
L 163.428398 126.767275 
L 165.973244 133.733238 
L 168.518091 139.945521 
L 171.062937 145.484157 
L 173.607784 150.421275 
L 176.15263 154.821625 
L 178.697476 158.74319 
L 181.242323 162.237818 
L 183.787169 165.351821 
L 186.332016 168.126541 
L 188.876862 170.598865 
L 191.421709 172.801695 
L 194.475524 175.130435 
L 197.52934 177.157892 
L 200.583156 178.923015 
L 204.145941 180.695772 
L 206.181818 181.587273 
L 206.181818 181.587273 
" style="fill:none;stroke:#2c728e;stroke-linecap:round;"/>
   </g>
   <g id="patch_3">
    <path d="M 54 189 
L 54 25.92 
" style="fill:none;stroke:#ffffff;stroke-linecap:square;stroke-linejoin:miter;stroke-width:0.8;"/>
   </g>
   <g id="patch_4">
    <path d="M 206.181818 189 
L 206.181818 25.92 
" style="fill:none;stroke:#ffffff;stroke-linecap:square;stroke-linejoin:miter;stroke-width:0.8;"/>
   </g>
   <g id="patch_5">
    <path d="M 54 189 
L 206.181818 189 
" style="fill:none;stroke:#ffffff;stroke-linecap:square;stroke-linejoin:miter;stroke-width:0.8;"/>
   </g>
   <g id="patch_6">
    <path d="M 54 25.92 
L 206.181818 25.92 
" style="fill:none;stroke:#ffffff;stroke-linecap:square;stroke-linejoin:miter;stroke-width:0.8;"/>
   </g>
  </g>
  <g id="axes_2">
   <g id="patch_7">
    <path d="M 236.618182 189 
L 388.8 189 
L 388.8 25.92 
L 236.618182 25.92 
z
" style="fill:#e3dcd0;"/>
   </g>
   <g id="matplotlib.axis_3">
    <g id="xtick_29">
     <g id="text_15">
      <!-- $\mathdefault{10^{3}}$ -->
      <g transform="translate(231.368182 197.125625)scale(0.06 -0.06)">
       <use transform="translate(0 0.023438)" xlink:href="#LucidaSansUnicode-49"/>
       <use transform="translate(63.232422 0.023438)" xlink:href="#LucidaSansUnicode-48"/>
       <use transform="translate(127.392891 37.145312)scale(0.7)" xlink:href="#LucidaSansUnicode-51"/>
      </g>
     </g>
    </g>
    <g id="xtick_30">
     <g id="text_16">
      <!-- $\mathdefault{10^{4}}$ -->
      <g transform="translate(282.095455 197.125625)scale(0.06 -0.06)">
       <use transform="translate(0 0.292188)" xlink:href="#LucidaSansUnicode-49"/>
       <use transform="translate(63.232422 0.292188)" xlink:href="#LucidaSansUnicode-48"/>
       <use transform="translate(127.392891 37.414063)scale(0.7)" xlink:href="#LucidaSansUnicode-52"/>
      </g>
     </g>
    </g>
    <g id="xtick_31">
     <g id="text_17">
      <!-- $\mathdefault{10^{5}}$ -->
      <g transform="translate(332.822727 197.125625)scale(0.06 -0.06)">
       <use transform="translate(0 0.292188)" xlink:href="#LucidaSansUnicode-49"/>
       <use transform="translate(63.232422 0.292188)" xlink:href="#LucidaSansUnicode-48"/>
       <use transform="translate(127.392891 37.414063)scale(0.7)" xlink:href="#LucidaSansUnicode-53"/>
      </g>
     </g>
    </g>
    <g id="xtick_32">
     <g id="text_18">
      <!-- $\mathdefault{10^{6}}$ -->
      <g transform="translate(383.55 197.125625)scale(0.06 -0.06)">
       <use transform="translate(0 0.990625)" xlink:href="#LucidaSansUnicode-49"/>
       <use transform="translate(63.232422 0.990625)" xlink:href="#LucidaSansUnicode-48"/>
       <use transform="translate(127.392891 38.1125)scale(0.7)" xlink:href="#LucidaSansUnicode-54"/>
      </g>
     </g>
    </g>
    <g id="xtick_33"/>
    <g id="xtick_34"/>
    <g id="xtick_35"/>
    <g id="xtick_36"/>
    <g id="xtick_37"/>
    <g id="xtick_38"/>
    <g id="xtick_39"/>
    <g id="xtick_40"/>
    <g id="xtick_41"/>
    <g id="xtick_42"/>
    <g id="xtick_43"/>
    <g id="xtick_44"/>
    <g id="xtick_45"/>
    <g id="xtick_46"/>
    <g id="xtick_47"/>
    <g id="xtick_48"/>
    <g id="xtick_49"/>
    <g id="xtick_50"/>
    <g id="xtick_51"/>
    <g id="xtick_52"/>
    <g id="xtick_53"/>
    <g id="xtick_54"/>
    <g id="xtick_55"/>
    <g id="xtick_56"/>
    <g id="text_19">
     <!-- ribosomes per µm$^{3}$ -->
     <g style="fill:#262626;" transform="translate(284.989091 207.3225)scale(0.06 -0.06)">
      <use transform="translate(0 0.446875)" xlink:href="#LucidaSansUnicode-114"/>
      <use transform="translate(40.917969 0.446875)" xlink:href="#LucidaSansUnicode-105"/>
      <use transform="translate(69.824219 0.446875)" xlink:href="#LucidaSansUnicode-98"/>
      <use transform="translate(132.763672 0.446875)" xlink:href="#LucidaSansUnicode-111"/>
      <use transform="translate(194.189453 0.446875)" xlink:href="#LucidaSansUnicode-115"/>
      <use transform="translate(245.166016 0.446875)" xlink:href="#LucidaSansUnicode-111"/>
      <use transform="translate(306.591797 0.446875)" xlink:href="#LucidaSansUnicode-109"/>
      <use transform="translate(399.951172 0.446875)" xlink:href="#LucidaSansUnicode-101"/>
      <use transform="translate(455.664062 0.446875)" xlink:href="#LucidaSansUnicode-115"/>
      <use transform="translate(506.640625 0.446875)" xlink:href="#LucidaSansUnicode-32"/>
      <use transform="translate(538.28125 0.446875)" xlink:href="#LucidaSansUnicode-112"/>
      <use transform="translate(601.220703 0.446875)" xlink:href="#LucidaSansUnicode-101"/>
      <use transform="translate(656.933594 0.446875)" xlink:href="#LucidaSansUnicode-114"/>
      <use transform="translate(697.851562 0.446875)" xlink:href="#LucidaSansUnicode-32"/>
      <use transform="translate(729.492188 0.446875)" xlink:href="#LucidaSansUnicode-181"/>
      <use transform="translate(792.138672 0.446875)" xlink:href="#LucidaSansUnicode-109"/>
      <use transform="translate(886.290742 36.684375)scale(0.7)" xlink:href="#STIXGeneral-Regular-120805"/>
     </g>
    </g>
   </g>
   <g id="matplotlib.axis_4">
    <g id="ytick_9">
     <g id="text_20">
      <!-- 0.0 -->
      <defs>
       <path d="M 9.765625 0 
L 9.765625 12.0625 
L 21.828125 12.0625 
L 21.828125 0 
z
" id="LucidaSansUnicode-46"/>
      </defs>
      <g transform="translate(223.631619 187.945323)scale(0.06 -0.06)">
       <use xlink:href="#LucidaSansUnicode-48"/>
       <use x="63.232422" xlink:href="#LucidaSansUnicode-46"/>
       <use x="94.873047" xlink:href="#LucidaSansUnicode-48"/>
      </g>
     </g>
    </g>
    <g id="ytick_10">
     <g id="text_21">
      <!-- 0.5 -->
      <g transform="translate(223.631619 158.125968)scale(0.06 -0.06)">
       <use xlink:href="#LucidaSansUnicode-48"/>
       <use x="63.232422" xlink:href="#LucidaSansUnicode-46"/>
       <use x="94.873047" xlink:href="#LucidaSansUnicode-53"/>
      </g>
     </g>
    </g>
    <g id="ytick_11">
     <g id="text_22">
      <!-- 1.0 -->
      <g transform="translate(223.631619 128.306613)scale(0.06 -0.06)">
       <use xlink:href="#LucidaSansUnicode-49"/>
       <use x="63.232422" xlink:href="#LucidaSansUnicode-46"/>
       <use x="94.873047" xlink:href="#LucidaSansUnicode-48"/>
      </g>
     </g>
    </g>
    <g id="ytick_12">
     <g id="text_23">
      <!-- 1.5 -->
      <g transform="translate(223.631619 98.487258)scale(0.06 -0.06)">
       <use xlink:href="#LucidaSansUnicode-49"/>
       <use x="63.232422" xlink:href="#LucidaSansUnicode-46"/>
       <use x="94.873047" xlink:href="#LucidaSansUnicode-53"/>
      </g>
     </g>
    </g>
    <g id="ytick_13">
     <g id="text_24">
      <!-- 2.0 -->
      <g transform="translate(223.631619 68.667904)scale(0.06 -0.06)">
       <use xlink:href="#LucidaSansUnicode-50"/>
       <use x="63.232422" xlink:href="#LucidaSansUnicode-46"/>
       <use x="94.873047" xlink:href="#LucidaSansUnicode-48"/>
      </g>
     </g>
    </g>
    <g id="ytick_14">
     <g id="text_25">
      <!-- 2.5 -->
      <g transform="translate(223.631619 38.848549)scale(0.06 -0.06)">
       <use xlink:href="#LucidaSansUnicode-50"/>
       <use x="63.232422" xlink:href="#LucidaSansUnicode-46"/>
       <use x="94.873047" xlink:href="#LucidaSansUnicode-53"/>
      </g>
     </g>
    </g>
    <g id="text_26">
     <!-- growth rate [hr$^{-1}$] -->
     <defs>
      <path d="M 15.765625 0 
L 0.59375 53.03125 
L 10.015625 53.03125 
L 21.625 11.96875 
L 34.1875 53.03125 
L 43.796875 53.03125 
L 54.78125 11.96875 
L 68.109375 53.03125 
L 76.375 53.03125 
L 59.078125 0 
L 49.421875 0 
L 38.1875 41.0625 
L 25.484375 0 
z
" id="LucidaSansUnicode-119"/>
      <path d="M 9.625 0 
L 9.625 77.09375 
L 19.234375 77.09375 
L 19.234375 43.0625 
Q 26.859375 54.203125 37.890625 54.203125 
Q 44.828125 54.203125 48.90625 49.828125 
Q 52.984375 45.453125 52.984375 38.09375 
L 52.984375 0 
L 43.359375 0 
L 43.359375 34.96875 
Q 43.359375 40.875 41.625 43.390625 
Q 39.890625 45.90625 35.890625 45.90625 
Q 27.046875 45.90625 19.234375 34.328125 
L 19.234375 0 
z
" id="LucidaSansUnicode-104"/>
      <path d="M 62.09375 22 
L 6.40625 22 
L 6.40625 28.59375 
L 62.09375 28.59375 
z
" id="STIXGeneral-Regular-8722"/>
      <path d="M 30.203125 0 
L 22.296875 0 
L 22.296875 57 
Q 20.09375 56 15.75 53.75 
Q 11.40625 51.5 10.796875 51.203125 
L 10.796875 58.5 
L 28.796875 67.703125 
L 30.203125 67.203125 
z
" id="STIXGeneral-Regular-120803"/>
     </defs>
     <g style="fill:#262626;" transform="translate(218.371619 132.9)rotate(-90)scale(0.06 -0.06)">
      <use transform="translate(0 0.370312)" xlink:href="#LucidaSansUnicode-103"/>
      <use transform="translate(62.353516 0.370312)" xlink:href="#LucidaSansUnicode-114"/>
      <use transform="translate(103.271484 0.370312)" xlink:href="#LucidaSansUnicode-111"/>
      <use transform="translate(164.697266 0.370312)" xlink:href="#LucidaSansUnicode-119"/>
      <use transform="translate(241.748047 0.370312)" xlink:href="#LucidaSansUnicode-116"/>
      <use transform="translate(279.150391 0.370312)" xlink:href="#LucidaSansUnicode-104"/>
      <use transform="translate(341.210938 0.370312)" xlink:href="#LucidaSansUnicode-32"/>
      <use transform="translate(372.851562 0.370312)" xlink:href="#LucidaSansUnicode-114"/>
      <use transform="translate(413.769531 0.370312)" xlink:href="#LucidaSansUnicode-97"/>
      <use transform="translate(468.994141 0.370312)" xlink:href="#LucidaSansUnicode-116"/>
      <use transform="translate(506.396484 0.370312)" xlink:href="#LucidaSansUnicode-101"/>
      <use transform="translate(562.109375 0.370312)" xlink:href="#LucidaSansUnicode-32"/>
      <use transform="translate(593.75 0.370312)" xlink:href="#LucidaSansUnicode-91"/>
      <use transform="translate(626.269531 0.370312)" xlink:href="#LucidaSansUnicode-104"/>
      <use transform="translate(688.330078 0.370312)" xlink:href="#LucidaSansUnicode-114"/>
      <use transform="translate(730.040742 36.607813)scale(0.7)" xlink:href="#STIXGeneral-Regular-8722"/>
      <use transform="translate(777.990732 36.607813)scale(0.7)" xlink:href="#STIXGeneral-Regular-120803"/>
      <use transform="translate(815.255565 0.370312)" xlink:href="#LucidaSansUnicode-93"/>
     </g>
    </g>
   </g>
   <g id="line2d_2">
    <path clip-path="url(#p270d320abd)" d="M 236.618182 181.587273 
L 241.707875 180.546969 
L 246.288598 179.386743 
L 250.360353 178.138433 
L 254.432107 176.645324 
L 257.994892 175.102095 
L 261.557677 173.300754 
L 264.611493 171.520662 
L 267.665309 169.492418 
L 270.719124 167.184127 
L 273.77294 164.560619 
L 276.317787 162.105872 
L 278.862633 159.381442 
L 281.407479 156.361668 
L 283.952326 153.019413 
L 286.497172 149.326215 
L 289.042019 145.252536 
L 291.586865 140.768082 
L 294.131712 135.842257 
L 296.676558 130.444729 
L 299.221405 124.546169 
L 301.766251 118.119168 
L 304.311098 111.139403 
L 306.855944 103.587144 
L 309.90976 93.750975 
L 312.963576 83.069086 
L 316.017391 71.57504 
L 319.580176 57.303581 
L 323.651931 40.944822 
L 324.669869 37.464336 
L 325.687808 34.815311 
L 326.196777 33.958619 
L 326.705746 33.467182 
L 327.214716 33.332727 
L 327.723685 33.511011 
L 328.232654 33.941784 
L 329.250593 35.338429 
L 330.268531 37.18695 
L 331.795439 40.426579 
L 334.340286 46.462622 
L 337.903071 55.545069 
L 345.028641 74.48578 
L 352.154211 93.214379 
L 356.734935 104.647944 
L 360.806689 114.208811 
L 364.369474 122.022709 
L 367.932259 129.272268 
L 370.986075 135.016948 
L 374.039891 140.322377 
L 377.093706 145.19181 
L 380.147522 149.635705 
L 383.201338 153.670255 
L 386.255154 157.315954 
L 388.8 160.073884 
L 388.8 160.073884 
" style="fill:none;stroke:#2c728e;stroke-linecap:round;"/>
   </g>
   <g id="patch_8">
    <path d="M 236.618182 189 
L 236.618182 25.92 
" style="fill:none;stroke:#ffffff;stroke-linecap:square;stroke-linejoin:miter;stroke-width:0.8;"/>
   </g>
   <g id="patch_9">
    <path d="M 388.8 189 
L 388.8 25.92 
" style="fill:none;stroke:#ffffff;stroke-linecap:square;stroke-linejoin:miter;stroke-width:0.8;"/>
   </g>
   <g id="patch_10">
    <path d="M 236.618182 189 
L 388.8 189 
" style="fill:none;stroke:#ffffff;stroke-linecap:square;stroke-linejoin:miter;stroke-width:0.8;"/>
   </g>
   <g id="patch_11">
    <path d="M 236.618182 25.92 
L 388.8 25.92 
" style="fill:none;stroke:#ffffff;stroke-linecap:square;stroke-linejoin:miter;stroke-width:0.8;"/>
   </g>
   <g id="legend_1">
    <g id="patch_12">
     <path d="M 337.02 48.78 
L 384.6 48.78 
Q 385.8 48.78 385.8 47.58 
L 385.8 30.12 
Q 385.8 28.92 384.6 28.92 
L 337.02 28.92 
Q 335.82 28.92 335.82 30.12 
L 335.82 47.58 
Q 335.82 48.78 337.02 48.78 
z
" style="fill:#e3dcd0;opacity:0.8;stroke:#cccccc;stroke-linejoin:miter;"/>
    </g>
    <g id="text_27">
     <!-- r$_AA$ [AA/s•µm$^3$] -->
     <defs>
      <path d="M 63.5 0 
L 53.90625 0 
L 50.59375 20 
L 25.703125 20 
L 12.703125 0 
L 3.09375 0 
L 48.796875 67.40625 
L 51.40625 67.40625 
z
M 49.5 27.40625 
L 45.796875 50.296875 
L 30.703125 27.40625 
z
" id="STIXGeneral-Italic-120328"/>
      <path d="M 31.640625 19.578125 
Q 27.875 19.578125 25.234375 22.21875 
Q 22.609375 24.859375 22.609375 28.609375 
Q 22.609375 32.375 25.234375 35 
Q 27.875 37.640625 31.640625 37.640625 
Q 35.40625 37.640625 38.03125 35 
Q 40.671875 32.375 40.671875 28.609375 
Q 40.671875 24.859375 38.03125 22.21875 
Q 35.40625 19.578125 31.640625 19.578125 
z
" id="LucidaSansUnicode-8226"/>
     </defs>
     <g style="fill:#262626;" transform="translate(338.22 36.36)scale(0.06 -0.06)">
      <use transform="translate(0 0.446875)" xlink:href="#LucidaSansUnicode-114"/>
      <use transform="translate(41.710664 -13.142187)scale(0.7)" xlink:href="#STIXGeneral-Italic-120328"/>
      <use transform="translate(90.595501 0.446875)" xlink:href="#STIXGeneral-Italic-120328"/>
      <use transform="translate(157.195492 0.446875)" xlink:href="#LucidaSansUnicode-32"/>
      <use transform="translate(188.836117 0.446875)" xlink:href="#LucidaSansUnicode-91"/>
      <use transform="translate(221.355648 0.446875)" xlink:href="#LucidaSansUnicode-65"/>
      <use transform="translate(290.349789 0.446875)" xlink:href="#LucidaSansUnicode-65"/>
      <use transform="translate(359.34393 0.446875)" xlink:href="#LucidaSansUnicode-47"/>
      <use transform="translate(411.785336 0.446875)" xlink:href="#LucidaSansUnicode-115"/>
      <use transform="translate(462.761898 0.446875)" xlink:href="#LucidaSansUnicode-8226"/>
      <use transform="translate(525.99432 0.446875)" xlink:href="#LucidaSansUnicode-181"/>
      <use transform="translate(588.640805 0.446875)" xlink:href="#LucidaSansUnicode-109"/>
      <use transform="translate(682.792875 36.684375)scale(0.7)" xlink:href="#STIXGeneral-Regular-120805"/>
      <use transform="translate(720.057708 0.446875)" xlink:href="#LucidaSansUnicode-93"/>
     </g>
    </g>
    <g id="line2d_3">
     <path d="M 339.3 43.123125 
L 351.3 43.123125 
" style="fill:none;stroke:#2c728e;stroke-linecap:round;"/>
    </g>
    <g id="line2d_4"/>
    <g id="text_28">
     <!-- $r_{AA}$ = 10$^{7}$ -->
     <defs>
      <path d="M 43.90625 44.703125 
L 42.09375 37.703125 
L 40.09375 37.703125 
Q 39.796875 38.40625 38.59375 38.796875 
Q 37.40625 39.203125 36.59375 39.203125 
Q 32.296875 39.203125 27.890625 35 
Q 23.5 30.796875 20 23.40625 
L 14.203125 0 
L 6.296875 0 
L 17.203125 44 
L 24.796875 46.40625 
L 25.59375 45.90625 
L 24.203125 39.5 
Q 30.59375 46.296875 38.59375 46.296875 
Q 42.296875 46.296875 43.90625 44.703125 
z
" id="STIXGeneral-Italic-120371"/>
      <path d="M 10.84375 17.484375 
L 10.84375 22.265625 
L 68.65625 22.265625 
L 68.65625 17.484375 
z
M 10.84375 35.546875 
L 10.84375 40.375 
L 68.65625 40.375 
L 68.65625 35.546875 
z
" id="LucidaSansUnicode-61"/>
      <path d="M 45.09375 64.203125 
L 23 -0.796875 
L 14.796875 -0.796875 
L 35.40625 59.09375 
L 3.796875 59.09375 
L 6.90625 66.203125 
L 45.09375 66.203125 
z
" id="STIXGeneral-Regular-120809"/>
     </defs>
     <g style="fill:#262626;" transform="translate(356.1 45.223125)scale(0.06 -0.06)">
      <use transform="translate(0 0.420312)" xlink:href="#STIXGeneral-Italic-120371"/>
      <use transform="translate(33.599991 -13.16875)scale(0.7)" xlink:href="#STIXGeneral-Italic-120328"/>
      <use transform="translate(80.219984 -13.16875)scale(0.7)" xlink:href="#STIXGeneral-Italic-120328"/>
      <use transform="translate(129.104822 0.420312)" xlink:href="#LucidaSansUnicode-32"/>
      <use transform="translate(160.745447 0.420312)" xlink:href="#LucidaSansUnicode-61"/>
      <use transform="translate(240.237634 0.420312)" xlink:href="#LucidaSansUnicode-32"/>
      <use transform="translate(271.878259 0.420312)" xlink:href="#LucidaSansUnicode-49"/>
      <use transform="translate(335.110681 0.420312)" xlink:href="#LucidaSansUnicode-48"/>
      <use transform="translate(399.135798 36.657812)scale(0.7)" xlink:href="#STIXGeneral-Regular-120809"/>
     </g>
    </g>
   </g>
  </g>
 </g>
 <defs>
  <clipPath id="p4844cd0abf">
   <rect height="163.08" width="152.181818" x="54" y="25.92"/>
  </clipPath>
  <clipPath id="p270d320abd">
   <rect height="163.08" width="152.181818" x="236.618182" y="25.92"/>
  </clipPath>
 </defs>
</svg>
