<?xml version="1.0" encoding="utf-8" standalone="no"?>
<!DOCTYPE svg PUBLIC "-//W3C//DTD SVG 1.1//EN"
  "http://www.w3.org/Graphics/SVG/1.1/DTD/svg11.dtd">
<!-- Created with matplotlib (https://matplotlib.org/) -->
<svg height="144pt" version="1.1" viewBox="0 0 288 144" width="288pt" xmlns="http://www.w3.org/2000/svg" xmlns:xlink="http://www.w3.org/1999/xlink">
 <defs>
  <style type="text/css">
*{stroke-linecap:butt;stroke-linejoin:round;}
  </style>
 </defs>
 <g id="figure_1">
  <g id="patch_1">
   <path d="M 0 144 
L 288 144 
L 288 0 
L 0 0 
z
" style="fill:#ffffff;"/>
  </g>
  <g id="axes_1">
   <g id="patch_2">
    <path d="M 31.26 111.084 
L 192.790227 111.084 
L 192.790227 11.954219 
L 31.26 11.954219 
z
" style="fill:#e3dcd0;"/>
   </g>
   <g id="matplotlib.axis_1">
    <g id="xtick_1">
     <g id="text_1">
      <!-- $\mathdefault{10^{5}}$ -->
      <defs>
       <path d="M 26.171875 0 
L 26.171875 65.046875 
L 14.75 65.046875 
L 14.75 71.09375 
L 35.84375 72.90625 
L 35.84375 0 
z
" id="LucidaSansUnicode-49"/>
       <path d="M 31.640625 -1.8125 
Q 20.265625 -1.8125 13.296875 8.609375 
Q 6.34375 19.046875 6.34375 36.140625 
Q 6.34375 53.21875 13.296875 63.640625 
Q 20.265625 74.078125 31.640625 74.078125 
Q 43.0625 74.078125 50 63.671875 
Q 56.9375 53.265625 56.9375 36.140625 
Q 56.9375 19.046875 50 8.609375 
Q 43.0625 -1.8125 31.640625 -1.8125 
z
M 31.640625 5.421875 
Q 46.734375 5.421875 46.734375 36.140625 
Q 46.734375 66.84375 31.640625 66.84375 
Q 16.609375 66.84375 16.609375 36.140625 
Q 16.609375 5.421875 31.640625 5.421875 
z
" id="LucidaSansUnicode-48"/>
       <path d="M 12.15625 -0.296875 
L 12.15625 8.296875 
Q 19.34375 5.421875 25.828125 5.421875 
Q 32.953125 5.421875 37.03125 9.609375 
Q 41.109375 13.8125 41.109375 21.1875 
Q 41.109375 29.109375 35.34375 33.28125 
Q 29.59375 37.453125 18.703125 37.453125 
Q 16.15625 37.453125 13.375 37.109375 
L 13.375 72.265625 
L 49.953125 72.265625 
L 49.953125 63.875 
L 21.828125 63.875 
L 21.828125 44.828125 
Q 35.75 44.828125 43.5625 38.421875 
Q 51.375 32.03125 51.375 20.703125 
Q 51.375 10.15625 44.265625 4.171875 
Q 37.15625 -1.8125 24.65625 -1.8125 
Q 19.09375 -1.8125 12.15625 -0.296875 
z
" id="LucidaSansUnicode-53"/>
      </defs>
      <g transform="translate(34.227283 118.438688)scale(0.05 -0.05)">
       <use transform="translate(0 0.292188)" xlink:href="#LucidaSansUnicode-49"/>
       <use transform="translate(63.232422 0.292188)" xlink:href="#LucidaSansUnicode-48"/>
       <use transform="translate(127.392891 37.414063)scale(0.7)" xlink:href="#LucidaSansUnicode-53"/>
      </g>
     </g>
    </g>
    <g id="xtick_2">
     <g id="text_2">
      <!-- $\mathdefault{10^{6}}$ -->
      <defs>
       <path d="M 17.1875 37.453125 
Q 24.078125 46.390625 34.515625 46.390625 
Q 44 46.390625 50.03125 40.109375 
Q 56.0625 33.84375 56.0625 24.03125 
Q 56.0625 12.75 49.296875 5.46875 
Q 42.53125 -1.8125 32.078125 -1.8125 
Q 20.171875 -1.8125 13.421875 7.828125 
Q 6.6875 17.484375 6.6875 34.515625 
Q 6.6875 57.46875 18.453125 68.21875 
Q 24.859375 74.125 36.140625 74.125 
Q 42.671875 74.125 52.34375 71.390625 
L 52.34375 62.984375 
Q 42.140625 66.890625 35.546875 66.890625 
Q 17.1875 66.890625 17.1875 37.453125 
z
M 46.390625 22.125 
Q 46.390625 30.125 42.671875 34.78125 
Q 38.96875 39.453125 32.515625 39.453125 
Q 26.375 39.453125 21.96875 35.34375 
Q 17.578125 31.25 17.578125 25.484375 
Q 17.578125 16.40625 21.75 10.90625 
Q 25.921875 5.421875 32.8125 5.421875 
Q 39.0625 5.421875 42.71875 9.90625 
Q 46.390625 14.40625 46.390625 22.125 
z
" id="LucidaSansUnicode-54"/>
      </defs>
      <g transform="translate(101.708672 118.438688)scale(0.05 -0.05)">
       <use transform="translate(0 0.990625)" xlink:href="#LucidaSansUnicode-49"/>
       <use transform="translate(63.232422 0.990625)" xlink:href="#LucidaSansUnicode-48"/>
       <use transform="translate(127.392891 38.1125)scale(0.7)" xlink:href="#LucidaSansUnicode-54"/>
      </g>
     </g>
    </g>
    <g id="xtick_3">
     <g id="text_3">
      <!-- $\mathdefault{10^{7}}$ -->
      <defs>
       <path d="M 15.046875 0 
Q 16.453125 8.453125 19.0625 14.59375 
Q 21.6875 20.75 28.328125 31.5 
L 48.046875 63.234375 
L 10.84375 63.234375 
L 10.84375 72.265625 
L 57.234375 72.265625 
L 57.234375 63.234375 
Q 29.4375 22.265625 26.125 0 
z
" id="LucidaSansUnicode-55"/>
      </defs>
      <g transform="translate(169.190061 118.438688)scale(0.05 -0.05)">
       <use transform="translate(0 0.292188)" xlink:href="#LucidaSansUnicode-49"/>
       <use transform="translate(63.232422 0.292188)" xlink:href="#LucidaSansUnicode-48"/>
       <use transform="translate(127.392891 37.414063)scale(0.7)" xlink:href="#LucidaSansUnicode-55"/>
      </g>
     </g>
    </g>
    <g id="xtick_4"/>
    <g id="xtick_5"/>
    <g id="xtick_6"/>
    <g id="xtick_7"/>
    <g id="xtick_8"/>
    <g id="xtick_9"/>
    <g id="xtick_10"/>
    <g id="xtick_11"/>
    <g id="xtick_12"/>
    <g id="xtick_13"/>
    <g id="xtick_14"/>
    <g id="xtick_15"/>
    <g id="xtick_16"/>
    <g id="xtick_17"/>
    <g id="xtick_18"/>
    <g id="xtick_19"/>
    <g id="xtick_20"/>
    <g id="xtick_21"/>
    <g id="text_4">
     <!-- ATP equivalents per cell -->
     <defs>
      <path d="M 0.828125 0 
L 29.5 72.265625 
L 39.65625 72.265625 
L 67.875 0 
L 56.78125 0 
L 48.921875 20.015625 
L 18.3125 20.015625 
L 10.359375 0 
z
M 21.296875 27.640625 
L 45.953125 27.640625 
L 33.640625 58.796875 
z
" id="LucidaSansUnicode-65"/>
      <path d="M 26.515625 0 
L 26.515625 64.59375 
L 0.875 64.59375 
L 0.875 72.265625 
L 62.40625 72.265625 
L 62.40625 64.59375 
L 36.765625 64.59375 
L 36.765625 0 
z
" id="LucidaSansUnicode-84"/>
      <path d="M 9.328125 0 
L 9.328125 72.265625 
L 29 72.265625 
Q 37.5 72.265625 42.109375 70.875 
Q 46.734375 69.484375 49.65625 65.96875 
Q 53.515625 61.328125 53.515625 53.328125 
Q 53.515625 41.796875 45.703125 35.25 
Q 37.890625 28.71875 24.03125 28.71875 
L 19.484375 28.71875 
L 19.484375 0 
z
M 19.484375 36.46875 
L 23.640625 36.46875 
Q 32.765625 36.46875 37.734375 40.671875 
Q 42.71875 44.875 42.71875 52.59375 
Q 42.71875 59.03125 38.78125 61.8125 
Q 34.859375 64.59375 25.78125 64.59375 
L 19.484375 64.59375 
z
" id="LucidaSansUnicode-80"/>
      <path id="LucidaSansUnicode-32"/>
      <path d="M 48.484375 1.703125 
Q 38.8125 -1.21875 31.9375 -1.21875 
Q 20.171875 -1.21875 12.796875 6.5625 
Q 5.421875 14.359375 5.421875 26.765625 
Q 5.421875 38.8125 11.9375 46.53125 
Q 18.453125 54.25 28.609375 54.25 
Q 38.234375 54.25 43.484375 47.390625 
Q 48.734375 40.53125 48.734375 27.9375 
L 48.6875 25 
L 15.234375 25 
Q 17.328125 6.109375 33.734375 6.109375 
Q 39.75 6.109375 48.484375 9.328125 
z
M 15.671875 32.234375 
L 39.0625 32.234375 
Q 39.0625 47.015625 28.03125 47.015625 
Q 16.9375 47.015625 15.671875 32.234375 
z
" id="LucidaSansUnicode-101"/>
      <path d="M 43.65625 -19.28125 
L 43.65625 9.96875 
Q 37.796875 -1.21875 25.984375 -1.21875 
Q 16.40625 -1.21875 10.90625 5.765625 
Q 5.421875 12.75 5.421875 24.859375 
Q 5.421875 38.09375 11.640625 46.140625 
Q 17.875 54.203125 28.03125 54.203125 
Q 37.453125 54.203125 43.65625 46.96875 
L 43.65625 53.03125 
L 53.328125 53.03125 
L 53.328125 -19.28125 
z
M 43.65625 40.375 
Q 36.1875 46.96875 29.5 46.96875 
Q 22.90625 46.96875 19.28125 41.453125 
Q 15.671875 35.9375 15.671875 25.828125 
Q 15.671875 7.234375 27.984375 7.234375 
Q 35.984375 7.234375 43.65625 15.96875 
z
" id="LucidaSansUnicode-113"/>
      <path d="M 42.78125 0 
L 42.78125 9.96875 
Q 35.109375 -1.21875 24.171875 -1.21875 
Q 17.234375 -1.21875 13.125 3.140625 
Q 9.03125 7.515625 9.03125 14.9375 
L 9.03125 53.03125 
L 18.65625 53.03125 
L 18.65625 18.0625 
Q 18.65625 12.109375 20.390625 9.59375 
Q 22.125 7.078125 26.171875 7.078125 
Q 34.96875 7.078125 42.78125 18.65625 
L 42.78125 53.03125 
L 52.390625 53.03125 
L 52.390625 0 
z
" id="LucidaSansUnicode-117"/>
      <path d="M 9.625 0 
L 9.625 53.03125 
L 19.234375 53.03125 
L 19.234375 0 
z
M 9.625 62.640625 
L 9.625 72.265625 
L 19.234375 72.265625 
L 19.234375 62.640625 
z
" id="LucidaSansUnicode-105"/>
      <path d="M 20.609375 0 
L 0.875 53.03125 
L 10.5 53.03125 
L 25.921875 11.765625 
L 42.1875 53.03125 
L 51.171875 53.03125 
L 30.21875 0 
z
" id="LucidaSansUnicode-118"/>
      <path d="M 36.96875 6.734375 
Q 28.328125 -1.21875 20.3125 -1.21875 
Q 13.71875 -1.21875 9.375 2.90625 
Q 5.03125 7.03125 5.03125 13.328125 
Q 5.03125 22.015625 12.328125 26.671875 
Q 19.625 31.34375 33.296875 31.34375 
L 35.546875 31.34375 
L 35.546875 37.75 
Q 35.546875 46.96875 25.921875 46.96875 
Q 18.453125 46.96875 9.625 42.28125 
L 9.625 50.25 
Q 19.34375 54.203125 27.9375 54.203125 
Q 36.765625 54.203125 40.96875 50.171875 
Q 45.171875 46.140625 45.171875 37.75 
L 45.171875 13.71875 
Q 45.171875 5.46875 50.25 5.46875 
Q 50.875 5.46875 52.09375 5.671875 
L 52.78125 0.34375 
Q 49.515625 -1.21875 45.5625 -1.21875 
Q 38.8125 -1.21875 36.96875 6.734375 
z
M 35.546875 11.96875 
L 35.546875 25.6875 
L 32.46875 25.78125 
Q 24.46875 25.78125 19.5625 22.796875 
Q 14.65625 19.828125 14.65625 14.890625 
Q 14.65625 11.421875 17.09375 9.03125 
Q 19.53125 6.640625 23.046875 6.640625 
Q 29.046875 6.640625 35.546875 11.96875 
z
" id="LucidaSansUnicode-97"/>
      <path d="M 9.625 0 
L 9.625 77.09375 
L 19.234375 77.09375 
L 19.234375 0 
z
" id="LucidaSansUnicode-108"/>
      <path d="M 9.625 0 
L 9.625 53.03125 
L 19.234375 53.03125 
L 19.234375 43.0625 
Q 26.859375 54.203125 37.890625 54.203125 
Q 44.828125 54.203125 48.90625 49.828125 
Q 52.984375 45.453125 52.984375 38.09375 
L 52.984375 0 
L 43.359375 0 
L 43.359375 34.96875 
Q 43.359375 40.875 41.625 43.390625 
Q 39.890625 45.90625 35.890625 45.90625 
Q 27.046875 45.90625 19.234375 34.328125 
L 19.234375 0 
z
" id="LucidaSansUnicode-110"/>
      <path d="M 33.25 0 
Q 28.8125 -1.21875 25.53125 -1.21875 
Q 18.21875 -1.21875 14.109375 2.96875 
Q 10.015625 7.171875 10.015625 14.65625 
L 10.015625 45.796875 
L 3.375 45.796875 
L 3.375 53.03125 
L 10.015625 53.03125 
L 10.015625 62.640625 
L 19.625 63.578125 
L 19.625 53.03125 
L 33.5 53.03125 
L 33.5 45.796875 
L 19.625 45.796875 
L 19.625 16.40625 
Q 19.625 6 28.609375 6 
Q 30.515625 6 33.25 6.640625 
z
" id="LucidaSansUnicode-116"/>
      <path d="M 7.671875 1.859375 
L 7.671875 10.6875 
Q 17.09375 6 24.078125 6 
Q 28.21875 6 30.953125 8.25 
Q 33.6875 10.5 33.6875 13.875 
Q 33.6875 18.796875 26.03125 22.015625 
L 20.40625 24.421875 
Q 7.953125 29.59375 7.953125 39.3125 
Q 7.953125 46.234375 12.859375 50.21875 
Q 17.78125 54.203125 26.3125 54.203125 
Q 30.765625 54.203125 37.3125 52.984375 
L 39.3125 52.59375 
L 39.3125 44.578125 
Q 31.25 46.96875 26.46875 46.96875 
Q 22.265625 46.96875 19.75 45.140625 
Q 17.234375 43.3125 17.234375 40.234375 
Q 17.234375 35.890625 24.265625 32.90625 
L 28.90625 30.953125 
Q 36.765625 27.640625 40.03125 23.953125 
Q 43.3125 20.265625 43.3125 14.75 
Q 43.3125 7.765625 37.796875 3.265625 
Q 32.28125 -1.21875 23.6875 -1.21875 
Q 17.09375 -1.21875 7.671875 1.859375 
z
" id="LucidaSansUnicode-115"/>
      <path d="M 9.625 -19.28125 
L 9.625 53.03125 
L 19.234375 53.03125 
L 19.234375 43.0625 
Q 25.140625 54.203125 36.96875 54.203125 
Q 46.53125 54.203125 52.015625 47.21875 
Q 57.515625 40.234375 57.515625 28.125 
Q 57.515625 14.9375 51.28125 6.859375 
Q 45.0625 -1.21875 34.90625 -1.21875 
Q 25.484375 -1.21875 19.234375 6 
L 19.234375 -19.28125 
z
M 19.234375 12.640625 
Q 26.65625 6 33.40625 6 
Q 40.046875 6 43.65625 11.546875 
Q 47.265625 17.09375 47.265625 27.15625 
Q 47.265625 45.796875 34.96875 45.796875 
Q 26.90625 45.796875 19.234375 37.0625 
z
" id="LucidaSansUnicode-112"/>
      <path d="M 9.625 0 
L 9.625 53.03125 
L 19.234375 53.03125 
L 19.234375 43.0625 
Q 24.953125 54.203125 35.84375 54.203125 
Q 37.3125 54.203125 38.921875 53.953125 
L 38.921875 44.96875 
Q 36.421875 45.796875 34.515625 45.796875 
Q 25.390625 45.796875 19.234375 34.96875 
L 19.234375 0 
z
" id="LucidaSansUnicode-114"/>
      <path d="M 46.4375 1.609375 
Q 37.109375 -1.21875 30.328125 -1.21875 
Q 19.578125 -1.21875 12.5 6.734375 
Q 5.421875 14.703125 5.421875 26.8125 
Q 5.421875 39.75 12.421875 46.96875 
Q 19.4375 54.203125 31.984375 54.203125 
Q 38.1875 54.203125 45.84375 52.484375 
L 45.84375 44.4375 
Q 37.703125 46.828125 32.5625 46.828125 
Q 25.140625 46.828125 20.703125 41.28125 
Q 16.265625 35.75 16.265625 26.515625 
Q 16.265625 17.578125 20.84375 12.0625 
Q 25.4375 6.546875 32.859375 6.546875 
Q 39.453125 6.546875 46.4375 9.90625 
z
" id="LucidaSansUnicode-99"/>
     </defs>
     <g style="fill:#262626;" transform="translate(77.27152 128.028375)scale(0.06 -0.06)">
      <use xlink:href="#LucidaSansUnicode-65"/>
      <use x="68.994141" xlink:href="#LucidaSansUnicode-84"/>
      <use x="132.226562" xlink:href="#LucidaSansUnicode-80"/>
      <use x="187.5" xlink:href="#LucidaSansUnicode-32"/>
      <use x="219.140625" xlink:href="#LucidaSansUnicode-101"/>
      <use x="274.853516" xlink:href="#LucidaSansUnicode-113"/>
      <use x="337.792969" xlink:href="#LucidaSansUnicode-117"/>
      <use x="399.853516" xlink:href="#LucidaSansUnicode-105"/>
      <use x="428.759766" xlink:href="#LucidaSansUnicode-118"/>
      <use x="480.517578" xlink:href="#LucidaSansUnicode-97"/>
      <use x="535.742188" xlink:href="#LucidaSansUnicode-108"/>
      <use x="564.648438" xlink:href="#LucidaSansUnicode-101"/>
      <use x="620.361328" xlink:href="#LucidaSansUnicode-110"/>
      <use x="682.421875" xlink:href="#LucidaSansUnicode-116"/>
      <use x="719.824219" xlink:href="#LucidaSansUnicode-115"/>
      <use x="770.800781" xlink:href="#LucidaSansUnicode-32"/>
      <use x="802.441406" xlink:href="#LucidaSansUnicode-112"/>
      <use x="865.380859" xlink:href="#LucidaSansUnicode-101"/>
      <use x="921.09375" xlink:href="#LucidaSansUnicode-114"/>
      <use x="962.011719" xlink:href="#LucidaSansUnicode-32"/>
      <use x="993.652344" xlink:href="#LucidaSansUnicode-99"/>
      <use x="1044.873047" xlink:href="#LucidaSansUnicode-101"/>
      <use x="1100.585938" xlink:href="#LucidaSansUnicode-108"/>
      <use x="1129.492188" xlink:href="#LucidaSansUnicode-108"/>
     </g>
    </g>
   </g>
   <g id="matplotlib.axis_2">
    <g id="ytick_1">
     <g id="text_5">
      <!-- 2 -->
      <defs>
       <path d="M 8.296875 0 
L 8.296875 8.453125 
Q 12.5 18.265625 25.296875 29.828125 
L 30.8125 34.765625 
Q 41.453125 44.390625 41.453125 53.859375 
Q 41.453125 59.90625 37.8125 63.375 
Q 34.1875 66.84375 27.78125 66.84375 
Q 20.3125 66.84375 10.109375 61.03125 
L 10.109375 69.53125 
Q 19.734375 74.078125 29.25 74.078125 
Q 39.40625 74.078125 45.53125 68.609375 
Q 51.65625 63.140625 51.65625 54.109375 
Q 51.65625 47.609375 48.546875 42.578125 
Q 45.453125 37.546875 37.015625 30.375 
L 33.296875 27.203125 
Q 21.734375 17.390625 19.921875 8.453125 
L 51.3125 8.453125 
L 51.3125 0 
z
" id="LucidaSansUnicode-50"/>
      </defs>
      <g transform="translate(24.598281 108.200989)scale(0.05 -0.05)">
       <use xlink:href="#LucidaSansUnicode-50"/>
      </g>
     </g>
    </g>
    <g id="ytick_2">
     <g id="text_6">
      <!-- 4 -->
      <defs>
       <path d="M 37.640625 0 
L 37.640625 20.453125 
L 5.125 20.453125 
L 5.125 27.734375 
L 37.640625 72.265625 
L 46.6875 72.265625 
L 46.6875 28.328125 
L 56.34375 28.328125 
L 56.34375 20.453125 
L 46.6875 20.453125 
L 46.6875 0 
z
M 14.546875 28.328125 
L 38.28125 28.328125 
L 38.28125 60.453125 
z
" id="LucidaSansUnicode-52"/>
      </defs>
      <g transform="translate(24.598281 92.630951)scale(0.05 -0.05)">
       <use xlink:href="#LucidaSansUnicode-52"/>
      </g>
     </g>
    </g>
    <g id="ytick_3">
     <g id="text_7">
      <!-- 6 -->
      <g transform="translate(24.598281 77.060912)scale(0.05 -0.05)">
       <use xlink:href="#LucidaSansUnicode-54"/>
      </g>
     </g>
    </g>
    <g id="ytick_4">
     <g id="text_8">
      <!-- 8 -->
      <defs>
       <path d="M 23 39.359375 
Q 17.046875 43.5 14.71875 47.0625 
Q 12.40625 50.640625 12.40625 55.671875 
Q 12.40625 63.875 18.40625 69 
Q 24.421875 74.125 34.078125 74.125 
Q 43.015625 74.125 48.5625 69.78125 
Q 54.109375 65.4375 54.109375 58.5 
Q 54.109375 48 40.625 39.359375 
Q 56.984375 31.34375 56.984375 18.703125 
Q 56.984375 9.671875 50.140625 3.921875 
Q 43.3125 -1.8125 32.5625 -1.8125 
Q 21.828125 -1.8125 15.234375 3.578125 
Q 8.640625 8.984375 8.640625 17.78125 
Q 8.640625 30.765625 23 39.359375 
z
M 35.25 42.390625 
Q 45.359375 49.03125 45.359375 57.171875 
Q 45.359375 61.53125 41.96875 64.1875 
Q 38.578125 66.84375 33.109375 66.84375 
Q 27.78125 66.84375 24.453125 64.234375 
Q 21.140625 61.625 21.140625 57.46875 
Q 21.140625 53.421875 24.140625 50.1875 
Q 27.15625 46.96875 35.25 42.390625 
z
M 28.21875 35.453125 
Q 22.40625 30.953125 20.328125 27.609375 
Q 18.265625 24.265625 18.265625 19.28125 
Q 18.265625 13.09375 22.265625 9.25 
Q 26.265625 5.421875 32.8125 5.421875 
Q 39.109375 5.421875 43.09375 8.6875 
Q 47.078125 11.96875 47.078125 17.1875 
Q 47.078125 21.390625 44.609375 24.296875 
Q 42.140625 27.203125 35.0625 31.390625 
z
" id="LucidaSansUnicode-56"/>
      </defs>
      <g transform="translate(24.598281 61.490874)scale(0.05 -0.05)">
       <use xlink:href="#LucidaSansUnicode-56"/>
      </g>
     </g>
    </g>
    <g id="ytick_5">
     <g id="text_9">
      <!-- 10 -->
      <g transform="translate(21.436563 45.920836)scale(0.05 -0.05)">
       <use xlink:href="#LucidaSansUnicode-49"/>
       <use x="63.232422" xlink:href="#LucidaSansUnicode-48"/>
      </g>
     </g>
    </g>
    <g id="ytick_6">
     <g id="text_10">
      <!-- 12 -->
      <g transform="translate(21.436563 30.350797)scale(0.05 -0.05)">
       <use xlink:href="#LucidaSansUnicode-49"/>
       <use x="63.232422" xlink:href="#LucidaSansUnicode-50"/>
      </g>
     </g>
    </g>
    <g id="ytick_7">
     <g id="text_11">
      <!-- 14 -->
      <g transform="translate(21.436563 14.780759)scale(0.05 -0.05)">
       <use xlink:href="#LucidaSansUnicode-49"/>
       <use x="63.232422" xlink:href="#LucidaSansUnicode-52"/>
      </g>
     </g>
    </g>
    <g id="text_12">
     <!-- S/V ratio -->
     <defs>
      <path d="M 4.890625 1.375 
L 4.890625 11.53125 
Q 17.09375 5.859375 25 5.859375 
Q 31 5.859375 34.6875 9.046875 
Q 38.375 12.25 38.375 17.390625 
Q 38.375 21.625 35.953125 24.609375 
Q 33.546875 27.59375 27.046875 31.25 
L 22.078125 34.125 
Q 12.84375 39.40625 9.0625 44.0625 
Q 5.28125 48.734375 5.28125 54.890625 
Q 5.28125 63.28125 11.328125 68.671875 
Q 17.390625 74.078125 26.765625 74.078125 
Q 35.109375 74.078125 44.390625 71.296875 
L 44.390625 61.921875 
Q 32.953125 66.40625 27.34375 66.40625 
Q 22.015625 66.40625 18.546875 63.578125 
Q 15.09375 60.75 15.09375 56.453125 
Q 15.09375 52.828125 17.625 50.046875 
Q 20.171875 47.265625 26.90625 43.40625 
L 32.078125 40.484375 
Q 41.453125 35.15625 45.15625 30.421875 
Q 48.875 25.6875 48.875 19.046875 
Q 48.875 9.625 41.9375 3.90625 
Q 35.015625 -1.8125 23.53125 -1.8125 
Q 16.21875 -1.8125 4.890625 1.375 
z
" id="LucidaSansUnicode-83"/>
      <path d="M 10.84375 -14.453125 
L 36.53125 72.3125 
L 41.609375 72.3125 
L 15.921875 -14.453125 
z
" id="LucidaSansUnicode-47"/>
      <path d="M 29.046875 0 
L 1.765625 72.265625 
L 12.015625 72.265625 
L 34.375 13.09375 
L 55.953125 72.265625 
L 64.9375 72.265625 
L 38.71875 0 
z
" id="LucidaSansUnicode-86"/>
      <path d="M 30.71875 -1.21875 
Q 19.046875 -1.21875 12.234375 6.25 
Q 5.421875 13.71875 5.421875 26.515625 
Q 5.421875 39.3125 12.234375 46.75 
Q 19.046875 54.203125 30.71875 54.203125 
Q 42.390625 54.203125 49.1875 46.75 
Q 56 39.3125 56 26.515625 
Q 56 13.71875 49.1875 6.25 
Q 42.390625 -1.21875 30.71875 -1.21875 
z
M 30.71875 6 
Q 37.890625 6 41.84375 11.375 
Q 45.796875 16.75 45.796875 26.515625 
Q 45.796875 36.28125 41.84375 41.625 
Q 37.890625 46.96875 30.71875 46.96875 
Q 23.53125 46.96875 19.59375 41.625 
Q 15.671875 36.28125 15.671875 26.515625 
Q 15.671875 16.75 19.59375 11.375 
Q 23.53125 6 30.71875 6 
z
" id="LucidaSansUnicode-111"/>
     </defs>
     <g style="fill:#262626;" transform="translate(16.279688 74.334734)rotate(-90)scale(0.06 -0.06)">
      <use xlink:href="#LucidaSansUnicode-83"/>
      <use x="53.857422" xlink:href="#LucidaSansUnicode-47"/>
      <use x="106.298828" xlink:href="#LucidaSansUnicode-86"/>
      <use x="171.679688" xlink:href="#LucidaSansUnicode-32"/>
      <use x="203.320312" xlink:href="#LucidaSansUnicode-114"/>
      <use x="244.238281" xlink:href="#LucidaSansUnicode-97"/>
      <use x="299.462891" xlink:href="#LucidaSansUnicode-116"/>
      <use x="336.865234" xlink:href="#LucidaSansUnicode-105"/>
      <use x="365.771484" xlink:href="#LucidaSansUnicode-111"/>
     </g>
    </g>
   </g>
   <g id="line2d_1">
    <path clip-path="url(#p1b114ed6e6)" d="M 38.602283 16.460118 
L 65.514974 44.248626 
L 79.304041 55.511985 
L 88.64361 62.196894 
L 95.71513 66.806481 
L 101.407701 70.257056 
L 106.172346 72.978275 
L 110.269604 75.203249 
L 113.863672 77.071404 
L 117.064736 78.672185 
L 119.950335 80.0661 
L 122.577107 81.295815 
L 124.987686 82.392444 
L 127.214968 83.379307 
L 129.28487 84.274294 
L 131.218172 85.091399 
L 133.031793 85.841759 
L 134.739691 86.534366 
L 136.353515 87.176575 
L 137.883091 87.774472 
L 139.33678 88.333146 
L 140.721757 88.856889 
L 142.044226 89.349353 
L 143.309586 89.813666 
L 144.522566 90.252529 
L 145.687331 90.668287 
L 146.807568 91.062988 
L 147.886557 91.438431 
L 148.927227 91.796201 
L 149.932207 92.137705 
L 150.903864 92.464195 
L 151.844337 92.776789 
L 152.755566 93.07649 
L 153.639314 93.3642 
L 154.497192 93.640735 
L 155.330669 93.906834 
L 156.141097 94.163165 
L 156.929716 94.410341 
L 157.697668 94.648918 
L 158.44601 94.879406 
L 159.175719 95.102274 
L 159.887698 95.317951 
L 160.58279 95.526835 
L 161.261778 95.729291 
L 161.92539 95.925657 
L 162.574308 96.116247 
L 163.209167 96.301352 
L 163.830566 96.481242 
L 164.439061 96.656169 
L 165.035179 96.826368 
L 165.619413 96.992058 
L 166.192228 97.153443 
L 166.754061 97.310717 
L 167.305325 97.464059 
L 167.846411 97.613637 
L 168.377689 97.75961 
L 168.899506 97.902129 
L 169.412194 98.041332 
L 169.916068 98.177354 
L 170.411424 98.310319 
L 170.898547 98.440345 
L 171.377706 98.567544 
L 171.849156 98.692022 
L 172.313142 98.813879 
L 172.769896 98.933211 
L 173.219641 99.050107 
L 173.662588 99.164654 
L 174.09894 99.276932 
L 174.528891 99.387019 
L 174.952624 99.494989 
L 175.370319 99.600912 
L 175.782144 99.704855 
L 176.188262 99.806881 
L 176.588829 99.907053 
L 176.983994 100.005428 
L 177.373902 100.102062 
L 177.758691 100.197007 
L 178.138493 100.290316 
L 178.513436 100.382036 
L 178.883643 100.472214 
L 179.249231 100.560896 
L 179.610315 100.648124 
L 179.967004 100.733939 
L 180.319404 100.818382 
L 180.667617 100.901489 
L 181.011741 100.983297 
L 181.351871 101.063842 
L 181.688099 101.143157 
L 182.020513 101.221275 
L 182.349199 101.298227 
L 182.67424 101.374043 
L 182.995715 101.448752 
L 183.313702 101.522383 
L 183.628275 101.594961 
L 183.939508 101.666514 
L 184.247471 101.737065 
L 184.55223 101.806641 
L 184.853854 101.875263 
L 185.152404 101.942954 
L 185.447944 102.009737 
" style="fill:none;stroke:#7e9d90;stroke-linecap:round;stroke-opacity:0.6;stroke-width:1.5;"/>
   </g>
   <g id="line2d_2">
    <path clip-path="url(#p1b114ed6e6)" d="M 38.602283 40.733171 
L 65.514974 62.121137 
L 79.304041 70.790201 
L 88.64361 75.935371 
L 95.71513 79.483229 
L 101.407701 82.139032 
L 106.172346 84.233471 
L 110.269604 85.945966 
L 113.863672 87.383827 
L 117.064736 88.6159 
L 119.950335 89.688753 
L 122.577107 90.635228 
L 124.987686 91.479269 
L 127.214968 92.238828 
L 129.28487 92.927672 
L 131.218172 93.556573 
L 133.031793 94.134102 
L 134.739691 94.66718 
L 136.353515 95.161469 
L 137.883091 95.621652 
L 139.33678 96.051647 
L 140.721757 96.454756 
L 142.044226 96.833789 
L 143.309586 97.191157 
L 144.522566 97.528936 
L 145.687331 97.848933 
L 146.807568 98.152722 
L 147.886557 98.441689 
L 148.927227 98.717054 
L 149.932207 98.979899 
L 150.903864 99.231188 
L 151.844337 99.471782 
L 152.755566 99.702453 
L 153.639314 99.923895 
L 154.497192 100.136736 
L 155.330669 100.341543 
L 156.141097 100.538834 
L 156.929716 100.729077 
L 157.697668 100.912703 
L 158.44601 101.090102 
L 159.175719 101.261637 
L 159.887698 101.427638 
L 160.58279 101.588409 
L 161.261778 101.744233 
L 161.92539 101.89537 
L 162.574308 102.042061 
L 163.209167 102.184531 
L 163.830566 102.322987 
L 164.439061 102.457623 
L 165.035179 102.58862 
L 165.619413 102.716146 
L 166.192228 102.84036 
L 166.754061 102.961408 
L 167.305325 103.079431 
L 167.846411 103.194556 
L 168.377689 103.306908 
L 168.899506 103.4166 
L 169.412194 103.523741 
L 169.916068 103.628432 
L 170.411424 103.730771 
L 170.898547 103.830848 
L 171.377706 103.92875 
L 171.849156 104.024557 
L 172.313142 104.118347 
L 172.769896 104.210193 
L 173.219641 104.300164 
L 173.662588 104.388327 
L 174.09894 104.474744 
L 174.528891 104.559475 
L 174.952624 104.642576 
L 175.370319 104.724101 
L 175.782144 104.804103 
L 176.188262 104.88263 
L 176.588829 104.959729 
L 176.983994 105.035445 
L 177.373902 105.109821 
L 177.758691 105.182898 
L 178.138493 105.254715 
L 178.513436 105.325309 
L 178.883643 105.394716 
L 179.249231 105.462972 
L 179.610315 105.530109 
L 179.967004 105.596158 
L 180.319404 105.661151 
L 180.667617 105.725116 
L 181.011741 105.788081 
L 181.351871 105.850074 
L 181.688099 105.911121 
L 182.020513 105.971246 
L 182.349199 106.030473 
L 182.67424 106.088826 
L 182.995715 106.146328 
L 183.313702 106.202999 
L 183.628275 106.25886 
L 183.939508 106.313932 
L 184.247471 106.368234 
L 184.55223 106.421784 
L 184.853854 106.4746 
L 185.152404 106.5267 
L 185.447944 106.578101 
" style="fill:none;stroke:#7e9d90;stroke-linecap:round;stroke-opacity:0.4;stroke-width:1.5;"/>
   </g>
   <g id="patch_3">
    <path d="M 31.26 111.084 
L 31.26 11.954219 
" style="fill:none;stroke:#ffffff;stroke-linecap:square;stroke-linejoin:miter;stroke-width:0.8;"/>
   </g>
   <g id="patch_4">
    <path d="M 192.790227 111.084 
L 192.790227 11.954219 
" style="fill:none;stroke:#ffffff;stroke-linecap:square;stroke-linejoin:miter;stroke-width:0.8;"/>
   </g>
   <g id="patch_5">
    <path d="M 31.26 111.084 
L 192.790227 111.084 
" style="fill:none;stroke:#ffffff;stroke-linecap:square;stroke-linejoin:miter;stroke-width:0.8;"/>
   </g>
   <g id="patch_6">
    <path d="M 31.26 11.954219 
L 192.790227 11.954219 
" style="fill:none;stroke:#ffffff;stroke-linecap:square;stroke-linejoin:miter;stroke-width:0.8;"/>
   </g>
   <g id="legend_1">
    <g id="patch_7">
     <path d="M 156.87304 108.584 
L 189.290227 108.584 
Q 190.290227 108.584 190.290227 107.584 
L 190.290227 93.4465 
Q 190.290227 92.4465 189.290227 92.4465 
L 156.87304 92.4465 
Q 155.87304 92.4465 155.87304 93.4465 
L 155.87304 107.584 
Q 155.87304 108.584 156.87304 108.584 
z
" style="fill:#e3dcd0;opacity:0.8;stroke:#cccccc;stroke-linejoin:miter;"/>
    </g>
    <g id="line2d_3">
     <path d="M 157.87304 96.551187 
L 167.87304 96.551187 
" style="fill:none;stroke:#7e9d90;stroke-linecap:round;stroke-opacity:0.6;stroke-width:1.5;"/>
    </g>
    <g id="line2d_4"/>
    <g id="text_13">
     <!-- rod -->
     <defs>
      <path d="M 43.65625 0 
L 43.65625 9.96875 
Q 37.796875 -1.21875 25.984375 -1.21875 
Q 16.40625 -1.21875 10.90625 5.765625 
Q 5.421875 12.75 5.421875 24.859375 
Q 5.421875 38.09375 11.640625 46.140625 
Q 17.875 54.203125 28.03125 54.203125 
Q 37.453125 54.203125 43.65625 46.96875 
L 43.65625 77.09375 
L 53.328125 77.09375 
L 53.328125 0 
z
M 43.65625 40.375 
Q 36.1875 46.96875 29.5 46.96875 
Q 22.90625 46.96875 19.28125 41.453125 
Q 15.671875 35.9375 15.671875 25.828125 
Q 15.671875 7.234375 27.984375 7.234375 
Q 35.984375 7.234375 43.65625 15.96875 
z
" id="LucidaSansUnicode-100"/>
     </defs>
     <g style="fill:#262626;" transform="translate(171.87304 98.301187)scale(0.05 -0.05)">
      <use xlink:href="#LucidaSansUnicode-114"/>
      <use x="40.917969" xlink:href="#LucidaSansUnicode-111"/>
      <use x="102.34375" xlink:href="#LucidaSansUnicode-100"/>
     </g>
    </g>
    <g id="line2d_5">
     <path d="M 157.87304 103.869937 
L 167.87304 103.869937 
" style="fill:none;stroke:#7e9d90;stroke-linecap:round;stroke-opacity:0.4;stroke-width:1.5;"/>
    </g>
    <g id="line2d_6"/>
    <g id="text_14">
     <!-- sphere -->
     <defs>
      <path d="M 9.625 0 
L 9.625 77.09375 
L 19.234375 77.09375 
L 19.234375 43.0625 
Q 26.859375 54.203125 37.890625 54.203125 
Q 44.828125 54.203125 48.90625 49.828125 
Q 52.984375 45.453125 52.984375 38.09375 
L 52.984375 0 
L 43.359375 0 
L 43.359375 34.96875 
Q 43.359375 40.875 41.625 43.390625 
Q 39.890625 45.90625 35.890625 45.90625 
Q 27.046875 45.90625 19.234375 34.328125 
L 19.234375 0 
z
" id="LucidaSansUnicode-104"/>
     </defs>
     <g style="fill:#262626;" transform="translate(171.87304 105.619937)scale(0.05 -0.05)">
      <use xlink:href="#LucidaSansUnicode-115"/>
      <use x="50.976562" xlink:href="#LucidaSansUnicode-112"/>
      <use x="113.916016" xlink:href="#LucidaSansUnicode-104"/>
      <use x="175.976562" xlink:href="#LucidaSansUnicode-101"/>
      <use x="231.689453" xlink:href="#LucidaSansUnicode-114"/>
      <use x="272.607422" xlink:href="#LucidaSansUnicode-101"/>
     </g>
    </g>
   </g>
  </g>
  <g id="axes_2">
   <g id="patch_8">
    <path d="M 214.070227 111.084 
L 267.913636 111.084 
L 267.913636 11.954219 
L 214.070227 11.954219 
z
" style="fill:#e3dcd0;"/>
   </g>
   <g id="matplotlib.axis_3">
    <g id="xtick_22">
     <g id="text_15">
      <!-- $\mathdefault{10^{-205}}$ -->
      <defs>
       <path d="M 10.84375 26.515625 
L 10.84375 31.34375 
L 68.65625 31.34375 
L 68.65625 26.515625 
z
" id="LucidaSansUnicode-8722"/>
      </defs>
      <g transform="translate(224.04303 118.438688)scale(0.05 -0.05)">
       <use transform="translate(0 0.023438)" xlink:href="#LucidaSansUnicode-49"/>
       <use transform="translate(63.232422 0.023438)" xlink:href="#LucidaSansUnicode-48"/>
       <use transform="translate(127.392891 37.145312)scale(0.7)" xlink:href="#LucidaSansUnicode-8722"/>
       <use transform="translate(183.037422 37.145312)scale(0.7)" xlink:href="#LucidaSansUnicode-50"/>
       <use transform="translate(227.300117 37.145312)scale(0.7)" xlink:href="#LucidaSansUnicode-48"/>
       <use transform="translate(271.562812 37.145312)scale(0.7)" xlink:href="#LucidaSansUnicode-53"/>
      </g>
     </g>
    </g>
    <g id="xtick_23">
     <g id="text_16">
      <!-- $\mathdefault{10^{-94}}$ -->
      <defs>
       <path d="M 11.375 0.4375 
L 11.375 8.59375 
Q 20.5625 5.421875 27 5.421875 
Q 35.984375 5.421875 41.03125 13.0625 
Q 46.09375 20.703125 46.09375 34.328125 
Q 38.765625 25.296875 29.4375 25.296875 
Q 20.3125 25.296875 13.96875 32 
Q 7.625 38.71875 7.625 48.390625 
Q 7.625 59.46875 14.375 66.765625 
Q 21.140625 74.078125 31.390625 74.078125 
Q 43.171875 74.078125 49.953125 64.625 
Q 56.734375 55.171875 56.734375 38.765625 
Q 56.734375 28.328125 53.46875 19.109375 
Q 50.203125 9.90625 44.671875 4.78125 
Q 37.59375 -1.8125 26.078125 -1.8125 
Q 20.40625 -1.8125 11.375 0.4375 
z
M 17.234375 50.046875 
Q 17.234375 41.796875 20.984375 37.015625 
Q 24.75 32.234375 31.15625 32.234375 
Q 37.3125 32.234375 41.625 36.375 
Q 45.953125 40.53125 45.953125 46.390625 
Q 45.953125 55.609375 41.765625 61.25 
Q 37.59375 66.890625 30.8125 66.890625 
Q 24.46875 66.890625 20.84375 62.390625 
Q 17.234375 57.90625 17.234375 50.046875 
z
" id="LucidaSansUnicode-57"/>
      </defs>
      <g transform="translate(243.253995 118.438688)scale(0.05 -0.05)">
       <use transform="translate(0 0.023438)" xlink:href="#LucidaSansUnicode-49"/>
       <use transform="translate(63.232422 0.023438)" xlink:href="#LucidaSansUnicode-48"/>
       <use transform="translate(127.392891 37.145312)scale(0.7)" xlink:href="#LucidaSansUnicode-8722"/>
       <use transform="translate(183.037422 37.145312)scale(0.7)" xlink:href="#LucidaSansUnicode-57"/>
       <use transform="translate(227.300117 37.145312)scale(0.7)" xlink:href="#LucidaSansUnicode-52"/>
      </g>
     </g>
    </g>
    <g id="text_17">
     <!-- ATP equivalents per cell -->
     <g style="fill:#262626;" transform="translate(206.238338 128.028375)scale(0.06 -0.06)">
      <use xlink:href="#LucidaSansUnicode-65"/>
      <use x="68.994141" xlink:href="#LucidaSansUnicode-84"/>
      <use x="132.226562" xlink:href="#LucidaSansUnicode-80"/>
      <use x="187.5" xlink:href="#LucidaSansUnicode-32"/>
      <use x="219.140625" xlink:href="#LucidaSansUnicode-101"/>
      <use x="274.853516" xlink:href="#LucidaSansUnicode-113"/>
      <use x="337.792969" xlink:href="#LucidaSansUnicode-117"/>
      <use x="399.853516" xlink:href="#LucidaSansUnicode-105"/>
      <use x="428.759766" xlink:href="#LucidaSansUnicode-118"/>
      <use x="480.517578" xlink:href="#LucidaSansUnicode-97"/>
      <use x="535.742188" xlink:href="#LucidaSansUnicode-108"/>
      <use x="564.648438" xlink:href="#LucidaSansUnicode-101"/>
      <use x="620.361328" xlink:href="#LucidaSansUnicode-110"/>
      <use x="682.421875" xlink:href="#LucidaSansUnicode-116"/>
      <use x="719.824219" xlink:href="#LucidaSansUnicode-115"/>
      <use x="770.800781" xlink:href="#LucidaSansUnicode-32"/>
      <use x="802.441406" xlink:href="#LucidaSansUnicode-112"/>
      <use x="865.380859" xlink:href="#LucidaSansUnicode-101"/>
      <use x="921.09375" xlink:href="#LucidaSansUnicode-114"/>
      <use x="962.011719" xlink:href="#LucidaSansUnicode-32"/>
      <use x="993.652344" xlink:href="#LucidaSansUnicode-99"/>
      <use x="1044.873047" xlink:href="#LucidaSansUnicode-101"/>
      <use x="1100.585938" xlink:href="#LucidaSansUnicode-108"/>
      <use x="1129.492188" xlink:href="#LucidaSansUnicode-108"/>
     </g>
    </g>
   </g>
   <g id="matplotlib.axis_4">
    <g id="ytick_8"/>
    <g id="ytick_9"/>
    <g id="ytick_10"/>
    <g id="ytick_11"/>
    <g id="ytick_12"/>
    <g id="ytick_13"/>
    <g id="ytick_14"/>
    <g id="text_18">
     <!-- S/V ratio -->
     <g style="fill:#262626;" transform="translate(208.913352 74.334734)rotate(-90)scale(0.06 -0.06)">
      <use xlink:href="#LucidaSansUnicode-83"/>
      <use x="53.857422" xlink:href="#LucidaSansUnicode-47"/>
      <use x="106.298828" xlink:href="#LucidaSansUnicode-86"/>
      <use x="171.679688" xlink:href="#LucidaSansUnicode-32"/>
      <use x="203.320312" xlink:href="#LucidaSansUnicode-114"/>
      <use x="244.238281" xlink:href="#LucidaSansUnicode-97"/>
      <use x="299.462891" xlink:href="#LucidaSansUnicode-116"/>
      <use x="336.865234" xlink:href="#LucidaSansUnicode-105"/>
      <use x="365.771484" xlink:href="#LucidaSansUnicode-111"/>
     </g>
    </g>
   </g>
   <g id="patch_9">
    <path d="M 214.070227 111.084 
L 214.070227 11.954219 
" style="fill:none;stroke:#ffffff;stroke-linecap:square;stroke-linejoin:miter;stroke-width:0.8;"/>
   </g>
   <g id="patch_10">
    <path d="M 267.913636 111.084 
L 267.913636 11.954219 
" style="fill:none;stroke:#ffffff;stroke-linecap:square;stroke-linejoin:miter;stroke-width:0.8;"/>
   </g>
   <g id="patch_11">
    <path d="M 214.070227 111.084 
L 267.913636 111.084 
" style="fill:none;stroke:#ffffff;stroke-linecap:square;stroke-linejoin:miter;stroke-width:0.8;"/>
   </g>
   <g id="patch_12">
    <path d="M 214.070227 11.954219 
L 267.913636 11.954219 
" style="fill:none;stroke:#ffffff;stroke-linecap:square;stroke-linejoin:miter;stroke-width:0.8;"/>
   </g>
   <g id="legend_2">
    <g id="patch_13">
     <path d="M 262.413636 108.584 
L 264.413636 108.584 
Q 265.413636 108.584 265.413636 107.584 
L 265.413636 105.584 
Q 265.413636 104.584 264.413636 104.584 
L 262.413636 104.584 
Q 261.413636 104.584 261.413636 105.584 
L 261.413636 107.584 
Q 261.413636 108.584 262.413636 108.584 
z
" style="fill:#e3dcd0;opacity:0.8;stroke:#cccccc;stroke-linejoin:miter;"/>
    </g>
   </g>
  </g>
 </g>
 <defs>
  <clipPath id="p1b114ed6e6">
   <rect height="99.129781" width="161.530227" x="31.26" y="11.954219"/>
  </clipPath>
 </defs>
</svg>
