<?xml version="1.0" encoding="utf-8" standalone="no"?>
<!DOCTYPE svg PUBLIC "-//W3C//DTD SVG 1.1//EN"
  "http://www.w3.org/Graphics/SVG/1.1/DTD/svg11.dtd">
<!-- Created with matplotlib (https://matplotlib.org/) -->
<svg height="142.7025pt" version="1.1" viewBox="0 0 219.0045 142.7025" width="219.0045pt" xmlns="http://www.w3.org/2000/svg" xmlns:xlink="http://www.w3.org/1999/xlink">
 <defs>
  <style type="text/css">
*{stroke-linecap:butt;stroke-linejoin:round;}
  </style>
 </defs>
 <g id="figure_1">
  <g id="patch_1">
   <path d="M 0 142.7025 
L 219.0045 142.7025 
L 219.0045 0 
L 0 0 
z
" style="fill:#ffffff;"/>
  </g>
  <g id="axes_1">
   <g id="patch_2">
    <path d="M 37.764188 115.92 
L 205.164187 115.92 
L 205.164187 7.2 
L 37.764188 7.2 
z
" style="fill:#e3dcd0;"/>
   </g>
   <g id="matplotlib.axis_1">
    <g id="xtick_1">
     <g id="text_1">
      <!-- 0.00 -->
      <defs>
       <path d="M 31.640625 -1.8125 
Q 20.265625 -1.8125 13.296875 8.609375 
Q 6.34375 19.046875 6.34375 36.140625 
Q 6.34375 53.21875 13.296875 63.640625 
Q 20.265625 74.078125 31.640625 74.078125 
Q 43.0625 74.078125 50 63.671875 
Q 56.9375 53.265625 56.9375 36.140625 
Q 56.9375 19.046875 50 8.609375 
Q 43.0625 -1.8125 31.640625 -1.8125 
z
M 31.640625 5.421875 
Q 46.734375 5.421875 46.734375 36.140625 
Q 46.734375 66.84375 31.640625 66.84375 
Q 16.609375 66.84375 16.609375 36.140625 
Q 16.609375 5.421875 31.640625 5.421875 
z
" id="LucidaSansUnicode-48"/>
       <path d="M 9.765625 0 
L 9.765625 12.0625 
L 21.828125 12.0625 
L 21.828125 0 
z
" id="LucidaSansUnicode-46"/>
      </defs>
      <g transform="translate(31.123875 124.045625)scale(0.06 -0.06)">
       <use xlink:href="#LucidaSansUnicode-48"/>
       <use x="63.232422" xlink:href="#LucidaSansUnicode-46"/>
       <use x="94.873047" xlink:href="#LucidaSansUnicode-48"/>
       <use x="158.105469" xlink:href="#LucidaSansUnicode-48"/>
      </g>
     </g>
    </g>
    <g id="xtick_2">
     <g id="text_2">
      <!-- 0.25 -->
      <defs>
       <path d="M 8.296875 0 
L 8.296875 8.453125 
Q 12.5 18.265625 25.296875 29.828125 
L 30.8125 34.765625 
Q 41.453125 44.390625 41.453125 53.859375 
Q 41.453125 59.90625 37.8125 63.375 
Q 34.1875 66.84375 27.78125 66.84375 
Q 20.3125 66.84375 10.109375 61.03125 
L 10.109375 69.53125 
Q 19.734375 74.078125 29.25 74.078125 
Q 39.40625 74.078125 45.53125 68.609375 
Q 51.65625 63.140625 51.65625 54.109375 
Q 51.65625 47.609375 48.546875 42.578125 
Q 45.453125 37.546875 37.015625 30.375 
L 33.296875 27.203125 
Q 21.734375 17.390625 19.921875 8.453125 
L 51.3125 8.453125 
L 51.3125 0 
z
" id="LucidaSansUnicode-50"/>
       <path d="M 12.15625 -0.296875 
L 12.15625 8.296875 
Q 19.34375 5.421875 25.828125 5.421875 
Q 32.953125 5.421875 37.03125 9.609375 
Q 41.109375 13.8125 41.109375 21.1875 
Q 41.109375 29.109375 35.34375 33.28125 
Q 29.59375 37.453125 18.703125 37.453125 
Q 16.15625 37.453125 13.375 37.109375 
L 13.375 72.265625 
L 49.953125 72.265625 
L 49.953125 63.875 
L 21.828125 63.875 
L 21.828125 44.828125 
Q 35.75 44.828125 43.5625 38.421875 
Q 51.375 32.03125 51.375 20.703125 
Q 51.375 10.15625 44.265625 4.171875 
Q 37.15625 -1.8125 24.65625 -1.8125 
Q 19.09375 -1.8125 12.15625 -0.296875 
z
" id="LucidaSansUnicode-53"/>
      </defs>
      <g transform="translate(52.048875 124.045625)scale(0.06 -0.06)">
       <use xlink:href="#LucidaSansUnicode-48"/>
       <use x="63.232422" xlink:href="#LucidaSansUnicode-46"/>
       <use x="94.873047" xlink:href="#LucidaSansUnicode-50"/>
       <use x="158.105469" xlink:href="#LucidaSansUnicode-53"/>
      </g>
     </g>
    </g>
    <g id="xtick_3">
     <g id="text_3">
      <!-- 0.50 -->
      <g transform="translate(72.973875 124.045625)scale(0.06 -0.06)">
       <use xlink:href="#LucidaSansUnicode-48"/>
       <use x="63.232422" xlink:href="#LucidaSansUnicode-46"/>
       <use x="94.873047" xlink:href="#LucidaSansUnicode-53"/>
       <use x="158.105469" xlink:href="#LucidaSansUnicode-48"/>
      </g>
     </g>
    </g>
    <g id="xtick_4">
     <g id="text_4">
      <!-- 0.75 -->
      <defs>
       <path d="M 15.046875 0 
Q 16.453125 8.453125 19.0625 14.59375 
Q 21.6875 20.75 28.328125 31.5 
L 48.046875 63.234375 
L 10.84375 63.234375 
L 10.84375 72.265625 
L 57.234375 72.265625 
L 57.234375 63.234375 
Q 29.4375 22.265625 26.125 0 
z
" id="LucidaSansUnicode-55"/>
      </defs>
      <g transform="translate(93.898875 124.045625)scale(0.06 -0.06)">
       <use xlink:href="#LucidaSansUnicode-48"/>
       <use x="63.232422" xlink:href="#LucidaSansUnicode-46"/>
       <use x="94.873047" xlink:href="#LucidaSansUnicode-55"/>
       <use x="158.105469" xlink:href="#LucidaSansUnicode-53"/>
      </g>
     </g>
    </g>
    <g id="xtick_5">
     <g id="text_5">
      <!-- 1.00 -->
      <defs>
       <path d="M 26.171875 0 
L 26.171875 65.046875 
L 14.75 65.046875 
L 14.75 71.09375 
L 35.84375 72.90625 
L 35.84375 0 
z
" id="LucidaSansUnicode-49"/>
      </defs>
      <g transform="translate(114.823875 124.045625)scale(0.06 -0.06)">
       <use xlink:href="#LucidaSansUnicode-49"/>
       <use x="63.232422" xlink:href="#LucidaSansUnicode-46"/>
       <use x="94.873047" xlink:href="#LucidaSansUnicode-48"/>
       <use x="158.105469" xlink:href="#LucidaSansUnicode-48"/>
      </g>
     </g>
    </g>
    <g id="xtick_6">
     <g id="text_6">
      <!-- 1.25 -->
      <g transform="translate(135.748875 124.045625)scale(0.06 -0.06)">
       <use xlink:href="#LucidaSansUnicode-49"/>
       <use x="63.232422" xlink:href="#LucidaSansUnicode-46"/>
       <use x="94.873047" xlink:href="#LucidaSansUnicode-50"/>
       <use x="158.105469" xlink:href="#LucidaSansUnicode-53"/>
      </g>
     </g>
    </g>
    <g id="xtick_7">
     <g id="text_7">
      <!-- 1.50 -->
      <g transform="translate(156.673875 124.045625)scale(0.06 -0.06)">
       <use xlink:href="#LucidaSansUnicode-49"/>
       <use x="63.232422" xlink:href="#LucidaSansUnicode-46"/>
       <use x="94.873047" xlink:href="#LucidaSansUnicode-53"/>
       <use x="158.105469" xlink:href="#LucidaSansUnicode-48"/>
      </g>
     </g>
    </g>
    <g id="xtick_8">
     <g id="text_8">
      <!-- 1.75 -->
      <g transform="translate(177.598875 124.045625)scale(0.06 -0.06)">
       <use xlink:href="#LucidaSansUnicode-49"/>
       <use x="63.232422" xlink:href="#LucidaSansUnicode-46"/>
       <use x="94.873047" xlink:href="#LucidaSansUnicode-55"/>
       <use x="158.105469" xlink:href="#LucidaSansUnicode-53"/>
      </g>
     </g>
    </g>
    <g id="xtick_9">
     <g id="text_9">
      <!-- 2.00 -->
      <g transform="translate(198.523875 124.045625)scale(0.06 -0.06)">
       <use xlink:href="#LucidaSansUnicode-50"/>
       <use x="63.232422" xlink:href="#LucidaSansUnicode-46"/>
       <use x="94.873047" xlink:href="#LucidaSansUnicode-48"/>
       <use x="158.105469" xlink:href="#LucidaSansUnicode-48"/>
      </g>
     </g>
    </g>
    <g id="text_10">
     <!-- growth rate [hr$^{-1}$] -->
     <defs>
      <path d="M 9.8125 -17.625 
L 10.9375 -9.28125 
Q 19.28125 -13.234375 27.4375 -13.234375 
Q 43.65625 -13.234375 43.65625 4 
L 43.65625 12.359375 
Q 41.15625 7.078125 36.546875 4.140625 
Q 31.9375 1.21875 26.265625 1.21875 
Q 16.65625 1.21875 11.03125 8.125 
Q 5.421875 15.046875 5.421875 26.859375 
Q 5.421875 38.96875 11.8125 46.578125 
Q 18.21875 54.203125 28.375 54.203125 
Q 37.25 54.203125 43.65625 46.96875 
L 43.65625 53.03125 
L 53.328125 53.03125 
L 53.328125 14.453125 
Q 53.328125 2 52.03125 -3.984375 
Q 50.734375 -9.96875 47.171875 -13.765625 
Q 40.875 -20.453125 27.484375 -20.453125 
Q 18.3125 -20.453125 9.8125 -17.625 
z
M 43.65625 18.359375 
L 43.65625 40.375 
Q 37.3125 46.96875 29.828125 46.96875 
Q 23.1875 46.96875 19.421875 41.640625 
Q 15.671875 36.328125 15.671875 26.90625 
Q 15.671875 9.625 27.9375 9.625 
Q 36.28125 9.625 43.65625 18.359375 
z
" id="LucidaSansUnicode-103"/>
      <path d="M 9.625 0 
L 9.625 53.03125 
L 19.234375 53.03125 
L 19.234375 43.0625 
Q 24.953125 54.203125 35.84375 54.203125 
Q 37.3125 54.203125 38.921875 53.953125 
L 38.921875 44.96875 
Q 36.421875 45.796875 34.515625 45.796875 
Q 25.390625 45.796875 19.234375 34.96875 
L 19.234375 0 
z
" id="LucidaSansUnicode-114"/>
      <path d="M 30.71875 -1.21875 
Q 19.046875 -1.21875 12.234375 6.25 
Q 5.421875 13.71875 5.421875 26.515625 
Q 5.421875 39.3125 12.234375 46.75 
Q 19.046875 54.203125 30.71875 54.203125 
Q 42.390625 54.203125 49.1875 46.75 
Q 56 39.3125 56 26.515625 
Q 56 13.71875 49.1875 6.25 
Q 42.390625 -1.21875 30.71875 -1.21875 
z
M 30.71875 6 
Q 37.890625 6 41.84375 11.375 
Q 45.796875 16.75 45.796875 26.515625 
Q 45.796875 36.28125 41.84375 41.625 
Q 37.890625 46.96875 30.71875 46.96875 
Q 23.53125 46.96875 19.59375 41.625 
Q 15.671875 36.28125 15.671875 26.515625 
Q 15.671875 16.75 19.59375 11.375 
Q 23.53125 6 30.71875 6 
z
" id="LucidaSansUnicode-111"/>
      <path d="M 15.765625 0 
L 0.59375 53.03125 
L 10.015625 53.03125 
L 21.625 11.96875 
L 34.1875 53.03125 
L 43.796875 53.03125 
L 54.78125 11.96875 
L 68.109375 53.03125 
L 76.375 53.03125 
L 59.078125 0 
L 49.421875 0 
L 38.1875 41.0625 
L 25.484375 0 
z
" id="LucidaSansUnicode-119"/>
      <path d="M 33.25 0 
Q 28.8125 -1.21875 25.53125 -1.21875 
Q 18.21875 -1.21875 14.109375 2.96875 
Q 10.015625 7.171875 10.015625 14.65625 
L 10.015625 45.796875 
L 3.375 45.796875 
L 3.375 53.03125 
L 10.015625 53.03125 
L 10.015625 62.640625 
L 19.625 63.578125 
L 19.625 53.03125 
L 33.5 53.03125 
L 33.5 45.796875 
L 19.625 45.796875 
L 19.625 16.40625 
Q 19.625 6 28.609375 6 
Q 30.515625 6 33.25 6.640625 
z
" id="LucidaSansUnicode-116"/>
      <path d="M 9.625 0 
L 9.625 77.09375 
L 19.234375 77.09375 
L 19.234375 43.0625 
Q 26.859375 54.203125 37.890625 54.203125 
Q 44.828125 54.203125 48.90625 49.828125 
Q 52.984375 45.453125 52.984375 38.09375 
L 52.984375 0 
L 43.359375 0 
L 43.359375 34.96875 
Q 43.359375 40.875 41.625 43.390625 
Q 39.890625 45.90625 35.890625 45.90625 
Q 27.046875 45.90625 19.234375 34.328125 
L 19.234375 0 
z
" id="LucidaSansUnicode-104"/>
      <path id="LucidaSansUnicode-32"/>
      <path d="M 36.96875 6.734375 
Q 28.328125 -1.21875 20.3125 -1.21875 
Q 13.71875 -1.21875 9.375 2.90625 
Q 5.03125 7.03125 5.03125 13.328125 
Q 5.03125 22.015625 12.328125 26.671875 
Q 19.625 31.34375 33.296875 31.34375 
L 35.546875 31.34375 
L 35.546875 37.75 
Q 35.546875 46.96875 25.921875 46.96875 
Q 18.453125 46.96875 9.625 42.28125 
L 9.625 50.25 
Q 19.34375 54.203125 27.9375 54.203125 
Q 36.765625 54.203125 40.96875 50.171875 
Q 45.171875 46.140625 45.171875 37.75 
L 45.171875 13.71875 
Q 45.171875 5.46875 50.25 5.46875 
Q 50.875 5.46875 52.09375 5.671875 
L 52.78125 0.34375 
Q 49.515625 -1.21875 45.5625 -1.21875 
Q 38.8125 -1.21875 36.96875 6.734375 
z
M 35.546875 11.96875 
L 35.546875 25.6875 
L 32.46875 25.78125 
Q 24.46875 25.78125 19.5625 22.796875 
Q 14.65625 19.828125 14.65625 14.890625 
Q 14.65625 11.421875 17.09375 9.03125 
Q 19.53125 6.640625 23.046875 6.640625 
Q 29.046875 6.640625 35.546875 11.96875 
z
" id="LucidaSansUnicode-97"/>
      <path d="M 48.484375 1.703125 
Q 38.8125 -1.21875 31.9375 -1.21875 
Q 20.171875 -1.21875 12.796875 6.5625 
Q 5.421875 14.359375 5.421875 26.765625 
Q 5.421875 38.8125 11.9375 46.53125 
Q 18.453125 54.25 28.609375 54.25 
Q 38.234375 54.25 43.484375 47.390625 
Q 48.734375 40.53125 48.734375 27.9375 
L 48.6875 25 
L 15.234375 25 
Q 17.328125 6.109375 33.734375 6.109375 
Q 39.75 6.109375 48.484375 9.328125 
z
M 15.671875 32.234375 
L 39.0625 32.234375 
Q 39.0625 47.015625 28.03125 47.015625 
Q 16.9375 47.015625 15.671875 32.234375 
z
" id="LucidaSansUnicode-101"/>
      <path d="M 9.625 -14.453125 
L 9.625 77.09375 
L 28.90625 77.09375 
L 28.90625 69.875 
L 18.0625 69.875 
L 18.0625 -7.234375 
L 28.90625 -7.234375 
L 28.90625 -14.453125 
z
" id="LucidaSansUnicode-91"/>
      <path d="M 62.09375 22 
L 6.40625 22 
L 6.40625 28.59375 
L 62.09375 28.59375 
z
" id="STIXGeneral-Regular-8722"/>
      <path d="M 30.203125 0 
L 22.296875 0 
L 22.296875 57 
Q 20.09375 56 15.75 53.75 
Q 11.40625 51.5 10.796875 51.203125 
L 10.796875 58.5 
L 28.796875 67.703125 
L 30.203125 67.203125 
z
" id="STIXGeneral-Regular-120803"/>
      <path d="M 22.90625 77.09375 
L 22.90625 -14.453125 
L 3.609375 -14.453125 
L 3.609375 -7.234375 
L 14.453125 -7.234375 
L 14.453125 69.875 
L 3.609375 69.875 
L 3.609375 77.09375 
z
" id="LucidaSansUnicode-93"/>
     </defs>
     <g style="fill:#262626;" transform="translate(96.024187 134.2425)scale(0.06 -0.06)">
      <use transform="translate(0 0.370312)" xlink:href="#LucidaSansUnicode-103"/>
      <use transform="translate(62.353516 0.370312)" xlink:href="#LucidaSansUnicode-114"/>
      <use transform="translate(103.271484 0.370312)" xlink:href="#LucidaSansUnicode-111"/>
      <use transform="translate(164.697266 0.370312)" xlink:href="#LucidaSansUnicode-119"/>
      <use transform="translate(241.748047 0.370312)" xlink:href="#LucidaSansUnicode-116"/>
      <use transform="translate(279.150391 0.370312)" xlink:href="#LucidaSansUnicode-104"/>
      <use transform="translate(341.210938 0.370312)" xlink:href="#LucidaSansUnicode-32"/>
      <use transform="translate(372.851562 0.370312)" xlink:href="#LucidaSansUnicode-114"/>
      <use transform="translate(413.769531 0.370312)" xlink:href="#LucidaSansUnicode-97"/>
      <use transform="translate(468.994141 0.370312)" xlink:href="#LucidaSansUnicode-116"/>
      <use transform="translate(506.396484 0.370312)" xlink:href="#LucidaSansUnicode-101"/>
      <use transform="translate(562.109375 0.370312)" xlink:href="#LucidaSansUnicode-32"/>
      <use transform="translate(593.75 0.370312)" xlink:href="#LucidaSansUnicode-91"/>
      <use transform="translate(626.269531 0.370312)" xlink:href="#LucidaSansUnicode-104"/>
      <use transform="translate(688.330078 0.370312)" xlink:href="#LucidaSansUnicode-114"/>
      <use transform="translate(730.040742 36.607813)scale(0.7)" xlink:href="#STIXGeneral-Regular-8722"/>
      <use transform="translate(777.990732 36.607813)scale(0.7)" xlink:href="#STIXGeneral-Regular-120803"/>
      <use transform="translate(815.255565 0.370312)" xlink:href="#LucidaSansUnicode-93"/>
     </g>
    </g>
   </g>
   <g id="matplotlib.axis_2">
    <g id="ytick_1">
     <g id="text_11">
      <!-- $\mathdefault{10^{1}}$ -->
      <g transform="translate(23.764188 118.232812)scale(0.06 -0.06)">
       <use transform="translate(0 0.84375)" xlink:href="#LucidaSansUnicode-49"/>
       <use transform="translate(63.232422 0.84375)" xlink:href="#LucidaSansUnicode-48"/>
       <use transform="translate(127.392891 37.965625)scale(0.7)" xlink:href="#LucidaSansUnicode-49"/>
      </g>
     </g>
    </g>
    <g id="ytick_2">
     <g id="text_12">
      <!-- $\mathdefault{10^{2}}$ -->
      <g transform="translate(23.764188 88.840847)scale(0.06 -0.06)">
       <use transform="translate(0 0.023438)" xlink:href="#LucidaSansUnicode-49"/>
       <use transform="translate(63.232422 0.023438)" xlink:href="#LucidaSansUnicode-48"/>
       <use transform="translate(127.392891 37.145312)scale(0.7)" xlink:href="#LucidaSansUnicode-50"/>
      </g>
     </g>
    </g>
    <g id="ytick_3">
     <g id="text_13">
      <!-- $\mathdefault{10^{3}}$ -->
      <defs>
       <path d="M 10.15625 0.53125 
L 10.15625 9.515625 
Q 20.453125 5.421875 26.375 5.421875 
Q 33.34375 5.421875 37.671875 9.421875 
Q 42 13.421875 42 19.875 
Q 42 35.109375 20.65625 35.109375 
L 16.84375 35.109375 
L 16.84375 41.609375 
L 20.21875 41.65625 
Q 40.234375 41.65625 40.234375 55.765625 
Q 40.234375 66.84375 26.953125 66.84375 
Q 19.828125 66.84375 11.140625 62.796875 
L 11.140625 71.1875 
Q 19.671875 74.078125 27.59375 74.078125 
Q 38.375 74.078125 44.140625 69.78125 
Q 49.90625 65.484375 49.90625 57.328125 
Q 49.90625 44.578125 34.8125 39.15625 
Q 52.296875 35.109375 52.296875 20.015625 
Q 52.296875 9.8125 45.546875 4 
Q 38.8125 -1.8125 27.046875 -1.8125 
Q 20.359375 -1.8125 10.15625 0.53125 
z
" id="LucidaSansUnicode-51"/>
      </defs>
      <g transform="translate(23.764188 59.448881)scale(0.06 -0.06)">
       <use transform="translate(0 0.023438)" xlink:href="#LucidaSansUnicode-49"/>
       <use transform="translate(63.232422 0.023438)" xlink:href="#LucidaSansUnicode-48"/>
       <use transform="translate(127.392891 37.145312)scale(0.7)" xlink:href="#LucidaSansUnicode-51"/>
      </g>
     </g>
    </g>
    <g id="ytick_4">
     <g id="text_14">
      <!-- $\mathdefault{10^{4}}$ -->
      <defs>
       <path d="M 37.640625 0 
L 37.640625 20.453125 
L 5.125 20.453125 
L 5.125 27.734375 
L 37.640625 72.265625 
L 46.6875 72.265625 
L 46.6875 28.328125 
L 56.34375 28.328125 
L 56.34375 20.453125 
L 46.6875 20.453125 
L 46.6875 0 
z
M 14.546875 28.328125 
L 38.28125 28.328125 
L 38.28125 60.453125 
z
" id="LucidaSansUnicode-52"/>
      </defs>
      <g transform="translate(23.764188 30.056915)scale(0.06 -0.06)">
       <use transform="translate(0 0.292188)" xlink:href="#LucidaSansUnicode-49"/>
       <use transform="translate(63.232422 0.292188)" xlink:href="#LucidaSansUnicode-48"/>
       <use transform="translate(127.392891 37.414063)scale(0.7)" xlink:href="#LucidaSansUnicode-52"/>
      </g>
     </g>
    </g>
    <g id="ytick_5"/>
    <g id="ytick_6"/>
    <g id="ytick_7"/>
    <g id="ytick_8"/>
    <g id="ytick_9"/>
    <g id="ytick_10"/>
    <g id="ytick_11"/>
    <g id="ytick_12"/>
    <g id="ytick_13"/>
    <g id="ytick_14"/>
    <g id="ytick_15"/>
    <g id="ytick_16"/>
    <g id="ytick_17"/>
    <g id="ytick_18"/>
    <g id="ytick_19"/>
    <g id="ytick_20"/>
    <g id="ytick_21"/>
    <g id="ytick_22"/>
    <g id="ytick_23"/>
    <g id="ytick_24"/>
    <g id="ytick_25"/>
    <g id="ytick_26"/>
    <g id="ytick_27"/>
    <g id="ytick_28"/>
    <g id="ytick_29"/>
    <g id="ytick_30"/>
    <g id="ytick_31"/>
    <g id="ytick_32"/>
    <g id="text_15">
     <!-- number of CysUWA sulfate -->
     <defs>
      <path d="M 9.625 0 
L 9.625 53.03125 
L 19.234375 53.03125 
L 19.234375 43.0625 
Q 26.859375 54.203125 37.890625 54.203125 
Q 44.828125 54.203125 48.90625 49.828125 
Q 52.984375 45.453125 52.984375 38.09375 
L 52.984375 0 
L 43.359375 0 
L 43.359375 34.96875 
Q 43.359375 40.875 41.625 43.390625 
Q 39.890625 45.90625 35.890625 45.90625 
Q 27.046875 45.90625 19.234375 34.328125 
L 19.234375 0 
z
" id="LucidaSansUnicode-110"/>
      <path d="M 42.78125 0 
L 42.78125 9.96875 
Q 35.109375 -1.21875 24.171875 -1.21875 
Q 17.234375 -1.21875 13.125 3.140625 
Q 9.03125 7.515625 9.03125 14.9375 
L 9.03125 53.03125 
L 18.65625 53.03125 
L 18.65625 18.0625 
Q 18.65625 12.109375 20.390625 9.59375 
Q 22.125 7.078125 26.171875 7.078125 
Q 34.96875 7.078125 42.78125 18.65625 
L 42.78125 53.03125 
L 52.390625 53.03125 
L 52.390625 0 
z
" id="LucidaSansUnicode-117"/>
      <path d="M 9.625 0 
L 9.625 53.03125 
L 19.234375 53.03125 
L 19.234375 43.0625 
Q 26.265625 54.203125 37.3125 54.203125 
Q 47.953125 54.203125 51.8125 43.0625 
Q 58.640625 54.25 69.578125 54.25 
Q 76.5625 54.25 80.4375 50.125 
Q 84.328125 46 84.328125 38.578125 
L 84.328125 0 
L 74.65625 0 
L 74.65625 37.0625 
Q 74.65625 46.140625 67.484375 46.140625 
Q 60.015625 46.140625 51.8125 35.546875 
L 51.8125 0 
L 42.140625 0 
L 42.140625 37.0625 
Q 42.140625 46.1875 34.8125 46.1875 
Q 27.546875 46.1875 19.234375 35.546875 
L 19.234375 0 
z
" id="LucidaSansUnicode-109"/>
      <path d="M 9.625 -0.59375 
L 9.625 77.09375 
L 19.234375 77.09375 
L 19.234375 43.0625 
Q 25.140625 54.203125 36.96875 54.203125 
Q 46.53125 54.203125 52.015625 47.21875 
Q 57.515625 40.234375 57.515625 28.125 
Q 57.515625 14.9375 51.28125 6.859375 
Q 45.0625 -1.21875 34.90625 -1.21875 
Q 25.484375 -1.21875 19.234375 6 
L 18.0625 -0.59375 
z
M 19.234375 12.640625 
Q 26.65625 6 33.40625 6 
Q 40.046875 6 43.65625 11.546875 
Q 47.265625 17.09375 47.265625 27.15625 
Q 47.265625 45.796875 34.96875 45.796875 
Q 26.90625 45.796875 19.234375 37.0625 
z
" id="LucidaSansUnicode-98"/>
      <path d="M 11.421875 0 
L 11.421875 45.796875 
L 3.90625 45.796875 
L 3.90625 53.03125 
L 11.421875 53.03125 
L 11.421875 59.375 
Q 11.421875 78.328125 28.71875 78.328125 
Q 33.546875 78.328125 39.703125 76.703125 
L 39.703125 69.09375 
Q 33.203125 71.09375 29.296875 71.09375 
Q 24.5625 71.09375 22.828125 68.8125 
Q 21.09375 66.546875 21.09375 60.40625 
L 21.09375 53.03125 
L 34.328125 53.03125 
L 34.328125 45.796875 
L 21.09375 45.796875 
L 21.09375 0 
z
" id="LucidaSansUnicode-102"/>
      <path d="M 63.625 3.71875 
Q 52.9375 -1.8125 40.28125 -1.8125 
Q 23.4375 -1.8125 14.25 8.046875 
Q 5.078125 17.921875 5.078125 36.078125 
Q 5.078125 54.203125 14.421875 64.140625 
Q 23.78125 74.078125 40.828125 74.078125 
Q 50.484375 74.078125 63.53125 70.90625 
L 63.53125 61.28125 
Q 48.6875 66.40625 40.625 66.40625 
Q 28.859375 66.40625 22.40625 58.4375 
Q 15.96875 50.484375 15.96875 35.984375 
Q 15.96875 22.125 22.84375 14.15625 
Q 29.734375 6.203125 41.703125 6.203125 
Q 51.90625 6.203125 63.625 12.5 
z
" id="LucidaSansUnicode-67"/>
      <path d="M 12.703125 -19.28125 
L 21.296875 0 
L 0.78125 53.03125 
L 11.1875 53.03125 
L 26.375 13.09375 
L 42.578125 53.03125 
L 51.65625 53.03125 
L 22.703125 -19.28125 
z
" id="LucidaSansUnicode-121"/>
      <path d="M 7.671875 1.859375 
L 7.671875 10.6875 
Q 17.09375 6 24.078125 6 
Q 28.21875 6 30.953125 8.25 
Q 33.6875 10.5 33.6875 13.875 
Q 33.6875 18.796875 26.03125 22.015625 
L 20.40625 24.421875 
Q 7.953125 29.59375 7.953125 39.3125 
Q 7.953125 46.234375 12.859375 50.21875 
Q 17.78125 54.203125 26.3125 54.203125 
Q 30.765625 54.203125 37.3125 52.984375 
L 39.3125 52.59375 
L 39.3125 44.578125 
Q 31.25 46.96875 26.46875 46.96875 
Q 22.265625 46.96875 19.75 45.140625 
Q 17.234375 43.3125 17.234375 40.234375 
Q 17.234375 35.890625 24.265625 32.90625 
L 28.90625 30.953125 
Q 36.765625 27.640625 40.03125 23.953125 
Q 43.3125 20.265625 43.3125 14.75 
Q 43.3125 7.765625 37.796875 3.265625 
Q 32.28125 -1.21875 23.6875 -1.21875 
Q 17.09375 -1.21875 7.671875 1.859375 
z
" id="LucidaSansUnicode-115"/>
      <path d="M 8.734375 72.265625 
L 19 72.265625 
L 19 26.65625 
Q 19 15.765625 23.015625 10.8125 
Q 27.046875 5.859375 35.84375 5.859375 
Q 44.4375 5.859375 48.015625 10.515625 
Q 51.609375 15.1875 51.609375 26.3125 
L 51.609375 72.265625 
L 60.59375 72.265625 
L 60.59375 26.46875 
Q 60.59375 17 58.734375 11.921875 
Q 56.890625 6.84375 52.046875 2.984375 
Q 46 -1.8125 35.40625 -1.8125 
Q 21.6875 -1.8125 15.203125 5.125 
Q 8.734375 12.0625 8.734375 26.765625 
z
" id="LucidaSansUnicode-85"/>
      <path d="M 18.703125 0 
L 0.09375 72.265625 
L 9.96875 72.265625 
L 24.75 15.1875 
L 38.375 72.265625 
L 48.25 72.265625 
L 61.140625 15.96875 
L 77.046875 72.265625 
L 85.40625 72.265625 
L 65.140625 0 
L 54.9375 0 
L 42.1875 55.71875 
L 28.859375 0 
z
" id="LucidaSansUnicode-87"/>
      <path d="M 0.828125 0 
L 29.5 72.265625 
L 39.65625 72.265625 
L 67.875 0 
L 56.78125 0 
L 48.921875 20.015625 
L 18.3125 20.015625 
L 10.359375 0 
z
M 21.296875 27.640625 
L 45.953125 27.640625 
L 33.640625 58.796875 
z
" id="LucidaSansUnicode-65"/>
      <path d="M 9.625 0 
L 9.625 77.09375 
L 19.234375 77.09375 
L 19.234375 0 
z
" id="LucidaSansUnicode-108"/>
     </defs>
     <g style="fill:#262626;" transform="translate(11.899688 100.364531)rotate(-90)scale(0.06 -0.06)">
      <use xlink:href="#LucidaSansUnicode-110"/>
      <use x="62.060547" xlink:href="#LucidaSansUnicode-117"/>
      <use x="124.121094" xlink:href="#LucidaSansUnicode-109"/>
      <use x="217.480469" xlink:href="#LucidaSansUnicode-98"/>
      <use x="280.419922" xlink:href="#LucidaSansUnicode-101"/>
      <use x="336.132812" xlink:href="#LucidaSansUnicode-114"/>
      <use x="377.050781" xlink:href="#LucidaSansUnicode-32"/>
      <use x="408.691406" xlink:href="#LucidaSansUnicode-111"/>
      <use x="470.117188" xlink:href="#LucidaSansUnicode-102"/>
      <use x="506.884766" xlink:href="#LucidaSansUnicode-32"/>
      <use x="538.525391" xlink:href="#LucidaSansUnicode-67"/>
      <use x="607.714844" xlink:href="#LucidaSansUnicode-121"/>
      <use x="659.960938" xlink:href="#LucidaSansUnicode-115"/>
      <use x="710.9375" xlink:href="#LucidaSansUnicode-85"/>
      <use x="780.224609" xlink:href="#LucidaSansUnicode-87"/>
      <use x="865.771484" xlink:href="#LucidaSansUnicode-65"/>
      <use x="934.765625" xlink:href="#LucidaSansUnicode-32"/>
      <use x="966.40625" xlink:href="#LucidaSansUnicode-115"/>
      <use x="1017.382812" xlink:href="#LucidaSansUnicode-117"/>
      <use x="1079.443359" xlink:href="#LucidaSansUnicode-108"/>
      <use x="1108.349609" xlink:href="#LucidaSansUnicode-102"/>
      <use x="1145.117188" xlink:href="#LucidaSansUnicode-97"/>
      <use x="1200.341797" xlink:href="#LucidaSansUnicode-116"/>
      <use x="1237.744141" xlink:href="#LucidaSansUnicode-101"/>
     </g>
     <!-- transporters per cell -->
     <defs>
      <path d="M 9.625 -19.28125 
L 9.625 53.03125 
L 19.234375 53.03125 
L 19.234375 43.0625 
Q 25.140625 54.203125 36.96875 54.203125 
Q 46.53125 54.203125 52.015625 47.21875 
Q 57.515625 40.234375 57.515625 28.125 
Q 57.515625 14.9375 51.28125 6.859375 
Q 45.0625 -1.21875 34.90625 -1.21875 
Q 25.484375 -1.21875 19.234375 6 
L 19.234375 -19.28125 
z
M 19.234375 12.640625 
Q 26.65625 6 33.40625 6 
Q 40.046875 6 43.65625 11.546875 
Q 47.265625 17.09375 47.265625 27.15625 
Q 47.265625 45.796875 34.96875 45.796875 
Q 26.90625 45.796875 19.234375 37.0625 
z
" id="LucidaSansUnicode-112"/>
      <path d="M 46.4375 1.609375 
Q 37.109375 -1.21875 30.328125 -1.21875 
Q 19.578125 -1.21875 12.5 6.734375 
Q 5.421875 14.703125 5.421875 26.8125 
Q 5.421875 39.75 12.421875 46.96875 
Q 19.4375 54.203125 31.984375 54.203125 
Q 38.1875 54.203125 45.84375 52.484375 
L 45.84375 44.4375 
Q 37.703125 46.828125 32.5625 46.828125 
Q 25.140625 46.828125 20.703125 41.28125 
Q 16.265625 35.75 16.265625 26.515625 
Q 16.265625 17.578125 20.84375 12.0625 
Q 25.4375 6.546875 32.859375 6.546875 
Q 39.453125 6.546875 46.4375 9.90625 
z
" id="LucidaSansUnicode-99"/>
     </defs>
     <g style="fill:#262626;" transform="translate(18.607313 91.095469)rotate(-90)scale(0.06 -0.06)">
      <use xlink:href="#LucidaSansUnicode-116"/>
      <use x="37.402344" xlink:href="#LucidaSansUnicode-114"/>
      <use x="78.320312" xlink:href="#LucidaSansUnicode-97"/>
      <use x="133.544922" xlink:href="#LucidaSansUnicode-110"/>
      <use x="195.605469" xlink:href="#LucidaSansUnicode-115"/>
      <use x="246.582031" xlink:href="#LucidaSansUnicode-112"/>
      <use x="309.521484" xlink:href="#LucidaSansUnicode-111"/>
      <use x="370.947266" xlink:href="#LucidaSansUnicode-114"/>
      <use x="411.865234" xlink:href="#LucidaSansUnicode-116"/>
      <use x="449.267578" xlink:href="#LucidaSansUnicode-101"/>
      <use x="504.980469" xlink:href="#LucidaSansUnicode-114"/>
      <use x="545.898438" xlink:href="#LucidaSansUnicode-115"/>
      <use x="596.875" xlink:href="#LucidaSansUnicode-32"/>
      <use x="628.515625" xlink:href="#LucidaSansUnicode-112"/>
      <use x="691.455078" xlink:href="#LucidaSansUnicode-101"/>
      <use x="747.167969" xlink:href="#LucidaSansUnicode-114"/>
      <use x="788.085938" xlink:href="#LucidaSansUnicode-32"/>
      <use x="819.726562" xlink:href="#LucidaSansUnicode-99"/>
      <use x="870.947266" xlink:href="#LucidaSansUnicode-101"/>
      <use x="926.660156" xlink:href="#LucidaSansUnicode-108"/>
      <use x="955.566406" xlink:href="#LucidaSansUnicode-108"/>
     </g>
    </g>
   </g>
   <g id="LineCollection_1">
    <path clip-path="url(#p34978da5d6)" d="M 79.614187 115.92 
L 79.614187 57.136068 
" style="fill:none;stroke:#000000;stroke-dasharray:2.775,1.2;stroke-dashoffset:0;stroke-width:0.75;"/>
   </g>
   <g id="LineCollection_2">
    <path clip-path="url(#p34978da5d6)" d="M 37.764188 57.136068 
L 79.614187 57.136068 
" style="fill:none;stroke:#000000;stroke-dasharray:2.775,1.2;stroke-dashoffset:0;stroke-width:0.75;"/>
   </g>
   <g id="line2d_1">
    <defs>
     <path d="M 0 3 
C 0.795609 3 1.55874 2.683901 2.12132 2.12132 
C 2.683901 1.55874 3 0.795609 3 0 
C 3 -0.795609 2.683901 -1.55874 2.12132 -2.12132 
C 1.55874 -2.683901 0.795609 -3 0 -3 
C -0.795609 -3 -1.55874 -2.683901 -2.12132 -2.12132 
C -2.683901 -1.55874 -3 -0.795609 -3 0 
C -3 0.795609 -2.683901 1.55874 -2.12132 2.12132 
C -1.55874 2.683901 -0.795609 3 0 3 
z
" id="mc77d8af5a0" style="stroke:#905426;stroke-opacity:0.4;"/>
    </defs>
    <g clip-path="url(#p34978da5d6)">
     <use style="fill:#905426;fill-opacity:0.4;stroke:#905426;stroke-opacity:0.4;" x="79.614187" xlink:href="#mc77d8af5a0" y="57.136068"/>
    </g>
   </g>
   <g id="line2d_2">
    <defs>
     <path d="M 0 2 
C 0.530406 2 1.03916 1.789267 1.414214 1.414214 
C 1.789267 1.03916 2 0.530406 2 0 
C 2 -0.530406 1.789267 -1.03916 1.414214 -1.414214 
C 1.03916 -1.789267 0.530406 -2 0 -2 
C -0.530406 -2 -1.03916 -1.789267 -1.414214 -1.414214 
C -1.789267 -1.03916 -2 -0.530406 -2 0 
C -2 0.530406 -1.789267 1.03916 -1.414214 1.414214 
C -1.03916 1.789267 -0.530406 2 0 2 
z
" id="m1ea4bca8b6" style="stroke:#000000;stroke-opacity:0.75;stroke-width:0.5;"/>
    </defs>
    <g clip-path="url(#p34978da5d6)">
     <use style="fill:#ab85ac;fill-opacity:0.75;stroke:#000000;stroke-opacity:0.75;stroke-width:0.5;" x="199.670473" xlink:href="#m1ea4bca8b6" y="105.227028"/>
     <use style="fill:#ab85ac;fill-opacity:0.75;stroke:#000000;stroke-opacity:0.75;stroke-width:0.5;" x="169.122117" xlink:href="#m1ea4bca8b6" y="19.332522"/>
     <use style="fill:#ab85ac;fill-opacity:0.75;stroke:#000000;stroke-opacity:0.75;stroke-width:0.5;" x="99.593408" xlink:href="#m1ea4bca8b6" y="56.37566"/>
    </g>
   </g>
   <g id="line2d_3">
    <defs>
     <path d="M 0 2 
C 0.530406 2 1.03916 1.789267 1.414214 1.414214 
C 1.789267 1.03916 2 0.530406 2 0 
C 2 -0.530406 1.789267 -1.03916 1.414214 -1.414214 
C 1.03916 -1.789267 0.530406 -2 0 -2 
C -0.530406 -2 -1.03916 -1.789267 -1.414214 -1.414214 
C -1.789267 -1.03916 -2 -0.530406 -2 0 
C -2 0.530406 -1.789267 1.03916 -1.414214 1.414214 
C -1.03916 1.789267 -0.530406 2 0 2 
z
" id="m053a070c5c" style="stroke:#000000;stroke-opacity:0.75;stroke-width:0.5;"/>
    </defs>
    <g clip-path="url(#p34978da5d6)">
     <use style="fill:#7aa974;fill-opacity:0.75;stroke:#000000;stroke-opacity:0.75;stroke-width:0.5;" x="55.341188" xlink:href="#m053a070c5c" y="66.68312"/>
     <use style="fill:#7aa974;fill-opacity:0.75;stroke:#000000;stroke-opacity:0.75;stroke-width:0.5;" x="56.178188" xlink:href="#m053a070c5c" y="67.819665"/>
     <use style="fill:#7aa974;fill-opacity:0.75;stroke:#000000;stroke-opacity:0.75;stroke-width:0.5;" x="59.526188" xlink:href="#m053a070c5c" y="65.150144"/>
     <use style="fill:#7aa974;fill-opacity:0.75;stroke:#000000;stroke-opacity:0.75;stroke-width:0.5;" x="63.711188" xlink:href="#m053a070c5c" y="63.621681"/>
     <use style="fill:#7aa974;fill-opacity:0.75;stroke:#000000;stroke-opacity:0.75;stroke-width:0.5;" x="67.896187" xlink:href="#m053a070c5c" y="63.167859"/>
     <use style="fill:#7aa974;fill-opacity:0.75;stroke:#000000;stroke-opacity:0.75;stroke-width:0.5;" x="72.081187" xlink:href="#m053a070c5c" y="63.068965"/>
     <use style="fill:#7aa974;fill-opacity:0.75;stroke:#000000;stroke-opacity:0.75;stroke-width:0.5;" x="76.266188" xlink:href="#m053a070c5c" y="62.056395"/>
     <use style="fill:#7aa974;fill-opacity:0.75;stroke:#000000;stroke-opacity:0.75;stroke-width:0.5;" x="80.451188" xlink:href="#m053a070c5c" y="60.237087"/>
     <use style="fill:#7aa974;fill-opacity:0.75;stroke:#000000;stroke-opacity:0.75;stroke-width:0.5;" x="58.689188" xlink:href="#m053a070c5c" y="74.287734"/>
     <use style="fill:#7aa974;fill-opacity:0.75;stroke:#000000;stroke-opacity:0.75;stroke-width:0.5;" x="67.059188" xlink:href="#m053a070c5c" y="58.044254"/>
     <use style="fill:#7aa974;fill-opacity:0.75;stroke:#000000;stroke-opacity:0.75;stroke-width:0.5;" x="72.918188" xlink:href="#m053a070c5c" y="62.06016"/>
     <use style="fill:#7aa974;fill-opacity:0.75;stroke:#000000;stroke-opacity:0.75;stroke-width:0.5;" x="75.429188" xlink:href="#m053a070c5c" y="61.56786"/>
     <use style="fill:#7aa974;fill-opacity:0.75;stroke:#000000;stroke-opacity:0.75;stroke-width:0.5;" x="82.125188" xlink:href="#m053a070c5c" y="68.215947"/>
     <use style="fill:#7aa974;fill-opacity:0.75;stroke:#000000;stroke-opacity:0.75;stroke-width:0.5;" x="83.799188" xlink:href="#m053a070c5c" y="68.335538"/>
     <use style="fill:#7aa974;fill-opacity:0.75;stroke:#000000;stroke-opacity:0.75;stroke-width:0.5;" x="90.495188" xlink:href="#m053a070c5c" y="66.48881"/>
     <use style="fill:#7aa974;fill-opacity:0.75;stroke:#000000;stroke-opacity:0.75;stroke-width:0.5;" x="92.169187" xlink:href="#m053a070c5c" y="70.308403"/>
     <use style="fill:#7aa974;fill-opacity:0.75;stroke:#000000;stroke-opacity:0.75;stroke-width:0.5;" x="98.865187" xlink:href="#m053a070c5c" y="59.344283"/>
     <use style="fill:#7aa974;fill-opacity:0.75;stroke:#000000;stroke-opacity:0.75;stroke-width:0.5;" x="99.702187" xlink:href="#m053a070c5c" y="66.266241"/>
     <use style="fill:#7aa974;fill-opacity:0.75;stroke:#000000;stroke-opacity:0.75;stroke-width:0.5;" x="103.050187" xlink:href="#m053a070c5c" y="66.469466"/>
     <use style="fill:#7aa974;fill-opacity:0.75;stroke:#000000;stroke-opacity:0.75;stroke-width:0.5;" x="106.398187" xlink:href="#m053a070c5c" y="73.234048"/>
    </g>
   </g>
   <g id="line2d_4">
    <defs>
     <path d="M 0 2 
C 0.530406 2 1.03916 1.789267 1.414214 1.414214 
C 1.789267 1.03916 2 0.530406 2 0 
C 2 -0.530406 1.789267 -1.03916 1.414214 -1.414214 
C 1.03916 -1.789267 0.530406 -2 0 -2 
C -0.530406 -2 -1.03916 -1.789267 -1.414214 -1.414214 
C -1.789267 -1.03916 -2 -0.530406 -2 0 
C -2 0.530406 -1.789267 1.03916 -1.414214 1.414214 
C -1.03916 1.789267 -0.530406 2 0 2 
z
" id="m978b7fcd4c" style="stroke:#000000;stroke-opacity:0.75;stroke-width:0.5;"/>
    </defs>
    <g clip-path="url(#p34978da5d6)">
     <use style="fill:#a9bfe3;fill-opacity:0.75;stroke:#000000;stroke-opacity:0.75;stroke-width:0.5;" x="93.006188" xlink:href="#m978b7fcd4c" y="57.391469"/>
     <use style="fill:#a9bfe3;fill-opacity:0.75;stroke:#000000;stroke-opacity:0.75;stroke-width:0.5;" x="62.874188" xlink:href="#m978b7fcd4c" y="58.719114"/>
     <use style="fill:#a9bfe3;fill-opacity:0.75;stroke:#000000;stroke-opacity:0.75;stroke-width:0.5;" x="47.808188" xlink:href="#m978b7fcd4c" y="70.432501"/>
     <use style="fill:#a9bfe3;fill-opacity:0.75;stroke:#000000;stroke-opacity:0.75;stroke-width:0.5;" x="54.504188" xlink:href="#m978b7fcd4c" y="68.918065"/>
     <use style="fill:#a9bfe3;fill-opacity:0.75;stroke:#000000;stroke-opacity:0.75;stroke-width:0.5;" x="67.059188" xlink:href="#m978b7fcd4c" y="66.465712"/>
     <use style="fill:#a9bfe3;fill-opacity:0.75;stroke:#000000;stroke-opacity:0.75;stroke-width:0.5;" x="79.614187" xlink:href="#m978b7fcd4c" y="62.266542"/>
     <use style="fill:#a9bfe3;fill-opacity:0.75;stroke:#000000;stroke-opacity:0.75;stroke-width:0.5;" x="92.169187" xlink:href="#m978b7fcd4c" y="53.694383"/>
     <use style="fill:#a9bfe3;fill-opacity:0.75;stroke:#000000;stroke-opacity:0.75;stroke-width:0.5;" x="72.918188" xlink:href="#m978b7fcd4c" y="60.45515"/>
     <use style="fill:#a9bfe3;fill-opacity:0.75;stroke:#000000;stroke-opacity:0.75;stroke-width:0.5;" x="59.526188" xlink:href="#m978b7fcd4c" y="63.031801"/>
     <use style="fill:#a9bfe3;fill-opacity:0.75;stroke:#000000;stroke-opacity:0.75;stroke-width:0.5;" x="76.266188" xlink:href="#m978b7fcd4c" y="55.589471"/>
     <use style="fill:#a9bfe3;fill-opacity:0.75;stroke:#000000;stroke-opacity:0.75;stroke-width:0.5;" x="86.310187" xlink:href="#m978b7fcd4c" y="54.780466"/>
     <use style="fill:#a9bfe3;fill-opacity:0.75;stroke:#000000;stroke-opacity:0.75;stroke-width:0.5;" x="77.103187" xlink:href="#m978b7fcd4c" y="56.567431"/>
     <use style="fill:#a9bfe3;fill-opacity:0.75;stroke:#000000;stroke-opacity:0.75;stroke-width:0.5;" x="144.063187" xlink:href="#m978b7fcd4c" y="58.278534"/>
     <use style="fill:#a9bfe3;fill-opacity:0.75;stroke:#000000;stroke-opacity:0.75;stroke-width:0.5;" x="196.794187" xlink:href="#m978b7fcd4c" y="59.740562"/>
     <use style="fill:#a9bfe3;fill-opacity:0.75;stroke:#000000;stroke-opacity:0.75;stroke-width:0.5;" x="77.103187" xlink:href="#m978b7fcd4c" y="58.890687"/>
     <use style="fill:#a9bfe3;fill-opacity:0.75;stroke:#000000;stroke-opacity:0.75;stroke-width:0.5;" x="83.799188" xlink:href="#m978b7fcd4c" y="62.036097"/>
     <use style="fill:#a9bfe3;fill-opacity:0.75;stroke:#000000;stroke-opacity:0.75;stroke-width:0.5;" x="90.495188" xlink:href="#m978b7fcd4c" y="55.148081"/>
     <use style="fill:#a9bfe3;fill-opacity:0.75;stroke:#000000;stroke-opacity:0.75;stroke-width:0.5;" x="71.244188" xlink:href="#m978b7fcd4c" y="60.768233"/>
     <use style="fill:#a9bfe3;fill-opacity:0.75;stroke:#000000;stroke-opacity:0.75;stroke-width:0.5;" x="74.592187" xlink:href="#m978b7fcd4c" y="61.195799"/>
     <use style="fill:#a9bfe3;fill-opacity:0.75;stroke:#000000;stroke-opacity:0.75;stroke-width:0.5;" x="83.799188" xlink:href="#m978b7fcd4c" y="62.951012"/>
    </g>
   </g>
   <g id="line2d_5">
    <defs>
     <path d="M 0 2 
C 0.530406 2 1.03916 1.789267 1.414214 1.414214 
C 1.789267 1.03916 2 0.530406 2 0 
C 2 -0.530406 1.789267 -1.03916 1.414214 -1.414214 
C 1.03916 -1.789267 0.530406 -2 0 -2 
C -0.530406 -2 -1.03916 -1.789267 -1.414214 -1.414214 
C -1.789267 -1.03916 -2 -0.530406 -2 0 
C -2 0.530406 -1.789267 1.03916 -1.414214 1.414214 
C -1.03916 1.789267 -0.530406 2 0 2 
z
" id="m876cfdaa61" style="stroke:#000000;stroke-opacity:0.75;stroke-width:0.5;"/>
    </defs>
    <g clip-path="url(#p34978da5d6)">
     <use style="fill:#d56c55;fill-opacity:0.75;stroke:#000000;stroke-opacity:0.75;stroke-width:0.5;" x="46.971188" xlink:href="#m876cfdaa61" y="50.563852"/>
     <use style="fill:#d56c55;fill-opacity:0.75;stroke:#000000;stroke-opacity:0.75;stroke-width:0.5;" x="55.341188" xlink:href="#m876cfdaa61" y="47.955957"/>
     <use style="fill:#d56c55;fill-opacity:0.75;stroke:#000000;stroke-opacity:0.75;stroke-width:0.5;" x="63.711188" xlink:href="#m876cfdaa61" y="46.648226"/>
     <use style="fill:#d56c55;fill-opacity:0.75;stroke:#000000;stroke-opacity:0.75;stroke-width:0.5;" x="71.244188" xlink:href="#m876cfdaa61" y="44.885278"/>
     <use style="fill:#d56c55;fill-opacity:0.75;stroke:#000000;stroke-opacity:0.75;stroke-width:0.5;" x="78.777187" xlink:href="#m876cfdaa61" y="41.972906"/>
    </g>
   </g>
   <g id="line2d_6">
    <path clip-path="url(#p34978da5d6)" d="M 38.604492 143.7025 
L 38.605394 112.158592 
L 39.4466 103.177661 
L 40.287806 97.868925 
L 41.129012 94.063662 
L 41.970218 91.082218 
L 42.811424 88.621858 
L 44.493836 84.683528 
L 46.176248 81.569017 
L 47.85866 78.975589 
L 49.541072 76.741756 
L 52.06469 73.864196 
L 54.588308 71.390476 
L 57.111926 69.207244 
L 60.47675 66.628237 
L 63.841574 64.332509 
L 68.047605 61.758432 
L 72.253635 59.432996 
L 77.300871 56.891235 
L 83.189313 54.187546 
L 89.918961 51.359547 
L 97.489816 48.431731 
L 105.901876 45.41905 
L 115.996348 42.05878 
L 126.932027 38.658763 
L 139.550117 34.973312 
L 153.85062 31.033065 
L 169.833534 26.858224 
L 188.340067 22.256763 
L 205.164187 18.243377 
L 205.164187 18.243377 
" style="fill:none;stroke:#808080;stroke-linecap:round;stroke-opacity:0.3;stroke-width:3;"/>
   </g>
   <g id="patch_3">
    <path d="M 37.764188 115.92 
L 37.764188 7.2 
" style="fill:none;stroke:#ffffff;stroke-linecap:square;stroke-linejoin:miter;stroke-width:0.8;"/>
   </g>
   <g id="patch_4">
    <path d="M 205.164187 115.92 
L 205.164187 7.2 
" style="fill:none;stroke:#ffffff;stroke-linecap:square;stroke-linejoin:miter;stroke-width:0.8;"/>
   </g>
   <g id="patch_5">
    <path d="M 37.764188 115.92 
L 205.164187 115.92 
" style="fill:none;stroke:#ffffff;stroke-linecap:square;stroke-linejoin:miter;stroke-width:0.8;"/>
   </g>
   <g id="patch_6">
    <path d="M 37.764188 7.2 
L 205.164187 7.2 
" style="fill:none;stroke:#ffffff;stroke-linecap:square;stroke-linejoin:miter;stroke-width:0.8;"/>
   </g>
   <g id="legend_1">
    <g id="patch_7">
     <path d="M 41.964188 112.92 
L 201.313875 112.92 
Q 202.513875 112.92 202.513875 111.72 
L 202.513875 85.902187 
Q 202.513875 84.702187 201.313875 84.702187 
L 41.964188 84.702187 
Q 40.764188 84.702187 40.764188 85.902187 
L 40.764188 111.72 
Q 40.764188 112.92 41.964188 112.92 
z
" style="fill:#e3dcd0;opacity:0.8;stroke:#cccccc;stroke-linejoin:miter;"/>
    </g>
    <g id="line2d_7"/>
    <g id="line2d_8">
     <g>
      <use style="fill:#905426;fill-opacity:0.4;stroke:#905426;stroke-opacity:0.4;" x="49.164188" xlink:href="#mc77d8af5a0" y="89.627813"/>
     </g>
    </g>
    <g id="text_16">
     <!-- point estimate -->
     <defs>
      <path d="M 9.625 0 
L 9.625 53.03125 
L 19.234375 53.03125 
L 19.234375 0 
z
M 9.625 62.640625 
L 9.625 72.265625 
L 19.234375 72.265625 
L 19.234375 62.640625 
z
" id="LucidaSansUnicode-105"/>
     </defs>
     <g style="fill:#262626;" transform="translate(59.964188 91.727812)scale(0.06 -0.06)">
      <use xlink:href="#LucidaSansUnicode-112"/>
      <use x="62.939453" xlink:href="#LucidaSansUnicode-111"/>
      <use x="124.365234" xlink:href="#LucidaSansUnicode-105"/>
      <use x="153.271484" xlink:href="#LucidaSansUnicode-110"/>
      <use x="215.332031" xlink:href="#LucidaSansUnicode-116"/>
      <use x="252.734375" xlink:href="#LucidaSansUnicode-32"/>
      <use x="284.375" xlink:href="#LucidaSansUnicode-101"/>
      <use x="340.087891" xlink:href="#LucidaSansUnicode-115"/>
      <use x="391.064453" xlink:href="#LucidaSansUnicode-116"/>
      <use x="428.466797" xlink:href="#LucidaSansUnicode-105"/>
      <use x="457.373047" xlink:href="#LucidaSansUnicode-109"/>
      <use x="550.732422" xlink:href="#LucidaSansUnicode-97"/>
      <use x="605.957031" xlink:href="#LucidaSansUnicode-116"/>
      <use x="643.359375" xlink:href="#LucidaSansUnicode-101"/>
     </g>
    </g>
    <g id="line2d_9"/>
    <g id="line2d_10">
     <g>
      <use style="fill:#ab85ac;fill-opacity:0.75;stroke:#000000;stroke-opacity:0.75;stroke-width:0.5;" x="49.164188" xlink:href="#m1ea4bca8b6" y="98.410313"/>
     </g>
    </g>
    <g id="text_17">
     <!-- Li et al. 2014 -->
     <defs>
      <path d="M 9.328125 0 
L 9.328125 72.265625 
L 19.578125 72.265625 
L 19.578125 7.671875 
L 52.09375 7.671875 
L 52.09375 0 
z
" id="LucidaSansUnicode-76"/>
     </defs>
     <g style="fill:#262626;" transform="translate(59.964188 100.510312)scale(0.06 -0.06)">
      <use xlink:href="#LucidaSansUnicode-76"/>
      <use x="53.320312" xlink:href="#LucidaSansUnicode-105"/>
      <use x="82.226562" xlink:href="#LucidaSansUnicode-32"/>
      <use x="113.867188" xlink:href="#LucidaSansUnicode-101"/>
      <use x="169.580078" xlink:href="#LucidaSansUnicode-116"/>
      <use x="206.982422" xlink:href="#LucidaSansUnicode-32"/>
      <use x="238.623047" xlink:href="#LucidaSansUnicode-97"/>
      <use x="293.847656" xlink:href="#LucidaSansUnicode-108"/>
      <use x="322.753906" xlink:href="#LucidaSansUnicode-46"/>
      <use x="354.394531" xlink:href="#LucidaSansUnicode-32"/>
      <use x="386.035156" xlink:href="#LucidaSansUnicode-50"/>
      <use x="449.267578" xlink:href="#LucidaSansUnicode-48"/>
      <use x="512.5" xlink:href="#LucidaSansUnicode-49"/>
      <use x="575.732422" xlink:href="#LucidaSansUnicode-52"/>
     </g>
    </g>
    <g id="line2d_11"/>
    <g id="line2d_12">
     <g>
      <use style="fill:#7aa974;fill-opacity:0.75;stroke:#000000;stroke-opacity:0.75;stroke-width:0.5;" x="49.164188" xlink:href="#m053a070c5c" y="107.192813"/>
     </g>
    </g>
    <g id="text_18">
     <!-- Peebo et al. 2015 -->
     <defs>
      <path d="M 9.328125 0 
L 9.328125 72.265625 
L 29 72.265625 
Q 37.5 72.265625 42.109375 70.875 
Q 46.734375 69.484375 49.65625 65.96875 
Q 53.515625 61.328125 53.515625 53.328125 
Q 53.515625 41.796875 45.703125 35.25 
Q 37.890625 28.71875 24.03125 28.71875 
L 19.484375 28.71875 
L 19.484375 0 
z
M 19.484375 36.46875 
L 23.640625 36.46875 
Q 32.765625 36.46875 37.734375 40.671875 
Q 42.71875 44.875 42.71875 52.59375 
Q 42.71875 59.03125 38.78125 61.8125 
Q 34.859375 64.59375 25.78125 64.59375 
L 19.484375 64.59375 
z
" id="LucidaSansUnicode-80"/>
     </defs>
     <g style="fill:#262626;" transform="translate(59.964188 109.292812)scale(0.06 -0.06)">
      <use xlink:href="#LucidaSansUnicode-80"/>
      <use x="55.273438" xlink:href="#LucidaSansUnicode-101"/>
      <use x="110.986328" xlink:href="#LucidaSansUnicode-101"/>
      <use x="166.699219" xlink:href="#LucidaSansUnicode-98"/>
      <use x="229.638672" xlink:href="#LucidaSansUnicode-111"/>
      <use x="291.064453" xlink:href="#LucidaSansUnicode-32"/>
      <use x="322.705078" xlink:href="#LucidaSansUnicode-101"/>
      <use x="378.417969" xlink:href="#LucidaSansUnicode-116"/>
      <use x="415.820312" xlink:href="#LucidaSansUnicode-32"/>
      <use x="447.460938" xlink:href="#LucidaSansUnicode-97"/>
      <use x="502.685547" xlink:href="#LucidaSansUnicode-108"/>
      <use x="531.591797" xlink:href="#LucidaSansUnicode-46"/>
      <use x="563.232422" xlink:href="#LucidaSansUnicode-32"/>
      <use x="594.873047" xlink:href="#LucidaSansUnicode-50"/>
      <use x="658.105469" xlink:href="#LucidaSansUnicode-48"/>
      <use x="721.337891" xlink:href="#LucidaSansUnicode-49"/>
      <use x="784.570312" xlink:href="#LucidaSansUnicode-53"/>
     </g>
    </g>
    <g id="line2d_13"/>
    <g id="line2d_14">
     <g>
      <use style="fill:#a9bfe3;fill-opacity:0.75;stroke:#000000;stroke-opacity:0.75;stroke-width:0.5;" x="128.833875" xlink:href="#m978b7fcd4c" y="89.627813"/>
     </g>
    </g>
    <g id="text_19">
     <!-- Schmidt et al. 2016 -->
     <defs>
      <path d="M 4.890625 1.375 
L 4.890625 11.53125 
Q 17.09375 5.859375 25 5.859375 
Q 31 5.859375 34.6875 9.046875 
Q 38.375 12.25 38.375 17.390625 
Q 38.375 21.625 35.953125 24.609375 
Q 33.546875 27.59375 27.046875 31.25 
L 22.078125 34.125 
Q 12.84375 39.40625 9.0625 44.0625 
Q 5.28125 48.734375 5.28125 54.890625 
Q 5.28125 63.28125 11.328125 68.671875 
Q 17.390625 74.078125 26.765625 74.078125 
Q 35.109375 74.078125 44.390625 71.296875 
L 44.390625 61.921875 
Q 32.953125 66.40625 27.34375 66.40625 
Q 22.015625 66.40625 18.546875 63.578125 
Q 15.09375 60.75 15.09375 56.453125 
Q 15.09375 52.828125 17.625 50.046875 
Q 20.171875 47.265625 26.90625 43.40625 
L 32.078125 40.484375 
Q 41.453125 35.15625 45.15625 30.421875 
Q 48.875 25.6875 48.875 19.046875 
Q 48.875 9.625 41.9375 3.90625 
Q 35.015625 -1.8125 23.53125 -1.8125 
Q 16.21875 -1.8125 4.890625 1.375 
z
" id="LucidaSansUnicode-83"/>
      <path d="M 43.65625 0 
L 43.65625 9.96875 
Q 37.796875 -1.21875 25.984375 -1.21875 
Q 16.40625 -1.21875 10.90625 5.765625 
Q 5.421875 12.75 5.421875 24.859375 
Q 5.421875 38.09375 11.640625 46.140625 
Q 17.875 54.203125 28.03125 54.203125 
Q 37.453125 54.203125 43.65625 46.96875 
L 43.65625 77.09375 
L 53.328125 77.09375 
L 53.328125 0 
z
M 43.65625 40.375 
Q 36.1875 46.96875 29.5 46.96875 
Q 22.90625 46.96875 19.28125 41.453125 
Q 15.671875 35.9375 15.671875 25.828125 
Q 15.671875 7.234375 27.984375 7.234375 
Q 35.984375 7.234375 43.65625 15.96875 
z
" id="LucidaSansUnicode-100"/>
      <path d="M 17.1875 37.453125 
Q 24.078125 46.390625 34.515625 46.390625 
Q 44 46.390625 50.03125 40.109375 
Q 56.0625 33.84375 56.0625 24.03125 
Q 56.0625 12.75 49.296875 5.46875 
Q 42.53125 -1.8125 32.078125 -1.8125 
Q 20.171875 -1.8125 13.421875 7.828125 
Q 6.6875 17.484375 6.6875 34.515625 
Q 6.6875 57.46875 18.453125 68.21875 
Q 24.859375 74.125 36.140625 74.125 
Q 42.671875 74.125 52.34375 71.390625 
L 52.34375 62.984375 
Q 42.140625 66.890625 35.546875 66.890625 
Q 17.1875 66.890625 17.1875 37.453125 
z
M 46.390625 22.125 
Q 46.390625 30.125 42.671875 34.78125 
Q 38.96875 39.453125 32.515625 39.453125 
Q 26.375 39.453125 21.96875 35.34375 
Q 17.578125 31.25 17.578125 25.484375 
Q 17.578125 16.40625 21.75 10.90625 
Q 25.921875 5.421875 32.8125 5.421875 
Q 39.0625 5.421875 42.71875 9.90625 
Q 46.390625 14.40625 46.390625 22.125 
z
" id="LucidaSansUnicode-54"/>
     </defs>
     <g style="fill:#262626;" transform="translate(139.633875 91.727812)scale(0.06 -0.06)">
      <use xlink:href="#LucidaSansUnicode-83"/>
      <use x="53.857422" xlink:href="#LucidaSansUnicode-99"/>
      <use x="105.078125" xlink:href="#LucidaSansUnicode-104"/>
      <use x="167.138672" xlink:href="#LucidaSansUnicode-109"/>
      <use x="260.498047" xlink:href="#LucidaSansUnicode-105"/>
      <use x="289.404297" xlink:href="#LucidaSansUnicode-100"/>
      <use x="352.34375" xlink:href="#LucidaSansUnicode-116"/>
      <use x="389.746094" xlink:href="#LucidaSansUnicode-32"/>
      <use x="421.386719" xlink:href="#LucidaSansUnicode-101"/>
      <use x="477.099609" xlink:href="#LucidaSansUnicode-116"/>
      <use x="514.501953" xlink:href="#LucidaSansUnicode-32"/>
      <use x="546.142578" xlink:href="#LucidaSansUnicode-97"/>
      <use x="601.367188" xlink:href="#LucidaSansUnicode-108"/>
      <use x="630.273438" xlink:href="#LucidaSansUnicode-46"/>
      <use x="661.914062" xlink:href="#LucidaSansUnicode-32"/>
      <use x="693.554688" xlink:href="#LucidaSansUnicode-50"/>
      <use x="756.787109" xlink:href="#LucidaSansUnicode-48"/>
      <use x="820.019531" xlink:href="#LucidaSansUnicode-49"/>
      <use x="883.251953" xlink:href="#LucidaSansUnicode-54"/>
     </g>
    </g>
    <g id="line2d_15"/>
    <g id="line2d_16">
     <g>
      <use style="fill:#d56c55;fill-opacity:0.75;stroke:#000000;stroke-opacity:0.75;stroke-width:0.5;" x="128.833875" xlink:href="#m876cfdaa61" y="98.410313"/>
     </g>
    </g>
    <g id="text_20">
     <!-- Valgepea et al. 2013 -->
     <defs>
      <path d="M 29.046875 0 
L 1.765625 72.265625 
L 12.015625 72.265625 
L 34.375 13.09375 
L 55.953125 72.265625 
L 64.9375 72.265625 
L 38.71875 0 
z
" id="LucidaSansUnicode-86"/>
     </defs>
     <g style="fill:#262626;" transform="translate(139.633875 100.510312)scale(0.06 -0.06)">
      <use xlink:href="#LucidaSansUnicode-86"/>
      <use x="65.380859" xlink:href="#LucidaSansUnicode-97"/>
      <use x="120.605469" xlink:href="#LucidaSansUnicode-108"/>
      <use x="149.511719" xlink:href="#LucidaSansUnicode-103"/>
      <use x="211.865234" xlink:href="#LucidaSansUnicode-101"/>
      <use x="267.578125" xlink:href="#LucidaSansUnicode-112"/>
      <use x="330.517578" xlink:href="#LucidaSansUnicode-101"/>
      <use x="386.230469" xlink:href="#LucidaSansUnicode-97"/>
      <use x="441.455078" xlink:href="#LucidaSansUnicode-32"/>
      <use x="473.095703" xlink:href="#LucidaSansUnicode-101"/>
      <use x="528.808594" xlink:href="#LucidaSansUnicode-116"/>
      <use x="566.210938" xlink:href="#LucidaSansUnicode-32"/>
      <use x="597.851562" xlink:href="#LucidaSansUnicode-97"/>
      <use x="653.076172" xlink:href="#LucidaSansUnicode-108"/>
      <use x="681.982422" xlink:href="#LucidaSansUnicode-46"/>
      <use x="713.623047" xlink:href="#LucidaSansUnicode-32"/>
      <use x="745.263672" xlink:href="#LucidaSansUnicode-50"/>
      <use x="808.496094" xlink:href="#LucidaSansUnicode-48"/>
      <use x="871.728516" xlink:href="#LucidaSansUnicode-49"/>
      <use x="934.960938" xlink:href="#LucidaSansUnicode-51"/>
     </g>
    </g>
    <g id="line2d_17">
     <path d="M 122.833875 107.263125 
L 134.833875 107.263125 
" style="fill:none;stroke:#808080;stroke-linecap:round;stroke-opacity:0.3;stroke-width:3;"/>
    </g>
    <g id="line2d_18"/>
    <g id="text_21">
     <!-- cell size dependence -->
     <defs>
      <path d="M 6 0 
L 6 7.234375 
L 38.8125 45.796875 
L 7.515625 45.796875 
L 7.515625 53.03125 
L 50.6875 53.03125 
L 50.6875 45.796875 
L 17.875 7.234375 
L 51.3125 7.234375 
L 51.3125 0 
z
" id="LucidaSansUnicode-122"/>
     </defs>
     <g style="fill:#262626;" transform="translate(139.633875 109.363125)scale(0.06 -0.06)">
      <use xlink:href="#LucidaSansUnicode-99"/>
      <use x="51.220703" xlink:href="#LucidaSansUnicode-101"/>
      <use x="106.933594" xlink:href="#LucidaSansUnicode-108"/>
      <use x="135.839844" xlink:href="#LucidaSansUnicode-108"/>
      <use x="164.746094" xlink:href="#LucidaSansUnicode-32"/>
      <use x="196.386719" xlink:href="#LucidaSansUnicode-115"/>
      <use x="247.363281" xlink:href="#LucidaSansUnicode-105"/>
      <use x="276.269531" xlink:href="#LucidaSansUnicode-122"/>
      <use x="333.59375" xlink:href="#LucidaSansUnicode-101"/>
      <use x="389.306641" xlink:href="#LucidaSansUnicode-32"/>
      <use x="420.947266" xlink:href="#LucidaSansUnicode-100"/>
      <use x="483.886719" xlink:href="#LucidaSansUnicode-101"/>
      <use x="539.599609" xlink:href="#LucidaSansUnicode-112"/>
      <use x="602.539062" xlink:href="#LucidaSansUnicode-101"/>
      <use x="658.251953" xlink:href="#LucidaSansUnicode-110"/>
      <use x="720.3125" xlink:href="#LucidaSansUnicode-100"/>
      <use x="783.251953" xlink:href="#LucidaSansUnicode-101"/>
      <use x="838.964844" xlink:href="#LucidaSansUnicode-110"/>
      <use x="901.025391" xlink:href="#LucidaSansUnicode-99"/>
      <use x="952.246094" xlink:href="#LucidaSansUnicode-101"/>
     </g>
    </g>
   </g>
  </g>
 </g>
 <defs>
  <clipPath id="p34978da5d6">
   <rect height="108.72" width="167.4" x="37.764188" y="7.2"/>
  </clipPath>
 </defs>
</svg>
