<?xml version="1.0" encoding="utf-8" standalone="no"?>
<!DOCTYPE svg PUBLIC "-//W3C//DTD SVG 1.1//EN"
  "http://www.w3.org/Graphics/SVG/1.1/DTD/svg11.dtd">
<!-- Created with matplotlib (https://matplotlib.org/) -->
<svg height="144pt" version="1.1" viewBox="0 0 252 144" width="252pt" xmlns="http://www.w3.org/2000/svg" xmlns:xlink="http://www.w3.org/1999/xlink">
 <defs>
  <style type="text/css">
*{stroke-linecap:butt;stroke-linejoin:round;}
  </style>
 </defs>
 <g id="figure_1">
  <g id="patch_1">
   <path d="M 0 144 
L 252 144 
L 252 0 
L 0 0 
z
" style="fill:#ffffff;"/>
  </g>
  <g id="axes_1">
   <g id="patch_2">
    <path d="M 31.5 126 
L 226.8 126 
L 226.8 17.28 
L 31.5 17.28 
z
" style="fill:#e3dcd0;"/>
   </g>
   <g id="matplotlib.axis_1">
    <g id="xtick_1">
     <g id="text_1">
      <!-- 0.00 -->
      <defs>
       <path d="M 31.640625 -1.8125 
Q 20.265625 -1.8125 13.296875 8.609375 
Q 6.34375 19.046875 6.34375 36.140625 
Q 6.34375 53.21875 13.296875 63.640625 
Q 20.265625 74.078125 31.640625 74.078125 
Q 43.0625 74.078125 50 63.671875 
Q 56.9375 53.265625 56.9375 36.140625 
Q 56.9375 19.046875 50 8.609375 
Q 43.0625 -1.8125 31.640625 -1.8125 
z
M 31.640625 5.421875 
Q 46.734375 5.421875 46.734375 36.140625 
Q 46.734375 66.84375 31.640625 66.84375 
Q 16.609375 66.84375 16.609375 36.140625 
Q 16.609375 5.421875 31.640625 5.421875 
z
" id="LucidaSansUnicode-48"/>
       <path d="M 9.765625 0 
L 9.765625 12.0625 
L 21.828125 12.0625 
L 21.828125 0 
z
" id="LucidaSansUnicode-46"/>
      </defs>
      <g transform="translate(24.859687 134.125625)scale(0.06 -0.06)">
       <use xlink:href="#LucidaSansUnicode-48"/>
       <use x="63.232422" xlink:href="#LucidaSansUnicode-46"/>
       <use x="94.873047" xlink:href="#LucidaSansUnicode-48"/>
       <use x="158.105469" xlink:href="#LucidaSansUnicode-48"/>
      </g>
     </g>
    </g>
    <g id="xtick_2">
     <g id="text_2">
      <!-- 0.25 -->
      <defs>
       <path d="M 8.296875 0 
L 8.296875 8.453125 
Q 12.5 18.265625 25.296875 29.828125 
L 30.8125 34.765625 
Q 41.453125 44.390625 41.453125 53.859375 
Q 41.453125 59.90625 37.8125 63.375 
Q 34.1875 66.84375 27.78125 66.84375 
Q 20.3125 66.84375 10.109375 61.03125 
L 10.109375 69.53125 
Q 19.734375 74.078125 29.25 74.078125 
Q 39.40625 74.078125 45.53125 68.609375 
Q 51.65625 63.140625 51.65625 54.109375 
Q 51.65625 47.609375 48.546875 42.578125 
Q 45.453125 37.546875 37.015625 30.375 
L 33.296875 27.203125 
Q 21.734375 17.390625 19.921875 8.453125 
L 51.3125 8.453125 
L 51.3125 0 
z
" id="LucidaSansUnicode-50"/>
       <path d="M 12.15625 -0.296875 
L 12.15625 8.296875 
Q 19.34375 5.421875 25.828125 5.421875 
Q 32.953125 5.421875 37.03125 9.609375 
Q 41.109375 13.8125 41.109375 21.1875 
Q 41.109375 29.109375 35.34375 33.28125 
Q 29.59375 37.453125 18.703125 37.453125 
Q 16.15625 37.453125 13.375 37.109375 
L 13.375 72.265625 
L 49.953125 72.265625 
L 49.953125 63.875 
L 21.828125 63.875 
L 21.828125 44.828125 
Q 35.75 44.828125 43.5625 38.421875 
Q 51.375 32.03125 51.375 20.703125 
Q 51.375 10.15625 44.265625 4.171875 
Q 37.15625 -1.8125 24.65625 -1.8125 
Q 19.09375 -1.8125 12.15625 -0.296875 
z
" id="LucidaSansUnicode-53"/>
      </defs>
      <g transform="translate(49.272188 134.125625)scale(0.06 -0.06)">
       <use xlink:href="#LucidaSansUnicode-48"/>
       <use x="63.232422" xlink:href="#LucidaSansUnicode-46"/>
       <use x="94.873047" xlink:href="#LucidaSansUnicode-50"/>
       <use x="158.105469" xlink:href="#LucidaSansUnicode-53"/>
      </g>
     </g>
    </g>
    <g id="xtick_3">
     <g id="text_3">
      <!-- 0.50 -->
      <g transform="translate(73.684688 134.125625)scale(0.06 -0.06)">
       <use xlink:href="#LucidaSansUnicode-48"/>
       <use x="63.232422" xlink:href="#LucidaSansUnicode-46"/>
       <use x="94.873047" xlink:href="#LucidaSansUnicode-53"/>
       <use x="158.105469" xlink:href="#LucidaSansUnicode-48"/>
      </g>
     </g>
    </g>
    <g id="xtick_4">
     <g id="text_4">
      <!-- 0.75 -->
      <defs>
       <path d="M 15.046875 0 
Q 16.453125 8.453125 19.0625 14.59375 
Q 21.6875 20.75 28.328125 31.5 
L 48.046875 63.234375 
L 10.84375 63.234375 
L 10.84375 72.265625 
L 57.234375 72.265625 
L 57.234375 63.234375 
Q 29.4375 22.265625 26.125 0 
z
" id="LucidaSansUnicode-55"/>
      </defs>
      <g transform="translate(98.097188 134.125625)scale(0.06 -0.06)">
       <use xlink:href="#LucidaSansUnicode-48"/>
       <use x="63.232422" xlink:href="#LucidaSansUnicode-46"/>
       <use x="94.873047" xlink:href="#LucidaSansUnicode-55"/>
       <use x="158.105469" xlink:href="#LucidaSansUnicode-53"/>
      </g>
     </g>
    </g>
    <g id="xtick_5">
     <g id="text_5">
      <!-- 1.00 -->
      <defs>
       <path d="M 26.171875 0 
L 26.171875 65.046875 
L 14.75 65.046875 
L 14.75 71.09375 
L 35.84375 72.90625 
L 35.84375 0 
z
" id="LucidaSansUnicode-49"/>
      </defs>
      <g transform="translate(122.509688 134.125625)scale(0.06 -0.06)">
       <use xlink:href="#LucidaSansUnicode-49"/>
       <use x="63.232422" xlink:href="#LucidaSansUnicode-46"/>
       <use x="94.873047" xlink:href="#LucidaSansUnicode-48"/>
       <use x="158.105469" xlink:href="#LucidaSansUnicode-48"/>
      </g>
     </g>
    </g>
    <g id="xtick_6">
     <g id="text_6">
      <!-- 1.25 -->
      <g transform="translate(146.922188 134.125625)scale(0.06 -0.06)">
       <use xlink:href="#LucidaSansUnicode-49"/>
       <use x="63.232422" xlink:href="#LucidaSansUnicode-46"/>
       <use x="94.873047" xlink:href="#LucidaSansUnicode-50"/>
       <use x="158.105469" xlink:href="#LucidaSansUnicode-53"/>
      </g>
     </g>
    </g>
    <g id="xtick_7">
     <g id="text_7">
      <!-- 1.50 -->
      <g transform="translate(171.334688 134.125625)scale(0.06 -0.06)">
       <use xlink:href="#LucidaSansUnicode-49"/>
       <use x="63.232422" xlink:href="#LucidaSansUnicode-46"/>
       <use x="94.873047" xlink:href="#LucidaSansUnicode-53"/>
       <use x="158.105469" xlink:href="#LucidaSansUnicode-48"/>
      </g>
     </g>
    </g>
    <g id="xtick_8">
     <g id="text_8">
      <!-- 1.75 -->
      <g transform="translate(195.747188 134.125625)scale(0.06 -0.06)">
       <use xlink:href="#LucidaSansUnicode-49"/>
       <use x="63.232422" xlink:href="#LucidaSansUnicode-46"/>
       <use x="94.873047" xlink:href="#LucidaSansUnicode-55"/>
       <use x="158.105469" xlink:href="#LucidaSansUnicode-53"/>
      </g>
     </g>
    </g>
    <g id="xtick_9">
     <g id="text_9">
      <!-- 2.00 -->
      <g transform="translate(220.159688 134.125625)scale(0.06 -0.06)">
       <use xlink:href="#LucidaSansUnicode-50"/>
       <use x="63.232422" xlink:href="#LucidaSansUnicode-46"/>
       <use x="94.873047" xlink:href="#LucidaSansUnicode-48"/>
       <use x="158.105469" xlink:href="#LucidaSansUnicode-48"/>
      </g>
     </g>
    </g>
    <g id="text_10">
     <!-- growth rate [hr$^{-1}$] -->
     <defs>
      <path d="M 9.8125 -17.625 
L 10.9375 -9.28125 
Q 19.28125 -13.234375 27.4375 -13.234375 
Q 43.65625 -13.234375 43.65625 4 
L 43.65625 12.359375 
Q 41.15625 7.078125 36.546875 4.140625 
Q 31.9375 1.21875 26.265625 1.21875 
Q 16.65625 1.21875 11.03125 8.125 
Q 5.421875 15.046875 5.421875 26.859375 
Q 5.421875 38.96875 11.8125 46.578125 
Q 18.21875 54.203125 28.375 54.203125 
Q 37.25 54.203125 43.65625 46.96875 
L 43.65625 53.03125 
L 53.328125 53.03125 
L 53.328125 14.453125 
Q 53.328125 2 52.03125 -3.984375 
Q 50.734375 -9.96875 47.171875 -13.765625 
Q 40.875 -20.453125 27.484375 -20.453125 
Q 18.3125 -20.453125 9.8125 -17.625 
z
M 43.65625 18.359375 
L 43.65625 40.375 
Q 37.3125 46.96875 29.828125 46.96875 
Q 23.1875 46.96875 19.421875 41.640625 
Q 15.671875 36.328125 15.671875 26.90625 
Q 15.671875 9.625 27.9375 9.625 
Q 36.28125 9.625 43.65625 18.359375 
z
" id="LucidaSansUnicode-103"/>
      <path d="M 9.625 0 
L 9.625 53.03125 
L 19.234375 53.03125 
L 19.234375 43.0625 
Q 24.953125 54.203125 35.84375 54.203125 
Q 37.3125 54.203125 38.921875 53.953125 
L 38.921875 44.96875 
Q 36.421875 45.796875 34.515625 45.796875 
Q 25.390625 45.796875 19.234375 34.96875 
L 19.234375 0 
z
" id="LucidaSansUnicode-114"/>
      <path d="M 30.71875 -1.21875 
Q 19.046875 -1.21875 12.234375 6.25 
Q 5.421875 13.71875 5.421875 26.515625 
Q 5.421875 39.3125 12.234375 46.75 
Q 19.046875 54.203125 30.71875 54.203125 
Q 42.390625 54.203125 49.1875 46.75 
Q 56 39.3125 56 26.515625 
Q 56 13.71875 49.1875 6.25 
Q 42.390625 -1.21875 30.71875 -1.21875 
z
M 30.71875 6 
Q 37.890625 6 41.84375 11.375 
Q 45.796875 16.75 45.796875 26.515625 
Q 45.796875 36.28125 41.84375 41.625 
Q 37.890625 46.96875 30.71875 46.96875 
Q 23.53125 46.96875 19.59375 41.625 
Q 15.671875 36.28125 15.671875 26.515625 
Q 15.671875 16.75 19.59375 11.375 
Q 23.53125 6 30.71875 6 
z
" id="LucidaSansUnicode-111"/>
      <path d="M 15.765625 0 
L 0.59375 53.03125 
L 10.015625 53.03125 
L 21.625 11.96875 
L 34.1875 53.03125 
L 43.796875 53.03125 
L 54.78125 11.96875 
L 68.109375 53.03125 
L 76.375 53.03125 
L 59.078125 0 
L 49.421875 0 
L 38.1875 41.0625 
L 25.484375 0 
z
" id="LucidaSansUnicode-119"/>
      <path d="M 33.25 0 
Q 28.8125 -1.21875 25.53125 -1.21875 
Q 18.21875 -1.21875 14.109375 2.96875 
Q 10.015625 7.171875 10.015625 14.65625 
L 10.015625 45.796875 
L 3.375 45.796875 
L 3.375 53.03125 
L 10.015625 53.03125 
L 10.015625 62.640625 
L 19.625 63.578125 
L 19.625 53.03125 
L 33.5 53.03125 
L 33.5 45.796875 
L 19.625 45.796875 
L 19.625 16.40625 
Q 19.625 6 28.609375 6 
Q 30.515625 6 33.25 6.640625 
z
" id="LucidaSansUnicode-116"/>
      <path d="M 9.625 0 
L 9.625 77.09375 
L 19.234375 77.09375 
L 19.234375 43.0625 
Q 26.859375 54.203125 37.890625 54.203125 
Q 44.828125 54.203125 48.90625 49.828125 
Q 52.984375 45.453125 52.984375 38.09375 
L 52.984375 0 
L 43.359375 0 
L 43.359375 34.96875 
Q 43.359375 40.875 41.625 43.390625 
Q 39.890625 45.90625 35.890625 45.90625 
Q 27.046875 45.90625 19.234375 34.328125 
L 19.234375 0 
z
" id="LucidaSansUnicode-104"/>
      <path id="LucidaSansUnicode-32"/>
      <path d="M 36.96875 6.734375 
Q 28.328125 -1.21875 20.3125 -1.21875 
Q 13.71875 -1.21875 9.375 2.90625 
Q 5.03125 7.03125 5.03125 13.328125 
Q 5.03125 22.015625 12.328125 26.671875 
Q 19.625 31.34375 33.296875 31.34375 
L 35.546875 31.34375 
L 35.546875 37.75 
Q 35.546875 46.96875 25.921875 46.96875 
Q 18.453125 46.96875 9.625 42.28125 
L 9.625 50.25 
Q 19.34375 54.203125 27.9375 54.203125 
Q 36.765625 54.203125 40.96875 50.171875 
Q 45.171875 46.140625 45.171875 37.75 
L 45.171875 13.71875 
Q 45.171875 5.46875 50.25 5.46875 
Q 50.875 5.46875 52.09375 5.671875 
L 52.78125 0.34375 
Q 49.515625 -1.21875 45.5625 -1.21875 
Q 38.8125 -1.21875 36.96875 6.734375 
z
M 35.546875 11.96875 
L 35.546875 25.6875 
L 32.46875 25.78125 
Q 24.46875 25.78125 19.5625 22.796875 
Q 14.65625 19.828125 14.65625 14.890625 
Q 14.65625 11.421875 17.09375 9.03125 
Q 19.53125 6.640625 23.046875 6.640625 
Q 29.046875 6.640625 35.546875 11.96875 
z
" id="LucidaSansUnicode-97"/>
      <path d="M 48.484375 1.703125 
Q 38.8125 -1.21875 31.9375 -1.21875 
Q 20.171875 -1.21875 12.796875 6.5625 
Q 5.421875 14.359375 5.421875 26.765625 
Q 5.421875 38.8125 11.9375 46.53125 
Q 18.453125 54.25 28.609375 54.25 
Q 38.234375 54.25 43.484375 47.390625 
Q 48.734375 40.53125 48.734375 27.9375 
L 48.6875 25 
L 15.234375 25 
Q 17.328125 6.109375 33.734375 6.109375 
Q 39.75 6.109375 48.484375 9.328125 
z
M 15.671875 32.234375 
L 39.0625 32.234375 
Q 39.0625 47.015625 28.03125 47.015625 
Q 16.9375 47.015625 15.671875 32.234375 
z
" id="LucidaSansUnicode-101"/>
      <path d="M 9.625 -14.453125 
L 9.625 77.09375 
L 28.90625 77.09375 
L 28.90625 69.875 
L 18.0625 69.875 
L 18.0625 -7.234375 
L 28.90625 -7.234375 
L 28.90625 -14.453125 
z
" id="LucidaSansUnicode-91"/>
      <path d="M 62.09375 22 
L 6.40625 22 
L 6.40625 28.59375 
L 62.09375 28.59375 
z
" id="STIXGeneral-Regular-8722"/>
      <path d="M 30.203125 0 
L 22.296875 0 
L 22.296875 57 
Q 20.09375 56 15.75 53.75 
Q 11.40625 51.5 10.796875 51.203125 
L 10.796875 58.5 
L 28.796875 67.703125 
L 30.203125 67.203125 
z
" id="STIXGeneral-Regular-120803"/>
      <path d="M 22.90625 77.09375 
L 22.90625 -14.453125 
L 3.609375 -14.453125 
L 3.609375 -7.234375 
L 14.453125 -7.234375 
L 14.453125 69.875 
L 3.609375 69.875 
L 3.609375 77.09375 
z
" id="LucidaSansUnicode-93"/>
     </defs>
     <g style="fill:#262626;" transform="translate(103.71 144.3225)scale(0.06 -0.06)">
      <use transform="translate(0 0.370312)" xlink:href="#LucidaSansUnicode-103"/>
      <use transform="translate(62.353516 0.370312)" xlink:href="#LucidaSansUnicode-114"/>
      <use transform="translate(103.271484 0.370312)" xlink:href="#LucidaSansUnicode-111"/>
      <use transform="translate(164.697266 0.370312)" xlink:href="#LucidaSansUnicode-119"/>
      <use transform="translate(241.748047 0.370312)" xlink:href="#LucidaSansUnicode-116"/>
      <use transform="translate(279.150391 0.370312)" xlink:href="#LucidaSansUnicode-104"/>
      <use transform="translate(341.210938 0.370312)" xlink:href="#LucidaSansUnicode-32"/>
      <use transform="translate(372.851562 0.370312)" xlink:href="#LucidaSansUnicode-114"/>
      <use transform="translate(413.769531 0.370312)" xlink:href="#LucidaSansUnicode-97"/>
      <use transform="translate(468.994141 0.370312)" xlink:href="#LucidaSansUnicode-116"/>
      <use transform="translate(506.396484 0.370312)" xlink:href="#LucidaSansUnicode-101"/>
      <use transform="translate(562.109375 0.370312)" xlink:href="#LucidaSansUnicode-32"/>
      <use transform="translate(593.75 0.370312)" xlink:href="#LucidaSansUnicode-91"/>
      <use transform="translate(626.269531 0.370312)" xlink:href="#LucidaSansUnicode-104"/>
      <use transform="translate(688.330078 0.370312)" xlink:href="#LucidaSansUnicode-114"/>
      <use transform="translate(730.040742 36.607813)scale(0.7)" xlink:href="#STIXGeneral-Regular-8722"/>
      <use transform="translate(777.990732 36.607813)scale(0.7)" xlink:href="#STIXGeneral-Regular-120803"/>
      <use transform="translate(815.255565 0.370312)" xlink:href="#LucidaSansUnicode-93"/>
     </g>
    </g>
   </g>
   <g id="matplotlib.axis_2">
    <g id="ytick_1">
     <g id="text_11">
      <!-- $\mathdefault{10^{2}}$ -->
      <g transform="translate(17.5 128.312813)scale(0.06 -0.06)">
       <use transform="translate(0 0.023438)" xlink:href="#LucidaSansUnicode-49"/>
       <use transform="translate(63.232422 0.023438)" xlink:href="#LucidaSansUnicode-48"/>
       <use transform="translate(127.392891 37.145312)scale(0.7)" xlink:href="#LucidaSansUnicode-50"/>
      </g>
     </g>
    </g>
    <g id="ytick_2">
     <g id="text_12">
      <!-- $\mathdefault{10^{3}}$ -->
      <defs>
       <path d="M 10.15625 0.53125 
L 10.15625 9.515625 
Q 20.453125 5.421875 26.375 5.421875 
Q 33.34375 5.421875 37.671875 9.421875 
Q 42 13.421875 42 19.875 
Q 42 35.109375 20.65625 35.109375 
L 16.84375 35.109375 
L 16.84375 41.609375 
L 20.21875 41.65625 
Q 40.234375 41.65625 40.234375 55.765625 
Q 40.234375 66.84375 26.953125 66.84375 
Q 19.828125 66.84375 11.140625 62.796875 
L 11.140625 71.1875 
Q 19.671875 74.078125 27.59375 74.078125 
Q 38.375 74.078125 44.140625 69.78125 
Q 49.90625 65.484375 49.90625 57.328125 
Q 49.90625 44.578125 34.8125 39.15625 
Q 52.296875 35.109375 52.296875 20.015625 
Q 52.296875 9.8125 45.546875 4 
Q 38.8125 -1.8125 27.046875 -1.8125 
Q 20.359375 -1.8125 10.15625 0.53125 
z
" id="LucidaSansUnicode-51"/>
      </defs>
      <g transform="translate(17.5 88.030779)scale(0.06 -0.06)">
       <use transform="translate(0 0.023438)" xlink:href="#LucidaSansUnicode-49"/>
       <use transform="translate(63.232422 0.023438)" xlink:href="#LucidaSansUnicode-48"/>
       <use transform="translate(127.392891 37.145312)scale(0.7)" xlink:href="#LucidaSansUnicode-51"/>
      </g>
     </g>
    </g>
    <g id="ytick_3">
     <g id="text_13">
      <!-- $\mathdefault{10^{4}}$ -->
      <defs>
       <path d="M 37.640625 0 
L 37.640625 20.453125 
L 5.125 20.453125 
L 5.125 27.734375 
L 37.640625 72.265625 
L 46.6875 72.265625 
L 46.6875 28.328125 
L 56.34375 28.328125 
L 56.34375 20.453125 
L 46.6875 20.453125 
L 46.6875 0 
z
M 14.546875 28.328125 
L 38.28125 28.328125 
L 38.28125 60.453125 
z
" id="LucidaSansUnicode-52"/>
      </defs>
      <g transform="translate(17.5 47.748746)scale(0.06 -0.06)">
       <use transform="translate(0 0.292188)" xlink:href="#LucidaSansUnicode-49"/>
       <use transform="translate(63.232422 0.292188)" xlink:href="#LucidaSansUnicode-48"/>
       <use transform="translate(127.392891 37.414063)scale(0.7)" xlink:href="#LucidaSansUnicode-52"/>
      </g>
     </g>
    </g>
    <g id="ytick_4"/>
    <g id="ytick_5"/>
    <g id="ytick_6"/>
    <g id="ytick_7"/>
    <g id="ytick_8"/>
    <g id="ytick_9"/>
    <g id="ytick_10"/>
    <g id="ytick_11"/>
    <g id="ytick_12"/>
    <g id="ytick_13"/>
    <g id="ytick_14"/>
    <g id="ytick_15"/>
    <g id="ytick_16"/>
    <g id="ytick_17"/>
    <g id="ytick_18"/>
    <g id="ytick_19"/>
    <g id="ytick_20"/>
    <g id="ytick_21"/>
    <g id="ytick_22"/>
    <g id="ytick_23"/>
    <g id="text_14">
     <!-- electron transport complexes -->
     <defs>
      <path d="M 9.625 0 
L 9.625 77.09375 
L 19.234375 77.09375 
L 19.234375 0 
z
" id="LucidaSansUnicode-108"/>
      <path d="M 46.4375 1.609375 
Q 37.109375 -1.21875 30.328125 -1.21875 
Q 19.578125 -1.21875 12.5 6.734375 
Q 5.421875 14.703125 5.421875 26.8125 
Q 5.421875 39.75 12.421875 46.96875 
Q 19.4375 54.203125 31.984375 54.203125 
Q 38.1875 54.203125 45.84375 52.484375 
L 45.84375 44.4375 
Q 37.703125 46.828125 32.5625 46.828125 
Q 25.140625 46.828125 20.703125 41.28125 
Q 16.265625 35.75 16.265625 26.515625 
Q 16.265625 17.578125 20.84375 12.0625 
Q 25.4375 6.546875 32.859375 6.546875 
Q 39.453125 6.546875 46.4375 9.90625 
z
" id="LucidaSansUnicode-99"/>
      <path d="M 9.625 0 
L 9.625 53.03125 
L 19.234375 53.03125 
L 19.234375 43.0625 
Q 26.859375 54.203125 37.890625 54.203125 
Q 44.828125 54.203125 48.90625 49.828125 
Q 52.984375 45.453125 52.984375 38.09375 
L 52.984375 0 
L 43.359375 0 
L 43.359375 34.96875 
Q 43.359375 40.875 41.625 43.390625 
Q 39.890625 45.90625 35.890625 45.90625 
Q 27.046875 45.90625 19.234375 34.328125 
L 19.234375 0 
z
" id="LucidaSansUnicode-110"/>
      <path d="M 7.671875 1.859375 
L 7.671875 10.6875 
Q 17.09375 6 24.078125 6 
Q 28.21875 6 30.953125 8.25 
Q 33.6875 10.5 33.6875 13.875 
Q 33.6875 18.796875 26.03125 22.015625 
L 20.40625 24.421875 
Q 7.953125 29.59375 7.953125 39.3125 
Q 7.953125 46.234375 12.859375 50.21875 
Q 17.78125 54.203125 26.3125 54.203125 
Q 30.765625 54.203125 37.3125 52.984375 
L 39.3125 52.59375 
L 39.3125 44.578125 
Q 31.25 46.96875 26.46875 46.96875 
Q 22.265625 46.96875 19.75 45.140625 
Q 17.234375 43.3125 17.234375 40.234375 
Q 17.234375 35.890625 24.265625 32.90625 
L 28.90625 30.953125 
Q 36.765625 27.640625 40.03125 23.953125 
Q 43.3125 20.265625 43.3125 14.75 
Q 43.3125 7.765625 37.796875 3.265625 
Q 32.28125 -1.21875 23.6875 -1.21875 
Q 17.09375 -1.21875 7.671875 1.859375 
z
" id="LucidaSansUnicode-115"/>
      <path d="M 9.625 -19.28125 
L 9.625 53.03125 
L 19.234375 53.03125 
L 19.234375 43.0625 
Q 25.140625 54.203125 36.96875 54.203125 
Q 46.53125 54.203125 52.015625 47.21875 
Q 57.515625 40.234375 57.515625 28.125 
Q 57.515625 14.9375 51.28125 6.859375 
Q 45.0625 -1.21875 34.90625 -1.21875 
Q 25.484375 -1.21875 19.234375 6 
L 19.234375 -19.28125 
z
M 19.234375 12.640625 
Q 26.65625 6 33.40625 6 
Q 40.046875 6 43.65625 11.546875 
Q 47.265625 17.09375 47.265625 27.15625 
Q 47.265625 45.796875 34.96875 45.796875 
Q 26.90625 45.796875 19.234375 37.0625 
z
" id="LucidaSansUnicode-112"/>
      <path d="M 9.625 0 
L 9.625 53.03125 
L 19.234375 53.03125 
L 19.234375 43.0625 
Q 26.265625 54.203125 37.3125 54.203125 
Q 47.953125 54.203125 51.8125 43.0625 
Q 58.640625 54.25 69.578125 54.25 
Q 76.5625 54.25 80.4375 50.125 
Q 84.328125 46 84.328125 38.578125 
L 84.328125 0 
L 74.65625 0 
L 74.65625 37.0625 
Q 74.65625 46.140625 67.484375 46.140625 
Q 60.015625 46.140625 51.8125 35.546875 
L 51.8125 0 
L 42.140625 0 
L 42.140625 37.0625 
Q 42.140625 46.1875 34.8125 46.1875 
Q 27.546875 46.1875 19.234375 35.546875 
L 19.234375 0 
z
" id="LucidaSansUnicode-109"/>
      <path d="M 4.296875 0 
L 24.46875 27.390625 
L 4.890625 53.03125 
L 16.3125 53.03125 
L 31.78125 32.625 
L 45.796875 53.03125 
L 55.171875 53.03125 
L 36.8125 26.125 
L 56.78125 0 
L 45.359375 0 
L 29.390625 21 
L 13.96875 0 
z
" id="LucidaSansUnicode-120"/>
     </defs>
     <g style="fill:#262626;" transform="translate(5.6355 114.465937)rotate(-90)scale(0.06 -0.06)">
      <use xlink:href="#LucidaSansUnicode-101"/>
      <use x="55.712891" xlink:href="#LucidaSansUnicode-108"/>
      <use x="84.619141" xlink:href="#LucidaSansUnicode-101"/>
      <use x="140.332031" xlink:href="#LucidaSansUnicode-99"/>
      <use x="191.552734" xlink:href="#LucidaSansUnicode-116"/>
      <use x="228.955078" xlink:href="#LucidaSansUnicode-114"/>
      <use x="269.873047" xlink:href="#LucidaSansUnicode-111"/>
      <use x="331.298828" xlink:href="#LucidaSansUnicode-110"/>
      <use x="393.359375" xlink:href="#LucidaSansUnicode-32"/>
      <use x="425" xlink:href="#LucidaSansUnicode-116"/>
      <use x="462.402344" xlink:href="#LucidaSansUnicode-114"/>
      <use x="503.320312" xlink:href="#LucidaSansUnicode-97"/>
      <use x="558.544922" xlink:href="#LucidaSansUnicode-110"/>
      <use x="620.605469" xlink:href="#LucidaSansUnicode-115"/>
      <use x="671.582031" xlink:href="#LucidaSansUnicode-112"/>
      <use x="734.521484" xlink:href="#LucidaSansUnicode-111"/>
      <use x="795.947266" xlink:href="#LucidaSansUnicode-114"/>
      <use x="836.865234" xlink:href="#LucidaSansUnicode-116"/>
      <use x="874.267578" xlink:href="#LucidaSansUnicode-32"/>
      <use x="905.908203" xlink:href="#LucidaSansUnicode-99"/>
      <use x="957.128906" xlink:href="#LucidaSansUnicode-111"/>
      <use x="1018.554688" xlink:href="#LucidaSansUnicode-109"/>
      <use x="1111.914062" xlink:href="#LucidaSansUnicode-112"/>
      <use x="1174.853516" xlink:href="#LucidaSansUnicode-108"/>
      <use x="1203.759766" xlink:href="#LucidaSansUnicode-101"/>
      <use x="1259.472656" xlink:href="#LucidaSansUnicode-120"/>
      <use x="1320.800781" xlink:href="#LucidaSansUnicode-101"/>
      <use x="1376.513672" xlink:href="#LucidaSansUnicode-115"/>
     </g>
     <!-- per cell -->
     <g style="fill:#262626;" transform="translate(12.343125 82.319063)rotate(-90)scale(0.06 -0.06)">
      <use xlink:href="#LucidaSansUnicode-112"/>
      <use x="62.939453" xlink:href="#LucidaSansUnicode-101"/>
      <use x="118.652344" xlink:href="#LucidaSansUnicode-114"/>
      <use x="159.570312" xlink:href="#LucidaSansUnicode-32"/>
      <use x="191.210938" xlink:href="#LucidaSansUnicode-99"/>
      <use x="242.431641" xlink:href="#LucidaSansUnicode-101"/>
      <use x="298.144531" xlink:href="#LucidaSansUnicode-108"/>
      <use x="327.050781" xlink:href="#LucidaSansUnicode-108"/>
     </g>
    </g>
   </g>
   <g id="LineCollection_1">
    <path clip-path="url(#pa68daf027e)" d="M 80.325 145 
L 80.325 69.688134 
" style="fill:none;stroke:#000000;stroke-dasharray:3.7,1.6;stroke-dashoffset:0;"/>
   </g>
   <g id="LineCollection_2">
    <path clip-path="url(#pa68daf027e)" d="M 31.5 69.688134 
L 80.325 69.688134 
" style="fill:none;stroke:#000000;stroke-dasharray:3.7,1.6;stroke-dashoffset:0;"/>
   </g>
   <g id="line2d_1">
    <path clip-path="url(#pa68daf027e)" d="M 32.843337 145 
L 33.462814 137.230735 
L 34.444221 129.955051 
L 35.425628 124.739893 
L 36.407035 120.65379 
L 37.388442 117.281838 
L 38.369849 114.402714 
L 40.332663 109.641411 
L 42.295477 105.766083 
L 44.258291 102.478853 
L 46.221106 99.610667 
L 48.18392 97.056289 
L 51.128141 93.666027 
L 54.072362 90.673882 
L 57.016583 87.981932 
L 60.942211 84.749005 
L 64.867839 81.829884 
L 69.774874 78.517797 
L 74.68191 75.495645 
L 80.570352 72.165069 
L 86.458794 69.088242 
L 93.328643 65.751119 
L 101.179899 62.200797 
L 110.012563 58.471576 
L 119.826633 54.58734 
L 130.622111 50.563982 
L 142.398995 46.411499 
L 156.138693 41.81499 
L 170.859799 37.126368 
L 187.543719 32.047862 
L 206.190452 26.608075 
L 226.8 20.827305 
L 226.8 20.827305 
" style="fill:none;stroke:#808080;stroke-linecap:round;stroke-opacity:0.4;stroke-width:3;"/>
   </g>
   <g id="line2d_2">
    <defs>
     <path d="M 0 2.25 
C 0.596707 2.25 1.169055 2.012926 1.59099 1.59099 
C 2.012926 1.169055 2.25 0.596707 2.25 0 
C 2.25 -0.596707 2.012926 -1.169055 1.59099 -1.59099 
C 1.169055 -2.012926 0.596707 -2.25 0 -2.25 
C -0.596707 -2.25 -1.169055 -2.012926 -1.59099 -1.59099 
C -2.012926 -1.169055 -2.25 -0.596707 -2.25 0 
C -2.25 0.596707 -2.012926 1.169055 -1.59099 1.59099 
C -1.169055 2.012926 -0.596707 2.25 0 2.25 
z
" id="mc6a96b1fea" style="stroke:#905426;stroke-opacity:0.5;"/>
    </defs>
    <g clip-path="url(#pa68daf027e)">
     <use style="fill:#905426;fill-opacity:0.5;stroke:#905426;stroke-opacity:0.5;" x="80.325" xlink:href="#mc6a96b1fea" y="69.688134"/>
    </g>
   </g>
   <g id="line2d_3">
    <defs>
     <path d="M 0 2 
C 0.530406 2 1.03916 1.789267 1.414214 1.414214 
C 1.789267 1.03916 2 0.530406 2 0 
C 2 -0.530406 1.789267 -1.03916 1.414214 -1.414214 
C 1.03916 -1.789267 0.530406 -2 0 -2 
C -0.530406 -2 -1.03916 -1.789267 -1.414214 -1.414214 
C -1.789267 -1.03916 -2 -0.530406 -2 0 
C -2 0.530406 -1.789267 1.03916 -1.414214 1.414214 
C -1.03916 1.789267 -0.530406 2 0 2 
z
" id="mefef410ed0" style="stroke:#000000;stroke-width:0.5;"/>
    </defs>
    <g clip-path="url(#pa68daf027e)">
     <use style="fill:#ab85ac;stroke:#000000;stroke-width:0.5;" x="220.390667" xlink:href="#mefef410ed0" y="31.269038"/>
     <use style="fill:#ab85ac;stroke:#000000;stroke-width:0.5;" x="184.750918" xlink:href="#mefef410ed0" y="40.347307"/>
     <use style="fill:#ab85ac;stroke:#000000;stroke-width:0.5;" x="103.634091" xlink:href="#mefef410ed0" y="55.689605"/>
    </g>
   </g>
   <g id="line2d_4">
    <defs>
     <path d="M 0 2 
C 0.530406 2 1.03916 1.789267 1.414214 1.414214 
C 1.789267 1.03916 2 0.530406 2 0 
C 2 -0.530406 1.789267 -1.03916 1.414214 -1.414214 
C 1.03916 -1.789267 0.530406 -2 0 -2 
C -0.530406 -2 -1.03916 -1.789267 -1.414214 -1.414214 
C -1.789267 -1.03916 -2 -0.530406 -2 0 
C -2 0.530406 -1.789267 1.03916 -1.414214 1.414214 
C -1.03916 1.789267 -0.530406 2 0 2 
z
" id="m4276618943" style="stroke:#000000;stroke-width:0.5;"/>
    </defs>
    <g clip-path="url(#pa68daf027e)">
     <use style="fill:#7aa974;stroke:#000000;stroke-width:0.5;" x="52.0065" xlink:href="#m4276618943" y="67.718106"/>
     <use style="fill:#7aa974;stroke:#000000;stroke-width:0.5;" x="52.983" xlink:href="#m4276618943" y="67.687357"/>
     <use style="fill:#7aa974;stroke:#000000;stroke-width:0.5;" x="56.889" xlink:href="#m4276618943" y="64.56653"/>
     <use style="fill:#7aa974;stroke:#000000;stroke-width:0.5;" x="61.7715" xlink:href="#m4276618943" y="65.940141"/>
     <use style="fill:#7aa974;stroke:#000000;stroke-width:0.5;" x="66.654" xlink:href="#m4276618943" y="61.846988"/>
     <use style="fill:#7aa974;stroke:#000000;stroke-width:0.5;" x="71.5365" xlink:href="#m4276618943" y="63.054535"/>
     <use style="fill:#7aa974;stroke:#000000;stroke-width:0.5;" x="76.419" xlink:href="#m4276618943" y="60.422715"/>
     <use style="fill:#7aa974;stroke:#000000;stroke-width:0.5;" x="81.3015" xlink:href="#m4276618943" y="59.800103"/>
     <use style="fill:#7aa974;stroke:#000000;stroke-width:0.5;" x="55.9125" xlink:href="#m4276618943" y="59.561939"/>
     <use style="fill:#7aa974;stroke:#000000;stroke-width:0.5;" x="65.6775" xlink:href="#m4276618943" y="59.913779"/>
     <use style="fill:#7aa974;stroke:#000000;stroke-width:0.5;" x="72.513" xlink:href="#m4276618943" y="63.13504"/>
     <use style="fill:#7aa974;stroke:#000000;stroke-width:0.5;" x="75.4425" xlink:href="#m4276618943" y="57.450737"/>
     <use style="fill:#7aa974;stroke:#000000;stroke-width:0.5;" x="83.2545" xlink:href="#m4276618943" y="56.520288"/>
     <use style="fill:#7aa974;stroke:#000000;stroke-width:0.5;" x="85.2075" xlink:href="#m4276618943" y="55.36545"/>
     <use style="fill:#7aa974;stroke:#000000;stroke-width:0.5;" x="93.0195" xlink:href="#m4276618943" y="57.227324"/>
     <use style="fill:#7aa974;stroke:#000000;stroke-width:0.5;" x="94.9725" xlink:href="#m4276618943" y="53.010588"/>
     <use style="fill:#7aa974;stroke:#000000;stroke-width:0.5;" x="102.7845" xlink:href="#m4276618943" y="54.835927"/>
     <use style="fill:#7aa974;stroke:#000000;stroke-width:0.5;" x="103.761" xlink:href="#m4276618943" y="50.440121"/>
     <use style="fill:#7aa974;stroke:#000000;stroke-width:0.5;" x="107.667" xlink:href="#m4276618943" y="52.585877"/>
     <use style="fill:#7aa974;stroke:#000000;stroke-width:0.5;" x="111.573" xlink:href="#m4276618943" y="47.926491"/>
    </g>
   </g>
   <g id="line2d_5">
    <defs>
     <path d="M 0 2 
C 0.530406 2 1.03916 1.789267 1.414214 1.414214 
C 1.789267 1.03916 2 0.530406 2 0 
C 2 -0.530406 1.789267 -1.03916 1.414214 -1.414214 
C 1.03916 -1.789267 0.530406 -2 0 -2 
C -0.530406 -2 -1.03916 -1.789267 -1.414214 -1.414214 
C -1.789267 -1.03916 -2 -0.530406 -2 0 
C -2 0.530406 -1.789267 1.03916 -1.414214 1.414214 
C -1.03916 1.789267 -0.530406 2 0 2 
z
" id="m79833e96c9" style="stroke:#000000;stroke-width:0.5;"/>
    </defs>
    <g clip-path="url(#pa68daf027e)">
     <use style="fill:#a9bfe3;stroke:#000000;stroke-width:0.5;" x="95.949" xlink:href="#m79833e96c9" y="67.491257"/>
     <use style="fill:#a9bfe3;stroke:#000000;stroke-width:0.5;" x="60.795" xlink:href="#m79833e96c9" y="74.349051"/>
     <use style="fill:#a9bfe3;stroke:#000000;stroke-width:0.5;" x="43.218" xlink:href="#m79833e96c9" y="72.48444"/>
     <use style="fill:#a9bfe3;stroke:#000000;stroke-width:0.5;" x="51.03" xlink:href="#m79833e96c9" y="73.026059"/>
     <use style="fill:#a9bfe3;stroke:#000000;stroke-width:0.5;" x="65.6775" xlink:href="#m79833e96c9" y="71.290075"/>
     <use style="fill:#a9bfe3;stroke:#000000;stroke-width:0.5;" x="80.325" xlink:href="#m79833e96c9" y="67.595893"/>
     <use style="fill:#a9bfe3;stroke:#000000;stroke-width:0.5;" x="94.9725" xlink:href="#m79833e96c9" y="67.493453"/>
     <use style="fill:#a9bfe3;stroke:#000000;stroke-width:0.5;" x="72.513" xlink:href="#m79833e96c9" y="71.791763"/>
     <use style="fill:#a9bfe3;stroke:#000000;stroke-width:0.5;" x="56.889" xlink:href="#m79833e96c9" y="78.028294"/>
     <use style="fill:#a9bfe3;stroke:#000000;stroke-width:0.5;" x="76.419" xlink:href="#m79833e96c9" y="70.273836"/>
     <use style="fill:#a9bfe3;stroke:#000000;stroke-width:0.5;" x="88.137" xlink:href="#m79833e96c9" y="69.469698"/>
     <use style="fill:#a9bfe3;stroke:#000000;stroke-width:0.5;" x="77.3955" xlink:href="#m79833e96c9" y="71.361332"/>
     <use style="fill:#a9bfe3;stroke:#000000;stroke-width:0.5;" x="155.5155" xlink:href="#m79833e96c9" y="56.93803"/>
     <use style="fill:#a9bfe3;stroke:#000000;stroke-width:0.5;" x="217.035" xlink:href="#m79833e96c9" y="43.69515"/>
     <use style="fill:#a9bfe3;stroke:#000000;stroke-width:0.5;" x="77.3955" xlink:href="#m79833e96c9" y="71.755157"/>
     <use style="fill:#a9bfe3;stroke:#000000;stroke-width:0.5;" x="85.2075" xlink:href="#m79833e96c9" y="69.450368"/>
     <use style="fill:#a9bfe3;stroke:#000000;stroke-width:0.5;" x="93.0195" xlink:href="#m79833e96c9" y="66.961022"/>
     <use style="fill:#a9bfe3;stroke:#000000;stroke-width:0.5;" x="70.56" xlink:href="#m79833e96c9" y="67.925069"/>
     <use style="fill:#a9bfe3;stroke:#000000;stroke-width:0.5;" x="74.466" xlink:href="#m79833e96c9" y="71.521241"/>
     <use style="fill:#a9bfe3;stroke:#000000;stroke-width:0.5;" x="85.2075" xlink:href="#m79833e96c9" y="68.782404"/>
    </g>
   </g>
   <g id="line2d_6">
    <defs>
     <path d="M 0 2 
C 0.530406 2 1.03916 1.789267 1.414214 1.414214 
C 1.789267 1.03916 2 0.530406 2 0 
C 2 -0.530406 1.789267 -1.03916 1.414214 -1.414214 
C 1.03916 -1.789267 0.530406 -2 0 -2 
C -0.530406 -2 -1.03916 -1.789267 -1.414214 -1.414214 
C -1.789267 -1.03916 -2 -0.530406 -2 0 
C -2 0.530406 -1.789267 1.03916 -1.414214 1.414214 
C -1.03916 1.789267 -0.530406 2 0 2 
z
" id="m8b4a5f8f59" style="stroke:#000000;stroke-width:0.5;"/>
    </defs>
    <g clip-path="url(#pa68daf027e)">
     <use style="fill:#d56c55;stroke:#000000;stroke-width:0.5;" x="42.2415" xlink:href="#m8b4a5f8f59" y="64.734308"/>
     <use style="fill:#d56c55;stroke:#000000;stroke-width:0.5;" x="52.0065" xlink:href="#m8b4a5f8f59" y="58.999207"/>
     <use style="fill:#d56c55;stroke:#000000;stroke-width:0.5;" x="61.7715" xlink:href="#m8b4a5f8f59" y="57.333771"/>
     <use style="fill:#d56c55;stroke:#000000;stroke-width:0.5;" x="70.56" xlink:href="#m8b4a5f8f59" y="56.472385"/>
     <use style="fill:#d56c55;stroke:#000000;stroke-width:0.5;" x="79.3485" xlink:href="#m8b4a5f8f59" y="52.760846"/>
    </g>
   </g>
   <g id="patch_3">
    <path d="M 31.5 126 
L 31.5 17.28 
" style="fill:none;stroke:#ffffff;stroke-linecap:square;stroke-linejoin:miter;stroke-width:0.8;"/>
   </g>
   <g id="patch_4">
    <path d="M 226.8 126 
L 226.8 17.28 
" style="fill:none;stroke:#ffffff;stroke-linecap:square;stroke-linejoin:miter;stroke-width:0.8;"/>
   </g>
   <g id="patch_5">
    <path d="M 31.5 126 
L 226.8 126 
" style="fill:none;stroke:#ffffff;stroke-linecap:square;stroke-linejoin:miter;stroke-width:0.8;"/>
   </g>
   <g id="patch_6">
    <path d="M 31.5 17.28 
L 226.8 17.28 
" style="fill:none;stroke:#ffffff;stroke-linecap:square;stroke-linejoin:miter;stroke-width:0.8;"/>
   </g>
   <g id="legend_1">
    <g id="patch_7">
     <path d="M 142.92 123 
L 222.6 123 
Q 223.8 123 223.8 121.8 
L 223.8 69.634688 
Q 223.8 68.434688 222.6 68.434688 
L 142.92 68.434688 
Q 141.72 68.434688 141.72 69.634688 
L 141.72 121.8 
Q 141.72 123 142.92 123 
z
" style="fill:#e3dcd0;opacity:0.8;stroke:#cccccc;stroke-linejoin:miter;"/>
    </g>
    <g id="line2d_7">
     <path d="M 144.12 73.360313 
L 156.12 73.360313 
" style="fill:none;stroke:#808080;stroke-linecap:round;stroke-opacity:0.4;stroke-width:3;"/>
    </g>
    <g id="line2d_8"/>
    <g id="text_15">
     <!-- cell size dependence -->
     <defs>
      <path d="M 9.625 0 
L 9.625 53.03125 
L 19.234375 53.03125 
L 19.234375 0 
z
M 9.625 62.640625 
L 9.625 72.265625 
L 19.234375 72.265625 
L 19.234375 62.640625 
z
" id="LucidaSansUnicode-105"/>
      <path d="M 6 0 
L 6 7.234375 
L 38.8125 45.796875 
L 7.515625 45.796875 
L 7.515625 53.03125 
L 50.6875 53.03125 
L 50.6875 45.796875 
L 17.875 7.234375 
L 51.3125 7.234375 
L 51.3125 0 
z
" id="LucidaSansUnicode-122"/>
      <path d="M 43.65625 0 
L 43.65625 9.96875 
Q 37.796875 -1.21875 25.984375 -1.21875 
Q 16.40625 -1.21875 10.90625 5.765625 
Q 5.421875 12.75 5.421875 24.859375 
Q 5.421875 38.09375 11.640625 46.140625 
Q 17.875 54.203125 28.03125 54.203125 
Q 37.453125 54.203125 43.65625 46.96875 
L 43.65625 77.09375 
L 53.328125 77.09375 
L 53.328125 0 
z
M 43.65625 40.375 
Q 36.1875 46.96875 29.5 46.96875 
Q 22.90625 46.96875 19.28125 41.453125 
Q 15.671875 35.9375 15.671875 25.828125 
Q 15.671875 7.234375 27.984375 7.234375 
Q 35.984375 7.234375 43.65625 15.96875 
z
" id="LucidaSansUnicode-100"/>
     </defs>
     <g style="fill:#262626;" transform="translate(160.92 75.460313)scale(0.06 -0.06)">
      <use xlink:href="#LucidaSansUnicode-99"/>
      <use x="51.220703" xlink:href="#LucidaSansUnicode-101"/>
      <use x="106.933594" xlink:href="#LucidaSansUnicode-108"/>
      <use x="135.839844" xlink:href="#LucidaSansUnicode-108"/>
      <use x="164.746094" xlink:href="#LucidaSansUnicode-32"/>
      <use x="196.386719" xlink:href="#LucidaSansUnicode-115"/>
      <use x="247.363281" xlink:href="#LucidaSansUnicode-105"/>
      <use x="276.269531" xlink:href="#LucidaSansUnicode-122"/>
      <use x="333.59375" xlink:href="#LucidaSansUnicode-101"/>
      <use x="389.306641" xlink:href="#LucidaSansUnicode-32"/>
      <use x="420.947266" xlink:href="#LucidaSansUnicode-100"/>
      <use x="483.886719" xlink:href="#LucidaSansUnicode-101"/>
      <use x="539.599609" xlink:href="#LucidaSansUnicode-112"/>
      <use x="602.539062" xlink:href="#LucidaSansUnicode-101"/>
      <use x="658.251953" xlink:href="#LucidaSansUnicode-110"/>
      <use x="720.3125" xlink:href="#LucidaSansUnicode-100"/>
      <use x="783.251953" xlink:href="#LucidaSansUnicode-101"/>
      <use x="838.964844" xlink:href="#LucidaSansUnicode-110"/>
      <use x="901.025391" xlink:href="#LucidaSansUnicode-99"/>
      <use x="952.246094" xlink:href="#LucidaSansUnicode-101"/>
     </g>
    </g>
    <g id="line2d_9"/>
    <g id="line2d_10">
     <g>
      <use style="fill:#905426;fill-opacity:0.5;stroke:#905426;stroke-opacity:0.5;" x="150.12" xlink:href="#mc6a96b1fea" y="82.142813"/>
     </g>
    </g>
    <g id="text_16">
     <!-- estimated value -->
     <defs>
      <path d="M 20.609375 0 
L 0.875 53.03125 
L 10.5 53.03125 
L 25.921875 11.765625 
L 42.1875 53.03125 
L 51.171875 53.03125 
L 30.21875 0 
z
" id="LucidaSansUnicode-118"/>
      <path d="M 42.78125 0 
L 42.78125 9.96875 
Q 35.109375 -1.21875 24.171875 -1.21875 
Q 17.234375 -1.21875 13.125 3.140625 
Q 9.03125 7.515625 9.03125 14.9375 
L 9.03125 53.03125 
L 18.65625 53.03125 
L 18.65625 18.0625 
Q 18.65625 12.109375 20.390625 9.59375 
Q 22.125 7.078125 26.171875 7.078125 
Q 34.96875 7.078125 42.78125 18.65625 
L 42.78125 53.03125 
L 52.390625 53.03125 
L 52.390625 0 
z
" id="LucidaSansUnicode-117"/>
     </defs>
     <g style="fill:#262626;" transform="translate(160.92 84.242813)scale(0.06 -0.06)">
      <use xlink:href="#LucidaSansUnicode-101"/>
      <use x="55.712891" xlink:href="#LucidaSansUnicode-115"/>
      <use x="106.689453" xlink:href="#LucidaSansUnicode-116"/>
      <use x="144.091797" xlink:href="#LucidaSansUnicode-105"/>
      <use x="172.998047" xlink:href="#LucidaSansUnicode-109"/>
      <use x="266.357422" xlink:href="#LucidaSansUnicode-97"/>
      <use x="321.582031" xlink:href="#LucidaSansUnicode-116"/>
      <use x="358.984375" xlink:href="#LucidaSansUnicode-101"/>
      <use x="414.697266" xlink:href="#LucidaSansUnicode-100"/>
      <use x="477.636719" xlink:href="#LucidaSansUnicode-32"/>
      <use x="509.277344" xlink:href="#LucidaSansUnicode-118"/>
      <use x="561.035156" xlink:href="#LucidaSansUnicode-97"/>
      <use x="616.259766" xlink:href="#LucidaSansUnicode-108"/>
      <use x="645.166016" xlink:href="#LucidaSansUnicode-117"/>
      <use x="707.226562" xlink:href="#LucidaSansUnicode-101"/>
     </g>
    </g>
    <g id="line2d_11"/>
    <g id="line2d_12">
     <g>
      <use style="fill:#ab85ac;stroke:#000000;stroke-width:0.5;" x="150.12" xlink:href="#mefef410ed0" y="90.925313"/>
     </g>
    </g>
    <g id="text_17">
     <!-- Li et al. 2014 -->
     <defs>
      <path d="M 9.328125 0 
L 9.328125 72.265625 
L 19.578125 72.265625 
L 19.578125 7.671875 
L 52.09375 7.671875 
L 52.09375 0 
z
" id="LucidaSansUnicode-76"/>
     </defs>
     <g style="fill:#262626;" transform="translate(160.92 93.025313)scale(0.06 -0.06)">
      <use xlink:href="#LucidaSansUnicode-76"/>
      <use x="53.320312" xlink:href="#LucidaSansUnicode-105"/>
      <use x="82.226562" xlink:href="#LucidaSansUnicode-32"/>
      <use x="113.867188" xlink:href="#LucidaSansUnicode-101"/>
      <use x="169.580078" xlink:href="#LucidaSansUnicode-116"/>
      <use x="206.982422" xlink:href="#LucidaSansUnicode-32"/>
      <use x="238.623047" xlink:href="#LucidaSansUnicode-97"/>
      <use x="293.847656" xlink:href="#LucidaSansUnicode-108"/>
      <use x="322.753906" xlink:href="#LucidaSansUnicode-46"/>
      <use x="354.394531" xlink:href="#LucidaSansUnicode-32"/>
      <use x="386.035156" xlink:href="#LucidaSansUnicode-50"/>
      <use x="449.267578" xlink:href="#LucidaSansUnicode-48"/>
      <use x="512.5" xlink:href="#LucidaSansUnicode-49"/>
      <use x="575.732422" xlink:href="#LucidaSansUnicode-52"/>
     </g>
    </g>
    <g id="line2d_13"/>
    <g id="line2d_14">
     <g>
      <use style="fill:#7aa974;stroke:#000000;stroke-width:0.5;" x="150.12" xlink:href="#m4276618943" y="99.707813"/>
     </g>
    </g>
    <g id="text_18">
     <!-- Peebo et al. 2015 -->
     <defs>
      <path d="M 9.328125 0 
L 9.328125 72.265625 
L 29 72.265625 
Q 37.5 72.265625 42.109375 70.875 
Q 46.734375 69.484375 49.65625 65.96875 
Q 53.515625 61.328125 53.515625 53.328125 
Q 53.515625 41.796875 45.703125 35.25 
Q 37.890625 28.71875 24.03125 28.71875 
L 19.484375 28.71875 
L 19.484375 0 
z
M 19.484375 36.46875 
L 23.640625 36.46875 
Q 32.765625 36.46875 37.734375 40.671875 
Q 42.71875 44.875 42.71875 52.59375 
Q 42.71875 59.03125 38.78125 61.8125 
Q 34.859375 64.59375 25.78125 64.59375 
L 19.484375 64.59375 
z
" id="LucidaSansUnicode-80"/>
      <path d="M 9.625 -0.59375 
L 9.625 77.09375 
L 19.234375 77.09375 
L 19.234375 43.0625 
Q 25.140625 54.203125 36.96875 54.203125 
Q 46.53125 54.203125 52.015625 47.21875 
Q 57.515625 40.234375 57.515625 28.125 
Q 57.515625 14.9375 51.28125 6.859375 
Q 45.0625 -1.21875 34.90625 -1.21875 
Q 25.484375 -1.21875 19.234375 6 
L 18.0625 -0.59375 
z
M 19.234375 12.640625 
Q 26.65625 6 33.40625 6 
Q 40.046875 6 43.65625 11.546875 
Q 47.265625 17.09375 47.265625 27.15625 
Q 47.265625 45.796875 34.96875 45.796875 
Q 26.90625 45.796875 19.234375 37.0625 
z
" id="LucidaSansUnicode-98"/>
     </defs>
     <g style="fill:#262626;" transform="translate(160.92 101.807813)scale(0.06 -0.06)">
      <use xlink:href="#LucidaSansUnicode-80"/>
      <use x="55.273438" xlink:href="#LucidaSansUnicode-101"/>
      <use x="110.986328" xlink:href="#LucidaSansUnicode-101"/>
      <use x="166.699219" xlink:href="#LucidaSansUnicode-98"/>
      <use x="229.638672" xlink:href="#LucidaSansUnicode-111"/>
      <use x="291.064453" xlink:href="#LucidaSansUnicode-32"/>
      <use x="322.705078" xlink:href="#LucidaSansUnicode-101"/>
      <use x="378.417969" xlink:href="#LucidaSansUnicode-116"/>
      <use x="415.820312" xlink:href="#LucidaSansUnicode-32"/>
      <use x="447.460938" xlink:href="#LucidaSansUnicode-97"/>
      <use x="502.685547" xlink:href="#LucidaSansUnicode-108"/>
      <use x="531.591797" xlink:href="#LucidaSansUnicode-46"/>
      <use x="563.232422" xlink:href="#LucidaSansUnicode-32"/>
      <use x="594.873047" xlink:href="#LucidaSansUnicode-50"/>
      <use x="658.105469" xlink:href="#LucidaSansUnicode-48"/>
      <use x="721.337891" xlink:href="#LucidaSansUnicode-49"/>
      <use x="784.570312" xlink:href="#LucidaSansUnicode-53"/>
     </g>
    </g>
    <g id="line2d_15"/>
    <g id="line2d_16">
     <g>
      <use style="fill:#a9bfe3;stroke:#000000;stroke-width:0.5;" x="150.12" xlink:href="#m79833e96c9" y="108.490313"/>
     </g>
    </g>
    <g id="text_19">
     <!-- Schmidt et al. 2016 -->
     <defs>
      <path d="M 4.890625 1.375 
L 4.890625 11.53125 
Q 17.09375 5.859375 25 5.859375 
Q 31 5.859375 34.6875 9.046875 
Q 38.375 12.25 38.375 17.390625 
Q 38.375 21.625 35.953125 24.609375 
Q 33.546875 27.59375 27.046875 31.25 
L 22.078125 34.125 
Q 12.84375 39.40625 9.0625 44.0625 
Q 5.28125 48.734375 5.28125 54.890625 
Q 5.28125 63.28125 11.328125 68.671875 
Q 17.390625 74.078125 26.765625 74.078125 
Q 35.109375 74.078125 44.390625 71.296875 
L 44.390625 61.921875 
Q 32.953125 66.40625 27.34375 66.40625 
Q 22.015625 66.40625 18.546875 63.578125 
Q 15.09375 60.75 15.09375 56.453125 
Q 15.09375 52.828125 17.625 50.046875 
Q 20.171875 47.265625 26.90625 43.40625 
L 32.078125 40.484375 
Q 41.453125 35.15625 45.15625 30.421875 
Q 48.875 25.6875 48.875 19.046875 
Q 48.875 9.625 41.9375 3.90625 
Q 35.015625 -1.8125 23.53125 -1.8125 
Q 16.21875 -1.8125 4.890625 1.375 
z
" id="LucidaSansUnicode-83"/>
      <path d="M 17.1875 37.453125 
Q 24.078125 46.390625 34.515625 46.390625 
Q 44 46.390625 50.03125 40.109375 
Q 56.0625 33.84375 56.0625 24.03125 
Q 56.0625 12.75 49.296875 5.46875 
Q 42.53125 -1.8125 32.078125 -1.8125 
Q 20.171875 -1.8125 13.421875 7.828125 
Q 6.6875 17.484375 6.6875 34.515625 
Q 6.6875 57.46875 18.453125 68.21875 
Q 24.859375 74.125 36.140625 74.125 
Q 42.671875 74.125 52.34375 71.390625 
L 52.34375 62.984375 
Q 42.140625 66.890625 35.546875 66.890625 
Q 17.1875 66.890625 17.1875 37.453125 
z
M 46.390625 22.125 
Q 46.390625 30.125 42.671875 34.78125 
Q 38.96875 39.453125 32.515625 39.453125 
Q 26.375 39.453125 21.96875 35.34375 
Q 17.578125 31.25 17.578125 25.484375 
Q 17.578125 16.40625 21.75 10.90625 
Q 25.921875 5.421875 32.8125 5.421875 
Q 39.0625 5.421875 42.71875 9.90625 
Q 46.390625 14.40625 46.390625 22.125 
z
" id="LucidaSansUnicode-54"/>
     </defs>
     <g style="fill:#262626;" transform="translate(160.92 110.590313)scale(0.06 -0.06)">
      <use xlink:href="#LucidaSansUnicode-83"/>
      <use x="53.857422" xlink:href="#LucidaSansUnicode-99"/>
      <use x="105.078125" xlink:href="#LucidaSansUnicode-104"/>
      <use x="167.138672" xlink:href="#LucidaSansUnicode-109"/>
      <use x="260.498047" xlink:href="#LucidaSansUnicode-105"/>
      <use x="289.404297" xlink:href="#LucidaSansUnicode-100"/>
      <use x="352.34375" xlink:href="#LucidaSansUnicode-116"/>
      <use x="389.746094" xlink:href="#LucidaSansUnicode-32"/>
      <use x="421.386719" xlink:href="#LucidaSansUnicode-101"/>
      <use x="477.099609" xlink:href="#LucidaSansUnicode-116"/>
      <use x="514.501953" xlink:href="#LucidaSansUnicode-32"/>
      <use x="546.142578" xlink:href="#LucidaSansUnicode-97"/>
      <use x="601.367188" xlink:href="#LucidaSansUnicode-108"/>
      <use x="630.273438" xlink:href="#LucidaSansUnicode-46"/>
      <use x="661.914062" xlink:href="#LucidaSansUnicode-32"/>
      <use x="693.554688" xlink:href="#LucidaSansUnicode-50"/>
      <use x="756.787109" xlink:href="#LucidaSansUnicode-48"/>
      <use x="820.019531" xlink:href="#LucidaSansUnicode-49"/>
      <use x="883.251953" xlink:href="#LucidaSansUnicode-54"/>
     </g>
    </g>
    <g id="line2d_17"/>
    <g id="line2d_18">
     <g>
      <use style="fill:#d56c55;stroke:#000000;stroke-width:0.5;" x="150.12" xlink:href="#m8b4a5f8f59" y="117.272813"/>
     </g>
    </g>
    <g id="text_20">
     <!-- Valgepea et al. 2013 -->
     <defs>
      <path d="M 29.046875 0 
L 1.765625 72.265625 
L 12.015625 72.265625 
L 34.375 13.09375 
L 55.953125 72.265625 
L 64.9375 72.265625 
L 38.71875 0 
z
" id="LucidaSansUnicode-86"/>
     </defs>
     <g style="fill:#262626;" transform="translate(160.92 119.372813)scale(0.06 -0.06)">
      <use xlink:href="#LucidaSansUnicode-86"/>
      <use x="65.380859" xlink:href="#LucidaSansUnicode-97"/>
      <use x="120.605469" xlink:href="#LucidaSansUnicode-108"/>
      <use x="149.511719" xlink:href="#LucidaSansUnicode-103"/>
      <use x="211.865234" xlink:href="#LucidaSansUnicode-101"/>
      <use x="267.578125" xlink:href="#LucidaSansUnicode-112"/>
      <use x="330.517578" xlink:href="#LucidaSansUnicode-101"/>
      <use x="386.230469" xlink:href="#LucidaSansUnicode-97"/>
      <use x="441.455078" xlink:href="#LucidaSansUnicode-32"/>
      <use x="473.095703" xlink:href="#LucidaSansUnicode-101"/>
      <use x="528.808594" xlink:href="#LucidaSansUnicode-116"/>
      <use x="566.210938" xlink:href="#LucidaSansUnicode-32"/>
      <use x="597.851562" xlink:href="#LucidaSansUnicode-97"/>
      <use x="653.076172" xlink:href="#LucidaSansUnicode-108"/>
      <use x="681.982422" xlink:href="#LucidaSansUnicode-46"/>
      <use x="713.623047" xlink:href="#LucidaSansUnicode-32"/>
      <use x="745.263672" xlink:href="#LucidaSansUnicode-50"/>
      <use x="808.496094" xlink:href="#LucidaSansUnicode-48"/>
      <use x="871.728516" xlink:href="#LucidaSansUnicode-49"/>
      <use x="934.960938" xlink:href="#LucidaSansUnicode-51"/>
     </g>
    </g>
   </g>
  </g>
 </g>
 <defs>
  <clipPath id="pa68daf027e">
   <rect height="108.72" width="195.3" x="31.5" y="17.28"/>
  </clipPath>
 </defs>
</svg>
