<?xml version="1.0" encoding="utf-8" standalone="no"?>
<!DOCTYPE svg PUBLIC "-//W3C//DTD SVG 1.1//EN"
  "http://www.w3.org/Graphics/SVG/1.1/DTD/svg11.dtd">
<!-- Created with matplotlib (https://matplotlib.org/) -->
<svg height="288pt" version="1.1" viewBox="0 0 360 288" width="360pt" xmlns="http://www.w3.org/2000/svg" xmlns:xlink="http://www.w3.org/1999/xlink">
 <defs>
  <style type="text/css">
*{stroke-linecap:butt;stroke-linejoin:round;}
  </style>
 </defs>
 <g id="figure_1">
  <g id="patch_1">
   <path d="M 0 288 
L 360 288 
L 360 0 
L 0 0 
z
" style="fill:#ffffff;"/>
  </g>
  <g id="axes_1">
   <g id="patch_2">
    <path d="M 45 252 
L 324 252 
L 324 34.56 
L 45 34.56 
z
" style="fill:#e3dcd0;"/>
   </g>
   <g id="matplotlib.axis_1">
    <g id="xtick_1">
     <g id="text_1">
      <!-- 0.00 -->
      <defs>
       <path d="M 31.640625 -1.8125 
Q 20.265625 -1.8125 13.296875 8.609375 
Q 6.34375 19.046875 6.34375 36.140625 
Q 6.34375 53.21875 13.296875 63.640625 
Q 20.265625 74.078125 31.640625 74.078125 
Q 43.0625 74.078125 50 63.671875 
Q 56.9375 53.265625 56.9375 36.140625 
Q 56.9375 19.046875 50 8.609375 
Q 43.0625 -1.8125 31.640625 -1.8125 
z
M 31.640625 5.421875 
Q 46.734375 5.421875 46.734375 36.140625 
Q 46.734375 66.84375 31.640625 66.84375 
Q 16.609375 66.84375 16.609375 36.140625 
Q 16.609375 5.421875 31.640625 5.421875 
z
" id="LucidaSansUnicode-48"/>
       <path d="M 9.765625 0 
L 9.765625 12.0625 
L 21.828125 12.0625 
L 21.828125 0 
z
" id="LucidaSansUnicode-46"/>
      </defs>
      <g transform="translate(45.333639 263.209375)scale(0.1 -0.1)">
       <use xlink:href="#LucidaSansUnicode-48"/>
       <use x="63.232422" xlink:href="#LucidaSansUnicode-46"/>
       <use x="94.873047" xlink:href="#LucidaSansUnicode-48"/>
       <use x="158.105469" xlink:href="#LucidaSansUnicode-48"/>
      </g>
     </g>
    </g>
    <g id="xtick_2">
     <g id="text_2">
      <!-- 0.25 -->
      <defs>
       <path d="M 8.296875 0 
L 8.296875 8.453125 
Q 12.5 18.265625 25.296875 29.828125 
L 30.8125 34.765625 
Q 41.453125 44.390625 41.453125 53.859375 
Q 41.453125 59.90625 37.8125 63.375 
Q 34.1875 66.84375 27.78125 66.84375 
Q 20.3125 66.84375 10.109375 61.03125 
L 10.109375 69.53125 
Q 19.734375 74.078125 29.25 74.078125 
Q 39.40625 74.078125 45.53125 68.609375 
Q 51.65625 63.140625 51.65625 54.109375 
Q 51.65625 47.609375 48.546875 42.578125 
Q 45.453125 37.546875 37.015625 30.375 
L 33.296875 27.203125 
Q 21.734375 17.390625 19.921875 8.453125 
L 51.3125 8.453125 
L 51.3125 0 
z
" id="LucidaSansUnicode-50"/>
       <path d="M 12.15625 -0.296875 
L 12.15625 8.296875 
Q 19.34375 5.421875 25.828125 5.421875 
Q 32.953125 5.421875 37.03125 9.609375 
Q 41.109375 13.8125 41.109375 21.1875 
Q 41.109375 29.109375 35.34375 33.28125 
Q 29.59375 37.453125 18.703125 37.453125 
Q 16.15625 37.453125 13.375 37.109375 
L 13.375 72.265625 
L 49.953125 72.265625 
L 49.953125 63.875 
L 21.828125 63.875 
L 21.828125 44.828125 
Q 35.75 44.828125 43.5625 38.421875 
Q 51.375 32.03125 51.375 20.703125 
Q 51.375 10.15625 44.265625 4.171875 
Q 37.15625 -1.8125 24.65625 -1.8125 
Q 19.09375 -1.8125 12.15625 -0.296875 
z
" id="LucidaSansUnicode-53"/>
      </defs>
      <g transform="translate(77.198308 263.209375)scale(0.1 -0.1)">
       <use xlink:href="#LucidaSansUnicode-48"/>
       <use x="63.232422" xlink:href="#LucidaSansUnicode-46"/>
       <use x="94.873047" xlink:href="#LucidaSansUnicode-50"/>
       <use x="158.105469" xlink:href="#LucidaSansUnicode-53"/>
      </g>
     </g>
    </g>
    <g id="xtick_3">
     <g id="text_3">
      <!-- 0.50 -->
      <g transform="translate(109.062978 263.209375)scale(0.1 -0.1)">
       <use xlink:href="#LucidaSansUnicode-48"/>
       <use x="63.232422" xlink:href="#LucidaSansUnicode-46"/>
       <use x="94.873047" xlink:href="#LucidaSansUnicode-53"/>
       <use x="158.105469" xlink:href="#LucidaSansUnicode-48"/>
      </g>
     </g>
    </g>
    <g id="xtick_4">
     <g id="text_4">
      <!-- 0.75 -->
      <defs>
       <path d="M 15.046875 0 
Q 16.453125 8.453125 19.0625 14.59375 
Q 21.6875 20.75 28.328125 31.5 
L 48.046875 63.234375 
L 10.84375 63.234375 
L 10.84375 72.265625 
L 57.234375 72.265625 
L 57.234375 63.234375 
Q 29.4375 22.265625 26.125 0 
z
" id="LucidaSansUnicode-55"/>
      </defs>
      <g transform="translate(140.927647 263.209375)scale(0.1 -0.1)">
       <use xlink:href="#LucidaSansUnicode-48"/>
       <use x="63.232422" xlink:href="#LucidaSansUnicode-46"/>
       <use x="94.873047" xlink:href="#LucidaSansUnicode-55"/>
       <use x="158.105469" xlink:href="#LucidaSansUnicode-53"/>
      </g>
     </g>
    </g>
    <g id="xtick_5">
     <g id="text_5">
      <!-- 1.00 -->
      <defs>
       <path d="M 26.171875 0 
L 26.171875 65.046875 
L 14.75 65.046875 
L 14.75 71.09375 
L 35.84375 72.90625 
L 35.84375 0 
z
" id="LucidaSansUnicode-49"/>
      </defs>
      <g transform="translate(172.792317 263.209375)scale(0.1 -0.1)">
       <use xlink:href="#LucidaSansUnicode-49"/>
       <use x="63.232422" xlink:href="#LucidaSansUnicode-46"/>
       <use x="94.873047" xlink:href="#LucidaSansUnicode-48"/>
       <use x="158.105469" xlink:href="#LucidaSansUnicode-48"/>
      </g>
     </g>
    </g>
    <g id="xtick_6">
     <g id="text_6">
      <!-- 1.25 -->
      <g transform="translate(204.656986 263.209375)scale(0.1 -0.1)">
       <use xlink:href="#LucidaSansUnicode-49"/>
       <use x="63.232422" xlink:href="#LucidaSansUnicode-46"/>
       <use x="94.873047" xlink:href="#LucidaSansUnicode-50"/>
       <use x="158.105469" xlink:href="#LucidaSansUnicode-53"/>
      </g>
     </g>
    </g>
    <g id="xtick_7">
     <g id="text_7">
      <!-- 1.50 -->
      <g transform="translate(236.521655 263.209375)scale(0.1 -0.1)">
       <use xlink:href="#LucidaSansUnicode-49"/>
       <use x="63.232422" xlink:href="#LucidaSansUnicode-46"/>
       <use x="94.873047" xlink:href="#LucidaSansUnicode-53"/>
       <use x="158.105469" xlink:href="#LucidaSansUnicode-48"/>
      </g>
     </g>
    </g>
    <g id="xtick_8">
     <g id="text_8">
      <!-- 1.75 -->
      <g transform="translate(268.386325 263.209375)scale(0.1 -0.1)">
       <use xlink:href="#LucidaSansUnicode-49"/>
       <use x="63.232422" xlink:href="#LucidaSansUnicode-46"/>
       <use x="94.873047" xlink:href="#LucidaSansUnicode-55"/>
       <use x="158.105469" xlink:href="#LucidaSansUnicode-53"/>
      </g>
     </g>
    </g>
    <g id="xtick_9">
     <g id="text_9">
      <!-- 2.00 -->
      <g transform="translate(300.250994 263.209375)scale(0.1 -0.1)">
       <use xlink:href="#LucidaSansUnicode-50"/>
       <use x="63.232422" xlink:href="#LucidaSansUnicode-46"/>
       <use x="94.873047" xlink:href="#LucidaSansUnicode-48"/>
       <use x="158.105469" xlink:href="#LucidaSansUnicode-48"/>
      </g>
     </g>
    </g>
    <g id="text_10">
     <!-- growth rate [hr$^{-1}$] -->
     <defs>
      <path d="M 9.8125 -17.625 
L 10.9375 -9.28125 
Q 19.28125 -13.234375 27.4375 -13.234375 
Q 43.65625 -13.234375 43.65625 4 
L 43.65625 12.359375 
Q 41.15625 7.078125 36.546875 4.140625 
Q 31.9375 1.21875 26.265625 1.21875 
Q 16.65625 1.21875 11.03125 8.125 
Q 5.421875 15.046875 5.421875 26.859375 
Q 5.421875 38.96875 11.8125 46.578125 
Q 18.21875 54.203125 28.375 54.203125 
Q 37.25 54.203125 43.65625 46.96875 
L 43.65625 53.03125 
L 53.328125 53.03125 
L 53.328125 14.453125 
Q 53.328125 2 52.03125 -3.984375 
Q 50.734375 -9.96875 47.171875 -13.765625 
Q 40.875 -20.453125 27.484375 -20.453125 
Q 18.3125 -20.453125 9.8125 -17.625 
z
M 43.65625 18.359375 
L 43.65625 40.375 
Q 37.3125 46.96875 29.828125 46.96875 
Q 23.1875 46.96875 19.421875 41.640625 
Q 15.671875 36.328125 15.671875 26.90625 
Q 15.671875 9.625 27.9375 9.625 
Q 36.28125 9.625 43.65625 18.359375 
z
" id="LucidaSansUnicode-103"/>
      <path d="M 9.625 0 
L 9.625 53.03125 
L 19.234375 53.03125 
L 19.234375 43.0625 
Q 24.953125 54.203125 35.84375 54.203125 
Q 37.3125 54.203125 38.921875 53.953125 
L 38.921875 44.96875 
Q 36.421875 45.796875 34.515625 45.796875 
Q 25.390625 45.796875 19.234375 34.96875 
L 19.234375 0 
z
" id="LucidaSansUnicode-114"/>
      <path d="M 30.71875 -1.21875 
Q 19.046875 -1.21875 12.234375 6.25 
Q 5.421875 13.71875 5.421875 26.515625 
Q 5.421875 39.3125 12.234375 46.75 
Q 19.046875 54.203125 30.71875 54.203125 
Q 42.390625 54.203125 49.1875 46.75 
Q 56 39.3125 56 26.515625 
Q 56 13.71875 49.1875 6.25 
Q 42.390625 -1.21875 30.71875 -1.21875 
z
M 30.71875 6 
Q 37.890625 6 41.84375 11.375 
Q 45.796875 16.75 45.796875 26.515625 
Q 45.796875 36.28125 41.84375 41.625 
Q 37.890625 46.96875 30.71875 46.96875 
Q 23.53125 46.96875 19.59375 41.625 
Q 15.671875 36.28125 15.671875 26.515625 
Q 15.671875 16.75 19.59375 11.375 
Q 23.53125 6 30.71875 6 
z
" id="LucidaSansUnicode-111"/>
      <path d="M 15.765625 0 
L 0.59375 53.03125 
L 10.015625 53.03125 
L 21.625 11.96875 
L 34.1875 53.03125 
L 43.796875 53.03125 
L 54.78125 11.96875 
L 68.109375 53.03125 
L 76.375 53.03125 
L 59.078125 0 
L 49.421875 0 
L 38.1875 41.0625 
L 25.484375 0 
z
" id="LucidaSansUnicode-119"/>
      <path d="M 33.25 0 
Q 28.8125 -1.21875 25.53125 -1.21875 
Q 18.21875 -1.21875 14.109375 2.96875 
Q 10.015625 7.171875 10.015625 14.65625 
L 10.015625 45.796875 
L 3.375 45.796875 
L 3.375 53.03125 
L 10.015625 53.03125 
L 10.015625 62.640625 
L 19.625 63.578125 
L 19.625 53.03125 
L 33.5 53.03125 
L 33.5 45.796875 
L 19.625 45.796875 
L 19.625 16.40625 
Q 19.625 6 28.609375 6 
Q 30.515625 6 33.25 6.640625 
z
" id="LucidaSansUnicode-116"/>
      <path d="M 9.625 0 
L 9.625 77.09375 
L 19.234375 77.09375 
L 19.234375 43.0625 
Q 26.859375 54.203125 37.890625 54.203125 
Q 44.828125 54.203125 48.90625 49.828125 
Q 52.984375 45.453125 52.984375 38.09375 
L 52.984375 0 
L 43.359375 0 
L 43.359375 34.96875 
Q 43.359375 40.875 41.625 43.390625 
Q 39.890625 45.90625 35.890625 45.90625 
Q 27.046875 45.90625 19.234375 34.328125 
L 19.234375 0 
z
" id="LucidaSansUnicode-104"/>
      <path id="LucidaSansUnicode-32"/>
      <path d="M 36.96875 6.734375 
Q 28.328125 -1.21875 20.3125 -1.21875 
Q 13.71875 -1.21875 9.375 2.90625 
Q 5.03125 7.03125 5.03125 13.328125 
Q 5.03125 22.015625 12.328125 26.671875 
Q 19.625 31.34375 33.296875 31.34375 
L 35.546875 31.34375 
L 35.546875 37.75 
Q 35.546875 46.96875 25.921875 46.96875 
Q 18.453125 46.96875 9.625 42.28125 
L 9.625 50.25 
Q 19.34375 54.203125 27.9375 54.203125 
Q 36.765625 54.203125 40.96875 50.171875 
Q 45.171875 46.140625 45.171875 37.75 
L 45.171875 13.71875 
Q 45.171875 5.46875 50.25 5.46875 
Q 50.875 5.46875 52.09375 5.671875 
L 52.78125 0.34375 
Q 49.515625 -1.21875 45.5625 -1.21875 
Q 38.8125 -1.21875 36.96875 6.734375 
z
M 35.546875 11.96875 
L 35.546875 25.6875 
L 32.46875 25.78125 
Q 24.46875 25.78125 19.5625 22.796875 
Q 14.65625 19.828125 14.65625 14.890625 
Q 14.65625 11.421875 17.09375 9.03125 
Q 19.53125 6.640625 23.046875 6.640625 
Q 29.046875 6.640625 35.546875 11.96875 
z
" id="LucidaSansUnicode-97"/>
      <path d="M 48.484375 1.703125 
Q 38.8125 -1.21875 31.9375 -1.21875 
Q 20.171875 -1.21875 12.796875 6.5625 
Q 5.421875 14.359375 5.421875 26.765625 
Q 5.421875 38.8125 11.9375 46.53125 
Q 18.453125 54.25 28.609375 54.25 
Q 38.234375 54.25 43.484375 47.390625 
Q 48.734375 40.53125 48.734375 27.9375 
L 48.6875 25 
L 15.234375 25 
Q 17.328125 6.109375 33.734375 6.109375 
Q 39.75 6.109375 48.484375 9.328125 
z
M 15.671875 32.234375 
L 39.0625 32.234375 
Q 39.0625 47.015625 28.03125 47.015625 
Q 16.9375 47.015625 15.671875 32.234375 
z
" id="LucidaSansUnicode-101"/>
      <path d="M 9.625 -14.453125 
L 9.625 77.09375 
L 28.90625 77.09375 
L 28.90625 69.875 
L 18.0625 69.875 
L 18.0625 -7.234375 
L 28.90625 -7.234375 
L 28.90625 -14.453125 
z
" id="LucidaSansUnicode-91"/>
      <path d="M 62.09375 22 
L 6.40625 22 
L 6.40625 28.59375 
L 62.09375 28.59375 
z
" id="STIXGeneral-Regular-8722"/>
      <path d="M 30.203125 0 
L 22.296875 0 
L 22.296875 57 
Q 20.09375 56 15.75 53.75 
Q 11.40625 51.5 10.796875 51.203125 
L 10.796875 58.5 
L 28.796875 67.703125 
L 30.203125 67.203125 
z
" id="STIXGeneral-Regular-120803"/>
      <path d="M 22.90625 77.09375 
L 22.90625 -14.453125 
L 3.609375 -14.453125 
L 3.609375 -7.234375 
L 14.453125 -7.234375 
L 14.453125 69.875 
L 3.609375 69.875 
L 3.609375 77.09375 
z
" id="LucidaSansUnicode-93"/>
     </defs>
     <g style="fill:#262626;" transform="translate(142.1 277.5375)scale(0.1 -0.1)">
      <use transform="translate(0 0.370312)" xlink:href="#LucidaSansUnicode-103"/>
      <use transform="translate(62.353516 0.370312)" xlink:href="#LucidaSansUnicode-114"/>
      <use transform="translate(103.271484 0.370312)" xlink:href="#LucidaSansUnicode-111"/>
      <use transform="translate(164.697266 0.370312)" xlink:href="#LucidaSansUnicode-119"/>
      <use transform="translate(241.748047 0.370312)" xlink:href="#LucidaSansUnicode-116"/>
      <use transform="translate(279.150391 0.370312)" xlink:href="#LucidaSansUnicode-104"/>
      <use transform="translate(341.210938 0.370312)" xlink:href="#LucidaSansUnicode-32"/>
      <use transform="translate(372.851562 0.370312)" xlink:href="#LucidaSansUnicode-114"/>
      <use transform="translate(413.769531 0.370312)" xlink:href="#LucidaSansUnicode-97"/>
      <use transform="translate(468.994141 0.370312)" xlink:href="#LucidaSansUnicode-116"/>
      <use transform="translate(506.396484 0.370312)" xlink:href="#LucidaSansUnicode-101"/>
      <use transform="translate(562.109375 0.370312)" xlink:href="#LucidaSansUnicode-32"/>
      <use transform="translate(593.75 0.370312)" xlink:href="#LucidaSansUnicode-91"/>
      <use transform="translate(626.269531 0.370312)" xlink:href="#LucidaSansUnicode-104"/>
      <use transform="translate(688.330078 0.370312)" xlink:href="#LucidaSansUnicode-114"/>
      <use transform="translate(730.040742 36.607813)scale(0.7)" xlink:href="#STIXGeneral-Regular-8722"/>
      <use transform="translate(777.990732 36.607813)scale(0.7)" xlink:href="#STIXGeneral-Regular-120803"/>
      <use transform="translate(815.255565 0.370312)" xlink:href="#LucidaSansUnicode-93"/>
     </g>
    </g>
   </g>
   <g id="matplotlib.axis_2">
    <g id="ytick_1">
     <g id="text_11">
      <!-- $\mathdefault{10^{4}}$ -->
      <defs>
       <path d="M 37.640625 0 
L 37.640625 20.453125 
L 5.125 20.453125 
L 5.125 27.734375 
L 37.640625 72.265625 
L 46.6875 72.265625 
L 46.6875 28.328125 
L 56.34375 28.328125 
L 56.34375 20.453125 
L 46.6875 20.453125 
L 46.6875 0 
z
M 14.546875 28.328125 
L 38.28125 28.328125 
L 38.28125 60.453125 
z
" id="LucidaSansUnicode-52"/>
      </defs>
      <g transform="translate(24 226.157592)scale(0.1 -0.1)">
       <use transform="translate(0 0.292188)" xlink:href="#LucidaSansUnicode-49"/>
       <use transform="translate(63.232422 0.292188)" xlink:href="#LucidaSansUnicode-48"/>
       <use transform="translate(127.392891 37.414063)scale(0.7)" xlink:href="#LucidaSansUnicode-52"/>
      </g>
     </g>
    </g>
    <g id="ytick_2">
     <g id="text_12">
      <!-- $\mathdefault{10^{5}}$ -->
      <g transform="translate(24 127.505975)scale(0.1 -0.1)">
       <use transform="translate(0 0.292188)" xlink:href="#LucidaSansUnicode-49"/>
       <use transform="translate(63.232422 0.292188)" xlink:href="#LucidaSansUnicode-48"/>
       <use transform="translate(127.392891 37.414063)scale(0.7)" xlink:href="#LucidaSansUnicode-53"/>
      </g>
     </g>
    </g>
    <g id="ytick_3"/>
    <g id="ytick_4"/>
    <g id="ytick_5"/>
    <g id="ytick_6"/>
    <g id="ytick_7"/>
    <g id="ytick_8"/>
    <g id="ytick_9"/>
    <g id="ytick_10"/>
    <g id="ytick_11"/>
    <g id="ytick_12"/>
    <g id="ytick_13"/>
    <g id="ytick_14"/>
    <g id="ytick_15"/>
    <g id="ytick_16"/>
    <g id="ytick_17"/>
    <g id="ytick_18"/>
    <g id="ytick_19"/>
    <g id="ytick_20"/>
    <g id="ytick_21"/>
    <g id="ytick_22"/>
    <g id="text_13">
     <!-- number of ribosomal units -->
     <defs>
      <path d="M 9.625 0 
L 9.625 53.03125 
L 19.234375 53.03125 
L 19.234375 43.0625 
Q 26.859375 54.203125 37.890625 54.203125 
Q 44.828125 54.203125 48.90625 49.828125 
Q 52.984375 45.453125 52.984375 38.09375 
L 52.984375 0 
L 43.359375 0 
L 43.359375 34.96875 
Q 43.359375 40.875 41.625 43.390625 
Q 39.890625 45.90625 35.890625 45.90625 
Q 27.046875 45.90625 19.234375 34.328125 
L 19.234375 0 
z
" id="LucidaSansUnicode-110"/>
      <path d="M 42.78125 0 
L 42.78125 9.96875 
Q 35.109375 -1.21875 24.171875 -1.21875 
Q 17.234375 -1.21875 13.125 3.140625 
Q 9.03125 7.515625 9.03125 14.9375 
L 9.03125 53.03125 
L 18.65625 53.03125 
L 18.65625 18.0625 
Q 18.65625 12.109375 20.390625 9.59375 
Q 22.125 7.078125 26.171875 7.078125 
Q 34.96875 7.078125 42.78125 18.65625 
L 42.78125 53.03125 
L 52.390625 53.03125 
L 52.390625 0 
z
" id="LucidaSansUnicode-117"/>
      <path d="M 9.625 0 
L 9.625 53.03125 
L 19.234375 53.03125 
L 19.234375 43.0625 
Q 26.265625 54.203125 37.3125 54.203125 
Q 47.953125 54.203125 51.8125 43.0625 
Q 58.640625 54.25 69.578125 54.25 
Q 76.5625 54.25 80.4375 50.125 
Q 84.328125 46 84.328125 38.578125 
L 84.328125 0 
L 74.65625 0 
L 74.65625 37.0625 
Q 74.65625 46.140625 67.484375 46.140625 
Q 60.015625 46.140625 51.8125 35.546875 
L 51.8125 0 
L 42.140625 0 
L 42.140625 37.0625 
Q 42.140625 46.1875 34.8125 46.1875 
Q 27.546875 46.1875 19.234375 35.546875 
L 19.234375 0 
z
" id="LucidaSansUnicode-109"/>
      <path d="M 9.625 -0.59375 
L 9.625 77.09375 
L 19.234375 77.09375 
L 19.234375 43.0625 
Q 25.140625 54.203125 36.96875 54.203125 
Q 46.53125 54.203125 52.015625 47.21875 
Q 57.515625 40.234375 57.515625 28.125 
Q 57.515625 14.9375 51.28125 6.859375 
Q 45.0625 -1.21875 34.90625 -1.21875 
Q 25.484375 -1.21875 19.234375 6 
L 18.0625 -0.59375 
z
M 19.234375 12.640625 
Q 26.65625 6 33.40625 6 
Q 40.046875 6 43.65625 11.546875 
Q 47.265625 17.09375 47.265625 27.15625 
Q 47.265625 45.796875 34.96875 45.796875 
Q 26.90625 45.796875 19.234375 37.0625 
z
" id="LucidaSansUnicode-98"/>
      <path d="M 11.421875 0 
L 11.421875 45.796875 
L 3.90625 45.796875 
L 3.90625 53.03125 
L 11.421875 53.03125 
L 11.421875 59.375 
Q 11.421875 78.328125 28.71875 78.328125 
Q 33.546875 78.328125 39.703125 76.703125 
L 39.703125 69.09375 
Q 33.203125 71.09375 29.296875 71.09375 
Q 24.5625 71.09375 22.828125 68.8125 
Q 21.09375 66.546875 21.09375 60.40625 
L 21.09375 53.03125 
L 34.328125 53.03125 
L 34.328125 45.796875 
L 21.09375 45.796875 
L 21.09375 0 
z
" id="LucidaSansUnicode-102"/>
      <path d="M 9.625 0 
L 9.625 53.03125 
L 19.234375 53.03125 
L 19.234375 0 
z
M 9.625 62.640625 
L 9.625 72.265625 
L 19.234375 72.265625 
L 19.234375 62.640625 
z
" id="LucidaSansUnicode-105"/>
      <path d="M 7.671875 1.859375 
L 7.671875 10.6875 
Q 17.09375 6 24.078125 6 
Q 28.21875 6 30.953125 8.25 
Q 33.6875 10.5 33.6875 13.875 
Q 33.6875 18.796875 26.03125 22.015625 
L 20.40625 24.421875 
Q 7.953125 29.59375 7.953125 39.3125 
Q 7.953125 46.234375 12.859375 50.21875 
Q 17.78125 54.203125 26.3125 54.203125 
Q 30.765625 54.203125 37.3125 52.984375 
L 39.3125 52.59375 
L 39.3125 44.578125 
Q 31.25 46.96875 26.46875 46.96875 
Q 22.265625 46.96875 19.75 45.140625 
Q 17.234375 43.3125 17.234375 40.234375 
Q 17.234375 35.890625 24.265625 32.90625 
L 28.90625 30.953125 
Q 36.765625 27.640625 40.03125 23.953125 
Q 43.3125 20.265625 43.3125 14.75 
Q 43.3125 7.765625 37.796875 3.265625 
Q 32.28125 -1.21875 23.6875 -1.21875 
Q 17.09375 -1.21875 7.671875 1.859375 
z
" id="LucidaSansUnicode-115"/>
      <path d="M 9.625 0 
L 9.625 77.09375 
L 19.234375 77.09375 
L 19.234375 0 
z
" id="LucidaSansUnicode-108"/>
     </defs>
     <g style="fill:#262626;" transform="translate(18.071875 208.063594)rotate(-90)scale(0.1 -0.1)">
      <use xlink:href="#LucidaSansUnicode-110"/>
      <use x="62.060547" xlink:href="#LucidaSansUnicode-117"/>
      <use x="124.121094" xlink:href="#LucidaSansUnicode-109"/>
      <use x="217.480469" xlink:href="#LucidaSansUnicode-98"/>
      <use x="280.419922" xlink:href="#LucidaSansUnicode-101"/>
      <use x="336.132812" xlink:href="#LucidaSansUnicode-114"/>
      <use x="377.050781" xlink:href="#LucidaSansUnicode-32"/>
      <use x="408.691406" xlink:href="#LucidaSansUnicode-111"/>
      <use x="470.117188" xlink:href="#LucidaSansUnicode-102"/>
      <use x="506.884766" xlink:href="#LucidaSansUnicode-32"/>
      <use x="538.525391" xlink:href="#LucidaSansUnicode-114"/>
      <use x="579.443359" xlink:href="#LucidaSansUnicode-105"/>
      <use x="608.349609" xlink:href="#LucidaSansUnicode-98"/>
      <use x="671.289062" xlink:href="#LucidaSansUnicode-111"/>
      <use x="732.714844" xlink:href="#LucidaSansUnicode-115"/>
      <use x="783.691406" xlink:href="#LucidaSansUnicode-111"/>
      <use x="845.117188" xlink:href="#LucidaSansUnicode-109"/>
      <use x="938.476562" xlink:href="#LucidaSansUnicode-97"/>
      <use x="993.701172" xlink:href="#LucidaSansUnicode-108"/>
      <use x="1022.607422" xlink:href="#LucidaSansUnicode-32"/>
      <use x="1054.248047" xlink:href="#LucidaSansUnicode-117"/>
      <use x="1116.308594" xlink:href="#LucidaSansUnicode-110"/>
      <use x="1178.369141" xlink:href="#LucidaSansUnicode-105"/>
      <use x="1207.275391" xlink:href="#LucidaSansUnicode-116"/>
      <use x="1244.677734" xlink:href="#LucidaSansUnicode-115"/>
     </g>
    </g>
   </g>
   <g id="line2d_1">
    <path clip-path="url(#p7136103c78)" d="M 57.681818 0.816084 
L 58.96281 30.010823 
L 60.243802 46.880153 
L 61.524793 58.703205 
L 62.805785 67.761178 
L 64.086777 75.070179 
L 65.367769 81.172231 
L 66.64876 86.390874 
L 67.929752 90.934796 
L 69.210744 94.94649 
L 70.491736 98.527589 
L 73.053719 104.680116 
L 75.615702 109.806394 
L 78.177686 114.164151 
L 80.739669 117.924773 
L 83.301653 121.20802 
L 85.863636 124.100888 
L 88.42562 126.668564 
L 90.987603 128.961158 
L 93.549587 131.018022 
L 96.11157 132.870624 
L 99.954545 135.321183 
L 103.797521 137.436877 
L 107.640496 139.26998 
L 111.483471 140.861405 
L 115.326446 142.243779 
L 120.450413 143.806742 
L 125.57438 145.094622 
L 130.698347 146.146773 
L 135.822314 146.994661 
L 142.227273 147.805771 
L 148.632231 148.377609 
L 155.03719 148.742332 
L 162.72314 148.942988 
L 170.409091 148.919167 
L 179.376033 148.646456 
L 188.342975 148.145344 
L 198.590909 147.331262 
L 208.838843 146.294053 
L 220.367769 144.896449 
L 233.177686 143.095743 
L 245.987603 141.069471 
L 260.078512 138.615105 
L 275.450413 135.704116 
L 292.103306 132.312742 
L 310.03719 128.421542 
L 311.318182 128.135023 
L 311.318182 128.135023 
" style="fill:none;stroke:#738fc1;stroke-linecap:round;"/>
   </g>
   <g id="line2d_2">
    <path clip-path="url(#p7136103c78)" d="M 57.681818 1.31844 
L 58.96281 31.015536 
L 60.243802 48.387224 
L 61.524793 60.712632 
L 62.805785 70.272961 
L 64.086777 78.084319 
L 65.367769 84.688728 
L 66.64876 90.409728 
L 67.929752 95.456007 
L 69.210744 99.970057 
L 71.772727 107.781415 
L 74.334711 114.385824 
L 76.896694 120.106824 
L 79.458678 125.153103 
L 82.020661 129.667153 
L 84.582645 133.750608 
L 87.144628 137.478511 
L 89.706612 140.907849 
L 93.549587 145.586367 
L 97.392562 149.803919 
L 101.235537 153.643249 
L 105.078512 157.166646 
L 108.921488 160.422175 
L 114.045455 164.410528 
L 119.169421 168.059016 
L 124.293388 171.421043 
L 129.417355 174.538334 
L 135.822314 178.140779 
L 142.227273 181.463672 
L 148.632231 184.547294 
L 156.318182 187.976632 
L 164.004132 191.151703 
L 171.690083 194.107624 
L 180.657025 197.316684 
L 189.623967 200.302041 
L 199.871901 203.477112 
L 210.119835 206.433032 
L 221.64876 209.531528 
L 234.458678 212.730315 
L 247.268595 215.706779 
L 261.359504 218.75844 
L 276.731405 221.856936 
L 293.384298 224.978597 
L 311.318182 228.104013 
L 311.318182 228.104013 
" style="fill:none;stroke:#738fc1;stroke-dasharray:3.7,1.6;stroke-dashoffset:0;"/>
   </g>
   <g id="line2d_3">
    <defs>
     <path d="M 0 2 
C 0.530406 2 1.03916 1.789267 1.414214 1.414214 
C 1.789267 1.03916 2 0.530406 2 0 
C 2 -0.530406 1.789267 -1.03916 1.414214 -1.414214 
C 1.03916 -1.789267 0.530406 -2 0 -2 
C -0.530406 -2 -1.03916 -1.789267 -1.414214 -1.414214 
C -1.789267 -1.03916 -2 -0.530406 -2 0 
C -2 0.530406 -1.789267 1.03916 -1.414214 1.414214 
C -1.03916 1.789267 -0.530406 2 0 2 
z
" id="m6d6d347b54" style="stroke:#000000;stroke-width:0.5;"/>
    </defs>
    <g clip-path="url(#p7136103c78)">
     <use style="fill:#ab85ac;stroke:#000000;stroke-width:0.5;" x="302.952333" xlink:href="#m6d6d347b54" y="106.225659"/>
     <use style="fill:#ab85ac;stroke:#000000;stroke-width:0.5;" x="256.433181" xlink:href="#m6d6d347b54" y="133.106971"/>
     <use style="fill:#ab85ac;stroke:#000000;stroke-width:0.5;" x="150.554599" xlink:href="#m6d6d347b54" y="182.270812"/>
    </g>
   </g>
   <g id="line2d_4">
    <defs>
     <path d="M 0 2 
C 0.530406 2 1.03916 1.789267 1.414214 1.414214 
C 1.789267 1.03916 2 0.530406 2 0 
C 2 -0.530406 1.789267 -1.03916 1.414214 -1.414214 
C 1.03916 -1.789267 0.530406 -2 0 -2 
C -0.530406 -2 -1.03916 -1.789267 -1.414214 -1.414214 
C -1.789267 -1.03916 -2 -0.530406 -2 0 
C -2 0.530406 -1.789267 1.03916 -1.414214 1.414214 
C -1.03916 1.789267 -0.530406 2 0 2 
z
" id="m65f8c0558b" style="stroke:#000000;stroke-width:0.5;"/>
    </defs>
    <g clip-path="url(#p7136103c78)">
     <use style="fill:#7aa974;stroke:#000000;stroke-width:0.5;" x="83.167149" xlink:href="#m65f8c0558b" y="222.425547"/>
     <use style="fill:#7aa974;stroke:#000000;stroke-width:0.5;" x="84.441736" xlink:href="#m65f8c0558b" y="221.486569"/>
     <use style="fill:#7aa974;stroke:#000000;stroke-width:0.5;" x="89.540083" xlink:href="#m65f8c0558b" y="215.849411"/>
     <use style="fill:#7aa974;stroke:#000000;stroke-width:0.5;" x="95.913017" xlink:href="#m65f8c0558b" y="210.386526"/>
     <use style="fill:#7aa974;stroke:#000000;stroke-width:0.5;" x="102.28595" xlink:href="#m65f8c0558b" y="201.493991"/>
     <use style="fill:#7aa974;stroke:#000000;stroke-width:0.5;" x="108.658884" xlink:href="#m65f8c0558b" y="195.489544"/>
     <use style="fill:#7aa974;stroke:#000000;stroke-width:0.5;" x="115.031818" xlink:href="#m65f8c0558b" y="190.011057"/>
     <use style="fill:#7aa974;stroke:#000000;stroke-width:0.5;" x="121.404752" xlink:href="#m65f8c0558b" y="184.702363"/>
     <use style="fill:#7aa974;stroke:#000000;stroke-width:0.5;" x="88.265496" xlink:href="#m65f8c0558b" y="216.856431"/>
     <use style="fill:#7aa974;stroke:#000000;stroke-width:0.5;" x="101.011364" xlink:href="#m65f8c0558b" y="205.199551"/>
     <use style="fill:#7aa974;stroke:#000000;stroke-width:0.5;" x="109.933471" xlink:href="#m65f8c0558b" y="199.153675"/>
     <use style="fill:#7aa974;stroke:#000000;stroke-width:0.5;" x="113.757231" xlink:href="#m65f8c0558b" y="194.952096"/>
     <use style="fill:#7aa974;stroke:#000000;stroke-width:0.5;" x="123.953926" xlink:href="#m65f8c0558b" y="187.703824"/>
     <use style="fill:#7aa974;stroke:#000000;stroke-width:0.5;" x="126.503099" xlink:href="#m65f8c0558b" y="184.213051"/>
     <use style="fill:#7aa974;stroke:#000000;stroke-width:0.5;" x="136.699793" xlink:href="#m65f8c0558b" y="177.408025"/>
     <use style="fill:#7aa974;stroke:#000000;stroke-width:0.5;" x="139.248967" xlink:href="#m65f8c0558b" y="174.539819"/>
     <use style="fill:#7aa974;stroke:#000000;stroke-width:0.5;" x="149.445661" xlink:href="#m65f8c0558b" y="170.859506"/>
     <use style="fill:#7aa974;stroke:#000000;stroke-width:0.5;" x="150.720248" xlink:href="#m65f8c0558b" y="166.757947"/>
     <use style="fill:#7aa974;stroke:#000000;stroke-width:0.5;" x="155.818595" xlink:href="#m65f8c0558b" y="164.291384"/>
     <use style="fill:#7aa974;stroke:#000000;stroke-width:0.5;" x="160.916942" xlink:href="#m65f8c0558b" y="158.455247"/>
    </g>
   </g>
   <g id="line2d_5">
    <defs>
     <path d="M 0 2 
C 0.530406 2 1.03916 1.789267 1.414214 1.414214 
C 1.789267 1.03916 2 0.530406 2 0 
C 2 -0.530406 1.789267 -1.03916 1.414214 -1.414214 
C 1.03916 -1.789267 0.530406 -2 0 -2 
C -0.530406 -2 -1.03916 -1.789267 -1.414214 -1.414214 
C -1.789267 -1.03916 -2 -0.530406 -2 0 
C -2 0.530406 -1.789267 1.03916 -1.414214 1.414214 
C -1.03916 1.789267 -0.530406 2 0 2 
z
" id="m32e0eeca04" style="stroke:#000000;stroke-width:0.5;"/>
    </defs>
    <g clip-path="url(#p7136103c78)">
     <use style="fill:#a9bfe3;stroke:#000000;stroke-width:0.5;" x="140.523554" xlink:href="#m32e0eeca04" y="190.36603"/>
     <use style="fill:#a9bfe3;stroke:#000000;stroke-width:0.5;" x="94.63843" xlink:href="#m32e0eeca04" y="229.774074"/>
     <use style="fill:#a9bfe3;stroke:#000000;stroke-width:0.5;" x="71.695868" xlink:href="#m32e0eeca04" y="242.101881"/>
     <use style="fill:#a9bfe3;stroke:#000000;stroke-width:0.5;" x="81.892562" xlink:href="#m32e0eeca04" y="235.322838"/>
     <use style="fill:#a9bfe3;stroke:#000000;stroke-width:0.5;" x="101.011364" xlink:href="#m32e0eeca04" y="224.985004"/>
     <use style="fill:#a9bfe3;stroke:#000000;stroke-width:0.5;" x="120.130165" xlink:href="#m32e0eeca04" y="206.832536"/>
     <use style="fill:#a9bfe3;stroke:#000000;stroke-width:0.5;" x="139.248967" xlink:href="#m32e0eeca04" y="189.57967"/>
     <use style="fill:#a9bfe3;stroke:#000000;stroke-width:0.5;" x="109.933471" xlink:href="#m32e0eeca04" y="212.443219"/>
     <use style="fill:#a9bfe3;stroke:#000000;stroke-width:0.5;" x="89.540083" xlink:href="#m32e0eeca04" y="225.926086"/>
     <use style="fill:#a9bfe3;stroke:#000000;stroke-width:0.5;" x="115.031818" xlink:href="#m32e0eeca04" y="205.558126"/>
     <use style="fill:#a9bfe3;stroke:#000000;stroke-width:0.5;" x="130.32686" xlink:href="#m32e0eeca04" y="192.848556"/>
     <use style="fill:#a9bfe3;stroke:#000000;stroke-width:0.5;" x="116.306405" xlink:href="#m32e0eeca04" y="203.620645"/>
     <use style="fill:#a9bfe3;stroke:#000000;stroke-width:0.5;" x="218.273347" xlink:href="#m32e0eeca04" y="157.483697"/>
     <use style="fill:#a9bfe3;stroke:#000000;stroke-width:0.5;" x="298.572314" xlink:href="#m32e0eeca04" y="121.557029"/>
     <use style="fill:#a9bfe3;stroke:#000000;stroke-width:0.5;" x="116.306405" xlink:href="#m32e0eeca04" y="209.913551"/>
     <use style="fill:#a9bfe3;stroke:#000000;stroke-width:0.5;" x="126.503099" xlink:href="#m32e0eeca04" y="197.769942"/>
     <use style="fill:#a9bfe3;stroke:#000000;stroke-width:0.5;" x="136.699793" xlink:href="#m32e0eeca04" y="194.512437"/>
     <use style="fill:#a9bfe3;stroke:#000000;stroke-width:0.5;" x="107.384298" xlink:href="#m32e0eeca04" y="216.898411"/>
     <use style="fill:#a9bfe3;stroke:#000000;stroke-width:0.5;" x="112.482645" xlink:href="#m32e0eeca04" y="208.140557"/>
     <use style="fill:#a9bfe3;stroke:#000000;stroke-width:0.5;" x="126.503099" xlink:href="#m32e0eeca04" y="195.734546"/>
    </g>
   </g>
   <g id="line2d_6">
    <defs>
     <path d="M 0 2 
C 0.530406 2 1.03916 1.789267 1.414214 1.414214 
C 1.789267 1.03916 2 0.530406 2 0 
C 2 -0.530406 1.789267 -1.03916 1.414214 -1.414214 
C 1.03916 -1.789267 0.530406 -2 0 -2 
C -0.530406 -2 -1.03916 -1.789267 -1.414214 -1.414214 
C -1.789267 -1.03916 -2 -0.530406 -2 0 
C -2 0.530406 -1.789267 1.03916 -1.414214 1.414214 
C -1.03916 1.789267 -0.530406 2 0 2 
z
" id="m0de05f3e63" style="stroke:#000000;stroke-width:0.5;"/>
    </defs>
    <g clip-path="url(#p7136103c78)">
     <use style="fill:#d56c55;stroke:#000000;stroke-width:0.5;" x="70.421281" xlink:href="#m0de05f3e63" y="220.927984"/>
     <use style="fill:#d56c55;stroke:#000000;stroke-width:0.5;" x="83.167149" xlink:href="#m0de05f3e63" y="210.223219"/>
     <use style="fill:#d56c55;stroke:#000000;stroke-width:0.5;" x="95.913017" xlink:href="#m0de05f3e63" y="199.063417"/>
     <use style="fill:#d56c55;stroke:#000000;stroke-width:0.5;" x="107.384298" xlink:href="#m0de05f3e63" y="189.782898"/>
     <use style="fill:#d56c55;stroke:#000000;stroke-width:0.5;" x="118.855579" xlink:href="#m0de05f3e63" y="180.15147"/>
    </g>
   </g>
   <g id="patch_3">
    <path d="M 45 252 
L 45 34.56 
" style="fill:none;stroke:#ffffff;stroke-linecap:square;stroke-linejoin:miter;stroke-width:0.8;"/>
   </g>
   <g id="patch_4">
    <path d="M 324 252 
L 324 34.56 
" style="fill:none;stroke:#ffffff;stroke-linecap:square;stroke-linejoin:miter;stroke-width:0.8;"/>
   </g>
   <g id="patch_5">
    <path d="M 45 252 
L 324 252 
" style="fill:none;stroke:#ffffff;stroke-linecap:square;stroke-linejoin:miter;stroke-width:0.8;"/>
   </g>
   <g id="patch_6">
    <path d="M 45 34.56 
L 324 34.56 
" style="fill:none;stroke:#ffffff;stroke-linecap:square;stroke-linejoin:miter;stroke-width:0.8;"/>
   </g>
   <g id="legend_1">
    <g id="patch_7">
     <path d="M 156.58375 82.267 
L 318.4 82.267 
Q 320 82.267 320 80.667 
L 320 40.16 
Q 320 38.56 318.4 38.56 
L 156.58375 38.56 
Q 154.98375 38.56 154.98375 40.16 
L 154.98375 80.667 
Q 154.98375 82.267 156.58375 82.267 
z
" style="fill:#e3dcd0;opacity:0.8;stroke:#cccccc;stroke-linejoin:miter;"/>
    </g>
    <g id="line2d_7">
     <path d="M 158.18375 50.3705 
L 174.18375 50.3705 
" style="fill:none;stroke:#738fc1;stroke-linecap:round;"/>
    </g>
    <g id="line2d_8"/>
    <g id="text_14">
     <!-- maximum number of ribosomes -->
     <defs>
      <path d="M 4.296875 0 
L 24.46875 27.390625 
L 4.890625 53.03125 
L 16.3125 53.03125 
L 31.78125 32.625 
L 45.796875 53.03125 
L 55.171875 53.03125 
L 36.8125 26.125 
L 56.78125 0 
L 45.359375 0 
L 29.390625 21 
L 13.96875 0 
z
" id="LucidaSansUnicode-120"/>
     </defs>
     <g style="fill:#262626;" transform="translate(180.58375 47.9275)scale(0.08 -0.08)">
      <use xlink:href="#LucidaSansUnicode-109"/>
      <use x="93.359375" xlink:href="#LucidaSansUnicode-97"/>
      <use x="148.583984" xlink:href="#LucidaSansUnicode-120"/>
      <use x="209.912109" xlink:href="#LucidaSansUnicode-105"/>
      <use x="238.818359" xlink:href="#LucidaSansUnicode-109"/>
      <use x="332.177734" xlink:href="#LucidaSansUnicode-117"/>
      <use x="394.238281" xlink:href="#LucidaSansUnicode-109"/>
      <use x="487.597656" xlink:href="#LucidaSansUnicode-32"/>
      <use x="519.238281" xlink:href="#LucidaSansUnicode-110"/>
      <use x="581.298828" xlink:href="#LucidaSansUnicode-117"/>
      <use x="643.359375" xlink:href="#LucidaSansUnicode-109"/>
      <use x="736.71875" xlink:href="#LucidaSansUnicode-98"/>
      <use x="799.658203" xlink:href="#LucidaSansUnicode-101"/>
      <use x="855.371094" xlink:href="#LucidaSansUnicode-114"/>
      <use x="896.289062" xlink:href="#LucidaSansUnicode-32"/>
      <use x="927.929688" xlink:href="#LucidaSansUnicode-111"/>
      <use x="989.355469" xlink:href="#LucidaSansUnicode-102"/>
      <use x="1026.123047" xlink:href="#LucidaSansUnicode-32"/>
      <use x="1057.763672" xlink:href="#LucidaSansUnicode-114"/>
      <use x="1098.681641" xlink:href="#LucidaSansUnicode-105"/>
      <use x="1127.587891" xlink:href="#LucidaSansUnicode-98"/>
      <use x="1190.527344" xlink:href="#LucidaSansUnicode-111"/>
      <use x="1251.953125" xlink:href="#LucidaSansUnicode-115"/>
      <use x="1302.929688" xlink:href="#LucidaSansUnicode-111"/>
      <use x="1364.355469" xlink:href="#LucidaSansUnicode-109"/>
      <use x="1457.714844" xlink:href="#LucidaSansUnicode-101"/>
      <use x="1513.427734" xlink:href="#LucidaSansUnicode-115"/>
     </g>
     <!-- with parallelization (rRNA units) -->
     <defs>
      <path d="M 9.625 -19.28125 
L 9.625 53.03125 
L 19.234375 53.03125 
L 19.234375 43.0625 
Q 25.140625 54.203125 36.96875 54.203125 
Q 46.53125 54.203125 52.015625 47.21875 
Q 57.515625 40.234375 57.515625 28.125 
Q 57.515625 14.9375 51.28125 6.859375 
Q 45.0625 -1.21875 34.90625 -1.21875 
Q 25.484375 -1.21875 19.234375 6 
L 19.234375 -19.28125 
z
M 19.234375 12.640625 
Q 26.65625 6 33.40625 6 
Q 40.046875 6 43.65625 11.546875 
Q 47.265625 17.09375 47.265625 27.15625 
Q 47.265625 45.796875 34.96875 45.796875 
Q 26.90625 45.796875 19.234375 37.0625 
z
" id="LucidaSansUnicode-112"/>
      <path d="M 6 0 
L 6 7.234375 
L 38.8125 45.796875 
L 7.515625 45.796875 
L 7.515625 53.03125 
L 50.6875 53.03125 
L 50.6875 45.796875 
L 17.875 7.234375 
L 51.3125 7.234375 
L 51.3125 0 
z
" id="LucidaSansUnicode-122"/>
      <path d="M 28.90625 -7.8125 
L 28.90625 -14.453125 
Q 18.359375 -7.28125 12.171875 5.046875 
Q 6 17.390625 6 31.34375 
Q 6 45.265625 12.171875 57.59375 
Q 18.359375 69.921875 28.90625 77.09375 
L 28.90625 70.453125 
Q 21.734375 62.640625 18.671875 53.65625 
Q 15.625 44.671875 15.625 31.34375 
Q 15.625 17.96875 18.671875 8.984375 
Q 21.734375 0 28.90625 -7.8125 
z
" id="LucidaSansUnicode-40"/>
      <path d="M 9.328125 0 
L 9.328125 72.265625 
L 31.203125 72.265625 
Q 41.609375 72.265625 47.140625 67.671875 
Q 52.6875 63.09375 52.6875 54.34375 
Q 52.6875 47.46875 48.84375 42.09375 
Q 45.015625 36.71875 38.09375 33.84375 
L 62.203125 0 
L 49.609375 0 
L 29.046875 30.5625 
L 19.484375 30.5625 
L 19.484375 0 
z
M 19.484375 38.234375 
L 22.796875 38.234375 
Q 32.28125 38.234375 37.203125 42.09375 
Q 42.140625 45.953125 42.140625 53.375 
Q 42.140625 64.59375 25.921875 64.59375 
L 19.484375 64.59375 
z
" id="LucidaSansUnicode-82"/>
      <path d="M 9.328125 0 
L 9.328125 72.265625 
L 19.390625 72.265625 
L 55.765625 16.453125 
L 55.765625 72.265625 
L 64.546875 72.265625 
L 64.546875 0 
L 54.546875 0 
L 18.109375 55.8125 
L 18.109375 0 
z
" id="LucidaSansUnicode-78"/>
      <path d="M 0.828125 0 
L 29.5 72.265625 
L 39.65625 72.265625 
L 67.875 0 
L 56.78125 0 
L 48.921875 20.015625 
L 18.3125 20.015625 
L 10.359375 0 
z
M 21.296875 27.640625 
L 45.953125 27.640625 
L 33.640625 58.796875 
z
" id="LucidaSansUnicode-65"/>
      <path d="M 3.609375 70.453125 
L 3.609375 77.09375 
Q 14.15625 69.921875 20.328125 57.59375 
Q 26.515625 45.265625 26.515625 31.34375 
Q 26.515625 17.390625 20.328125 5.046875 
Q 14.15625 -7.28125 3.609375 -14.453125 
L 3.609375 -7.8125 
Q 10.796875 0 13.8125 8.984375 
Q 16.84375 17.96875 16.84375 31.34375 
Q 16.84375 44.671875 13.8125 53.6875 
Q 10.796875 62.703125 3.609375 70.453125 
z
" id="LucidaSansUnicode-41"/>
     </defs>
     <g style="fill:#262626;" transform="translate(180.58375 56.871)scale(0.08 -0.08)">
      <use xlink:href="#LucidaSansUnicode-119"/>
      <use x="77.050781" xlink:href="#LucidaSansUnicode-105"/>
      <use x="105.957031" xlink:href="#LucidaSansUnicode-116"/>
      <use x="143.359375" xlink:href="#LucidaSansUnicode-104"/>
      <use x="205.419922" xlink:href="#LucidaSansUnicode-32"/>
      <use x="237.060547" xlink:href="#LucidaSansUnicode-112"/>
      <use x="300" xlink:href="#LucidaSansUnicode-97"/>
      <use x="355.224609" xlink:href="#LucidaSansUnicode-114"/>
      <use x="396.142578" xlink:href="#LucidaSansUnicode-97"/>
      <use x="451.367188" xlink:href="#LucidaSansUnicode-108"/>
      <use x="480.273438" xlink:href="#LucidaSansUnicode-108"/>
      <use x="509.179688" xlink:href="#LucidaSansUnicode-101"/>
      <use x="564.892578" xlink:href="#LucidaSansUnicode-108"/>
      <use x="593.798828" xlink:href="#LucidaSansUnicode-105"/>
      <use x="622.705078" xlink:href="#LucidaSansUnicode-122"/>
      <use x="680.029297" xlink:href="#LucidaSansUnicode-97"/>
      <use x="735.253906" xlink:href="#LucidaSansUnicode-116"/>
      <use x="772.65625" xlink:href="#LucidaSansUnicode-105"/>
      <use x="801.5625" xlink:href="#LucidaSansUnicode-111"/>
      <use x="862.988281" xlink:href="#LucidaSansUnicode-110"/>
      <use x="925.048828" xlink:href="#LucidaSansUnicode-32"/>
      <use x="956.689453" xlink:href="#LucidaSansUnicode-40"/>
      <use x="989.208984" xlink:href="#LucidaSansUnicode-114"/>
      <use x="1030.126953" xlink:href="#LucidaSansUnicode-82"/>
      <use x="1093.359375" xlink:href="#LucidaSansUnicode-78"/>
      <use x="1167.236328" xlink:href="#LucidaSansUnicode-65"/>
      <use x="1236.230469" xlink:href="#LucidaSansUnicode-32"/>
      <use x="1267.871094" xlink:href="#LucidaSansUnicode-117"/>
      <use x="1329.931641" xlink:href="#LucidaSansUnicode-110"/>
      <use x="1391.992188" xlink:href="#LucidaSansUnicode-105"/>
      <use x="1420.898438" xlink:href="#LucidaSansUnicode-116"/>
      <use x="1458.300781" xlink:href="#LucidaSansUnicode-115"/>
      <use x="1509.277344" xlink:href="#LucidaSansUnicode-41"/>
     </g>
    </g>
    <g id="line2d_9">
     <path d="M 158.18375 71.024 
L 174.18375 71.024 
" style="fill:none;stroke:#738fc1;stroke-dasharray:3.7,1.6;stroke-dashoffset:0;"/>
    </g>
    <g id="line2d_10"/>
    <g id="text_15">
     <!-- maximum number of ribosomes -->
     <g style="fill:#262626;" transform="translate(180.58375 68.581)scale(0.08 -0.08)">
      <use xlink:href="#LucidaSansUnicode-109"/>
      <use x="93.359375" xlink:href="#LucidaSansUnicode-97"/>
      <use x="148.583984" xlink:href="#LucidaSansUnicode-120"/>
      <use x="209.912109" xlink:href="#LucidaSansUnicode-105"/>
      <use x="238.818359" xlink:href="#LucidaSansUnicode-109"/>
      <use x="332.177734" xlink:href="#LucidaSansUnicode-117"/>
      <use x="394.238281" xlink:href="#LucidaSansUnicode-109"/>
      <use x="487.597656" xlink:href="#LucidaSansUnicode-32"/>
      <use x="519.238281" xlink:href="#LucidaSansUnicode-110"/>
      <use x="581.298828" xlink:href="#LucidaSansUnicode-117"/>
      <use x="643.359375" xlink:href="#LucidaSansUnicode-109"/>
      <use x="736.71875" xlink:href="#LucidaSansUnicode-98"/>
      <use x="799.658203" xlink:href="#LucidaSansUnicode-101"/>
      <use x="855.371094" xlink:href="#LucidaSansUnicode-114"/>
      <use x="896.289062" xlink:href="#LucidaSansUnicode-32"/>
      <use x="927.929688" xlink:href="#LucidaSansUnicode-111"/>
      <use x="989.355469" xlink:href="#LucidaSansUnicode-102"/>
      <use x="1026.123047" xlink:href="#LucidaSansUnicode-32"/>
      <use x="1057.763672" xlink:href="#LucidaSansUnicode-114"/>
      <use x="1098.681641" xlink:href="#LucidaSansUnicode-105"/>
      <use x="1127.587891" xlink:href="#LucidaSansUnicode-98"/>
      <use x="1190.527344" xlink:href="#LucidaSansUnicode-111"/>
      <use x="1251.953125" xlink:href="#LucidaSansUnicode-115"/>
      <use x="1302.929688" xlink:href="#LucidaSansUnicode-111"/>
      <use x="1364.355469" xlink:href="#LucidaSansUnicode-109"/>
      <use x="1457.714844" xlink:href="#LucidaSansUnicode-101"/>
      <use x="1513.427734" xlink:href="#LucidaSansUnicode-115"/>
     </g>
     <!-- without parallelization (rRNA units) -->
     <g style="fill:#262626;" transform="translate(180.58375 77.5245)scale(0.08 -0.08)">
      <use xlink:href="#LucidaSansUnicode-119"/>
      <use x="77.050781" xlink:href="#LucidaSansUnicode-105"/>
      <use x="105.957031" xlink:href="#LucidaSansUnicode-116"/>
      <use x="143.359375" xlink:href="#LucidaSansUnicode-104"/>
      <use x="205.419922" xlink:href="#LucidaSansUnicode-111"/>
      <use x="266.845703" xlink:href="#LucidaSansUnicode-117"/>
      <use x="328.90625" xlink:href="#LucidaSansUnicode-116"/>
      <use x="366.308594" xlink:href="#LucidaSansUnicode-32"/>
      <use x="397.949219" xlink:href="#LucidaSansUnicode-112"/>
      <use x="460.888672" xlink:href="#LucidaSansUnicode-97"/>
      <use x="516.113281" xlink:href="#LucidaSansUnicode-114"/>
      <use x="557.03125" xlink:href="#LucidaSansUnicode-97"/>
      <use x="612.255859" xlink:href="#LucidaSansUnicode-108"/>
      <use x="641.162109" xlink:href="#LucidaSansUnicode-108"/>
      <use x="670.068359" xlink:href="#LucidaSansUnicode-101"/>
      <use x="725.78125" xlink:href="#LucidaSansUnicode-108"/>
      <use x="754.6875" xlink:href="#LucidaSansUnicode-105"/>
      <use x="783.59375" xlink:href="#LucidaSansUnicode-122"/>
      <use x="840.917969" xlink:href="#LucidaSansUnicode-97"/>
      <use x="896.142578" xlink:href="#LucidaSansUnicode-116"/>
      <use x="933.544922" xlink:href="#LucidaSansUnicode-105"/>
      <use x="962.451172" xlink:href="#LucidaSansUnicode-111"/>
      <use x="1023.876953" xlink:href="#LucidaSansUnicode-110"/>
      <use x="1085.9375" xlink:href="#LucidaSansUnicode-32"/>
      <use x="1117.578125" xlink:href="#LucidaSansUnicode-40"/>
      <use x="1150.097656" xlink:href="#LucidaSansUnicode-114"/>
      <use x="1191.015625" xlink:href="#LucidaSansUnicode-82"/>
      <use x="1254.248047" xlink:href="#LucidaSansUnicode-78"/>
      <use x="1328.125" xlink:href="#LucidaSansUnicode-65"/>
      <use x="1397.119141" xlink:href="#LucidaSansUnicode-32"/>
      <use x="1428.759766" xlink:href="#LucidaSansUnicode-117"/>
      <use x="1490.820312" xlink:href="#LucidaSansUnicode-110"/>
      <use x="1552.880859" xlink:href="#LucidaSansUnicode-105"/>
      <use x="1581.787109" xlink:href="#LucidaSansUnicode-116"/>
      <use x="1619.189453" xlink:href="#LucidaSansUnicode-115"/>
      <use x="1670.166016" xlink:href="#LucidaSansUnicode-41"/>
     </g>
    </g>
   </g>
  </g>
 </g>
 <defs>
  <clipPath id="p7136103c78">
   <rect height="217.44" width="279" x="45" y="34.56"/>
  </clipPath>
 </defs>
</svg>
