<?xml version="1.0" encoding="utf-8" standalone="no"?>
<!DOCTYPE svg PUBLIC "-//W3C//DTD SVG 1.1//EN"
  "http://www.w3.org/Graphics/SVG/1.1/DTD/svg11.dtd">
<!-- Created with matplotlib (https://matplotlib.org/) -->
<svg height="369.525432pt" version="1.1" viewBox="0 0 718.47693 369.525432" width="718.47693pt" xmlns="http://www.w3.org/2000/svg" xmlns:xlink="http://www.w3.org/1999/xlink">
 <defs>
  <style type="text/css">
*{stroke-linecap:butt;stroke-linejoin:round;}
  </style>
 </defs>
 <g id="figure_1">
  <g id="patch_1">
   <path d="M 0 369.525432 
L 718.47693 369.525432 
L 718.47693 0 
L 0 0 
z
" style="fill:#ffffff;"/>
  </g>
  <g id="axes_1">
   <g id="patch_2">
    <path clip-path="url(#p0d631cbec8)" d="M 33.15193 343.498339 
L 711.27693 343.498339 
L 711.27693 318.557656 
L 33.15193 318.557656 
z
" style="fill:#f5f5f5;"/>
   </g>
   <g id="patch_3">
    <path clip-path="url(#p0d631cbec8)" d="M 33.15193 281.146632 
L 711.27693 281.146632 
L 711.27693 256.205949 
L 33.15193 256.205949 
z
" style="fill:#f5f5f5;"/>
   </g>
   <g id="matplotlib.axis_1"/>
   <g id="matplotlib.axis_2">
    <g id="ytick_1"/>
    <g id="ytick_2"/>
    <g id="ytick_3"/>
    <g id="ytick_4"/>
   </g>
  </g>
  <g id="axes_2">
   <g id="matplotlib.axis_3">
    <g id="ytick_5">
     <g id="text_1">
      <!-- Li et al. 2014 -->
      <defs>
       <path d="M 9.328125 0 
L 9.328125 72.265625 
L 19.578125 72.265625 
L 19.578125 7.671875 
L 52.09375 7.671875 
L 52.09375 0 
z
" id="LucidaSansUnicode-76"/>
       <path d="M 9.625 0 
L 9.625 53.03125 
L 19.234375 53.03125 
L 19.234375 0 
z
M 9.625 62.640625 
L 9.625 72.265625 
L 19.234375 72.265625 
L 19.234375 62.640625 
z
" id="LucidaSansUnicode-105"/>
       <path id="LucidaSansUnicode-32"/>
       <path d="M 48.484375 1.703125 
Q 38.8125 -1.21875 31.9375 -1.21875 
Q 20.171875 -1.21875 12.796875 6.5625 
Q 5.421875 14.359375 5.421875 26.765625 
Q 5.421875 38.8125 11.9375 46.53125 
Q 18.453125 54.25 28.609375 54.25 
Q 38.234375 54.25 43.484375 47.390625 
Q 48.734375 40.53125 48.734375 27.9375 
L 48.6875 25 
L 15.234375 25 
Q 17.328125 6.109375 33.734375 6.109375 
Q 39.75 6.109375 48.484375 9.328125 
z
M 15.671875 32.234375 
L 39.0625 32.234375 
Q 39.0625 47.015625 28.03125 47.015625 
Q 16.9375 47.015625 15.671875 32.234375 
z
" id="LucidaSansUnicode-101"/>
       <path d="M 33.25 0 
Q 28.8125 -1.21875 25.53125 -1.21875 
Q 18.21875 -1.21875 14.109375 2.96875 
Q 10.015625 7.171875 10.015625 14.65625 
L 10.015625 45.796875 
L 3.375 45.796875 
L 3.375 53.03125 
L 10.015625 53.03125 
L 10.015625 62.640625 
L 19.625 63.578125 
L 19.625 53.03125 
L 33.5 53.03125 
L 33.5 45.796875 
L 19.625 45.796875 
L 19.625 16.40625 
Q 19.625 6 28.609375 6 
Q 30.515625 6 33.25 6.640625 
z
" id="LucidaSansUnicode-116"/>
       <path d="M 36.96875 6.734375 
Q 28.328125 -1.21875 20.3125 -1.21875 
Q 13.71875 -1.21875 9.375 2.90625 
Q 5.03125 7.03125 5.03125 13.328125 
Q 5.03125 22.015625 12.328125 26.671875 
Q 19.625 31.34375 33.296875 31.34375 
L 35.546875 31.34375 
L 35.546875 37.75 
Q 35.546875 46.96875 25.921875 46.96875 
Q 18.453125 46.96875 9.625 42.28125 
L 9.625 50.25 
Q 19.34375 54.203125 27.9375 54.203125 
Q 36.765625 54.203125 40.96875 50.171875 
Q 45.171875 46.140625 45.171875 37.75 
L 45.171875 13.71875 
Q 45.171875 5.46875 50.25 5.46875 
Q 50.875 5.46875 52.09375 5.671875 
L 52.78125 0.34375 
Q 49.515625 -1.21875 45.5625 -1.21875 
Q 38.8125 -1.21875 36.96875 6.734375 
z
M 35.546875 11.96875 
L 35.546875 25.6875 
L 32.46875 25.78125 
Q 24.46875 25.78125 19.5625 22.796875 
Q 14.65625 19.828125 14.65625 14.890625 
Q 14.65625 11.421875 17.09375 9.03125 
Q 19.53125 6.640625 23.046875 6.640625 
Q 29.046875 6.640625 35.546875 11.96875 
z
" id="LucidaSansUnicode-97"/>
       <path d="M 9.625 0 
L 9.625 77.09375 
L 19.234375 77.09375 
L 19.234375 0 
z
" id="LucidaSansUnicode-108"/>
       <path d="M 9.765625 0 
L 9.765625 12.0625 
L 21.828125 12.0625 
L 21.828125 0 
z
" id="LucidaSansUnicode-46"/>
       <path d="M 8.296875 0 
L 8.296875 8.453125 
Q 12.5 18.265625 25.296875 29.828125 
L 30.8125 34.765625 
Q 41.453125 44.390625 41.453125 53.859375 
Q 41.453125 59.90625 37.8125 63.375 
Q 34.1875 66.84375 27.78125 66.84375 
Q 20.3125 66.84375 10.109375 61.03125 
L 10.109375 69.53125 
Q 19.734375 74.078125 29.25 74.078125 
Q 39.40625 74.078125 45.53125 68.609375 
Q 51.65625 63.140625 51.65625 54.109375 
Q 51.65625 47.609375 48.546875 42.578125 
Q 45.453125 37.546875 37.015625 30.375 
L 33.296875 27.203125 
Q 21.734375 17.390625 19.921875 8.453125 
L 51.3125 8.453125 
L 51.3125 0 
z
" id="LucidaSansUnicode-50"/>
       <path d="M 31.640625 -1.8125 
Q 20.265625 -1.8125 13.296875 8.609375 
Q 6.34375 19.046875 6.34375 36.140625 
Q 6.34375 53.21875 13.296875 63.640625 
Q 20.265625 74.078125 31.640625 74.078125 
Q 43.0625 74.078125 50 63.671875 
Q 56.9375 53.265625 56.9375 36.140625 
Q 56.9375 19.046875 50 8.609375 
Q 43.0625 -1.8125 31.640625 -1.8125 
z
M 31.640625 5.421875 
Q 46.734375 5.421875 46.734375 36.140625 
Q 46.734375 66.84375 31.640625 66.84375 
Q 16.609375 66.84375 16.609375 36.140625 
Q 16.609375 5.421875 31.640625 5.421875 
z
" id="LucidaSansUnicode-48"/>
       <path d="M 26.171875 0 
L 26.171875 65.046875 
L 14.75 65.046875 
L 14.75 71.09375 
L 35.84375 72.90625 
L 35.84375 0 
z
" id="LucidaSansUnicode-49"/>
       <path d="M 37.640625 0 
L 37.640625 20.453125 
L 5.125 20.453125 
L 5.125 27.734375 
L 37.640625 72.265625 
L 46.6875 72.265625 
L 46.6875 28.328125 
L 56.34375 28.328125 
L 56.34375 20.453125 
L 46.6875 20.453125 
L 46.6875 0 
z
M 14.546875 28.328125 
L 38.28125 28.328125 
L 38.28125 60.453125 
z
" id="LucidaSansUnicode-52"/>
      </defs>
      <g transform="translate(136.709375 334.882685)scale(0.1 -0.1)">
       <use xlink:href="#LucidaSansUnicode-76"/>
       <use x="53.320312" xlink:href="#LucidaSansUnicode-105"/>
       <use x="82.226562" xlink:href="#LucidaSansUnicode-32"/>
       <use x="113.867188" xlink:href="#LucidaSansUnicode-101"/>
       <use x="169.580078" xlink:href="#LucidaSansUnicode-116"/>
       <use x="206.982422" xlink:href="#LucidaSansUnicode-32"/>
       <use x="238.623047" xlink:href="#LucidaSansUnicode-97"/>
       <use x="293.847656" xlink:href="#LucidaSansUnicode-108"/>
       <use x="322.753906" xlink:href="#LucidaSansUnicode-46"/>
       <use x="354.394531" xlink:href="#LucidaSansUnicode-32"/>
       <use x="386.035156" xlink:href="#LucidaSansUnicode-50"/>
       <use x="449.267578" xlink:href="#LucidaSansUnicode-48"/>
       <use x="512.5" xlink:href="#LucidaSansUnicode-49"/>
       <use x="575.732422" xlink:href="#LucidaSansUnicode-52"/>
      </g>
     </g>
    </g>
    <g id="ytick_6">
     <g id="text_2">
      <!-- Schmidt et al. 2016 -->
      <defs>
       <path d="M 4.890625 1.375 
L 4.890625 11.53125 
Q 17.09375 5.859375 25 5.859375 
Q 31 5.859375 34.6875 9.046875 
Q 38.375 12.25 38.375 17.390625 
Q 38.375 21.625 35.953125 24.609375 
Q 33.546875 27.59375 27.046875 31.25 
L 22.078125 34.125 
Q 12.84375 39.40625 9.0625 44.0625 
Q 5.28125 48.734375 5.28125 54.890625 
Q 5.28125 63.28125 11.328125 68.671875 
Q 17.390625 74.078125 26.765625 74.078125 
Q 35.109375 74.078125 44.390625 71.296875 
L 44.390625 61.921875 
Q 32.953125 66.40625 27.34375 66.40625 
Q 22.015625 66.40625 18.546875 63.578125 
Q 15.09375 60.75 15.09375 56.453125 
Q 15.09375 52.828125 17.625 50.046875 
Q 20.171875 47.265625 26.90625 43.40625 
L 32.078125 40.484375 
Q 41.453125 35.15625 45.15625 30.421875 
Q 48.875 25.6875 48.875 19.046875 
Q 48.875 9.625 41.9375 3.90625 
Q 35.015625 -1.8125 23.53125 -1.8125 
Q 16.21875 -1.8125 4.890625 1.375 
z
" id="LucidaSansUnicode-83"/>
       <path d="M 46.4375 1.609375 
Q 37.109375 -1.21875 30.328125 -1.21875 
Q 19.578125 -1.21875 12.5 6.734375 
Q 5.421875 14.703125 5.421875 26.8125 
Q 5.421875 39.75 12.421875 46.96875 
Q 19.4375 54.203125 31.984375 54.203125 
Q 38.1875 54.203125 45.84375 52.484375 
L 45.84375 44.4375 
Q 37.703125 46.828125 32.5625 46.828125 
Q 25.140625 46.828125 20.703125 41.28125 
Q 16.265625 35.75 16.265625 26.515625 
Q 16.265625 17.578125 20.84375 12.0625 
Q 25.4375 6.546875 32.859375 6.546875 
Q 39.453125 6.546875 46.4375 9.90625 
z
" id="LucidaSansUnicode-99"/>
       <path d="M 9.625 0 
L 9.625 77.09375 
L 19.234375 77.09375 
L 19.234375 43.0625 
Q 26.859375 54.203125 37.890625 54.203125 
Q 44.828125 54.203125 48.90625 49.828125 
Q 52.984375 45.453125 52.984375 38.09375 
L 52.984375 0 
L 43.359375 0 
L 43.359375 34.96875 
Q 43.359375 40.875 41.625 43.390625 
Q 39.890625 45.90625 35.890625 45.90625 
Q 27.046875 45.90625 19.234375 34.328125 
L 19.234375 0 
z
" id="LucidaSansUnicode-104"/>
       <path d="M 9.625 0 
L 9.625 53.03125 
L 19.234375 53.03125 
L 19.234375 43.0625 
Q 26.265625 54.203125 37.3125 54.203125 
Q 47.953125 54.203125 51.8125 43.0625 
Q 58.640625 54.25 69.578125 54.25 
Q 76.5625 54.25 80.4375 50.125 
Q 84.328125 46 84.328125 38.578125 
L 84.328125 0 
L 74.65625 0 
L 74.65625 37.0625 
Q 74.65625 46.140625 67.484375 46.140625 
Q 60.015625 46.140625 51.8125 35.546875 
L 51.8125 0 
L 42.140625 0 
L 42.140625 37.0625 
Q 42.140625 46.1875 34.8125 46.1875 
Q 27.546875 46.1875 19.234375 35.546875 
L 19.234375 0 
z
" id="LucidaSansUnicode-109"/>
       <path d="M 43.65625 0 
L 43.65625 9.96875 
Q 37.796875 -1.21875 25.984375 -1.21875 
Q 16.40625 -1.21875 10.90625 5.765625 
Q 5.421875 12.75 5.421875 24.859375 
Q 5.421875 38.09375 11.640625 46.140625 
Q 17.875 54.203125 28.03125 54.203125 
Q 37.453125 54.203125 43.65625 46.96875 
L 43.65625 77.09375 
L 53.328125 77.09375 
L 53.328125 0 
z
M 43.65625 40.375 
Q 36.1875 46.96875 29.5 46.96875 
Q 22.90625 46.96875 19.28125 41.453125 
Q 15.671875 35.9375 15.671875 25.828125 
Q 15.671875 7.234375 27.984375 7.234375 
Q 35.984375 7.234375 43.65625 15.96875 
z
" id="LucidaSansUnicode-100"/>
       <path d="M 17.1875 37.453125 
Q 24.078125 46.390625 34.515625 46.390625 
Q 44 46.390625 50.03125 40.109375 
Q 56.0625 33.84375 56.0625 24.03125 
Q 56.0625 12.75 49.296875 5.46875 
Q 42.53125 -1.8125 32.078125 -1.8125 
Q 20.171875 -1.8125 13.421875 7.828125 
Q 6.6875 17.484375 6.6875 34.515625 
Q 6.6875 57.46875 18.453125 68.21875 
Q 24.859375 74.125 36.140625 74.125 
Q 42.671875 74.125 52.34375 71.390625 
L 52.34375 62.984375 
Q 42.140625 66.890625 35.546875 66.890625 
Q 17.1875 66.890625 17.1875 37.453125 
z
M 46.390625 22.125 
Q 46.390625 30.125 42.671875 34.78125 
Q 38.96875 39.453125 32.515625 39.453125 
Q 26.375 39.453125 21.96875 35.34375 
Q 17.578125 31.25 17.578125 25.484375 
Q 17.578125 16.40625 21.75 10.90625 
Q 25.921875 5.421875 32.8125 5.421875 
Q 39.0625 5.421875 42.71875 9.90625 
Q 46.390625 14.40625 46.390625 22.125 
z
" id="LucidaSansUnicode-54"/>
      </defs>
      <g transform="translate(105.957813 303.706831)scale(0.1 -0.1)">
       <use xlink:href="#LucidaSansUnicode-83"/>
       <use x="53.857422" xlink:href="#LucidaSansUnicode-99"/>
       <use x="105.078125" xlink:href="#LucidaSansUnicode-104"/>
       <use x="167.138672" xlink:href="#LucidaSansUnicode-109"/>
       <use x="260.498047" xlink:href="#LucidaSansUnicode-105"/>
       <use x="289.404297" xlink:href="#LucidaSansUnicode-100"/>
       <use x="352.34375" xlink:href="#LucidaSansUnicode-116"/>
       <use x="389.746094" xlink:href="#LucidaSansUnicode-32"/>
       <use x="421.386719" xlink:href="#LucidaSansUnicode-101"/>
       <use x="477.099609" xlink:href="#LucidaSansUnicode-116"/>
       <use x="514.501953" xlink:href="#LucidaSansUnicode-32"/>
       <use x="546.142578" xlink:href="#LucidaSansUnicode-97"/>
       <use x="601.367188" xlink:href="#LucidaSansUnicode-108"/>
       <use x="630.273438" xlink:href="#LucidaSansUnicode-46"/>
       <use x="661.914062" xlink:href="#LucidaSansUnicode-32"/>
       <use x="693.554688" xlink:href="#LucidaSansUnicode-50"/>
       <use x="756.787109" xlink:href="#LucidaSansUnicode-48"/>
       <use x="820.019531" xlink:href="#LucidaSansUnicode-49"/>
       <use x="883.251953" xlink:href="#LucidaSansUnicode-54"/>
      </g>
     </g>
    </g>
    <g id="ytick_7">
     <g id="text_3">
      <!-- Peebo et al. 2015 -->
      <defs>
       <path d="M 9.328125 0 
L 9.328125 72.265625 
L 29 72.265625 
Q 37.5 72.265625 42.109375 70.875 
Q 46.734375 69.484375 49.65625 65.96875 
Q 53.515625 61.328125 53.515625 53.328125 
Q 53.515625 41.796875 45.703125 35.25 
Q 37.890625 28.71875 24.03125 28.71875 
L 19.484375 28.71875 
L 19.484375 0 
z
M 19.484375 36.46875 
L 23.640625 36.46875 
Q 32.765625 36.46875 37.734375 40.671875 
Q 42.71875 44.875 42.71875 52.59375 
Q 42.71875 59.03125 38.78125 61.8125 
Q 34.859375 64.59375 25.78125 64.59375 
L 19.484375 64.59375 
z
" id="LucidaSansUnicode-80"/>
       <path d="M 9.625 -0.59375 
L 9.625 77.09375 
L 19.234375 77.09375 
L 19.234375 43.0625 
Q 25.140625 54.203125 36.96875 54.203125 
Q 46.53125 54.203125 52.015625 47.21875 
Q 57.515625 40.234375 57.515625 28.125 
Q 57.515625 14.9375 51.28125 6.859375 
Q 45.0625 -1.21875 34.90625 -1.21875 
Q 25.484375 -1.21875 19.234375 6 
L 18.0625 -0.59375 
z
M 19.234375 12.640625 
Q 26.65625 6 33.40625 6 
Q 40.046875 6 43.65625 11.546875 
Q 47.265625 17.09375 47.265625 27.15625 
Q 47.265625 45.796875 34.96875 45.796875 
Q 26.90625 45.796875 19.234375 37.0625 
z
" id="LucidaSansUnicode-98"/>
       <path d="M 30.71875 -1.21875 
Q 19.046875 -1.21875 12.234375 6.25 
Q 5.421875 13.71875 5.421875 26.515625 
Q 5.421875 39.3125 12.234375 46.75 
Q 19.046875 54.203125 30.71875 54.203125 
Q 42.390625 54.203125 49.1875 46.75 
Q 56 39.3125 56 26.515625 
Q 56 13.71875 49.1875 6.25 
Q 42.390625 -1.21875 30.71875 -1.21875 
z
M 30.71875 6 
Q 37.890625 6 41.84375 11.375 
Q 45.796875 16.75 45.796875 26.515625 
Q 45.796875 36.28125 41.84375 41.625 
Q 37.890625 46.96875 30.71875 46.96875 
Q 23.53125 46.96875 19.59375 41.625 
Q 15.671875 36.28125 15.671875 26.515625 
Q 15.671875 16.75 19.59375 11.375 
Q 23.53125 6 30.71875 6 
z
" id="LucidaSansUnicode-111"/>
       <path d="M 12.15625 -0.296875 
L 12.15625 8.296875 
Q 19.34375 5.421875 25.828125 5.421875 
Q 32.953125 5.421875 37.03125 9.609375 
Q 41.109375 13.8125 41.109375 21.1875 
Q 41.109375 29.109375 35.34375 33.28125 
Q 29.59375 37.453125 18.703125 37.453125 
Q 16.15625 37.453125 13.375 37.109375 
L 13.375 72.265625 
L 49.953125 72.265625 
L 49.953125 63.875 
L 21.828125 63.875 
L 21.828125 44.828125 
Q 35.75 44.828125 43.5625 38.421875 
Q 51.375 32.03125 51.375 20.703125 
Q 51.375 10.15625 44.265625 4.171875 
Q 37.15625 -1.8125 24.65625 -1.8125 
Q 19.09375 -1.8125 12.15625 -0.296875 
z
" id="LucidaSansUnicode-53"/>
      </defs>
      <g transform="translate(115.825 272.530978)scale(0.1 -0.1)">
       <use xlink:href="#LucidaSansUnicode-80"/>
       <use x="55.273438" xlink:href="#LucidaSansUnicode-101"/>
       <use x="110.986328" xlink:href="#LucidaSansUnicode-101"/>
       <use x="166.699219" xlink:href="#LucidaSansUnicode-98"/>
       <use x="229.638672" xlink:href="#LucidaSansUnicode-111"/>
       <use x="291.064453" xlink:href="#LucidaSansUnicode-32"/>
       <use x="322.705078" xlink:href="#LucidaSansUnicode-101"/>
       <use x="378.417969" xlink:href="#LucidaSansUnicode-116"/>
       <use x="415.820312" xlink:href="#LucidaSansUnicode-32"/>
       <use x="447.460938" xlink:href="#LucidaSansUnicode-97"/>
       <use x="502.685547" xlink:href="#LucidaSansUnicode-108"/>
       <use x="531.591797" xlink:href="#LucidaSansUnicode-46"/>
       <use x="563.232422" xlink:href="#LucidaSansUnicode-32"/>
       <use x="594.873047" xlink:href="#LucidaSansUnicode-50"/>
       <use x="658.105469" xlink:href="#LucidaSansUnicode-48"/>
       <use x="721.337891" xlink:href="#LucidaSansUnicode-49"/>
       <use x="784.570312" xlink:href="#LucidaSansUnicode-53"/>
      </g>
     </g>
    </g>
    <g id="ytick_8">
     <g id="text_4">
      <!-- Valgepea et al. 2013 -->
      <defs>
       <path d="M 29.046875 0 
L 1.765625 72.265625 
L 12.015625 72.265625 
L 34.375 13.09375 
L 55.953125 72.265625 
L 64.9375 72.265625 
L 38.71875 0 
z
" id="LucidaSansUnicode-86"/>
       <path d="M 9.8125 -17.625 
L 10.9375 -9.28125 
Q 19.28125 -13.234375 27.4375 -13.234375 
Q 43.65625 -13.234375 43.65625 4 
L 43.65625 12.359375 
Q 41.15625 7.078125 36.546875 4.140625 
Q 31.9375 1.21875 26.265625 1.21875 
Q 16.65625 1.21875 11.03125 8.125 
Q 5.421875 15.046875 5.421875 26.859375 
Q 5.421875 38.96875 11.8125 46.578125 
Q 18.21875 54.203125 28.375 54.203125 
Q 37.25 54.203125 43.65625 46.96875 
L 43.65625 53.03125 
L 53.328125 53.03125 
L 53.328125 14.453125 
Q 53.328125 2 52.03125 -3.984375 
Q 50.734375 -9.96875 47.171875 -13.765625 
Q 40.875 -20.453125 27.484375 -20.453125 
Q 18.3125 -20.453125 9.8125 -17.625 
z
M 43.65625 18.359375 
L 43.65625 40.375 
Q 37.3125 46.96875 29.828125 46.96875 
Q 23.1875 46.96875 19.421875 41.640625 
Q 15.671875 36.328125 15.671875 26.90625 
Q 15.671875 9.625 27.9375 9.625 
Q 36.28125 9.625 43.65625 18.359375 
z
" id="LucidaSansUnicode-103"/>
       <path d="M 9.625 -19.28125 
L 9.625 53.03125 
L 19.234375 53.03125 
L 19.234375 43.0625 
Q 25.140625 54.203125 36.96875 54.203125 
Q 46.53125 54.203125 52.015625 47.21875 
Q 57.515625 40.234375 57.515625 28.125 
Q 57.515625 14.9375 51.28125 6.859375 
Q 45.0625 -1.21875 34.90625 -1.21875 
Q 25.484375 -1.21875 19.234375 6 
L 19.234375 -19.28125 
z
M 19.234375 12.640625 
Q 26.65625 6 33.40625 6 
Q 40.046875 6 43.65625 11.546875 
Q 47.265625 17.09375 47.265625 27.15625 
Q 47.265625 45.796875 34.96875 45.796875 
Q 26.90625 45.796875 19.234375 37.0625 
z
" id="LucidaSansUnicode-112"/>
       <path d="M 10.15625 0.53125 
L 10.15625 9.515625 
Q 20.453125 5.421875 26.375 5.421875 
Q 33.34375 5.421875 37.671875 9.421875 
Q 42 13.421875 42 19.875 
Q 42 35.109375 20.65625 35.109375 
L 16.84375 35.109375 
L 16.84375 41.609375 
L 20.21875 41.65625 
Q 40.234375 41.65625 40.234375 55.765625 
Q 40.234375 66.84375 26.953125 66.84375 
Q 19.828125 66.84375 11.140625 62.796875 
L 11.140625 71.1875 
Q 19.671875 74.078125 27.59375 74.078125 
Q 38.375 74.078125 44.140625 69.78125 
Q 49.90625 65.484375 49.90625 57.328125 
Q 49.90625 44.578125 34.8125 39.15625 
Q 52.296875 35.109375 52.296875 20.015625 
Q 52.296875 9.8125 45.546875 4 
Q 38.8125 -1.8125 27.046875 -1.8125 
Q 20.359375 -1.8125 10.15625 0.53125 
z
" id="LucidaSansUnicode-51"/>
      </defs>
      <g transform="translate(100.7875 241.355124)scale(0.1 -0.1)">
       <use xlink:href="#LucidaSansUnicode-86"/>
       <use x="65.380859" xlink:href="#LucidaSansUnicode-97"/>
       <use x="120.605469" xlink:href="#LucidaSansUnicode-108"/>
       <use x="149.511719" xlink:href="#LucidaSansUnicode-103"/>
       <use x="211.865234" xlink:href="#LucidaSansUnicode-101"/>
       <use x="267.578125" xlink:href="#LucidaSansUnicode-112"/>
       <use x="330.517578" xlink:href="#LucidaSansUnicode-101"/>
       <use x="386.230469" xlink:href="#LucidaSansUnicode-97"/>
       <use x="441.455078" xlink:href="#LucidaSansUnicode-32"/>
       <use x="473.095703" xlink:href="#LucidaSansUnicode-101"/>
       <use x="528.808594" xlink:href="#LucidaSansUnicode-116"/>
       <use x="566.210938" xlink:href="#LucidaSansUnicode-32"/>
       <use x="597.851562" xlink:href="#LucidaSansUnicode-97"/>
       <use x="653.076172" xlink:href="#LucidaSansUnicode-108"/>
       <use x="681.982422" xlink:href="#LucidaSansUnicode-46"/>
       <use x="713.623047" xlink:href="#LucidaSansUnicode-32"/>
       <use x="745.263672" xlink:href="#LucidaSansUnicode-50"/>
       <use x="808.496094" xlink:href="#LucidaSansUnicode-48"/>
       <use x="871.728516" xlink:href="#LucidaSansUnicode-49"/>
       <use x="934.960938" xlink:href="#LucidaSansUnicode-51"/>
      </g>
     </g>
    </g>
   </g>
   <g id="PathCollection_1">
    <defs>
     <path d="M 0 7.875 
C 2.088474 7.875 4.091691 7.04524 5.568466 5.568466 
C 7.04524 4.091691 7.875 2.088474 7.875 0 
C 7.875 -2.088474 7.04524 -4.091691 5.568466 -5.568466 
C 4.091691 -7.04524 2.088474 -7.875 0 -7.875 
C -2.088474 -7.875 -4.091691 -7.04524 -5.568466 -5.568466 
C -7.04524 -4.091691 -7.875 -2.088474 -7.875 0 
C -7.875 2.088474 -7.04524 4.091691 -5.568466 5.568466 
C -4.091691 7.04524 -2.088474 7.875 0 7.875 
z
" id="C0_0_9a7825e679"/>
    </defs>
    <g clip-path="url(#pf1153ce116)">
     <use style="fill:#738fc1;" x="235.110313" xlink:href="#C0_0_9a7825e679" y="331.027998"/>
    </g>
    <g clip-path="url(#pf1153ce116)">
     <use style="fill:#d3d3d3;" x="235.110313" xlink:href="#C0_0_9a7825e679" y="299.852144"/>
    </g>
    <g clip-path="url(#pf1153ce116)">
     <use style="fill:#d3d3d3;" x="235.110313" xlink:href="#C0_0_9a7825e679" y="268.67629"/>
    </g>
    <g clip-path="url(#pf1153ce116)">
     <use style="fill:#d3d3d3;" x="235.110313" xlink:href="#C0_0_9a7825e679" y="237.500436"/>
    </g>
    <g clip-path="url(#pf1153ce116)">
     <use style="fill:#738fc1;" x="266.90775" xlink:href="#C0_0_9a7825e679" y="331.027998"/>
    </g>
    <g clip-path="url(#pf1153ce116)">
     <use style="fill:#738fc1;" x="266.90775" xlink:href="#C0_0_9a7825e679" y="299.852144"/>
    </g>
    <g clip-path="url(#pf1153ce116)">
     <use style="fill:#738fc1;" x="266.90775" xlink:href="#C0_0_9a7825e679" y="268.67629"/>
    </g>
    <g clip-path="url(#pf1153ce116)">
     <use style="fill:#738fc1;" x="266.90775" xlink:href="#C0_0_9a7825e679" y="237.500436"/>
    </g>
    <g clip-path="url(#pf1153ce116)">
     <use style="fill:#738fc1;" x="298.705187" xlink:href="#C0_0_9a7825e679" y="331.027998"/>
    </g>
    <g clip-path="url(#pf1153ce116)">
     <use style="fill:#738fc1;" x="298.705187" xlink:href="#C0_0_9a7825e679" y="299.852144"/>
    </g>
    <g clip-path="url(#pf1153ce116)">
     <use style="fill:#d3d3d3;" x="298.705187" xlink:href="#C0_0_9a7825e679" y="268.67629"/>
    </g>
    <g clip-path="url(#pf1153ce116)">
     <use style="fill:#d3d3d3;" x="298.705187" xlink:href="#C0_0_9a7825e679" y="237.500436"/>
    </g>
    <g clip-path="url(#pf1153ce116)">
     <use style="fill:#738fc1;" x="330.502624" xlink:href="#C0_0_9a7825e679" y="331.027998"/>
    </g>
    <g clip-path="url(#pf1153ce116)">
     <use style="fill:#738fc1;" x="330.502624" xlink:href="#C0_0_9a7825e679" y="299.852144"/>
    </g>
    <g clip-path="url(#pf1153ce116)">
     <use style="fill:#738fc1;" x="330.502624" xlink:href="#C0_0_9a7825e679" y="268.67629"/>
    </g>
    <g clip-path="url(#pf1153ce116)">
     <use style="fill:#d3d3d3;" x="330.502624" xlink:href="#C0_0_9a7825e679" y="237.500436"/>
    </g>
    <g clip-path="url(#pf1153ce116)">
     <use style="fill:#738fc1;" x="362.300061" xlink:href="#C0_0_9a7825e679" y="331.027998"/>
    </g>
    <g clip-path="url(#pf1153ce116)">
     <use style="fill:#738fc1;" x="362.300061" xlink:href="#C0_0_9a7825e679" y="299.852144"/>
    </g>
    <g clip-path="url(#pf1153ce116)">
     <use style="fill:#d3d3d3;" x="362.300061" xlink:href="#C0_0_9a7825e679" y="268.67629"/>
    </g>
    <g clip-path="url(#pf1153ce116)">
     <use style="fill:#738fc1;" x="362.300061" xlink:href="#C0_0_9a7825e679" y="237.500436"/>
    </g>
    <g clip-path="url(#pf1153ce116)">
     <use style="fill:#738fc1;" x="394.097498" xlink:href="#C0_0_9a7825e679" y="331.027998"/>
    </g>
    <g clip-path="url(#pf1153ce116)">
     <use style="fill:#d3d3d3;" x="394.097498" xlink:href="#C0_0_9a7825e679" y="299.852144"/>
    </g>
    <g clip-path="url(#pf1153ce116)">
     <use style="fill:#738fc1;" x="394.097498" xlink:href="#C0_0_9a7825e679" y="268.67629"/>
    </g>
    <g clip-path="url(#pf1153ce116)">
     <use style="fill:#d3d3d3;" x="394.097498" xlink:href="#C0_0_9a7825e679" y="237.500436"/>
    </g>
    <g clip-path="url(#pf1153ce116)">
     <use style="fill:#738fc1;" x="425.894934" xlink:href="#C0_0_9a7825e679" y="331.027998"/>
    </g>
    <g clip-path="url(#pf1153ce116)">
     <use style="fill:#d3d3d3;" x="425.894934" xlink:href="#C0_0_9a7825e679" y="299.852144"/>
    </g>
    <g clip-path="url(#pf1153ce116)">
     <use style="fill:#d3d3d3;" x="425.894934" xlink:href="#C0_0_9a7825e679" y="268.67629"/>
    </g>
    <g clip-path="url(#pf1153ce116)">
     <use style="fill:#738fc1;" x="425.894934" xlink:href="#C0_0_9a7825e679" y="237.500436"/>
    </g>
    <g clip-path="url(#pf1153ce116)">
     <use style="fill:#738fc1;" x="457.692371" xlink:href="#C0_0_9a7825e679" y="331.027998"/>
    </g>
    <g clip-path="url(#pf1153ce116)">
     <use style="fill:#d3d3d3;" x="457.692371" xlink:href="#C0_0_9a7825e679" y="299.852144"/>
    </g>
    <g clip-path="url(#pf1153ce116)">
     <use style="fill:#738fc1;" x="457.692371" xlink:href="#C0_0_9a7825e679" y="268.67629"/>
    </g>
    <g clip-path="url(#pf1153ce116)">
     <use style="fill:#738fc1;" x="457.692371" xlink:href="#C0_0_9a7825e679" y="237.500436"/>
    </g>
    <g clip-path="url(#pf1153ce116)">
     <use style="fill:#d3d3d3;" x="489.489808" xlink:href="#C0_0_9a7825e679" y="331.027998"/>
    </g>
    <g clip-path="url(#pf1153ce116)">
     <use style="fill:#738fc1;" x="489.489808" xlink:href="#C0_0_9a7825e679" y="299.852144"/>
    </g>
    <g clip-path="url(#pf1153ce116)">
     <use style="fill:#d3d3d3;" x="489.489808" xlink:href="#C0_0_9a7825e679" y="268.67629"/>
    </g>
    <g clip-path="url(#pf1153ce116)">
     <use style="fill:#d3d3d3;" x="489.489808" xlink:href="#C0_0_9a7825e679" y="237.500436"/>
    </g>
    <g clip-path="url(#pf1153ce116)">
     <use style="fill:#d3d3d3;" x="521.287245" xlink:href="#C0_0_9a7825e679" y="331.027998"/>
    </g>
    <g clip-path="url(#pf1153ce116)">
     <use style="fill:#d3d3d3;" x="521.287245" xlink:href="#C0_0_9a7825e679" y="299.852144"/>
    </g>
    <g clip-path="url(#pf1153ce116)">
     <use style="fill:#738fc1;" x="521.287245" xlink:href="#C0_0_9a7825e679" y="268.67629"/>
    </g>
    <g clip-path="url(#pf1153ce116)">
     <use style="fill:#d3d3d3;" x="521.287245" xlink:href="#C0_0_9a7825e679" y="237.500436"/>
    </g>
    <g clip-path="url(#pf1153ce116)">
     <use style="fill:#d3d3d3;" x="553.084682" xlink:href="#C0_0_9a7825e679" y="331.027998"/>
    </g>
    <g clip-path="url(#pf1153ce116)">
     <use style="fill:#738fc1;" x="553.084682" xlink:href="#C0_0_9a7825e679" y="299.852144"/>
    </g>
    <g clip-path="url(#pf1153ce116)">
     <use style="fill:#738fc1;" x="553.084682" xlink:href="#C0_0_9a7825e679" y="268.67629"/>
    </g>
    <g clip-path="url(#pf1153ce116)">
     <use style="fill:#738fc1;" x="553.084682" xlink:href="#C0_0_9a7825e679" y="237.500436"/>
    </g>
    <g clip-path="url(#pf1153ce116)">
     <use style="fill:#d3d3d3;" x="584.882119" xlink:href="#C0_0_9a7825e679" y="331.027998"/>
    </g>
    <g clip-path="url(#pf1153ce116)">
     <use style="fill:#d3d3d3;" x="584.882119" xlink:href="#C0_0_9a7825e679" y="299.852144"/>
    </g>
    <g clip-path="url(#pf1153ce116)">
     <use style="fill:#738fc1;" x="584.882119" xlink:href="#C0_0_9a7825e679" y="268.67629"/>
    </g>
    <g clip-path="url(#pf1153ce116)">
     <use style="fill:#738fc1;" x="584.882119" xlink:href="#C0_0_9a7825e679" y="237.500436"/>
    </g>
    <g clip-path="url(#pf1153ce116)">
     <use style="fill:#d3d3d3;" x="616.679556" xlink:href="#C0_0_9a7825e679" y="331.027998"/>
    </g>
    <g clip-path="url(#pf1153ce116)">
     <use style="fill:#d3d3d3;" x="616.679556" xlink:href="#C0_0_9a7825e679" y="299.852144"/>
    </g>
    <g clip-path="url(#pf1153ce116)">
     <use style="fill:#d3d3d3;" x="616.679556" xlink:href="#C0_0_9a7825e679" y="268.67629"/>
    </g>
    <g clip-path="url(#pf1153ce116)">
     <use style="fill:#738fc1;" x="616.679556" xlink:href="#C0_0_9a7825e679" y="237.500436"/>
    </g>
    <g clip-path="url(#pf1153ce116)">
     <use style="fill:#d3d3d3;" x="648.476992" xlink:href="#C0_0_9a7825e679" y="331.027998"/>
    </g>
    <g clip-path="url(#pf1153ce116)">
     <use style="fill:#738fc1;" x="648.476992" xlink:href="#C0_0_9a7825e679" y="299.852144"/>
    </g>
    <g clip-path="url(#pf1153ce116)">
     <use style="fill:#d3d3d3;" x="648.476992" xlink:href="#C0_0_9a7825e679" y="268.67629"/>
    </g>
    <g clip-path="url(#pf1153ce116)">
     <use style="fill:#738fc1;" x="648.476992" xlink:href="#C0_0_9a7825e679" y="237.500436"/>
    </g>
    <g clip-path="url(#pf1153ce116)">
     <use style="fill:#d3d3d3;" x="680.274429" xlink:href="#C0_0_9a7825e679" y="331.027998"/>
    </g>
    <g clip-path="url(#pf1153ce116)">
     <use style="fill:#738fc1;" x="680.274429" xlink:href="#C0_0_9a7825e679" y="299.852144"/>
    </g>
    <g clip-path="url(#pf1153ce116)">
     <use style="fill:#738fc1;" x="680.274429" xlink:href="#C0_0_9a7825e679" y="268.67629"/>
    </g>
    <g clip-path="url(#pf1153ce116)">
     <use style="fill:#d3d3d3;" x="680.274429" xlink:href="#C0_0_9a7825e679" y="237.500436"/>
    </g>
   </g>
   <g id="LineCollection_1">
    <path clip-path="url(#pf1153ce116)" d="M 235.110313 331.027998 
L 235.110313 331.027998 
" style="fill:none;stroke:#738fc1;stroke-width:2;"/>
    <path clip-path="url(#pf1153ce116)" d="M 266.90775 331.027998 
L 266.90775 237.500436 
" style="fill:none;stroke:#738fc1;stroke-width:2;"/>
    <path clip-path="url(#pf1153ce116)" d="M 298.705187 331.027998 
L 298.705187 299.852144 
" style="fill:none;stroke:#738fc1;stroke-width:2;"/>
    <path clip-path="url(#pf1153ce116)" d="M 330.502624 331.027998 
L 330.502624 268.67629 
" style="fill:none;stroke:#738fc1;stroke-width:2;"/>
    <path clip-path="url(#pf1153ce116)" d="M 362.300061 331.027998 
L 362.300061 237.500436 
" style="fill:none;stroke:#738fc1;stroke-width:2;"/>
    <path clip-path="url(#pf1153ce116)" d="M 394.097498 331.027998 
L 394.097498 268.67629 
" style="fill:none;stroke:#738fc1;stroke-width:2;"/>
    <path clip-path="url(#pf1153ce116)" d="M 425.894934 331.027998 
L 425.894934 237.500436 
" style="fill:none;stroke:#738fc1;stroke-width:2;"/>
    <path clip-path="url(#pf1153ce116)" d="M 457.692371 331.027998 
L 457.692371 237.500436 
" style="fill:none;stroke:#738fc1;stroke-width:2;"/>
    <path clip-path="url(#pf1153ce116)" d="M 489.489808 299.852144 
L 489.489808 299.852144 
" style="fill:none;stroke:#738fc1;stroke-width:2;"/>
    <path clip-path="url(#pf1153ce116)" d="M 521.287245 268.67629 
L 521.287245 268.67629 
" style="fill:none;stroke:#738fc1;stroke-width:2;"/>
    <path clip-path="url(#pf1153ce116)" d="M 553.084682 299.852144 
L 553.084682 237.500436 
" style="fill:none;stroke:#738fc1;stroke-width:2;"/>
    <path clip-path="url(#pf1153ce116)" d="M 584.882119 268.67629 
L 584.882119 237.500436 
" style="fill:none;stroke:#738fc1;stroke-width:2;"/>
    <path clip-path="url(#pf1153ce116)" d="M 616.679556 237.500436 
L 616.679556 237.500436 
" style="fill:none;stroke:#738fc1;stroke-width:2;"/>
    <path clip-path="url(#pf1153ce116)" d="M 648.476992 299.852144 
L 648.476992 237.500436 
" style="fill:none;stroke:#738fc1;stroke-width:2;"/>
    <path clip-path="url(#pf1153ce116)" d="M 680.274429 299.852144 
L 680.274429 268.67629 
" style="fill:none;stroke:#738fc1;stroke-width:2;"/>
   </g>
  </g>
  <g id="axes_3">
   <g id="matplotlib.axis_4">
    <g id="xtick_1">
     <g id="line2d_1">
      <path clip-path="url(#pda4169b561)" d="M 95.835754 349.187932 
L 95.835754 224.01688 
" style="fill:none;stroke:#ffffff;stroke-linecap:round;stroke-width:0.8;"/>
     </g>
     <g id="text_5">
      <!-- 0 -->
      <g transform="translate(92.674035 360.397307)scale(0.1 -0.1)">
       <use xlink:href="#LucidaSansUnicode-48"/>
      </g>
     </g>
    </g>
    <g id="xtick_2">
     <g id="line2d_2">
      <path clip-path="url(#pda4169b561)" d="M 58.897732 349.187932 
L 58.897732 224.01688 
" style="fill:none;stroke:#ffffff;stroke-linecap:round;stroke-width:0.8;"/>
     </g>
     <g id="text_6">
      <!-- 2000 -->
      <g transform="translate(46.250857 360.397307)scale(0.1 -0.1)">
       <use xlink:href="#LucidaSansUnicode-50"/>
       <use x="63.232422" xlink:href="#LucidaSansUnicode-48"/>
       <use x="126.464844" xlink:href="#LucidaSansUnicode-48"/>
       <use x="189.697266" xlink:href="#LucidaSansUnicode-48"/>
      </g>
     </g>
    </g>
   </g>
   <g id="patch_4">
    <path clip-path="url(#pda4169b561)" d="M 95.835754 338.821961 
L 33.15193 338.821961 
L 33.15193 323.234034 
L 95.835754 323.234034 
z
" style="fill:#738fc1;stroke:#ffffff;stroke-linejoin:miter;"/>
   </g>
   <g id="patch_5">
    <path clip-path="url(#pda4169b561)" d="M 95.835754 307.646107 
L 58.140502 307.646107 
L 58.140502 292.05818 
L 95.835754 292.05818 
z
" style="fill:#738fc1;stroke:#ffffff;stroke-linejoin:miter;"/>
   </g>
   <g id="patch_6">
    <path clip-path="url(#pda4169b561)" d="M 95.835754 276.470254 
L 67.836733 276.470254 
L 67.836733 260.882327 
L 95.835754 260.882327 
z
" style="fill:#738fc1;stroke:#ffffff;stroke-linejoin:miter;"/>
   </g>
   <g id="patch_7">
    <path clip-path="url(#pda4169b561)" d="M 95.835754 245.2944 
L 71.345845 245.2944 
L 71.345845 229.706473 
L 95.835754 229.706473 
z
" style="fill:#738fc1;stroke:#ffffff;stroke-linejoin:miter;"/>
   </g>
   <g id="patch_8">
    <path d="M 33.15193 349.187932 
L 95.835754 349.187932 
" style="fill:none;stroke:#ffffff;stroke-linecap:square;stroke-linejoin:miter;stroke-width:0.8;"/>
   </g>
   <g id="text_7">
    <!-- 3394 -->
    <defs>
     <path d="M 11.375 0.4375 
L 11.375 8.59375 
Q 20.5625 5.421875 27 5.421875 
Q 35.984375 5.421875 41.03125 13.0625 
Q 46.09375 20.703125 46.09375 34.328125 
Q 38.765625 25.296875 29.4375 25.296875 
Q 20.3125 25.296875 13.96875 32 
Q 7.625 38.71875 7.625 48.390625 
Q 7.625 59.46875 14.375 66.765625 
Q 21.140625 74.078125 31.390625 74.078125 
Q 43.171875 74.078125 49.953125 64.625 
Q 56.734375 55.171875 56.734375 38.765625 
Q 56.734375 28.328125 53.46875 19.109375 
Q 50.203125 9.90625 44.671875 4.78125 
Q 37.59375 -1.8125 26.078125 -1.8125 
Q 20.40625 -1.8125 11.375 0.4375 
z
M 17.234375 50.046875 
Q 17.234375 41.796875 20.984375 37.015625 
Q 24.75 32.234375 31.15625 32.234375 
Q 37.3125 32.234375 41.625 36.375 
Q 45.953125 40.53125 45.953125 46.390625 
Q 45.953125 55.609375 41.765625 61.25 
Q 37.59375 66.890625 30.8125 66.890625 
Q 24.46875 66.890625 20.84375 62.390625 
Q 17.234375 57.90625 17.234375 50.046875 
z
" id="LucidaSansUnicode-57"/>
    </defs>
    <g style="fill:#262626;" transform="translate(7.2 333.918623)scale(0.1 -0.1)">
     <use xlink:href="#LucidaSansUnicode-51"/>
     <use x="63.232422" xlink:href="#LucidaSansUnicode-51"/>
     <use x="126.464844" xlink:href="#LucidaSansUnicode-57"/>
     <use x="189.697266" xlink:href="#LucidaSansUnicode-52"/>
    </g>
   </g>
   <g id="text_8">
    <!-- 2041 -->
    <g style="fill:#262626;" transform="translate(32.188572 302.742769)scale(0.1 -0.1)">
     <use xlink:href="#LucidaSansUnicode-50"/>
     <use x="63.232422" xlink:href="#LucidaSansUnicode-48"/>
     <use x="126.464844" xlink:href="#LucidaSansUnicode-52"/>
     <use x="189.697266" xlink:href="#LucidaSansUnicode-49"/>
    </g>
   </g>
   <g id="text_9">
    <!-- 1516 -->
    <g style="fill:#262626;" transform="translate(41.884803 271.566915)scale(0.1 -0.1)">
     <use xlink:href="#LucidaSansUnicode-49"/>
     <use x="63.232422" xlink:href="#LucidaSansUnicode-53"/>
     <use x="126.464844" xlink:href="#LucidaSansUnicode-49"/>
     <use x="189.697266" xlink:href="#LucidaSansUnicode-54"/>
    </g>
   </g>
   <g id="text_10">
    <!-- 1326 -->
    <g style="fill:#262626;" transform="translate(45.393915 240.391061)scale(0.1 -0.1)">
     <use xlink:href="#LucidaSansUnicode-49"/>
     <use x="63.232422" xlink:href="#LucidaSansUnicode-51"/>
     <use x="126.464844" xlink:href="#LucidaSansUnicode-50"/>
     <use x="189.697266" xlink:href="#LucidaSansUnicode-54"/>
    </g>
   </g>
  </g>
  <g id="axes_4">
   <g id="patch_9">
    <path d="M 204.107813 206.135301 
L 711.27693 206.135301 
L 711.27693 9.437932 
L 204.107813 9.437932 
z
" style="fill:#e3dcd0;"/>
   </g>
   <g id="matplotlib.axis_5">
    <g id="ytick_9">
     <g id="line2d_3">
      <path clip-path="url(#p585a749655)" d="M 204.107813 206.135301 
L 711.27693 206.135301 
" style="fill:none;stroke:#ffffff;stroke-linecap:round;stroke-width:0.8;"/>
     </g>
     <g id="text_11">
      <!-- 0 -->
      <g transform="translate(194.284375 209.989988)scale(0.1 -0.1)">
       <use xlink:href="#LucidaSansUnicode-48"/>
      </g>
     </g>
    </g>
    <g id="ytick_10">
     <g id="line2d_4">
      <path clip-path="url(#p585a749655)" d="M 204.107813 177.046663 
L 711.27693 177.046663 
" style="fill:none;stroke:#ffffff;stroke-linecap:round;stroke-width:0.8;"/>
     </g>
     <g id="text_12">
      <!-- 200 -->
      <g transform="translate(181.6375 180.901351)scale(0.1 -0.1)">
       <use xlink:href="#LucidaSansUnicode-50"/>
       <use x="63.232422" xlink:href="#LucidaSansUnicode-48"/>
       <use x="126.464844" xlink:href="#LucidaSansUnicode-48"/>
      </g>
     </g>
    </g>
    <g id="ytick_11">
     <g id="line2d_5">
      <path clip-path="url(#p585a749655)" d="M 204.107813 147.958025 
L 711.27693 147.958025 
" style="fill:none;stroke:#ffffff;stroke-linecap:round;stroke-width:0.8;"/>
     </g>
     <g id="text_13">
      <!-- 400 -->
      <g transform="translate(181.6375 151.812713)scale(0.1 -0.1)">
       <use xlink:href="#LucidaSansUnicode-52"/>
       <use x="63.232422" xlink:href="#LucidaSansUnicode-48"/>
       <use x="126.464844" xlink:href="#LucidaSansUnicode-48"/>
      </g>
     </g>
    </g>
    <g id="ytick_12">
     <g id="line2d_6">
      <path clip-path="url(#p585a749655)" d="M 204.107813 118.869388 
L 711.27693 118.869388 
" style="fill:none;stroke:#ffffff;stroke-linecap:round;stroke-width:0.8;"/>
     </g>
     <g id="text_14">
      <!-- 600 -->
      <g transform="translate(181.6375 122.724075)scale(0.1 -0.1)">
       <use xlink:href="#LucidaSansUnicode-54"/>
       <use x="63.232422" xlink:href="#LucidaSansUnicode-48"/>
       <use x="126.464844" xlink:href="#LucidaSansUnicode-48"/>
      </g>
     </g>
    </g>
    <g id="ytick_13">
     <g id="line2d_7">
      <path clip-path="url(#p585a749655)" d="M 204.107813 89.78075 
L 711.27693 89.78075 
" style="fill:none;stroke:#ffffff;stroke-linecap:round;stroke-width:0.8;"/>
     </g>
     <g id="text_15">
      <!-- 800 -->
      <defs>
       <path d="M 23 39.359375 
Q 17.046875 43.5 14.71875 47.0625 
Q 12.40625 50.640625 12.40625 55.671875 
Q 12.40625 63.875 18.40625 69 
Q 24.421875 74.125 34.078125 74.125 
Q 43.015625 74.125 48.5625 69.78125 
Q 54.109375 65.4375 54.109375 58.5 
Q 54.109375 48 40.625 39.359375 
Q 56.984375 31.34375 56.984375 18.703125 
Q 56.984375 9.671875 50.140625 3.921875 
Q 43.3125 -1.8125 32.5625 -1.8125 
Q 21.828125 -1.8125 15.234375 3.578125 
Q 8.640625 8.984375 8.640625 17.78125 
Q 8.640625 30.765625 23 39.359375 
z
M 35.25 42.390625 
Q 45.359375 49.03125 45.359375 57.171875 
Q 45.359375 61.53125 41.96875 64.1875 
Q 38.578125 66.84375 33.109375 66.84375 
Q 27.78125 66.84375 24.453125 64.234375 
Q 21.140625 61.625 21.140625 57.46875 
Q 21.140625 53.421875 24.140625 50.1875 
Q 27.15625 46.96875 35.25 42.390625 
z
M 28.21875 35.453125 
Q 22.40625 30.953125 20.328125 27.609375 
Q 18.265625 24.265625 18.265625 19.28125 
Q 18.265625 13.09375 22.265625 9.25 
Q 26.265625 5.421875 32.8125 5.421875 
Q 39.109375 5.421875 43.09375 8.6875 
Q 47.078125 11.96875 47.078125 17.1875 
Q 47.078125 21.390625 44.609375 24.296875 
Q 42.140625 27.203125 35.0625 31.390625 
z
" id="LucidaSansUnicode-56"/>
      </defs>
      <g transform="translate(181.6375 93.635437)scale(0.1 -0.1)">
       <use xlink:href="#LucidaSansUnicode-56"/>
       <use x="63.232422" xlink:href="#LucidaSansUnicode-48"/>
       <use x="126.464844" xlink:href="#LucidaSansUnicode-48"/>
      </g>
     </g>
    </g>
    <g id="ytick_14">
     <g id="line2d_8">
      <path clip-path="url(#p585a749655)" d="M 204.107813 60.692112 
L 711.27693 60.692112 
" style="fill:none;stroke:#ffffff;stroke-linecap:round;stroke-width:0.8;"/>
     </g>
     <g id="text_16">
      <!-- 1000 -->
      <g transform="translate(175.314063 64.5468)scale(0.1 -0.1)">
       <use xlink:href="#LucidaSansUnicode-49"/>
       <use x="63.232422" xlink:href="#LucidaSansUnicode-48"/>
       <use x="126.464844" xlink:href="#LucidaSansUnicode-48"/>
       <use x="189.697266" xlink:href="#LucidaSansUnicode-48"/>
      </g>
     </g>
    </g>
    <g id="ytick_15">
     <g id="line2d_9">
      <path clip-path="url(#p585a749655)" d="M 204.107813 31.603474 
L 711.27693 31.603474 
" style="fill:none;stroke:#ffffff;stroke-linecap:round;stroke-width:0.8;"/>
     </g>
     <g id="text_17">
      <!-- 1200 -->
      <g transform="translate(175.314063 35.458162)scale(0.1 -0.1)">
       <use xlink:href="#LucidaSansUnicode-49"/>
       <use x="63.232422" xlink:href="#LucidaSansUnicode-50"/>
       <use x="126.464844" xlink:href="#LucidaSansUnicode-48"/>
       <use x="189.697266" xlink:href="#LucidaSansUnicode-48"/>
      </g>
     </g>
    </g>
    <g id="text_18">
     <!-- Intersection size -->
     <defs>
      <path d="M 9.28125 0 
L 9.28125 72.265625 
L 19.53125 72.265625 
L 19.53125 0 
z
" id="LucidaSansUnicode-73"/>
      <path d="M 9.625 0 
L 9.625 53.03125 
L 19.234375 53.03125 
L 19.234375 43.0625 
Q 26.859375 54.203125 37.890625 54.203125 
Q 44.828125 54.203125 48.90625 49.828125 
Q 52.984375 45.453125 52.984375 38.09375 
L 52.984375 0 
L 43.359375 0 
L 43.359375 34.96875 
Q 43.359375 40.875 41.625 43.390625 
Q 39.890625 45.90625 35.890625 45.90625 
Q 27.046875 45.90625 19.234375 34.328125 
L 19.234375 0 
z
" id="LucidaSansUnicode-110"/>
      <path d="M 9.625 0 
L 9.625 53.03125 
L 19.234375 53.03125 
L 19.234375 43.0625 
Q 24.953125 54.203125 35.84375 54.203125 
Q 37.3125 54.203125 38.921875 53.953125 
L 38.921875 44.96875 
Q 36.421875 45.796875 34.515625 45.796875 
Q 25.390625 45.796875 19.234375 34.96875 
L 19.234375 0 
z
" id="LucidaSansUnicode-114"/>
      <path d="M 7.671875 1.859375 
L 7.671875 10.6875 
Q 17.09375 6 24.078125 6 
Q 28.21875 6 30.953125 8.25 
Q 33.6875 10.5 33.6875 13.875 
Q 33.6875 18.796875 26.03125 22.015625 
L 20.40625 24.421875 
Q 7.953125 29.59375 7.953125 39.3125 
Q 7.953125 46.234375 12.859375 50.21875 
Q 17.78125 54.203125 26.3125 54.203125 
Q 30.765625 54.203125 37.3125 52.984375 
L 39.3125 52.59375 
L 39.3125 44.578125 
Q 31.25 46.96875 26.46875 46.96875 
Q 22.265625 46.96875 19.75 45.140625 
Q 17.234375 43.3125 17.234375 40.234375 
Q 17.234375 35.890625 24.265625 32.90625 
L 28.90625 30.953125 
Q 36.765625 27.640625 40.03125 23.953125 
Q 43.3125 20.265625 43.3125 14.75 
Q 43.3125 7.765625 37.796875 3.265625 
Q 32.28125 -1.21875 23.6875 -1.21875 
Q 17.09375 -1.21875 7.671875 1.859375 
z
" id="LucidaSansUnicode-115"/>
      <path d="M 6 0 
L 6 7.234375 
L 38.8125 45.796875 
L 7.515625 45.796875 
L 7.515625 53.03125 
L 50.6875 53.03125 
L 50.6875 45.796875 
L 17.875 7.234375 
L 51.3125 7.234375 
L 51.3125 0 
z
" id="LucidaSansUnicode-122"/>
     </defs>
     <g style="fill:#262626;" transform="translate(169.385938 147.647554)rotate(-90)scale(0.1 -0.1)">
      <use xlink:href="#LucidaSansUnicode-73"/>
      <use x="28.808594" xlink:href="#LucidaSansUnicode-110"/>
      <use x="90.869141" xlink:href="#LucidaSansUnicode-116"/>
      <use x="128.271484" xlink:href="#LucidaSansUnicode-101"/>
      <use x="183.984375" xlink:href="#LucidaSansUnicode-114"/>
      <use x="224.902344" xlink:href="#LucidaSansUnicode-115"/>
      <use x="275.878906" xlink:href="#LucidaSansUnicode-101"/>
      <use x="331.591797" xlink:href="#LucidaSansUnicode-99"/>
      <use x="382.8125" xlink:href="#LucidaSansUnicode-116"/>
      <use x="420.214844" xlink:href="#LucidaSansUnicode-105"/>
      <use x="449.121094" xlink:href="#LucidaSansUnicode-111"/>
      <use x="510.546875" xlink:href="#LucidaSansUnicode-110"/>
      <use x="572.607422" xlink:href="#LucidaSansUnicode-32"/>
      <use x="604.248047" xlink:href="#LucidaSansUnicode-115"/>
      <use x="655.224609" xlink:href="#LucidaSansUnicode-105"/>
      <use x="684.130859" xlink:href="#LucidaSansUnicode-122"/>
      <use x="741.455078" xlink:href="#LucidaSansUnicode-101"/>
     </g>
    </g>
   </g>
   <g id="patch_10">
    <path d="M 204.107813 206.135301 
L 204.107813 9.437932 
" style="fill:none;stroke:#ffffff;stroke-linecap:square;stroke-linejoin:miter;stroke-width:0.8;"/>
   </g>
   <g id="text_19">
    <!-- 1288 -->
    <g style="fill:#262626;" transform="translate(222.463438 14.909375)scale(0.1 -0.1)">
     <use xlink:href="#LucidaSansUnicode-49"/>
     <use x="63.232422" xlink:href="#LucidaSansUnicode-50"/>
     <use x="126.464844" xlink:href="#LucidaSansUnicode-56"/>
     <use x="189.697266" xlink:href="#LucidaSansUnicode-56"/>
    </g>
   </g>
   <g id="text_20">
    <!-- 1157 -->
    <defs>
     <path d="M 15.046875 0 
Q 16.453125 8.453125 19.0625 14.59375 
Q 21.6875 20.75 28.328125 31.5 
L 48.046875 63.234375 
L 10.84375 63.234375 
L 10.84375 72.265625 
L 57.234375 72.265625 
L 57.234375 63.234375 
Q 29.4375 22.265625 26.125 0 
z
" id="LucidaSansUnicode-55"/>
    </defs>
    <g style="fill:#262626;" transform="translate(254.260875 33.962433)scale(0.1 -0.1)">
     <use xlink:href="#LucidaSansUnicode-49"/>
     <use x="63.232422" xlink:href="#LucidaSansUnicode-49"/>
     <use x="126.464844" xlink:href="#LucidaSansUnicode-53"/>
     <use x="189.697266" xlink:href="#LucidaSansUnicode-55"/>
    </g>
   </g>
   <g id="text_21">
    <!-- 479 -->
    <g style="fill:#262626;" transform="translate(289.220031 132.572915)scale(0.1 -0.1)">
     <use xlink:href="#LucidaSansUnicode-52"/>
     <use x="63.232422" xlink:href="#LucidaSansUnicode-55"/>
     <use x="126.464844" xlink:href="#LucidaSansUnicode-57"/>
    </g>
   </g>
   <g id="text_22">
    <!-- 276 -->
    <g style="fill:#262626;" transform="translate(321.017468 162.097882)scale(0.1 -0.1)">
     <use xlink:href="#LucidaSansUnicode-50"/>
     <use x="63.232422" xlink:href="#LucidaSansUnicode-55"/>
     <use x="126.464844" xlink:href="#LucidaSansUnicode-54"/>
    </g>
   </g>
   <g id="text_23">
    <!-- 101 -->
    <g style="fill:#262626;" transform="translate(352.814905 187.55044)scale(0.1 -0.1)">
     <use xlink:href="#LucidaSansUnicode-49"/>
     <use x="63.232422" xlink:href="#LucidaSansUnicode-48"/>
     <use x="126.464844" xlink:href="#LucidaSansUnicode-49"/>
    </g>
   </g>
   <g id="text_24">
    <!-- 41 -->
    <g style="fill:#262626;" transform="translate(387.77406 196.277031)scale(0.1 -0.1)">
     <use xlink:href="#LucidaSansUnicode-52"/>
     <use x="63.232422" xlink:href="#LucidaSansUnicode-49"/>
    </g>
   </g>
   <g id="text_25">
    <!-- 33 -->
    <g style="fill:#262626;" transform="translate(419.571497 197.440577)scale(0.1 -0.1)">
     <use xlink:href="#LucidaSansUnicode-51"/>
     <use x="63.232422" xlink:href="#LucidaSansUnicode-51"/>
    </g>
   </g>
   <g id="text_26">
    <!-- 19 -->
    <g style="fill:#262626;" transform="translate(451.368934 199.476781)scale(0.1 -0.1)">
     <use xlink:href="#LucidaSansUnicode-49"/>
     <use x="63.232422" xlink:href="#LucidaSansUnicode-57"/>
    </g>
   </g>
   <g id="text_27">
    <!-- 18 -->
    <g style="fill:#262626;" transform="translate(483.166371 199.622225)scale(0.1 -0.1)">
     <use xlink:href="#LucidaSansUnicode-49"/>
     <use x="63.232422" xlink:href="#LucidaSansUnicode-56"/>
    </g>
   </g>
   <g id="text_28">
    <!-- 12 -->
    <g style="fill:#262626;" transform="translate(514.963808 200.494884)scale(0.1 -0.1)">
     <use xlink:href="#LucidaSansUnicode-49"/>
     <use x="63.232422" xlink:href="#LucidaSansUnicode-50"/>
    </g>
   </g>
   <g id="text_29">
    <!-- 5 -->
    <g style="fill:#262626;" transform="translate(549.922963 201.512986)scale(0.1 -0.1)">
     <use xlink:href="#LucidaSansUnicode-53"/>
    </g>
   </g>
   <g id="text_30">
    <!-- 4 -->
    <g style="fill:#262626;" transform="translate(581.7204 201.658429)scale(0.1 -0.1)">
     <use xlink:href="#LucidaSansUnicode-52"/>
    </g>
   </g>
   <g id="text_31">
    <!-- 4 -->
    <g style="fill:#262626;" transform="translate(613.517837 201.658429)scale(0.1 -0.1)">
     <use xlink:href="#LucidaSansUnicode-52"/>
    </g>
   </g>
   <g id="text_32">
    <!-- 3 -->
    <g style="fill:#262626;" transform="translate(645.315274 201.803873)scale(0.1 -0.1)">
     <use xlink:href="#LucidaSansUnicode-51"/>
    </g>
   </g>
   <g id="text_33">
    <!-- 2 -->
    <g style="fill:#262626;" transform="translate(677.11271 201.949316)scale(0.1 -0.1)">
     <use xlink:href="#LucidaSansUnicode-50"/>
    </g>
   </g>
   <g id="patch_11">
    <path clip-path="url(#p585a749655)" d="M 227.160954 206.135301 
L 243.059673 206.135301 
L 243.059673 18.804474 
L 227.160954 18.804474 
z
" style="fill:#738fc1;stroke:#ffffff;stroke-linejoin:miter;"/>
   </g>
   <g id="patch_12">
    <path clip-path="url(#p585a749655)" d="M 258.958391 206.135301 
L 274.857109 206.135301 
L 274.857109 37.857531 
L 258.958391 37.857531 
z
" style="fill:#738fc1;stroke:#ffffff;stroke-linejoin:miter;"/>
   </g>
   <g id="patch_13">
    <path clip-path="url(#p585a749655)" d="M 290.755828 206.135301 
L 306.654546 206.135301 
L 306.654546 136.468013 
L 290.755828 136.468013 
z
" style="fill:#738fc1;stroke:#ffffff;stroke-linejoin:miter;"/>
   </g>
   <g id="patch_14">
    <path clip-path="url(#p585a749655)" d="M 322.553265 206.135301 
L 338.451983 206.135301 
L 338.451983 165.992981 
L 322.553265 165.992981 
z
" style="fill:#738fc1;stroke:#ffffff;stroke-linejoin:miter;"/>
   </g>
   <g id="patch_15">
    <path clip-path="url(#p585a749655)" d="M 354.350702 206.135301 
L 370.24942 206.135301 
L 370.24942 191.445539 
L 354.350702 191.445539 
z
" style="fill:#738fc1;stroke:#ffffff;stroke-linejoin:miter;"/>
   </g>
   <g id="patch_16">
    <path clip-path="url(#p585a749655)" d="M 386.148138 206.135301 
L 402.046857 206.135301 
L 402.046857 200.17213 
L 386.148138 200.17213 
z
" style="fill:#738fc1;stroke:#ffffff;stroke-linejoin:miter;"/>
   </g>
   <g id="patch_17">
    <path clip-path="url(#p585a749655)" d="M 417.945575 206.135301 
L 433.844294 206.135301 
L 433.844294 201.335676 
L 417.945575 201.335676 
z
" style="fill:#738fc1;stroke:#ffffff;stroke-linejoin:miter;"/>
   </g>
   <g id="patch_18">
    <path clip-path="url(#p585a749655)" d="M 449.743012 206.135301 
L 465.641731 206.135301 
L 465.641731 203.37188 
L 449.743012 203.37188 
z
" style="fill:#738fc1;stroke:#ffffff;stroke-linejoin:miter;"/>
   </g>
   <g id="patch_19">
    <path clip-path="url(#p585a749655)" d="M 481.540449 206.135301 
L 497.439167 206.135301 
L 497.439167 203.517323 
L 481.540449 203.517323 
z
" style="fill:#738fc1;stroke:#ffffff;stroke-linejoin:miter;"/>
   </g>
   <g id="patch_20">
    <path clip-path="url(#p585a749655)" d="M 513.337886 206.135301 
L 529.236604 206.135301 
L 529.236604 204.389982 
L 513.337886 204.389982 
z
" style="fill:#738fc1;stroke:#ffffff;stroke-linejoin:miter;"/>
   </g>
   <g id="patch_21">
    <path clip-path="url(#p585a749655)" d="M 545.135323 206.135301 
L 561.034041 206.135301 
L 561.034041 205.408085 
L 545.135323 205.408085 
z
" style="fill:#738fc1;stroke:#ffffff;stroke-linejoin:miter;"/>
   </g>
   <g id="patch_22">
    <path clip-path="url(#p585a749655)" d="M 576.932759 206.135301 
L 592.831478 206.135301 
L 592.831478 205.553528 
L 576.932759 205.553528 
z
" style="fill:#738fc1;stroke:#ffffff;stroke-linejoin:miter;"/>
   </g>
   <g id="patch_23">
    <path clip-path="url(#p585a749655)" d="M 608.730196 206.135301 
L 624.628915 206.135301 
L 624.628915 205.553528 
L 608.730196 205.553528 
z
" style="fill:#738fc1;stroke:#ffffff;stroke-linejoin:miter;"/>
   </g>
   <g id="patch_24">
    <path clip-path="url(#p585a749655)" d="M 640.527633 206.135301 
L 656.426352 206.135301 
L 656.426352 205.698971 
L 640.527633 205.698971 
z
" style="fill:#738fc1;stroke:#ffffff;stroke-linejoin:miter;"/>
   </g>
   <g id="patch_25">
    <path clip-path="url(#p585a749655)" d="M 672.32507 206.135301 
L 688.223788 206.135301 
L 688.223788 205.844414 
L 672.32507 205.844414 
z
" style="fill:#738fc1;stroke:#ffffff;stroke-linejoin:miter;"/>
   </g>
  </g>
 </g>
 <defs>
  <clipPath id="p0d631cbec8">
   <rect height="125.171053" width="678.125" x="33.15193" y="224.01688"/>
  </clipPath>
  <clipPath id="pf1153ce116">
   <rect height="125.171053" width="507.169118" x="204.107813" y="224.01688"/>
  </clipPath>
  <clipPath id="pda4169b561">
   <rect height="125.171053" width="62.683824" x="33.15193" y="224.01688"/>
  </clipPath>
  <clipPath id="p585a749655">
   <rect height="196.697368" width="507.169118" x="204.107813" y="9.437932"/>
  </clipPath>
 </defs>
</svg>
