<?xml version="1.0" encoding="utf-8" standalone="no"?>
<!DOCTYPE svg PUBLIC "-//W3C//DTD SVG 1.1//EN"
  "http://www.w3.org/Graphics/SVG/1.1/DTD/svg11.dtd">
<!-- Created with matplotlib (https://matplotlib.org/) -->
<svg height="169.365pt" version="1.1" viewBox="0 0 242.766562 169.365" width="242.766562pt" xmlns="http://www.w3.org/2000/svg" xmlns:xlink="http://www.w3.org/1999/xlink">
 <defs>
  <style type="text/css">
*{stroke-linecap:butt;stroke-linejoin:round;}
  </style>
 </defs>
 <g id="figure_1">
  <g id="patch_1">
   <path d="M 0 169.365 
L 242.766562 169.365 
L 242.766562 0 
L 0 0 
z
" style="fill:#ffffff;"/>
  </g>
  <g id="axes_1">
   <g id="patch_2">
    <path d="M 30.486563 143.1 
L 197.886562 143.1 
L 197.886562 7.2 
L 30.486563 7.2 
z
" style="fill:#e3dcd0;"/>
   </g>
   <g id="matplotlib.axis_1">
    <g id="xtick_1">
     <g id="text_1">
      <!-- $\mathdefault{10^{4}}$ -->
      <defs>
       <path d="M 26.171875 0 
L 26.171875 65.046875 
L 14.75 65.046875 
L 14.75 71.09375 
L 35.84375 72.90625 
L 35.84375 0 
z
" id="LucidaSansUnicode-49"/>
       <path d="M 31.640625 -1.8125 
Q 20.265625 -1.8125 13.296875 8.609375 
Q 6.34375 19.046875 6.34375 36.140625 
Q 6.34375 53.21875 13.296875 63.640625 
Q 20.265625 74.078125 31.640625 74.078125 
Q 43.0625 74.078125 50 63.671875 
Q 56.9375 53.265625 56.9375 36.140625 
Q 56.9375 19.046875 50 8.609375 
Q 43.0625 -1.8125 31.640625 -1.8125 
z
M 31.640625 5.421875 
Q 46.734375 5.421875 46.734375 36.140625 
Q 46.734375 66.84375 31.640625 66.84375 
Q 16.609375 66.84375 16.609375 36.140625 
Q 16.609375 5.421875 31.640625 5.421875 
z
" id="LucidaSansUnicode-48"/>
       <path d="M 37.640625 0 
L 37.640625 20.453125 
L 5.125 20.453125 
L 5.125 27.734375 
L 37.640625 72.265625 
L 46.6875 72.265625 
L 46.6875 28.328125 
L 56.34375 28.328125 
L 56.34375 20.453125 
L 46.6875 20.453125 
L 46.6875 0 
z
M 14.546875 28.328125 
L 38.28125 28.328125 
L 38.28125 60.453125 
z
" id="LucidaSansUnicode-52"/>
      </defs>
      <g transform="translate(63.282017 151.225625)scale(0.06 -0.06)">
       <use transform="translate(0 0.292188)" xlink:href="#LucidaSansUnicode-49"/>
       <use transform="translate(63.232422 0.292188)" xlink:href="#LucidaSansUnicode-48"/>
       <use transform="translate(127.392891 37.414063)scale(0.7)" xlink:href="#LucidaSansUnicode-52"/>
      </g>
     </g>
    </g>
    <g id="xtick_2">
     <g id="text_2">
      <!-- $\mathdefault{10^{5}}$ -->
      <defs>
       <path d="M 12.15625 -0.296875 
L 12.15625 8.296875 
Q 19.34375 5.421875 25.828125 5.421875 
Q 32.953125 5.421875 37.03125 9.609375 
Q 41.109375 13.8125 41.109375 21.1875 
Q 41.109375 29.109375 35.34375 33.28125 
Q 29.59375 37.453125 18.703125 37.453125 
Q 16.15625 37.453125 13.375 37.109375 
L 13.375 72.265625 
L 49.953125 72.265625 
L 49.953125 63.875 
L 21.828125 63.875 
L 21.828125 44.828125 
Q 35.75 44.828125 43.5625 38.421875 
Q 51.375 32.03125 51.375 20.703125 
Q 51.375 10.15625 44.265625 4.171875 
Q 37.15625 -1.8125 24.65625 -1.8125 
Q 19.09375 -1.8125 12.15625 -0.296875 
z
" id="LucidaSansUnicode-53"/>
      </defs>
      <g transform="translate(139.372926 151.225625)scale(0.06 -0.06)">
       <use transform="translate(0 0.292188)" xlink:href="#LucidaSansUnicode-49"/>
       <use transform="translate(63.232422 0.292188)" xlink:href="#LucidaSansUnicode-48"/>
       <use transform="translate(127.392891 37.414063)scale(0.7)" xlink:href="#LucidaSansUnicode-53"/>
      </g>
     </g>
    </g>
    <g id="xtick_3"/>
    <g id="xtick_4"/>
    <g id="xtick_5"/>
    <g id="xtick_6"/>
    <g id="xtick_7"/>
    <g id="xtick_8"/>
    <g id="xtick_9"/>
    <g id="xtick_10"/>
    <g id="xtick_11"/>
    <g id="xtick_12"/>
    <g id="xtick_13"/>
    <g id="xtick_14"/>
    <g id="xtick_15"/>
    <g id="xtick_16"/>
    <g id="xtick_17"/>
    <g id="xtick_18"/>
    <g id="xtick_19"/>
    <g id="xtick_20"/>
    <g id="text_3">
     <!-- ribosomes per cell -->
     <defs>
      <path d="M 9.625 0 
L 9.625 53.03125 
L 19.234375 53.03125 
L 19.234375 43.0625 
Q 24.953125 54.203125 35.84375 54.203125 
Q 37.3125 54.203125 38.921875 53.953125 
L 38.921875 44.96875 
Q 36.421875 45.796875 34.515625 45.796875 
Q 25.390625 45.796875 19.234375 34.96875 
L 19.234375 0 
z
" id="LucidaSansUnicode-114"/>
      <path d="M 9.625 0 
L 9.625 53.03125 
L 19.234375 53.03125 
L 19.234375 0 
z
M 9.625 62.640625 
L 9.625 72.265625 
L 19.234375 72.265625 
L 19.234375 62.640625 
z
" id="LucidaSansUnicode-105"/>
      <path d="M 9.625 -0.59375 
L 9.625 77.09375 
L 19.234375 77.09375 
L 19.234375 43.0625 
Q 25.140625 54.203125 36.96875 54.203125 
Q 46.53125 54.203125 52.015625 47.21875 
Q 57.515625 40.234375 57.515625 28.125 
Q 57.515625 14.9375 51.28125 6.859375 
Q 45.0625 -1.21875 34.90625 -1.21875 
Q 25.484375 -1.21875 19.234375 6 
L 18.0625 -0.59375 
z
M 19.234375 12.640625 
Q 26.65625 6 33.40625 6 
Q 40.046875 6 43.65625 11.546875 
Q 47.265625 17.09375 47.265625 27.15625 
Q 47.265625 45.796875 34.96875 45.796875 
Q 26.90625 45.796875 19.234375 37.0625 
z
" id="LucidaSansUnicode-98"/>
      <path d="M 30.71875 -1.21875 
Q 19.046875 -1.21875 12.234375 6.25 
Q 5.421875 13.71875 5.421875 26.515625 
Q 5.421875 39.3125 12.234375 46.75 
Q 19.046875 54.203125 30.71875 54.203125 
Q 42.390625 54.203125 49.1875 46.75 
Q 56 39.3125 56 26.515625 
Q 56 13.71875 49.1875 6.25 
Q 42.390625 -1.21875 30.71875 -1.21875 
z
M 30.71875 6 
Q 37.890625 6 41.84375 11.375 
Q 45.796875 16.75 45.796875 26.515625 
Q 45.796875 36.28125 41.84375 41.625 
Q 37.890625 46.96875 30.71875 46.96875 
Q 23.53125 46.96875 19.59375 41.625 
Q 15.671875 36.28125 15.671875 26.515625 
Q 15.671875 16.75 19.59375 11.375 
Q 23.53125 6 30.71875 6 
z
" id="LucidaSansUnicode-111"/>
      <path d="M 7.671875 1.859375 
L 7.671875 10.6875 
Q 17.09375 6 24.078125 6 
Q 28.21875 6 30.953125 8.25 
Q 33.6875 10.5 33.6875 13.875 
Q 33.6875 18.796875 26.03125 22.015625 
L 20.40625 24.421875 
Q 7.953125 29.59375 7.953125 39.3125 
Q 7.953125 46.234375 12.859375 50.21875 
Q 17.78125 54.203125 26.3125 54.203125 
Q 30.765625 54.203125 37.3125 52.984375 
L 39.3125 52.59375 
L 39.3125 44.578125 
Q 31.25 46.96875 26.46875 46.96875 
Q 22.265625 46.96875 19.75 45.140625 
Q 17.234375 43.3125 17.234375 40.234375 
Q 17.234375 35.890625 24.265625 32.90625 
L 28.90625 30.953125 
Q 36.765625 27.640625 40.03125 23.953125 
Q 43.3125 20.265625 43.3125 14.75 
Q 43.3125 7.765625 37.796875 3.265625 
Q 32.28125 -1.21875 23.6875 -1.21875 
Q 17.09375 -1.21875 7.671875 1.859375 
z
" id="LucidaSansUnicode-115"/>
      <path d="M 9.625 0 
L 9.625 53.03125 
L 19.234375 53.03125 
L 19.234375 43.0625 
Q 26.265625 54.203125 37.3125 54.203125 
Q 47.953125 54.203125 51.8125 43.0625 
Q 58.640625 54.25 69.578125 54.25 
Q 76.5625 54.25 80.4375 50.125 
Q 84.328125 46 84.328125 38.578125 
L 84.328125 0 
L 74.65625 0 
L 74.65625 37.0625 
Q 74.65625 46.140625 67.484375 46.140625 
Q 60.015625 46.140625 51.8125 35.546875 
L 51.8125 0 
L 42.140625 0 
L 42.140625 37.0625 
Q 42.140625 46.1875 34.8125 46.1875 
Q 27.546875 46.1875 19.234375 35.546875 
L 19.234375 0 
z
" id="LucidaSansUnicode-109"/>
      <path d="M 48.484375 1.703125 
Q 38.8125 -1.21875 31.9375 -1.21875 
Q 20.171875 -1.21875 12.796875 6.5625 
Q 5.421875 14.359375 5.421875 26.765625 
Q 5.421875 38.8125 11.9375 46.53125 
Q 18.453125 54.25 28.609375 54.25 
Q 38.234375 54.25 43.484375 47.390625 
Q 48.734375 40.53125 48.734375 27.9375 
L 48.6875 25 
L 15.234375 25 
Q 17.328125 6.109375 33.734375 6.109375 
Q 39.75 6.109375 48.484375 9.328125 
z
M 15.671875 32.234375 
L 39.0625 32.234375 
Q 39.0625 47.015625 28.03125 47.015625 
Q 16.9375 47.015625 15.671875 32.234375 
z
" id="LucidaSansUnicode-101"/>
      <path id="LucidaSansUnicode-32"/>
      <path d="M 9.625 -19.28125 
L 9.625 53.03125 
L 19.234375 53.03125 
L 19.234375 43.0625 
Q 25.140625 54.203125 36.96875 54.203125 
Q 46.53125 54.203125 52.015625 47.21875 
Q 57.515625 40.234375 57.515625 28.125 
Q 57.515625 14.9375 51.28125 6.859375 
Q 45.0625 -1.21875 34.90625 -1.21875 
Q 25.484375 -1.21875 19.234375 6 
L 19.234375 -19.28125 
z
M 19.234375 12.640625 
Q 26.65625 6 33.40625 6 
Q 40.046875 6 43.65625 11.546875 
Q 47.265625 17.09375 47.265625 27.15625 
Q 47.265625 45.796875 34.96875 45.796875 
Q 26.90625 45.796875 19.234375 37.0625 
z
" id="LucidaSansUnicode-112"/>
      <path d="M 46.4375 1.609375 
Q 37.109375 -1.21875 30.328125 -1.21875 
Q 19.578125 -1.21875 12.5 6.734375 
Q 5.421875 14.703125 5.421875 26.8125 
Q 5.421875 39.75 12.421875 46.96875 
Q 19.4375 54.203125 31.984375 54.203125 
Q 38.1875 54.203125 45.84375 52.484375 
L 45.84375 44.4375 
Q 37.703125 46.828125 32.5625 46.828125 
Q 25.140625 46.828125 20.703125 41.28125 
Q 16.265625 35.75 16.265625 26.515625 
Q 16.265625 17.578125 20.84375 12.0625 
Q 25.4375 6.546875 32.859375 6.546875 
Q 39.453125 6.546875 46.4375 9.90625 
z
" id="LucidaSansUnicode-99"/>
      <path d="M 9.625 0 
L 9.625 77.09375 
L 19.234375 77.09375 
L 19.234375 0 
z
" id="LucidaSansUnicode-108"/>
     </defs>
     <g style="fill:#262626;" transform="translate(87.358594 161.008125)scale(0.06 -0.06)">
      <use xlink:href="#LucidaSansUnicode-114"/>
      <use x="40.917969" xlink:href="#LucidaSansUnicode-105"/>
      <use x="69.824219" xlink:href="#LucidaSansUnicode-98"/>
      <use x="132.763672" xlink:href="#LucidaSansUnicode-111"/>
      <use x="194.189453" xlink:href="#LucidaSansUnicode-115"/>
      <use x="245.166016" xlink:href="#LucidaSansUnicode-111"/>
      <use x="306.591797" xlink:href="#LucidaSansUnicode-109"/>
      <use x="399.951172" xlink:href="#LucidaSansUnicode-101"/>
      <use x="455.664062" xlink:href="#LucidaSansUnicode-115"/>
      <use x="506.640625" xlink:href="#LucidaSansUnicode-32"/>
      <use x="538.28125" xlink:href="#LucidaSansUnicode-112"/>
      <use x="601.220703" xlink:href="#LucidaSansUnicode-101"/>
      <use x="656.933594" xlink:href="#LucidaSansUnicode-114"/>
      <use x="697.851562" xlink:href="#LucidaSansUnicode-32"/>
      <use x="729.492188" xlink:href="#LucidaSansUnicode-99"/>
      <use x="780.712891" xlink:href="#LucidaSansUnicode-101"/>
      <use x="836.425781" xlink:href="#LucidaSansUnicode-108"/>
      <use x="865.332031" xlink:href="#LucidaSansUnicode-108"/>
     </g>
    </g>
   </g>
   <g id="matplotlib.axis_2">
    <g id="ytick_1">
     <g id="text_4">
      <!-- 0.0 -->
      <defs>
       <path d="M 9.765625 0 
L 9.765625 12.0625 
L 21.828125 12.0625 
L 21.828125 0 
z
" id="LucidaSansUnicode-46"/>
      </defs>
      <g transform="translate(17.5 139.245219)scale(0.06 -0.06)">
       <use xlink:href="#LucidaSansUnicode-48"/>
       <use x="63.232422" xlink:href="#LucidaSansUnicode-46"/>
       <use x="94.873047" xlink:href="#LucidaSansUnicode-48"/>
      </g>
     </g>
    </g>
    <g id="ytick_2">
     <g id="text_5">
      <!-- 0.5 -->
      <g transform="translate(17.5 110.978181)scale(0.06 -0.06)">
       <use xlink:href="#LucidaSansUnicode-48"/>
       <use x="63.232422" xlink:href="#LucidaSansUnicode-46"/>
       <use x="94.873047" xlink:href="#LucidaSansUnicode-53"/>
      </g>
     </g>
    </g>
    <g id="ytick_3">
     <g id="text_6">
      <!-- 1.0 -->
      <g transform="translate(17.5 82.711144)scale(0.06 -0.06)">
       <use xlink:href="#LucidaSansUnicode-49"/>
       <use x="63.232422" xlink:href="#LucidaSansUnicode-46"/>
       <use x="94.873047" xlink:href="#LucidaSansUnicode-48"/>
      </g>
     </g>
    </g>
    <g id="ytick_4">
     <g id="text_7">
      <!-- 1.5 -->
      <g transform="translate(17.5 54.444106)scale(0.06 -0.06)">
       <use xlink:href="#LucidaSansUnicode-49"/>
       <use x="63.232422" xlink:href="#LucidaSansUnicode-46"/>
       <use x="94.873047" xlink:href="#LucidaSansUnicode-53"/>
      </g>
     </g>
    </g>
    <g id="ytick_5">
     <g id="text_8">
      <!-- 2.0 -->
      <defs>
       <path d="M 8.296875 0 
L 8.296875 8.453125 
Q 12.5 18.265625 25.296875 29.828125 
L 30.8125 34.765625 
Q 41.453125 44.390625 41.453125 53.859375 
Q 41.453125 59.90625 37.8125 63.375 
Q 34.1875 66.84375 27.78125 66.84375 
Q 20.3125 66.84375 10.109375 61.03125 
L 10.109375 69.53125 
Q 19.734375 74.078125 29.25 74.078125 
Q 39.40625 74.078125 45.53125 68.609375 
Q 51.65625 63.140625 51.65625 54.109375 
Q 51.65625 47.609375 48.546875 42.578125 
Q 45.453125 37.546875 37.015625 30.375 
L 33.296875 27.203125 
Q 21.734375 17.390625 19.921875 8.453125 
L 51.3125 8.453125 
L 51.3125 0 
z
" id="LucidaSansUnicode-50"/>
      </defs>
      <g transform="translate(17.5 26.177068)scale(0.06 -0.06)">
       <use xlink:href="#LucidaSansUnicode-50"/>
       <use x="63.232422" xlink:href="#LucidaSansUnicode-46"/>
       <use x="94.873047" xlink:href="#LucidaSansUnicode-48"/>
      </g>
     </g>
    </g>
    <g id="text_9">
     <!-- growth rate [hr$^{-1}$] -->
     <defs>
      <path d="M 9.8125 -17.625 
L 10.9375 -9.28125 
Q 19.28125 -13.234375 27.4375 -13.234375 
Q 43.65625 -13.234375 43.65625 4 
L 43.65625 12.359375 
Q 41.15625 7.078125 36.546875 4.140625 
Q 31.9375 1.21875 26.265625 1.21875 
Q 16.65625 1.21875 11.03125 8.125 
Q 5.421875 15.046875 5.421875 26.859375 
Q 5.421875 38.96875 11.8125 46.578125 
Q 18.21875 54.203125 28.375 54.203125 
Q 37.25 54.203125 43.65625 46.96875 
L 43.65625 53.03125 
L 53.328125 53.03125 
L 53.328125 14.453125 
Q 53.328125 2 52.03125 -3.984375 
Q 50.734375 -9.96875 47.171875 -13.765625 
Q 40.875 -20.453125 27.484375 -20.453125 
Q 18.3125 -20.453125 9.8125 -17.625 
z
M 43.65625 18.359375 
L 43.65625 40.375 
Q 37.3125 46.96875 29.828125 46.96875 
Q 23.1875 46.96875 19.421875 41.640625 
Q 15.671875 36.328125 15.671875 26.90625 
Q 15.671875 9.625 27.9375 9.625 
Q 36.28125 9.625 43.65625 18.359375 
z
" id="LucidaSansUnicode-103"/>
      <path d="M 15.765625 0 
L 0.59375 53.03125 
L 10.015625 53.03125 
L 21.625 11.96875 
L 34.1875 53.03125 
L 43.796875 53.03125 
L 54.78125 11.96875 
L 68.109375 53.03125 
L 76.375 53.03125 
L 59.078125 0 
L 49.421875 0 
L 38.1875 41.0625 
L 25.484375 0 
z
" id="LucidaSansUnicode-119"/>
      <path d="M 33.25 0 
Q 28.8125 -1.21875 25.53125 -1.21875 
Q 18.21875 -1.21875 14.109375 2.96875 
Q 10.015625 7.171875 10.015625 14.65625 
L 10.015625 45.796875 
L 3.375 45.796875 
L 3.375 53.03125 
L 10.015625 53.03125 
L 10.015625 62.640625 
L 19.625 63.578125 
L 19.625 53.03125 
L 33.5 53.03125 
L 33.5 45.796875 
L 19.625 45.796875 
L 19.625 16.40625 
Q 19.625 6 28.609375 6 
Q 30.515625 6 33.25 6.640625 
z
" id="LucidaSansUnicode-116"/>
      <path d="M 9.625 0 
L 9.625 77.09375 
L 19.234375 77.09375 
L 19.234375 43.0625 
Q 26.859375 54.203125 37.890625 54.203125 
Q 44.828125 54.203125 48.90625 49.828125 
Q 52.984375 45.453125 52.984375 38.09375 
L 52.984375 0 
L 43.359375 0 
L 43.359375 34.96875 
Q 43.359375 40.875 41.625 43.390625 
Q 39.890625 45.90625 35.890625 45.90625 
Q 27.046875 45.90625 19.234375 34.328125 
L 19.234375 0 
z
" id="LucidaSansUnicode-104"/>
      <path d="M 36.96875 6.734375 
Q 28.328125 -1.21875 20.3125 -1.21875 
Q 13.71875 -1.21875 9.375 2.90625 
Q 5.03125 7.03125 5.03125 13.328125 
Q 5.03125 22.015625 12.328125 26.671875 
Q 19.625 31.34375 33.296875 31.34375 
L 35.546875 31.34375 
L 35.546875 37.75 
Q 35.546875 46.96875 25.921875 46.96875 
Q 18.453125 46.96875 9.625 42.28125 
L 9.625 50.25 
Q 19.34375 54.203125 27.9375 54.203125 
Q 36.765625 54.203125 40.96875 50.171875 
Q 45.171875 46.140625 45.171875 37.75 
L 45.171875 13.71875 
Q 45.171875 5.46875 50.25 5.46875 
Q 50.875 5.46875 52.09375 5.671875 
L 52.78125 0.34375 
Q 49.515625 -1.21875 45.5625 -1.21875 
Q 38.8125 -1.21875 36.96875 6.734375 
z
M 35.546875 11.96875 
L 35.546875 25.6875 
L 32.46875 25.78125 
Q 24.46875 25.78125 19.5625 22.796875 
Q 14.65625 19.828125 14.65625 14.890625 
Q 14.65625 11.421875 17.09375 9.03125 
Q 19.53125 6.640625 23.046875 6.640625 
Q 29.046875 6.640625 35.546875 11.96875 
z
" id="LucidaSansUnicode-97"/>
      <path d="M 9.625 -14.453125 
L 9.625 77.09375 
L 28.90625 77.09375 
L 28.90625 69.875 
L 18.0625 69.875 
L 18.0625 -7.234375 
L 28.90625 -7.234375 
L 28.90625 -14.453125 
z
" id="LucidaSansUnicode-91"/>
      <path d="M 62.09375 22 
L 6.40625 22 
L 6.40625 28.59375 
L 62.09375 28.59375 
z
" id="STIXGeneral-Regular-8722"/>
      <path d="M 30.203125 0 
L 22.296875 0 
L 22.296875 57 
Q 20.09375 56 15.75 53.75 
Q 11.40625 51.5 10.796875 51.203125 
L 10.796875 58.5 
L 28.796875 67.703125 
L 30.203125 67.203125 
z
" id="STIXGeneral-Regular-120803"/>
      <path d="M 22.90625 77.09375 
L 22.90625 -14.453125 
L 3.609375 -14.453125 
L 3.609375 -7.234375 
L 14.453125 -7.234375 
L 14.453125 69.875 
L 3.609375 69.875 
L 3.609375 77.09375 
z
" id="LucidaSansUnicode-93"/>
     </defs>
     <g style="fill:#262626;" transform="translate(12.24 100.59)rotate(-90)scale(0.06 -0.06)">
      <use transform="translate(0 0.370312)" xlink:href="#LucidaSansUnicode-103"/>
      <use transform="translate(62.353516 0.370312)" xlink:href="#LucidaSansUnicode-114"/>
      <use transform="translate(103.271484 0.370312)" xlink:href="#LucidaSansUnicode-111"/>
      <use transform="translate(164.697266 0.370312)" xlink:href="#LucidaSansUnicode-119"/>
      <use transform="translate(241.748047 0.370312)" xlink:href="#LucidaSansUnicode-116"/>
      <use transform="translate(279.150391 0.370312)" xlink:href="#LucidaSansUnicode-104"/>
      <use transform="translate(341.210938 0.370312)" xlink:href="#LucidaSansUnicode-32"/>
      <use transform="translate(372.851562 0.370312)" xlink:href="#LucidaSansUnicode-114"/>
      <use transform="translate(413.769531 0.370312)" xlink:href="#LucidaSansUnicode-97"/>
      <use transform="translate(468.994141 0.370312)" xlink:href="#LucidaSansUnicode-116"/>
      <use transform="translate(506.396484 0.370312)" xlink:href="#LucidaSansUnicode-101"/>
      <use transform="translate(562.109375 0.370312)" xlink:href="#LucidaSansUnicode-32"/>
      <use transform="translate(593.75 0.370312)" xlink:href="#LucidaSansUnicode-91"/>
      <use transform="translate(626.269531 0.370312)" xlink:href="#LucidaSansUnicode-104"/>
      <use transform="translate(688.330078 0.370312)" xlink:href="#LucidaSansUnicode-114"/>
      <use transform="translate(730.040742 36.607813)scale(0.7)" xlink:href="#STIXGeneral-Regular-8722"/>
      <use transform="translate(777.990732 36.607813)scale(0.7)" xlink:href="#STIXGeneral-Regular-120803"/>
      <use transform="translate(815.255565 0.370312)" xlink:href="#LucidaSansUnicode-93"/>
     </g>
    </g>
   </g>
   <g id="line2d_1">
    <path clip-path="url(#p33765724b4)" d="M 30.486562 136.506213 
L 70.864452 136.753345 
L 133.954904 136.888728 
L 197.886563 136.922727 
L 197.886563 136.922727 
" style="fill:none;stroke:#481f70;stroke-linecap:round;"/>
   </g>
   <g id="line2d_2">
    <path clip-path="url(#p33765724b4)" d="M 30.486562 135.702435 
L 55.722743 136.196474 
L 85.164954 136.54161 
L 125.542844 136.773595 
L 191.156914 136.898167 
L 197.886563 136.903326 
L 197.886563 136.903326 
" style="fill:none;stroke:#443983;stroke-linecap:round;"/>
   </g>
   <g id="line2d_3">
    <path clip-path="url(#p33765724b4)" d="M 30.486562 133.630849 
L 54.881537 134.787561 
L 74.229276 135.47752 
L 95.259427 136.002093 
L 120.495608 136.399641 
L 153.302643 136.680423 
L 197.886563 136.845049 
L 197.886563 136.845049 
" style="fill:none;stroke:#3b528b;stroke-linecap:round;"/>
   </g>
   <g id="line2d_4">
    <path clip-path="url(#p33765724b4)" d="M 30.486562 129.441038 
L 42.263447 130.261715 
L 91.894603 134.031741 
L 107.877517 134.853346 
L 124.701638 135.490907 
L 144.049377 135.999359 
L 167.603145 136.391421 
L 197.886563 136.670073 
L 197.886563 136.670073 
" style="fill:none;stroke:#31688e;stroke-linecap:round;"/>
   </g>
   <g id="line2d_5">
    <path clip-path="url(#p33765724b4)" d="M 30.486562 124.039691 
L 38.057417 123.954457 
L 44.787065 124.08952 
L 52.357919 124.478909 
L 59.928774 125.096773 
L 69.18204 126.09657 
L 81.80013 127.71305 
L 104.512693 130.641887 
L 117.130784 132.019159 
L 128.907668 133.087696 
L 141.525758 134.009412 
L 154.985055 134.77138 
L 170.126764 135.408166 
L 187.79209 135.928613 
L 197.886563 136.145432 
L 197.886563 136.145432 
" style="fill:none;stroke:#287c8e;stroke-linecap:round;"/>
   </g>
   <g id="line2d_6">
    <path clip-path="url(#p33765724b4)" d="M 30.486562 120.043182 
L 40.581035 118.515106 
L 48.151889 117.567076 
L 54.881537 116.937859 
L 60.76998 116.595671 
L 66.658422 116.478521 
L 72.546864 116.605002 
L 78.435306 116.980085 
L 84.323748 117.593462 
L 90.212191 118.420116 
L 96.941839 119.57827 
L 106.195105 121.423493 
L 135.637316 127.499937 
L 145.731789 129.240572 
L 154.985055 130.613663 
L 165.079527 131.875109 
L 175.174 132.9121 
L 186.109678 133.816501 
L 197.886563 134.578851 
L 197.886563 134.578851 
" style="fill:none;stroke:#21918c;stroke-linecap:round;"/>
   </g>
   <g id="line2d_7">
    <path clip-path="url(#p33765724b4)" d="M 30.486562 118.125456 
L 42.263447 115.115758 
L 66.658422 108.791475 
L 73.38807 107.306044 
L 79.276512 106.219159 
L 84.323748 105.494429 
L 89.370985 104.999516 
L 93.577015 104.7857 
L 97.783045 104.767614 
L 101.989075 104.953988 
L 106.195105 105.347299 
L 110.401135 105.943223 
L 115.448372 106.909645 
L 120.495608 108.120498 
L 126.38405 109.786864 
L 133.113698 111.93264 
L 144.890583 115.973169 
L 156.667467 119.93624 
L 165.079527 122.527544 
L 172.650382 124.628293 
L 180.221236 126.49308 
L 187.79209 128.124058 
L 195.362944 129.534355 
L 197.886563 129.958616 
L 197.886563 129.958616 
" style="fill:none;stroke:#20a486;stroke-linecap:round;"/>
   </g>
   <g id="line2d_8">
    <path clip-path="url(#p33765724b4)" d="M 30.486562 117.391298 
L 38.898623 114.892123 
L 46.469477 112.420758 
L 54.881537 109.431105 
L 63.293598 106.205043 
L 73.38807 102.08963 
L 94.418221 93.430472 
L 100.306663 91.276613 
L 105.353899 89.646548 
L 109.559929 88.48864 
L 113.765959 87.552552 
L 117.97199 86.873873 
L 121.336814 86.537886 
L 124.701638 86.400815 
L 128.066462 86.473043 
L 131.431286 86.760989 
L 134.79611 87.266558 
L 138.160934 87.986795 
L 141.525758 88.913804 
L 144.890583 90.034946 
L 149.096613 91.683282 
L 153.302643 93.567769 
L 158.349879 96.075428 
L 165.079527 99.697743 
L 185.268472 110.78751 
L 191.99812 114.135208 
L 197.886563 116.828256 
L 197.886563 116.828256 
" style="fill:none;stroke:#35b779;stroke-linecap:round;"/>
   </g>
   <g id="line2d_9">
    <path clip-path="url(#p33765724b4)" d="M 30.486562 117.134665 
L 38.057417 114.777736 
L 44.787065 112.461341 
L 51.516713 109.920371 
L 58.246361 107.140248 
L 64.97601 104.108517 
L 71.705658 100.816416 
L 78.435306 97.261037 
L 85.164954 93.448227 
L 92.735809 88.874622 
L 101.147869 83.504004 
L 124.701638 68.230988 
L 129.748874 65.333021 
L 133.954904 63.16118 
L 137.319728 61.62639 
L 140.684552 60.306464 
L 144.049377 59.233274 
L 147.414201 58.437332 
L 149.937819 58.039193 
L 152.461437 57.823005 
L 154.985055 57.797375 
L 157.508673 57.968908 
L 160.032291 58.341904 
L 162.555909 58.918104 
L 165.079527 59.69651 
L 167.603145 60.673293 
L 170.126764 61.8418 
L 173.491588 63.681491 
L 176.856412 65.816103 
L 180.221236 68.210126 
L 184.427266 71.505719 
L 189.474502 75.792778 
L 197.045356 82.598373 
L 197.886563 83.365406 
L 197.886563 83.365406 
" style="fill:none;stroke:#5ec962;stroke-linecap:round;"/>
   </g>
   <g id="line2d_10">
    <path clip-path="url(#p33765724b4)" d="M 30.486562 117.047818 
L 37.216211 114.92977 
L 43.945859 112.590183 
L 50.675507 110.007563 
L 56.563949 107.530451 
L 62.452392 104.833692 
L 68.340834 101.90071 
L 74.229276 98.714726 
L 80.117718 95.259181 
L 86.00616 91.518344 
L 91.894603 87.478166 
L 97.783045 83.127434 
L 103.671487 78.459321 
L 109.559929 73.473428 
L 115.448372 68.178419 
L 121.336814 62.59535 
L 128.066462 55.911074 
L 137.319728 46.361837 
L 149.096613 34.20963 
L 154.143849 29.288598 
L 158.349879 25.46071 
L 161.714703 22.643636 
L 165.079527 20.100439 
L 168.444351 17.885352 
L 170.96797 16.472587 
L 173.491588 15.298519 
L 176.015206 14.385383 
L 178.538824 13.753982 
L 181.062442 13.423016 
L 183.58606 13.408394 
L 186.109678 13.722547 
L 188.633296 14.37379 
L 191.156914 15.365777 
L 193.680532 16.697099 
L 196.20415 18.361056 
L 197.886563 19.649441 
L 197.886563 19.649441 
" style="fill:none;stroke:#90d743;stroke-linecap:round;"/>
   </g>
   <g id="patch_3">
    <path d="M 30.486563 143.1 
L 30.486563 7.2 
" style="fill:none;stroke:#ffffff;stroke-linecap:square;stroke-linejoin:miter;stroke-width:0.8;"/>
   </g>
   <g id="patch_4">
    <path d="M 197.886562 143.1 
L 197.886562 7.2 
" style="fill:none;stroke:#ffffff;stroke-linecap:square;stroke-linejoin:miter;stroke-width:0.8;"/>
   </g>
   <g id="patch_5">
    <path d="M 30.486562 143.1 
L 197.886563 143.1 
" style="fill:none;stroke:#ffffff;stroke-linecap:square;stroke-linejoin:miter;stroke-width:0.8;"/>
   </g>
   <g id="patch_6">
    <path d="M 30.486562 7.2 
L 197.886563 7.2 
" style="fill:none;stroke:#ffffff;stroke-linecap:square;stroke-linejoin:miter;stroke-width:0.8;"/>
   </g>
   <g id="legend_1">
    <g id="patch_7">
     <path d="M 202.086562 111.945 
L 234.366563 111.945 
Q 235.566563 111.945 235.566563 110.745 
L 235.566563 11.4 
Q 235.566563 10.2 234.366563 10.2 
L 202.086562 10.2 
Q 200.886562 10.2 200.886562 11.4 
L 200.886562 110.745 
Q 200.886562 111.945 202.086562 111.945 
z
" style="fill:#e3dcd0;opacity:0.8;stroke:#cccccc;stroke-linejoin:miter;"/>
    </g>
    <g id="text_10">
     <!-- r$_{AA}$ [$\frac{AA}{s\cdot \mu m^3}$] -->
     <defs>
      <path d="M 63.5 0 
L 53.90625 0 
L 50.59375 20 
L 25.703125 20 
L 12.703125 0 
L 3.09375 0 
L 48.796875 67.40625 
L 51.40625 67.40625 
z
M 49.5 27.40625 
L 45.796875 50.296875 
L 30.703125 27.40625 
z
" id="STIXGeneral-Italic-120328"/>
      <path d="M 43.203125 41 
L 41 32.09375 
L 39.5 32.09375 
Q 37.796875 36.5 35.296875 37.890625 
Q 32.796875 39.296875 28.890625 39.296875 
Q 25 39.296875 23.046875 37.140625 
Q 21.09375 35 21.09375 33 
Q 21.09375 31 22.796875 29.546875 
Q 24.5 28.09375 27.796875 26.5 
Q 33.796875 23.59375 36.140625 21.34375 
Q 38.5 19.09375 38.5 15.796875 
Q 38.5 9 32.890625 4 
Q 27.296875 -1 18.59375 -1 
Q 14.09375 -1 11.390625 0.296875 
Q 8.703125 1.59375 6.09375 4.5 
L 8.59375 14.796875 
L 10.09375 14.796875 
Q 11.90625 6.09375 21 6.09375 
Q 24.40625 6.09375 27.296875 7.84375 
Q 30.203125 9.59375 30.203125 12.796875 
Q 30.203125 14.296875 28.59375 15.640625 
Q 27 17 23.203125 18.90625 
Q 17.703125 21.59375 15.25 24.25 
Q 12.796875 26.90625 12.796875 30.296875 
Q 12.796875 36.5 18 41.390625 
Q 23.203125 46.296875 30.90625 46.296875 
Q 39.59375 46.296875 43.203125 41 
z
" id="STIXGeneral-Italic-120372"/>
      <path d="M 16.796875 31.296875 
Q 20.296875 27.703125 20.296875 25.296875 
Q 20.296875 22.90625 18.546875 21.09375 
Q 16.796875 19.296875 14.390625 19.296875 
Q 12 19.296875 10.140625 21.140625 
Q 8.296875 23 8.296875 25.296875 
Q 8.296875 27.59375 10.140625 29.4375 
Q 12 31.296875 14.390625 31.296875 
Q 16.796875 31.296875 20.296875 27.703125 
z
" id="STIXGeneral-Regular-8901"/>
      <path d="M 53.59375 45.296875 
L 45.5 12.796875 
Q 45 11 45 9.703125 
Q 45 6.09375 49.703125 6.09375 
L 49.296875 4.703125 
L 45.59375 -1 
Q 39.40625 -1 37.5 2.09375 
Q 36.59375 3.5 36.59375 6.40625 
L 21.59375 -1 
Q 16 -1 14.09375 1.5 
L 10.59375 -12.59375 
Q 9.296875 -17.90625 6.796875 -21.5 
L -0.90625 -21.5 
Q 2 -17 3.09375 -12.703125 
L 17.5 45.296875 
L 25.40625 45.296875 
L 17.90625 14.90625 
Q 17.40625 12.703125 17.40625 11.40625 
Q 17.40625 6.09375 23.90625 6.09375 
Q 26.703125 6.09375 31.34375 9.046875 
Q 36 12 38.5 16.09375 
L 45.703125 45.296875 
z
" id="STIXNonUnicode-Italic-57827"/>
      <path d="M 25.296875 45.90625 
L 23.90625 40.203125 
Q 30.296875 46.296875 39.296875 46.296875 
Q 48.09375 46.296875 50.796875 39.796875 
Q 58.203125 46.296875 66.59375 46.296875 
Q 71.5 46.296875 74.5 43.6875 
Q 77.5 41.09375 77.5 36.09375 
Q 77.5 34 76.90625 31.5 
L 69.09375 0 
L 61.40625 0 
L 68.703125 29.296875 
Q 69.296875 31.703125 69.296875 33.5 
Q 69.296875 39.203125 63.203125 39.203125 
Q 60.5 39.203125 56 36.640625 
Q 51.5 34.09375 49.203125 30.203125 
L 41.703125 0 
L 34 0 
L 41.09375 29 
Q 41.796875 32.203125 41.796875 33.5 
Q 41.796875 39.203125 35.90625 39.203125 
Q 33.203125 39.203125 28.640625 36.703125 
Q 24.09375 34.203125 21.703125 30.203125 
L 14.203125 0 
L 6.5 0 
L 17.40625 44 
L 24.5 46.40625 
z
" id="STIXGeneral-Italic-120366"/>
      <path d="M 11.296875 49.203125 
L 4.203125 50.90625 
Q 6.40625 58.703125 11.5 63.140625 
Q 16.59375 67.59375 24.296875 67.59375 
Q 31.40625 67.59375 36.203125 63.09375 
Q 41 58.59375 41 51.90625 
Q 41 43 32.40625 37 
Q 38 35 41.046875 30.34375 
Q 44.09375 25.703125 44.09375 21 
Q 44.09375 11.296875 37.796875 5 
Q 31.40625 -1.40625 20.5 -1.40625 
Q 9.5 -1.40625 3.09375 5.59375 
L 7.796875 11.203125 
Q 12.90625 5.703125 20 5.703125 
Q 27.40625 5.703125 31.59375 9.296875 
Q 36.203125 13.203125 36.203125 19.09375 
Q 36.203125 24.296875 32.453125 27.796875 
Q 28.703125 31.296875 22.203125 32.203125 
L 15.796875 32.203125 
L 15.796875 34.296875 
L 20.59375 39.40625 
Q 25.09375 39.40625 29.09375 42.84375 
Q 33.09375 46.296875 33.09375 51.203125 
Q 33.09375 55.40625 30.4375 57.953125 
Q 27.796875 60.5 24 60.5 
Q 20 60.5 16.546875 57.640625 
Q 13.09375 54.796875 11.296875 49.203125 
z
" id="STIXGeneral-Regular-120805"/>
     </defs>
     <g style="fill:#262626;" transform="translate(205.056563 17.7)scale(0.06 -0.06)">
      <use transform="translate(0 0.01875)" xlink:href="#LucidaSansUnicode-114"/>
      <use transform="translate(41.710664 -13.570312)scale(0.7)" xlink:href="#STIXGeneral-Italic-120328"/>
      <use transform="translate(88.330658 -13.570312)scale(0.7)" xlink:href="#STIXGeneral-Italic-120328"/>
      <use transform="translate(137.215495 0.01875)" xlink:href="#LucidaSansUnicode-32"/>
      <use transform="translate(168.85612 0.01875)" xlink:href="#LucidaSansUnicode-91"/>
      <use transform="translate(251.375651 37.815625)scale(0.7)" xlink:href="#STIXGeneral-Italic-120328"/>
      <use transform="translate(297.995645 37.815625)scale(0.7)" xlink:href="#STIXGeneral-Italic-120328"/>
      <use transform="translate(201.375651 -51.921562)scale(0.7)" xlink:href="#STIXGeneral-Italic-120372"/>
      <use transform="translate(239.189646 -51.921562)scale(0.7)" xlink:href="#STIXGeneral-Regular-8901"/>
      <use transform="translate(269.793638 -51.921562)scale(0.7)" xlink:href="#STIXNonUnicode-Italic-57827"/>
      <use transform="translate(309.063632 -51.921562)scale(0.7)" xlink:href="#STIXGeneral-Italic-120366"/>
      <use transform="translate(367.858649 -26.555312)scale(0.49)" xlink:href="#STIXGeneral-Regular-120805"/>
      <use transform="translate(406.444032 0.01875)" xlink:href="#LucidaSansUnicode-93"/>
      <path d="M 201.375651 12.815625 
L 201.375651 19.065625 
L 393.944032 19.065625 
L 393.944032 12.815625 
L 201.375651 12.815625 
z
"/>
     </g>
    </g>
    <g id="line2d_11">
     <path d="M 203.286563 27.245625 
L 215.286563 27.245625 
" style="fill:none;stroke:#481f70;stroke-linecap:round;"/>
    </g>
    <g id="line2d_12"/>
    <g id="text_11">
     <!-- 10$^{4.0}$ -->
     <defs>
      <path d="M 48.90625 23.59375 
L 45.59375 16.5 
L 37.296875 16.5 
L 37.296875 0 
L 29.40625 0 
L 29.40625 16.5 
L 1.09375 16.5 
L 1.09375 23.296875 
L 32.296875 67.59375 
L 37.296875 67.59375 
L 37.296875 23.59375 
z
M 29.40625 23.59375 
L 29.40625 51 
L 10 23.59375 
z
" id="STIXGeneral-Regular-120806"/>
      <path d="M 18.09375 4.296875 
Q 18.09375 2.09375 16.4375 0.5 
Q 14.796875 -1.09375 12.5 -1.09375 
Q 10.203125 -1.09375 8.59375 0.5 
Q 7 2.09375 7 4.390625 
Q 7 6.703125 8.640625 8.34375 
Q 10.296875 10 12.59375 10 
Q 14.796875 10 16.4375 8.296875 
Q 18.09375 6.59375 18.09375 4.296875 
z
" id="STIXGeneral-Regular-46"/>
      <path d="M 47.703125 33 
Q 47.703125 23.796875 45.546875 16.34375 
Q 43.40625 8.90625 38.09375 3.75 
Q 32.796875 -1.40625 25 -1.40625 
Q 18.796875 -1.40625 14.25 1.6875 
Q 9.703125 4.796875 7.203125 10.046875 
Q 4.703125 15.296875 3.5 21.140625 
Q 2.296875 27 2.296875 33.59375 
Q 2.296875 42.90625 4.59375 50.34375 
Q 6.90625 57.796875 12.296875 62.6875 
Q 17.703125 67.59375 25.40625 67.59375 
Q 35.203125 67.59375 41.453125 57.9375 
Q 47.703125 48.296875 47.703125 33 
z
M 39.796875 33 
Q 39.796875 45.203125 35.75 52.84375 
Q 31.703125 60.5 25.203125 60.5 
Q 17.796875 60.5 14 52.75 
Q 10.203125 45 10.203125 33.40625 
Q 10.203125 28.203125 10.953125 23.546875 
Q 11.703125 18.90625 13.34375 14.75 
Q 15 10.59375 18 8.140625 
Q 21 5.703125 25 5.703125 
Q 30.09375 5.703125 33.546875 9.796875 
Q 37 13.90625 38.390625 19.84375 
Q 39.796875 25.796875 39.796875 33 
z
" id="STIXGeneral-Regular-120802"/>
     </defs>
     <g style="fill:#262626;" transform="translate(220.086563 29.345625)scale(0.06 -0.06)">
      <use transform="translate(0 0.446875)" xlink:href="#LucidaSansUnicode-49"/>
      <use transform="translate(63.232422 0.446875)" xlink:href="#LucidaSansUnicode-48"/>
      <use transform="translate(127.257539 36.684375)scale(0.7)" xlink:href="#STIXGeneral-Regular-120806"/>
      <use transform="translate(162.257528 36.684375)scale(0.7)" xlink:href="#STIXGeneral-Regular-46"/>
      <use transform="translate(179.757518 36.684375)scale(0.7)" xlink:href="#STIXGeneral-Regular-120802"/>
     </g>
    </g>
    <g id="line2d_13">
     <path d="M 203.286563 36.028125 
L 215.286563 36.028125 
" style="fill:none;stroke:#443983;stroke-linecap:round;"/>
    </g>
    <g id="line2d_14"/>
    <g id="text_12">
     <!-- 10$^{4.5}$ -->
     <defs>
      <path d="M 45.796875 67.59375 
L 42.59375 60.5 
L 24.90625 60.5 
L 18.5 47.796875 
Q 29.90625 46.203125 37.25 39.75 
Q 44.59375 33.296875 44.59375 22.59375 
Q 44.59375 12.703125 37.84375 5.640625 
Q 31.09375 -1.40625 21 -1.40625 
Q 10 -1.40625 3.59375 5.59375 
L 8.296875 11.203125 
Q 13.40625 5.703125 20.5 5.703125 
Q 27.90625 5.703125 32.296875 10.75 
Q 36.703125 15.796875 36.703125 22.59375 
Q 36.703125 30 30.09375 35.203125 
Q 23.40625 40.703125 9.40625 40.703125 
L 8 42.40625 
L 19.59375 67.59375 
z
" id="STIXGeneral-Regular-120807"/>
     </defs>
     <g style="fill:#262626;" transform="translate(220.086563 38.128125)scale(0.06 -0.06)">
      <use transform="translate(0 0.446875)" xlink:href="#LucidaSansUnicode-49"/>
      <use transform="translate(63.232422 0.446875)" xlink:href="#LucidaSansUnicode-48"/>
      <use transform="translate(127.257539 36.684375)scale(0.7)" xlink:href="#STIXGeneral-Regular-120806"/>
      <use transform="translate(162.257528 36.684375)scale(0.7)" xlink:href="#STIXGeneral-Regular-46"/>
      <use transform="translate(179.757518 36.684375)scale(0.7)" xlink:href="#STIXGeneral-Regular-120807"/>
     </g>
    </g>
    <g id="line2d_15">
     <path d="M 203.286563 44.810625 
L 215.286563 44.810625 
" style="fill:none;stroke:#3b528b;stroke-linecap:round;"/>
    </g>
    <g id="line2d_16"/>
    <g id="text_13">
     <!-- 10$^{5.0}$ -->
     <g style="fill:#262626;" transform="translate(220.086563 46.910625)scale(0.06 -0.06)">
      <use transform="translate(0 0.446875)" xlink:href="#LucidaSansUnicode-49"/>
      <use transform="translate(63.232422 0.446875)" xlink:href="#LucidaSansUnicode-48"/>
      <use transform="translate(127.257539 36.684375)scale(0.7)" xlink:href="#STIXGeneral-Regular-120807"/>
      <use transform="translate(162.257528 36.684375)scale(0.7)" xlink:href="#STIXGeneral-Regular-46"/>
      <use transform="translate(179.757518 36.684375)scale(0.7)" xlink:href="#STIXGeneral-Regular-120802"/>
     </g>
    </g>
    <g id="line2d_17">
     <path d="M 203.286563 53.593125 
L 215.286563 53.593125 
" style="fill:none;stroke:#31688e;stroke-linecap:round;"/>
    </g>
    <g id="line2d_18"/>
    <g id="text_14">
     <!-- 10$^{5.4}$ -->
     <g style="fill:#262626;" transform="translate(220.086563 55.693125)scale(0.06 -0.06)">
      <use transform="translate(0 0.446875)" xlink:href="#LucidaSansUnicode-49"/>
      <use transform="translate(63.232422 0.446875)" xlink:href="#LucidaSansUnicode-48"/>
      <use transform="translate(127.257539 36.684375)scale(0.7)" xlink:href="#STIXGeneral-Regular-120807"/>
      <use transform="translate(162.257528 36.684375)scale(0.7)" xlink:href="#STIXGeneral-Regular-46"/>
      <use transform="translate(179.757518 36.684375)scale(0.7)" xlink:href="#STIXGeneral-Regular-120806"/>
     </g>
    </g>
    <g id="line2d_19">
     <path d="M 203.286563 62.375625 
L 215.286563 62.375625 
" style="fill:none;stroke:#287c8e;stroke-linecap:round;"/>
    </g>
    <g id="line2d_20"/>
    <g id="text_15">
     <!-- 10$^{5.9}$ -->
     <defs>
      <path d="M 5.5 -0.203125 
L 6.796875 4.703125 
Q 18.203125 5.5 26.140625 11.25 
Q 34.09375 17 37.59375 27.5 
Q 31.796875 23.09375 23.90625 23.09375 
Q 15.296875 23.09375 9.046875 28.890625 
Q 2.796875 34.703125 2.796875 44.203125 
Q 2.796875 53.90625 8.84375 60.75 
Q 14.90625 67.59375 24.203125 67.59375 
Q 30.09375 67.59375 34.5 65.34375 
Q 38.90625 63.09375 41.5 59.09375 
Q 44.09375 55.09375 45.34375 50.25 
Q 46.59375 45.40625 46.59375 39.796875 
Q 46.59375 31.40625 43.546875 23.203125 
Q 40.5 15 35.5 10.09375 
Q 28.796875 3.59375 22.84375 1.296875 
Q 16.90625 -1 5.703125 -2.09375 
z
M 38.59375 42.203125 
Q 38.5 50.296875 34.546875 55.390625 
Q 30.59375 60.5 23.90625 60.5 
Q 18.40625 60.5 14.59375 56.296875 
Q 10.796875 52.09375 10.796875 45.59375 
Q 10.796875 38.40625 14.890625 34.34375 
Q 19 30.296875 24.703125 30.296875 
Q 29.90625 30.296875 33.796875 33.34375 
Q 37.703125 36.40625 38.59375 42.203125 
z
" id="STIXGeneral-Regular-120811"/>
     </defs>
     <g style="fill:#262626;" transform="translate(220.086563 64.475625)scale(0.06 -0.06)">
      <use transform="translate(0 0.446875)" xlink:href="#LucidaSansUnicode-49"/>
      <use transform="translate(63.232422 0.446875)" xlink:href="#LucidaSansUnicode-48"/>
      <use transform="translate(127.257539 36.684375)scale(0.7)" xlink:href="#STIXGeneral-Regular-120807"/>
      <use transform="translate(162.257528 36.684375)scale(0.7)" xlink:href="#STIXGeneral-Regular-46"/>
      <use transform="translate(179.757518 36.684375)scale(0.7)" xlink:href="#STIXGeneral-Regular-120811"/>
     </g>
    </g>
    <g id="line2d_21">
     <path d="M 203.286563 71.158125 
L 215.286563 71.158125 
" style="fill:none;stroke:#21918c;stroke-linecap:round;"/>
    </g>
    <g id="line2d_22"/>
    <g id="text_16">
     <!-- 10$^{6.4}$ -->
     <defs>
      <path d="M 44.796875 66.796875 
L 43 61.5 
Q 31.59375 60.703125 23.640625 54.953125 
Q 15.703125 49.203125 12.203125 38.796875 
Q 18.09375 43.09375 25.90625 43.09375 
Q 34.5 43.09375 40.75 37.296875 
Q 47 31.5 47 22 
Q 47 12.296875 40.953125 5.4375 
Q 34.90625 -1.40625 25.703125 -1.40625 
Q 18 -1.40625 12.75 2.640625 
Q 7.5 6.703125 5.34375 12.75 
Q 3.203125 18.796875 3.203125 26.40625 
Q 3.203125 34.90625 6.203125 43.046875 
Q 9.203125 51.203125 14.296875 56.203125 
Q 21 62.796875 27.09375 65.046875 
Q 33.203125 67.296875 44.703125 68.40625 
z
M 39 20.703125 
Q 39 27.90625 34.890625 31.953125 
Q 30.796875 36 25.09375 36 
Q 19.90625 36 16 32.953125 
Q 12.09375 29.90625 11.203125 24 
Q 11.203125 15.90625 15.203125 10.796875 
Q 19.203125 5.703125 26 5.703125 
Q 31.5 5.703125 35.25 9.953125 
Q 39 14.203125 39 20.703125 
z
" id="STIXGeneral-Regular-120808"/>
     </defs>
     <g style="fill:#262626;" transform="translate(220.086563 73.258125)scale(0.06 -0.06)">
      <use transform="translate(0 0.878125)" xlink:href="#LucidaSansUnicode-49"/>
      <use transform="translate(63.232422 0.878125)" xlink:href="#LucidaSansUnicode-48"/>
      <use transform="translate(127.257539 37.115625)scale(0.7)" xlink:href="#STIXGeneral-Regular-120808"/>
      <use transform="translate(162.257528 37.115625)scale(0.7)" xlink:href="#STIXGeneral-Regular-46"/>
      <use transform="translate(179.757518 37.115625)scale(0.7)" xlink:href="#STIXGeneral-Regular-120806"/>
     </g>
    </g>
    <g id="line2d_23">
     <path d="M 203.286563 79.940625 
L 215.286563 79.940625 
" style="fill:none;stroke:#20a486;stroke-linecap:round;"/>
    </g>
    <g id="line2d_24"/>
    <g id="text_17">
     <!-- 10$^{6.9}$ -->
     <g style="fill:#262626;" transform="translate(220.086563 82.040625)scale(0.06 -0.06)">
      <use transform="translate(0 0.878125)" xlink:href="#LucidaSansUnicode-49"/>
      <use transform="translate(63.232422 0.878125)" xlink:href="#LucidaSansUnicode-48"/>
      <use transform="translate(127.257539 37.115625)scale(0.7)" xlink:href="#STIXGeneral-Regular-120808"/>
      <use transform="translate(162.257528 37.115625)scale(0.7)" xlink:href="#STIXGeneral-Regular-46"/>
      <use transform="translate(179.757518 37.115625)scale(0.7)" xlink:href="#STIXGeneral-Regular-120811"/>
     </g>
    </g>
    <g id="line2d_25">
     <path d="M 203.286563 88.723125 
L 215.286563 88.723125 
" style="fill:none;stroke:#35b779;stroke-linecap:round;"/>
    </g>
    <g id="line2d_26"/>
    <g id="text_18">
     <!-- 10$^{7.3}$ -->
     <defs>
      <path d="M 45.09375 64.203125 
L 23 -0.796875 
L 14.796875 -0.796875 
L 35.40625 59.09375 
L 3.796875 59.09375 
L 6.90625 66.203125 
L 45.09375 66.203125 
z
" id="STIXGeneral-Regular-120809"/>
     </defs>
     <g style="fill:#262626;" transform="translate(220.086563 90.823125)scale(0.06 -0.06)">
      <use transform="translate(0 0.446875)" xlink:href="#LucidaSansUnicode-49"/>
      <use transform="translate(63.232422 0.446875)" xlink:href="#LucidaSansUnicode-48"/>
      <use transform="translate(127.257539 36.684375)scale(0.7)" xlink:href="#STIXGeneral-Regular-120809"/>
      <use transform="translate(162.257528 36.684375)scale(0.7)" xlink:href="#STIXGeneral-Regular-46"/>
      <use transform="translate(179.757518 36.684375)scale(0.7)" xlink:href="#STIXGeneral-Regular-120805"/>
     </g>
    </g>
    <g id="line2d_27">
     <path d="M 203.286563 97.505625 
L 215.286563 97.505625 
" style="fill:none;stroke:#5ec962;stroke-linecap:round;"/>
    </g>
    <g id="line2d_28"/>
    <g id="text_19">
     <!-- 10$^{7.8}$ -->
     <defs>
      <path d="M 44.703125 16.09375 
Q 44.703125 8.796875 39.390625 3.6875 
Q 34.09375 -1.40625 24.796875 -1.40625 
Q 16.296875 -1.40625 10.59375 3.4375 
Q 4.90625 8.296875 4.90625 15.40625 
Q 4.90625 20.796875 7.75 25.25 
Q 10.59375 29.703125 17.703125 34.5 
Q 6 41.40625 6 51.40625 
Q 6 58.59375 11.546875 63.09375 
Q 17.09375 67.59375 25.59375 67.59375 
Q 32.90625 67.59375 37.796875 62.84375 
Q 42.703125 58.09375 42.703125 52 
Q 42.703125 46.40625 40.09375 42.703125 
Q 37.5 39 31.09375 35.296875 
Q 44.703125 27 44.703125 16.09375 
z
M 35.5 51.5 
Q 35.5 55.5 32.390625 58 
Q 29.296875 60.5 24.40625 60.5 
Q 19.796875 60.5 16.84375 57.84375 
Q 13.90625 55.203125 13.90625 51.796875 
Q 13.90625 47.5 16.34375 44.84375 
Q 18.796875 42.203125 24.90625 39.40625 
Q 35.5 45.203125 35.5 51.5 
z
M 27.59375 28.59375 
L 24.09375 30.5 
Q 18.90625 28.703125 15.84375 24.640625 
Q 12.796875 20.59375 12.796875 16.296875 
Q 12.796875 11.796875 16 8.75 
Q 19.203125 5.703125 25.203125 5.703125 
Q 29.796875 5.703125 33.296875 8.453125 
Q 36.796875 11.203125 36.796875 15.796875 
Q 36.796875 20 34.6875 22.953125 
Q 32.59375 25.90625 27.59375 28.59375 
z
" id="STIXGeneral-Regular-120810"/>
     </defs>
     <g style="fill:#262626;" transform="translate(220.086563 99.605625)scale(0.06 -0.06)">
      <use transform="translate(0 0.446875)" xlink:href="#LucidaSansUnicode-49"/>
      <use transform="translate(63.232422 0.446875)" xlink:href="#LucidaSansUnicode-48"/>
      <use transform="translate(127.257539 36.684375)scale(0.7)" xlink:href="#STIXGeneral-Regular-120809"/>
      <use transform="translate(162.257528 36.684375)scale(0.7)" xlink:href="#STIXGeneral-Regular-46"/>
      <use transform="translate(179.757518 36.684375)scale(0.7)" xlink:href="#STIXGeneral-Regular-120810"/>
     </g>
    </g>
    <g id="line2d_29">
     <path d="M 203.286563 106.288125 
L 215.286563 106.288125 
" style="fill:none;stroke:#90d743;stroke-linecap:round;"/>
    </g>
    <g id="line2d_30"/>
    <g id="text_20">
     <!-- 10$^{8.3}$ -->
     <g style="fill:#262626;" transform="translate(220.086563 108.388125)scale(0.06 -0.06)">
      <use transform="translate(0 0.446875)" xlink:href="#LucidaSansUnicode-49"/>
      <use transform="translate(63.232422 0.446875)" xlink:href="#LucidaSansUnicode-48"/>
      <use transform="translate(127.257539 36.684375)scale(0.7)" xlink:href="#STIXGeneral-Regular-120810"/>
      <use transform="translate(162.257528 36.684375)scale(0.7)" xlink:href="#STIXGeneral-Regular-46"/>
      <use transform="translate(179.757518 36.684375)scale(0.7)" xlink:href="#STIXGeneral-Regular-120805"/>
     </g>
    </g>
   </g>
  </g>
 </g>
 <defs>
  <clipPath id="p33765724b4">
   <rect height="135.9" width="167.4" x="30.486563" y="7.2"/>
  </clipPath>
 </defs>
</svg>
