<?xml version="1.0" encoding="utf-8" standalone="no"?>
<!DOCTYPE svg PUBLIC "-//W3C//DTD SVG 1.1//EN"
  "http://www.w3.org/Graphics/SVG/1.1/DTD/svg11.dtd">
<!-- Created with matplotlib (https://matplotlib.org/) -->
<svg height="250.905pt" version="1.1" viewBox="0 0 252.449375 250.905" width="252.449375pt" xmlns="http://www.w3.org/2000/svg" xmlns:xlink="http://www.w3.org/1999/xlink">
 <defs>
  <style type="text/css">
*{stroke-linecap:butt;stroke-linejoin:round;}
  </style>
 </defs>
 <g id="figure_1">
  <g id="patch_1">
   <path d="M -0 250.905 
L 252.449375 250.905 
L 252.449375 0 
L -0 0 
z
" style="fill:#ffffff;"/>
  </g>
  <g id="axes_1">
   <g id="patch_2">
    <path d="M 77.849375 224.64 
L 245.249375 224.64 
L 245.249375 7.2 
L 77.849375 7.2 
z
" style="fill:#e3dcd0;"/>
   </g>
   <g id="matplotlib.axis_1">
    <g id="xtick_1">
     <g id="text_1">
      <!-- 10$^{2}$ -->
      <defs>
       <path d="M 26.171875 0 
L 26.171875 65.046875 
L 14.75 65.046875 
L 14.75 71.09375 
L 35.84375 72.90625 
L 35.84375 0 
z
" id="LucidaSansUnicode-49"/>
       <path d="M 31.640625 -1.8125 
Q 20.265625 -1.8125 13.296875 8.609375 
Q 6.34375 19.046875 6.34375 36.140625 
Q 6.34375 53.21875 13.296875 63.640625 
Q 20.265625 74.078125 31.640625 74.078125 
Q 43.0625 74.078125 50 63.671875 
Q 56.9375 53.265625 56.9375 36.140625 
Q 56.9375 19.046875 50 8.609375 
Q 43.0625 -1.8125 31.640625 -1.8125 
z
M 31.640625 5.421875 
Q 46.734375 5.421875 46.734375 36.140625 
Q 46.734375 66.84375 31.640625 66.84375 
Q 16.609375 66.84375 16.609375 36.140625 
Q 16.609375 5.421875 31.640625 5.421875 
z
" id="LucidaSansUnicode-48"/>
       <path d="M 46.90625 7.09375 
L 44 0 
L 3.5 0 
L 3.5 2.09375 
L 21 23.5 
L 21 23.40625 
L 26.59375 30.203125 
Q 30.5 34.90625 32.09375 36.953125 
Q 33.703125 39 35.203125 41.953125 
Q 36.703125 44.90625 36.703125 47.5 
Q 36.703125 53.703125 33.34375 57.09375 
Q 30 60.5 24.203125 60.5 
Q 19.59375 60.5 15.75 56.703125 
Q 11.90625 52.90625 10.90625 45.90625 
L 3.703125 47.59375 
Q 5.296875 56.5 11.1875 62.046875 
Q 17.09375 67.59375 24.90625 67.59375 
Q 33.59375 67.59375 39.09375 62.1875 
Q 44.59375 56.796875 44.59375 49.09375 
Q 44.59375 43.5 42.5 39.453125 
Q 40.40625 35.40625 33.703125 27 
L 17.703125 7.09375 
z
" id="STIXGeneral-Regular-120804"/>
      </defs>
      <g transform="translate(76.950348 232.765625)scale(0.06 -0.06)">
       <use transform="translate(0 0.446875)" xlink:href="#LucidaSansUnicode-49"/>
       <use transform="translate(63.232422 0.446875)" xlink:href="#LucidaSansUnicode-48"/>
       <use transform="translate(127.257539 36.684375)scale(0.7)" xlink:href="#STIXGeneral-Regular-120804"/>
      </g>
     </g>
    </g>
    <g id="xtick_2">
     <g id="text_2">
      <!-- 2.5$	imes$ 10$^2$ -->
      <defs>
       <path d="M 8.296875 0 
L 8.296875 8.453125 
Q 12.5 18.265625 25.296875 29.828125 
L 30.8125 34.765625 
Q 41.453125 44.390625 41.453125 53.859375 
Q 41.453125 59.90625 37.8125 63.375 
Q 34.1875 66.84375 27.78125 66.84375 
Q 20.3125 66.84375 10.109375 61.03125 
L 10.109375 69.53125 
Q 19.734375 74.078125 29.25 74.078125 
Q 39.40625 74.078125 45.53125 68.609375 
Q 51.65625 63.140625 51.65625 54.109375 
Q 51.65625 47.609375 48.546875 42.578125 
Q 45.453125 37.546875 37.015625 30.375 
L 33.296875 27.203125 
Q 21.734375 17.390625 19.921875 8.453125 
L 51.3125 8.453125 
L 51.3125 0 
z
" id="LucidaSansUnicode-50"/>
       <path d="M 9.765625 0 
L 9.765625 12.0625 
L 21.828125 12.0625 
L 21.828125 0 
z
" id="LucidaSansUnicode-46"/>
       <path d="M 12.15625 -0.296875 
L 12.15625 8.296875 
Q 19.34375 5.421875 25.828125 5.421875 
Q 32.953125 5.421875 37.03125 9.609375 
Q 41.109375 13.8125 41.109375 21.1875 
Q 41.109375 29.109375 35.34375 33.28125 
Q 29.59375 37.453125 18.703125 37.453125 
Q 16.15625 37.453125 13.375 37.109375 
L 13.375 72.265625 
L 49.953125 72.265625 
L 49.953125 63.875 
L 21.828125 63.875 
L 21.828125 44.828125 
Q 35.75 44.828125 43.5625 38.421875 
Q 51.375 32.03125 51.375 20.703125 
Q 51.375 10.15625 44.265625 4.171875 
Q 37.15625 -1.8125 24.65625 -1.8125 
Q 19.09375 -1.8125 12.15625 -0.296875 
z
" id="LucidaSansUnicode-53"/>
       <path d="M 32.5 67.90625 
L 30.203125 58.59375 
L 21 58.59375 
L 23.296875 67.90625 
z
M 26.59375 45.90625 
L 15.203125 0 
L 6.90625 0 
L 17.796875 44 
L 25.796875 46.40625 
z
" id="STIXGeneral-Italic-120362"/>
       <path d="M 25.296875 45.90625 
L 23.90625 40.203125 
Q 30.296875 46.296875 39.296875 46.296875 
Q 48.09375 46.296875 50.796875 39.796875 
Q 58.203125 46.296875 66.59375 46.296875 
Q 71.5 46.296875 74.5 43.6875 
Q 77.5 41.09375 77.5 36.09375 
Q 77.5 34 76.90625 31.5 
L 69.09375 0 
L 61.40625 0 
L 68.703125 29.296875 
Q 69.296875 31.703125 69.296875 33.5 
Q 69.296875 39.203125 63.203125 39.203125 
Q 60.5 39.203125 56 36.640625 
Q 51.5 34.09375 49.203125 30.203125 
L 41.703125 0 
L 34 0 
L 41.09375 29 
Q 41.796875 32.203125 41.796875 33.5 
Q 41.796875 39.203125 35.90625 39.203125 
Q 33.203125 39.203125 28.640625 36.703125 
Q 24.09375 34.203125 21.703125 30.203125 
L 14.203125 0 
L 6.5 0 
L 17.40625 44 
L 24.5 46.40625 
z
" id="STIXGeneral-Italic-120366"/>
       <path d="M 40.296875 16.703125 
L 46 13.203125 
Q 40.40625 5.59375 35.15625 2.296875 
Q 29.90625 -1 22.703125 -1 
Q 15.40625 -1 11.15625 3.140625 
Q 6.90625 7.296875 6.90625 14.796875 
Q 6.90625 24.40625 11.453125 31.796875 
Q 16 39.203125 22.390625 42.75 
Q 28.796875 46.296875 35.296875 46.296875 
Q 41.703125 46.296875 45.203125 42.84375 
Q 48.703125 39.40625 48.703125 33.40625 
Q 48.703125 30.5 48 27.703125 
L 46.59375 22.203125 
L 15.703125 22.203125 
Q 15 19.40625 15 16.796875 
Q 15 11.703125 17.84375 8.890625 
Q 20.703125 6.09375 25.296875 6.09375 
Q 33.203125 6.09375 40.296875 16.703125 
z
M 18.796875 29.296875 
L 40.296875 29.296875 
Q 40.703125 30.90625 40.703125 32.59375 
Q 40.703125 39.203125 32.703125 39.203125 
Q 28.703125 39.203125 24.796875 36.703125 
Q 20.90625 34.203125 18.796875 29.296875 
z
" id="STIXGeneral-Italic-120358"/>
       <path d="M 43.203125 41 
L 41 32.09375 
L 39.5 32.09375 
Q 37.796875 36.5 35.296875 37.890625 
Q 32.796875 39.296875 28.890625 39.296875 
Q 25 39.296875 23.046875 37.140625 
Q 21.09375 35 21.09375 33 
Q 21.09375 31 22.796875 29.546875 
Q 24.5 28.09375 27.796875 26.5 
Q 33.796875 23.59375 36.140625 21.34375 
Q 38.5 19.09375 38.5 15.796875 
Q 38.5 9 32.890625 4 
Q 27.296875 -1 18.59375 -1 
Q 14.09375 -1 11.390625 0.296875 
Q 8.703125 1.59375 6.09375 4.5 
L 8.59375 14.796875 
L 10.09375 14.796875 
Q 11.90625 6.09375 21 6.09375 
Q 24.40625 6.09375 27.296875 7.84375 
Q 30.203125 9.59375 30.203125 12.796875 
Q 30.203125 14.296875 28.59375 15.640625 
Q 27 17 23.203125 18.90625 
Q 17.703125 21.59375 15.25 24.25 
Q 12.796875 26.90625 12.796875 30.296875 
Q 12.796875 36.5 18 41.390625 
Q 23.203125 46.296875 30.90625 46.296875 
Q 39.59375 46.296875 43.203125 41 
z
" id="STIXGeneral-Italic-120372"/>
       <path id="LucidaSansUnicode-32"/>
      </defs>
      <g transform="translate(101.050515 232.765625)scale(0.06 -0.06)">
       <use transform="translate(0 0.446875)" xlink:href="#LucidaSansUnicode-50"/>
       <use transform="translate(63.232422 0.446875)" xlink:href="#LucidaSansUnicode-46"/>
       <use transform="translate(94.873047 0.446875)" xlink:href="#LucidaSansUnicode-53"/>
       <use transform="translate(158.105469 0.446875)" xlink:href="#STIXGeneral-Italic-120362"/>
       <use transform="translate(180.105453 0.446875)" xlink:href="#STIXGeneral-Italic-120366"/>
       <use transform="translate(255.705444 0.446875)" xlink:href="#STIXGeneral-Italic-120358"/>
       <use transform="translate(300.105438 0.446875)" xlink:href="#STIXGeneral-Italic-120372"/>
       <use transform="translate(339.005432 0.446875)" xlink:href="#LucidaSansUnicode-32"/>
       <use transform="translate(370.646057 0.446875)" xlink:href="#LucidaSansUnicode-49"/>
       <use transform="translate(433.878479 0.446875)" xlink:href="#LucidaSansUnicode-48"/>
       <use transform="translate(497.903596 36.684375)scale(0.7)" xlink:href="#STIXGeneral-Regular-120804"/>
      </g>
     </g>
    </g>
    <g id="xtick_3">
     <g id="text_3">
      <!-- 10$^3$ -->
      <defs>
       <path d="M 11.296875 49.203125 
L 4.203125 50.90625 
Q 6.40625 58.703125 11.5 63.140625 
Q 16.59375 67.59375 24.296875 67.59375 
Q 31.40625 67.59375 36.203125 63.09375 
Q 41 58.59375 41 51.90625 
Q 41 43 32.40625 37 
Q 38 35 41.046875 30.34375 
Q 44.09375 25.703125 44.09375 21 
Q 44.09375 11.296875 37.796875 5 
Q 31.40625 -1.40625 20.5 -1.40625 
Q 9.5 -1.40625 3.09375 5.59375 
L 7.796875 11.203125 
Q 12.90625 5.703125 20 5.703125 
Q 27.40625 5.703125 31.59375 9.296875 
Q 36.203125 13.203125 36.203125 19.09375 
Q 36.203125 24.296875 32.453125 27.796875 
Q 28.703125 31.296875 22.203125 32.203125 
L 15.796875 32.203125 
L 15.796875 34.296875 
L 20.59375 39.40625 
Q 25.09375 39.40625 29.09375 42.84375 
Q 33.09375 46.296875 33.09375 51.203125 
Q 33.09375 55.40625 30.4375 57.953125 
Q 27.796875 60.5 24 60.5 
Q 20 60.5 16.546875 57.640625 
Q 13.09375 54.796875 11.296875 49.203125 
z
" id="STIXGeneral-Regular-120805"/>
      </defs>
      <g transform="translate(165.481701 232.765625)scale(0.06 -0.06)">
       <use transform="translate(0 0.446875)" xlink:href="#LucidaSansUnicode-49"/>
       <use transform="translate(63.232422 0.446875)" xlink:href="#LucidaSansUnicode-48"/>
       <use transform="translate(127.257539 36.684375)scale(0.7)" xlink:href="#STIXGeneral-Regular-120805"/>
      </g>
     </g>
    </g>
    <g id="xtick_4">
     <g id="text_4">
      <!-- 2.5$	imes$10$^3$ -->
      <g transform="translate(190.541869 232.765625)scale(0.06 -0.06)">
       <use transform="translate(0 0.446875)" xlink:href="#LucidaSansUnicode-50"/>
       <use transform="translate(63.232422 0.446875)" xlink:href="#LucidaSansUnicode-46"/>
       <use transform="translate(94.873047 0.446875)" xlink:href="#LucidaSansUnicode-53"/>
       <use transform="translate(158.105469 0.446875)" xlink:href="#STIXGeneral-Italic-120362"/>
       <use transform="translate(180.105453 0.446875)" xlink:href="#STIXGeneral-Italic-120366"/>
       <use transform="translate(255.705444 0.446875)" xlink:href="#STIXGeneral-Italic-120358"/>
       <use transform="translate(300.105438 0.446875)" xlink:href="#STIXGeneral-Italic-120372"/>
       <use transform="translate(339.005432 0.446875)" xlink:href="#LucidaSansUnicode-49"/>
       <use transform="translate(402.237854 0.446875)" xlink:href="#LucidaSansUnicode-48"/>
       <use transform="translate(466.262971 36.684375)scale(0.7)" xlink:href="#STIXGeneral-Regular-120805"/>
      </g>
     </g>
    </g>
    <g id="xtick_5"/>
    <g id="xtick_6"/>
    <g id="xtick_7"/>
    <g id="xtick_8"/>
    <g id="xtick_9"/>
    <g id="xtick_10"/>
    <g id="xtick_11"/>
    <g id="xtick_12"/>
    <g id="xtick_13"/>
    <g id="xtick_14"/>
    <g id="xtick_15"/>
    <g id="xtick_16"/>
    <g id="xtick_17"/>
    <g id="xtick_18"/>
    <g id="xtick_19"/>
    <g id="text_5">
     <!-- time [sec] -->
     <defs>
      <path d="M 33.25 0 
Q 28.8125 -1.21875 25.53125 -1.21875 
Q 18.21875 -1.21875 14.109375 2.96875 
Q 10.015625 7.171875 10.015625 14.65625 
L 10.015625 45.796875 
L 3.375 45.796875 
L 3.375 53.03125 
L 10.015625 53.03125 
L 10.015625 62.640625 
L 19.625 63.578125 
L 19.625 53.03125 
L 33.5 53.03125 
L 33.5 45.796875 
L 19.625 45.796875 
L 19.625 16.40625 
Q 19.625 6 28.609375 6 
Q 30.515625 6 33.25 6.640625 
z
" id="LucidaSansUnicode-116"/>
      <path d="M 9.625 0 
L 9.625 53.03125 
L 19.234375 53.03125 
L 19.234375 0 
z
M 9.625 62.640625 
L 9.625 72.265625 
L 19.234375 72.265625 
L 19.234375 62.640625 
z
" id="LucidaSansUnicode-105"/>
      <path d="M 9.625 0 
L 9.625 53.03125 
L 19.234375 53.03125 
L 19.234375 43.0625 
Q 26.265625 54.203125 37.3125 54.203125 
Q 47.953125 54.203125 51.8125 43.0625 
Q 58.640625 54.25 69.578125 54.25 
Q 76.5625 54.25 80.4375 50.125 
Q 84.328125 46 84.328125 38.578125 
L 84.328125 0 
L 74.65625 0 
L 74.65625 37.0625 
Q 74.65625 46.140625 67.484375 46.140625 
Q 60.015625 46.140625 51.8125 35.546875 
L 51.8125 0 
L 42.140625 0 
L 42.140625 37.0625 
Q 42.140625 46.1875 34.8125 46.1875 
Q 27.546875 46.1875 19.234375 35.546875 
L 19.234375 0 
z
" id="LucidaSansUnicode-109"/>
      <path d="M 48.484375 1.703125 
Q 38.8125 -1.21875 31.9375 -1.21875 
Q 20.171875 -1.21875 12.796875 6.5625 
Q 5.421875 14.359375 5.421875 26.765625 
Q 5.421875 38.8125 11.9375 46.53125 
Q 18.453125 54.25 28.609375 54.25 
Q 38.234375 54.25 43.484375 47.390625 
Q 48.734375 40.53125 48.734375 27.9375 
L 48.6875 25 
L 15.234375 25 
Q 17.328125 6.109375 33.734375 6.109375 
Q 39.75 6.109375 48.484375 9.328125 
z
M 15.671875 32.234375 
L 39.0625 32.234375 
Q 39.0625 47.015625 28.03125 47.015625 
Q 16.9375 47.015625 15.671875 32.234375 
z
" id="LucidaSansUnicode-101"/>
      <path d="M 9.625 -14.453125 
L 9.625 77.09375 
L 28.90625 77.09375 
L 28.90625 69.875 
L 18.0625 69.875 
L 18.0625 -7.234375 
L 28.90625 -7.234375 
L 28.90625 -14.453125 
z
" id="LucidaSansUnicode-91"/>
      <path d="M 7.671875 1.859375 
L 7.671875 10.6875 
Q 17.09375 6 24.078125 6 
Q 28.21875 6 30.953125 8.25 
Q 33.6875 10.5 33.6875 13.875 
Q 33.6875 18.796875 26.03125 22.015625 
L 20.40625 24.421875 
Q 7.953125 29.59375 7.953125 39.3125 
Q 7.953125 46.234375 12.859375 50.21875 
Q 17.78125 54.203125 26.3125 54.203125 
Q 30.765625 54.203125 37.3125 52.984375 
L 39.3125 52.59375 
L 39.3125 44.578125 
Q 31.25 46.96875 26.46875 46.96875 
Q 22.265625 46.96875 19.75 45.140625 
Q 17.234375 43.3125 17.234375 40.234375 
Q 17.234375 35.890625 24.265625 32.90625 
L 28.90625 30.953125 
Q 36.765625 27.640625 40.03125 23.953125 
Q 43.3125 20.265625 43.3125 14.75 
Q 43.3125 7.765625 37.796875 3.265625 
Q 32.28125 -1.21875 23.6875 -1.21875 
Q 17.09375 -1.21875 7.671875 1.859375 
z
" id="LucidaSansUnicode-115"/>
      <path d="M 46.4375 1.609375 
Q 37.109375 -1.21875 30.328125 -1.21875 
Q 19.578125 -1.21875 12.5 6.734375 
Q 5.421875 14.703125 5.421875 26.8125 
Q 5.421875 39.75 12.421875 46.96875 
Q 19.4375 54.203125 31.984375 54.203125 
Q 38.1875 54.203125 45.84375 52.484375 
L 45.84375 44.4375 
Q 37.703125 46.828125 32.5625 46.828125 
Q 25.140625 46.828125 20.703125 41.28125 
Q 16.265625 35.75 16.265625 26.515625 
Q 16.265625 17.578125 20.84375 12.0625 
Q 25.4375 6.546875 32.859375 6.546875 
Q 39.453125 6.546875 46.4375 9.90625 
z
" id="LucidaSansUnicode-99"/>
      <path d="M 22.90625 77.09375 
L 22.90625 -14.453125 
L 3.609375 -14.453125 
L 3.609375 -7.234375 
L 14.453125 -7.234375 
L 14.453125 69.875 
L 3.609375 69.875 
L 3.609375 77.09375 
z
" id="LucidaSansUnicode-93"/>
     </defs>
     <g style="fill:#262626;" transform="translate(147.449844 242.548125)scale(0.06 -0.06)">
      <use xlink:href="#LucidaSansUnicode-116"/>
      <use x="37.402344" xlink:href="#LucidaSansUnicode-105"/>
      <use x="66.308594" xlink:href="#LucidaSansUnicode-109"/>
      <use x="159.667969" xlink:href="#LucidaSansUnicode-101"/>
      <use x="215.380859" xlink:href="#LucidaSansUnicode-32"/>
      <use x="247.021484" xlink:href="#LucidaSansUnicode-91"/>
      <use x="279.541016" xlink:href="#LucidaSansUnicode-115"/>
      <use x="330.517578" xlink:href="#LucidaSansUnicode-101"/>
      <use x="386.230469" xlink:href="#LucidaSansUnicode-99"/>
      <use x="437.451172" xlink:href="#LucidaSansUnicode-93"/>
     </g>
    </g>
   </g>
   <g id="matplotlib.axis_2">
    <g id="ytick_1">
     <g id="text_6">
      <!-- protein synthesis -->
      <defs>
       <path d="M 9.625 -19.28125 
L 9.625 53.03125 
L 19.234375 53.03125 
L 19.234375 43.0625 
Q 25.140625 54.203125 36.96875 54.203125 
Q 46.53125 54.203125 52.015625 47.21875 
Q 57.515625 40.234375 57.515625 28.125 
Q 57.515625 14.9375 51.28125 6.859375 
Q 45.0625 -1.21875 34.90625 -1.21875 
Q 25.484375 -1.21875 19.234375 6 
L 19.234375 -19.28125 
z
M 19.234375 12.640625 
Q 26.65625 6 33.40625 6 
Q 40.046875 6 43.65625 11.546875 
Q 47.265625 17.09375 47.265625 27.15625 
Q 47.265625 45.796875 34.96875 45.796875 
Q 26.90625 45.796875 19.234375 37.0625 
z
" id="LucidaSansUnicode-112"/>
       <path d="M 9.625 0 
L 9.625 53.03125 
L 19.234375 53.03125 
L 19.234375 43.0625 
Q 24.953125 54.203125 35.84375 54.203125 
Q 37.3125 54.203125 38.921875 53.953125 
L 38.921875 44.96875 
Q 36.421875 45.796875 34.515625 45.796875 
Q 25.390625 45.796875 19.234375 34.96875 
L 19.234375 0 
z
" id="LucidaSansUnicode-114"/>
       <path d="M 30.71875 -1.21875 
Q 19.046875 -1.21875 12.234375 6.25 
Q 5.421875 13.71875 5.421875 26.515625 
Q 5.421875 39.3125 12.234375 46.75 
Q 19.046875 54.203125 30.71875 54.203125 
Q 42.390625 54.203125 49.1875 46.75 
Q 56 39.3125 56 26.515625 
Q 56 13.71875 49.1875 6.25 
Q 42.390625 -1.21875 30.71875 -1.21875 
z
M 30.71875 6 
Q 37.890625 6 41.84375 11.375 
Q 45.796875 16.75 45.796875 26.515625 
Q 45.796875 36.28125 41.84375 41.625 
Q 37.890625 46.96875 30.71875 46.96875 
Q 23.53125 46.96875 19.59375 41.625 
Q 15.671875 36.28125 15.671875 26.515625 
Q 15.671875 16.75 19.59375 11.375 
Q 23.53125 6 30.71875 6 
z
" id="LucidaSansUnicode-111"/>
       <path d="M 9.625 0 
L 9.625 53.03125 
L 19.234375 53.03125 
L 19.234375 43.0625 
Q 26.859375 54.203125 37.890625 54.203125 
Q 44.828125 54.203125 48.90625 49.828125 
Q 52.984375 45.453125 52.984375 38.09375 
L 52.984375 0 
L 43.359375 0 
L 43.359375 34.96875 
Q 43.359375 40.875 41.625 43.390625 
Q 39.890625 45.90625 35.890625 45.90625 
Q 27.046875 45.90625 19.234375 34.328125 
L 19.234375 0 
z
" id="LucidaSansUnicode-110"/>
       <path d="M 12.703125 -19.28125 
L 21.296875 0 
L 0.78125 53.03125 
L 11.1875 53.03125 
L 26.375 13.09375 
L 42.578125 53.03125 
L 51.65625 53.03125 
L 22.703125 -19.28125 
z
" id="LucidaSansUnicode-121"/>
       <path d="M 9.625 0 
L 9.625 77.09375 
L 19.234375 77.09375 
L 19.234375 43.0625 
Q 26.859375 54.203125 37.890625 54.203125 
Q 44.828125 54.203125 48.90625 49.828125 
Q 52.984375 45.453125 52.984375 38.09375 
L 52.984375 0 
L 43.359375 0 
L 43.359375 34.96875 
Q 43.359375 40.875 41.625 43.390625 
Q 39.890625 45.90625 35.890625 45.90625 
Q 27.046875 45.90625 19.234375 34.328125 
L 19.234375 0 
z
" id="LucidaSansUnicode-104"/>
      </defs>
      <g transform="translate(24.406875 211.421384)scale(0.06 -0.06)">
       <use xlink:href="#LucidaSansUnicode-112"/>
       <use x="62.939453" xlink:href="#LucidaSansUnicode-114"/>
       <use x="103.857422" xlink:href="#LucidaSansUnicode-111"/>
       <use x="165.283203" xlink:href="#LucidaSansUnicode-116"/>
       <use x="202.685547" xlink:href="#LucidaSansUnicode-101"/>
       <use x="258.398438" xlink:href="#LucidaSansUnicode-105"/>
       <use x="287.304688" xlink:href="#LucidaSansUnicode-110"/>
       <use x="349.365234" xlink:href="#LucidaSansUnicode-32"/>
       <use x="381.005859" xlink:href="#LucidaSansUnicode-115"/>
       <use x="431.982422" xlink:href="#LucidaSansUnicode-121"/>
       <use x="484.228516" xlink:href="#LucidaSansUnicode-110"/>
       <use x="546.289062" xlink:href="#LucidaSansUnicode-116"/>
       <use x="583.691406" xlink:href="#LucidaSansUnicode-104"/>
       <use x="645.751953" xlink:href="#LucidaSansUnicode-101"/>
       <use x="701.464844" xlink:href="#LucidaSansUnicode-115"/>
       <use x="752.441406" xlink:href="#LucidaSansUnicode-105"/>
       <use x="781.347656" xlink:href="#LucidaSansUnicode-115"/>
      </g>
     </g>
    </g>
    <g id="ytick_2">
     <g id="text_7">
      <!-- tRNA charging -->
      <defs>
       <path d="M 9.328125 0 
L 9.328125 72.265625 
L 31.203125 72.265625 
Q 41.609375 72.265625 47.140625 67.671875 
Q 52.6875 63.09375 52.6875 54.34375 
Q 52.6875 47.46875 48.84375 42.09375 
Q 45.015625 36.71875 38.09375 33.84375 
L 62.203125 0 
L 49.609375 0 
L 29.046875 30.5625 
L 19.484375 30.5625 
L 19.484375 0 
z
M 19.484375 38.234375 
L 22.796875 38.234375 
Q 32.28125 38.234375 37.203125 42.09375 
Q 42.140625 45.953125 42.140625 53.375 
Q 42.140625 64.59375 25.921875 64.59375 
L 19.484375 64.59375 
z
" id="LucidaSansUnicode-82"/>
       <path d="M 9.328125 0 
L 9.328125 72.265625 
L 19.390625 72.265625 
L 55.765625 16.453125 
L 55.765625 72.265625 
L 64.546875 72.265625 
L 64.546875 0 
L 54.546875 0 
L 18.109375 55.8125 
L 18.109375 0 
z
" id="LucidaSansUnicode-78"/>
       <path d="M 0.828125 0 
L 29.5 72.265625 
L 39.65625 72.265625 
L 67.875 0 
L 56.78125 0 
L 48.921875 20.015625 
L 18.3125 20.015625 
L 10.359375 0 
z
M 21.296875 27.640625 
L 45.953125 27.640625 
L 33.640625 58.796875 
z
" id="LucidaSansUnicode-65"/>
       <path d="M 36.96875 6.734375 
Q 28.328125 -1.21875 20.3125 -1.21875 
Q 13.71875 -1.21875 9.375 2.90625 
Q 5.03125 7.03125 5.03125 13.328125 
Q 5.03125 22.015625 12.328125 26.671875 
Q 19.625 31.34375 33.296875 31.34375 
L 35.546875 31.34375 
L 35.546875 37.75 
Q 35.546875 46.96875 25.921875 46.96875 
Q 18.453125 46.96875 9.625 42.28125 
L 9.625 50.25 
Q 19.34375 54.203125 27.9375 54.203125 
Q 36.765625 54.203125 40.96875 50.171875 
Q 45.171875 46.140625 45.171875 37.75 
L 45.171875 13.71875 
Q 45.171875 5.46875 50.25 5.46875 
Q 50.875 5.46875 52.09375 5.671875 
L 52.78125 0.34375 
Q 49.515625 -1.21875 45.5625 -1.21875 
Q 38.8125 -1.21875 36.96875 6.734375 
z
M 35.546875 11.96875 
L 35.546875 25.6875 
L 32.46875 25.78125 
Q 24.46875 25.78125 19.5625 22.796875 
Q 14.65625 19.828125 14.65625 14.890625 
Q 14.65625 11.421875 17.09375 9.03125 
Q 19.53125 6.640625 23.046875 6.640625 
Q 29.046875 6.640625 35.546875 11.96875 
z
" id="LucidaSansUnicode-97"/>
       <path d="M 9.8125 -17.625 
L 10.9375 -9.28125 
Q 19.28125 -13.234375 27.4375 -13.234375 
Q 43.65625 -13.234375 43.65625 4 
L 43.65625 12.359375 
Q 41.15625 7.078125 36.546875 4.140625 
Q 31.9375 1.21875 26.265625 1.21875 
Q 16.65625 1.21875 11.03125 8.125 
Q 5.421875 15.046875 5.421875 26.859375 
Q 5.421875 38.96875 11.8125 46.578125 
Q 18.21875 54.203125 28.375 54.203125 
Q 37.25 54.203125 43.65625 46.96875 
L 43.65625 53.03125 
L 53.328125 53.03125 
L 53.328125 14.453125 
Q 53.328125 2 52.03125 -3.984375 
Q 50.734375 -9.96875 47.171875 -13.765625 
Q 40.875 -20.453125 27.484375 -20.453125 
Q 18.3125 -20.453125 9.8125 -17.625 
z
M 43.65625 18.359375 
L 43.65625 40.375 
Q 37.3125 46.96875 29.828125 46.96875 
Q 23.1875 46.96875 19.421875 41.640625 
Q 15.671875 36.328125 15.671875 26.90625 
Q 15.671875 9.625 27.9375 9.625 
Q 36.28125 9.625 43.65625 18.359375 
z
" id="LucidaSansUnicode-103"/>
      </defs>
      <g transform="translate(32.333437 180.358527)scale(0.06 -0.06)">
       <use xlink:href="#LucidaSansUnicode-116"/>
       <use x="37.402344" xlink:href="#LucidaSansUnicode-82"/>
       <use x="100.634766" xlink:href="#LucidaSansUnicode-78"/>
       <use x="174.511719" xlink:href="#LucidaSansUnicode-65"/>
       <use x="243.505859" xlink:href="#LucidaSansUnicode-32"/>
       <use x="275.146484" xlink:href="#LucidaSansUnicode-99"/>
       <use x="326.367188" xlink:href="#LucidaSansUnicode-104"/>
       <use x="388.427734" xlink:href="#LucidaSansUnicode-97"/>
       <use x="443.652344" xlink:href="#LucidaSansUnicode-114"/>
       <use x="484.570312" xlink:href="#LucidaSansUnicode-103"/>
       <use x="546.923828" xlink:href="#LucidaSansUnicode-105"/>
       <use x="575.830078" xlink:href="#LucidaSansUnicode-110"/>
       <use x="637.890625" xlink:href="#LucidaSansUnicode-103"/>
      </g>
     </g>
    </g>
    <g id="ytick_3">
     <g id="text_8">
      <!-- ATP syntheis -->
      <defs>
       <path d="M 26.515625 0 
L 26.515625 64.59375 
L 0.875 64.59375 
L 0.875 72.265625 
L 62.40625 72.265625 
L 62.40625 64.59375 
L 36.765625 64.59375 
L 36.765625 0 
z
" id="LucidaSansUnicode-84"/>
       <path d="M 9.328125 0 
L 9.328125 72.265625 
L 29 72.265625 
Q 37.5 72.265625 42.109375 70.875 
Q 46.734375 69.484375 49.65625 65.96875 
Q 53.515625 61.328125 53.515625 53.328125 
Q 53.515625 41.796875 45.703125 35.25 
Q 37.890625 28.71875 24.03125 28.71875 
L 19.484375 28.71875 
L 19.484375 0 
z
M 19.484375 36.46875 
L 23.640625 36.46875 
Q 32.765625 36.46875 37.734375 40.671875 
Q 42.71875 44.875 42.71875 52.59375 
Q 42.71875 59.03125 38.78125 61.8125 
Q 34.859375 64.59375 25.78125 64.59375 
L 19.484375 64.59375 
z
" id="LucidaSansUnicode-80"/>
      </defs>
      <g transform="translate(37.1775 149.29567)scale(0.06 -0.06)">
       <use xlink:href="#LucidaSansUnicode-65"/>
       <use x="68.994141" xlink:href="#LucidaSansUnicode-84"/>
       <use x="132.226562" xlink:href="#LucidaSansUnicode-80"/>
       <use x="187.5" xlink:href="#LucidaSansUnicode-32"/>
       <use x="219.140625" xlink:href="#LucidaSansUnicode-115"/>
       <use x="270.117188" xlink:href="#LucidaSansUnicode-121"/>
       <use x="322.363281" xlink:href="#LucidaSansUnicode-110"/>
       <use x="384.423828" xlink:href="#LucidaSansUnicode-116"/>
       <use x="421.826172" xlink:href="#LucidaSansUnicode-104"/>
       <use x="483.886719" xlink:href="#LucidaSansUnicode-101"/>
       <use x="539.599609" xlink:href="#LucidaSansUnicode-105"/>
       <use x="568.505859" xlink:href="#LucidaSansUnicode-115"/>
      </g>
     </g>
    </g>
    <g id="ytick_4">
     <g id="text_9">
      <!-- dNTP synthesis -->
      <defs>
       <path d="M 43.65625 0 
L 43.65625 9.96875 
Q 37.796875 -1.21875 25.984375 -1.21875 
Q 16.40625 -1.21875 10.90625 5.765625 
Q 5.421875 12.75 5.421875 24.859375 
Q 5.421875 38.09375 11.640625 46.140625 
Q 17.875 54.203125 28.03125 54.203125 
Q 37.453125 54.203125 43.65625 46.96875 
L 43.65625 77.09375 
L 53.328125 77.09375 
L 53.328125 0 
z
M 43.65625 40.375 
Q 36.1875 46.96875 29.5 46.96875 
Q 22.90625 46.96875 19.28125 41.453125 
Q 15.671875 35.9375 15.671875 25.828125 
Q 15.671875 7.234375 27.984375 7.234375 
Q 35.984375 7.234375 43.65625 15.96875 
z
" id="LucidaSansUnicode-100"/>
      </defs>
      <g transform="translate(30.049687 118.232812)scale(0.06 -0.06)">
       <use xlink:href="#LucidaSansUnicode-100"/>
       <use x="62.939453" xlink:href="#LucidaSansUnicode-78"/>
       <use x="136.816406" xlink:href="#LucidaSansUnicode-84"/>
       <use x="200.048828" xlink:href="#LucidaSansUnicode-80"/>
       <use x="255.322266" xlink:href="#LucidaSansUnicode-32"/>
       <use x="286.962891" xlink:href="#LucidaSansUnicode-115"/>
       <use x="337.939453" xlink:href="#LucidaSansUnicode-121"/>
       <use x="390.185547" xlink:href="#LucidaSansUnicode-110"/>
       <use x="452.246094" xlink:href="#LucidaSansUnicode-116"/>
       <use x="489.648438" xlink:href="#LucidaSansUnicode-104"/>
       <use x="551.708984" xlink:href="#LucidaSansUnicode-101"/>
       <use x="607.421875" xlink:href="#LucidaSansUnicode-115"/>
       <use x="658.398438" xlink:href="#LucidaSansUnicode-105"/>
       <use x="687.304688" xlink:href="#LucidaSansUnicode-115"/>
      </g>
     </g>
    </g>
    <g id="ytick_5">
     <g id="text_10">
      <!-- rRNA synthesis -->
      <g transform="translate(30.5475 87.169955)scale(0.06 -0.06)">
       <use xlink:href="#LucidaSansUnicode-114"/>
       <use x="40.917969" xlink:href="#LucidaSansUnicode-82"/>
       <use x="104.150391" xlink:href="#LucidaSansUnicode-78"/>
       <use x="178.027344" xlink:href="#LucidaSansUnicode-65"/>
       <use x="247.021484" xlink:href="#LucidaSansUnicode-32"/>
       <use x="278.662109" xlink:href="#LucidaSansUnicode-115"/>
       <use x="329.638672" xlink:href="#LucidaSansUnicode-121"/>
       <use x="381.884766" xlink:href="#LucidaSansUnicode-110"/>
       <use x="443.945312" xlink:href="#LucidaSansUnicode-116"/>
       <use x="481.347656" xlink:href="#LucidaSansUnicode-104"/>
       <use x="543.408203" xlink:href="#LucidaSansUnicode-101"/>
       <use x="599.121094" xlink:href="#LucidaSansUnicode-115"/>
       <use x="650.097656" xlink:href="#LucidaSansUnicode-105"/>
       <use x="679.003906" xlink:href="#LucidaSansUnicode-115"/>
      </g>
     </g>
    </g>
    <g id="ytick_6">
     <g id="text_11">
      <!-- carbohydrate transport -->
      <defs>
       <path d="M 9.625 -0.59375 
L 9.625 77.09375 
L 19.234375 77.09375 
L 19.234375 43.0625 
Q 25.140625 54.203125 36.96875 54.203125 
Q 46.53125 54.203125 52.015625 47.21875 
Q 57.515625 40.234375 57.515625 28.125 
Q 57.515625 14.9375 51.28125 6.859375 
Q 45.0625 -1.21875 34.90625 -1.21875 
Q 25.484375 -1.21875 19.234375 6 
L 18.0625 -0.59375 
z
M 19.234375 12.640625 
Q 26.65625 6 33.40625 6 
Q 40.046875 6 43.65625 11.546875 
Q 47.265625 17.09375 47.265625 27.15625 
Q 47.265625 45.796875 34.96875 45.796875 
Q 26.90625 45.796875 19.234375 37.0625 
z
" id="LucidaSansUnicode-98"/>
      </defs>
      <g transform="translate(7.2 56.107098)scale(0.06 -0.06)">
       <use xlink:href="#LucidaSansUnicode-99"/>
       <use x="51.220703" xlink:href="#LucidaSansUnicode-97"/>
       <use x="106.445312" xlink:href="#LucidaSansUnicode-114"/>
       <use x="147.363281" xlink:href="#LucidaSansUnicode-98"/>
       <use x="210.302734" xlink:href="#LucidaSansUnicode-111"/>
       <use x="271.728516" xlink:href="#LucidaSansUnicode-104"/>
       <use x="333.789062" xlink:href="#LucidaSansUnicode-121"/>
       <use x="386.035156" xlink:href="#LucidaSansUnicode-100"/>
       <use x="448.974609" xlink:href="#LucidaSansUnicode-114"/>
       <use x="489.892578" xlink:href="#LucidaSansUnicode-97"/>
       <use x="545.117188" xlink:href="#LucidaSansUnicode-116"/>
       <use x="582.519531" xlink:href="#LucidaSansUnicode-101"/>
       <use x="638.232422" xlink:href="#LucidaSansUnicode-32"/>
       <use x="669.873047" xlink:href="#LucidaSansUnicode-116"/>
       <use x="707.275391" xlink:href="#LucidaSansUnicode-114"/>
       <use x="748.193359" xlink:href="#LucidaSansUnicode-97"/>
       <use x="803.417969" xlink:href="#LucidaSansUnicode-110"/>
       <use x="865.478516" xlink:href="#LucidaSansUnicode-115"/>
       <use x="916.455078" xlink:href="#LucidaSansUnicode-112"/>
       <use x="979.394531" xlink:href="#LucidaSansUnicode-111"/>
       <use x="1040.820312" xlink:href="#LucidaSansUnicode-114"/>
       <use x="1081.738281" xlink:href="#LucidaSansUnicode-116"/>
      </g>
     </g>
    </g>
    <g id="ytick_7">
     <g id="text_12">
      <!-- DNA synthesis -->
      <defs>
       <path d="M 9.328125 0 
L 9.328125 72.265625 
L 33.34375 72.265625 
Q 44.09375 72.265625 50.703125 69.875 
Q 57.328125 67.484375 62.15625 61.765625 
Q 69.828125 52.6875 69.828125 37.84375 
Q 69.828125 21.09375 60.84375 10.6875 
Q 55.953125 4.984375 49.53125 2.484375 
Q 43.109375 0 33.5 0 
z
M 19.578125 7.671875 
L 32.71875 7.671875 
Q 46.78125 7.671875 52.640625 15.234375 
Q 58.9375 23.296875 58.9375 36.859375 
Q 58.9375 49.609375 52.734375 56.890625 
Q 48.96875 61.328125 43.75 62.953125 
Q 38.53125 64.59375 28.03125 64.59375 
L 19.578125 64.59375 
z
" id="LucidaSansUnicode-68"/>
      </defs>
      <g transform="translate(32.3025 25.044241)scale(0.06 -0.06)">
       <use xlink:href="#LucidaSansUnicode-68"/>
       <use x="74.902344" xlink:href="#LucidaSansUnicode-78"/>
       <use x="148.779297" xlink:href="#LucidaSansUnicode-65"/>
       <use x="217.773438" xlink:href="#LucidaSansUnicode-32"/>
       <use x="249.414062" xlink:href="#LucidaSansUnicode-115"/>
       <use x="300.390625" xlink:href="#LucidaSansUnicode-121"/>
       <use x="352.636719" xlink:href="#LucidaSansUnicode-110"/>
       <use x="414.697266" xlink:href="#LucidaSansUnicode-116"/>
       <use x="452.099609" xlink:href="#LucidaSansUnicode-104"/>
       <use x="514.160156" xlink:href="#LucidaSansUnicode-101"/>
       <use x="569.873047" xlink:href="#LucidaSansUnicode-115"/>
       <use x="620.849609" xlink:href="#LucidaSansUnicode-105"/>
       <use x="649.755859" xlink:href="#LucidaSansUnicode-115"/>
      </g>
     </g>
    </g>
   </g>
   <g id="LineCollection_1">
    <path clip-path="url(#p78fb76c15f)" d="M 239.322485 240.171429 
L 239.322485 -1 
" style="fill:none;stroke:#000000;stroke-dasharray:5.55,2.4;stroke-dashoffset:0;stroke-width:1.5;"/>
   </g>
   <g id="LineCollection_2">
    <path clip-path="url(#p78fb76c15f)" d="M 161.323254 53.794286 
L 178.721602 53.794286 
" style="fill:none;stroke:#1e9b8a;stroke-opacity:0.75;stroke-width:2;"/>
   </g>
   <g id="LineCollection_3">
    <path clip-path="url(#p78fb76c15f)" d="M 208.774516 146.982857 
L 214.070533 146.982857 
" style="fill:none;stroke:#38588c;stroke-opacity:0.75;stroke-width:2;"/>
   </g>
   <g id="LineCollection_4">
    <path clip-path="url(#p78fb76c15f)" d="M 155.15093 84.857143 
L 192.494562 84.857143 
" style="fill:none;stroke:#25858e;stroke-opacity:0.75;stroke-width:2;"/>
   </g>
   <g id="LineCollection_5">
    <path clip-path="url(#p78fb76c15f)" d="M 82.980405 22.731429 
L 138.839063 22.731429 
" style="fill:none;stroke:#2ab07f;stroke-opacity:0.75;stroke-width:2;"/>
   </g>
   <g id="LineCollection_6">
    <path clip-path="url(#p78fb76c15f)" d="M 152.432842 115.92 
L 197.185683 115.92 
" style="fill:none;stroke:#2d708e;stroke-opacity:0.75;stroke-width:2;"/>
   </g>
   <g id="LineCollection_7">
    <path clip-path="url(#p78fb76c15f)" d="M 208.778702 209.108571 
L 228.624575 209.108571 
" style="fill:none;stroke:#482173;stroke-opacity:0.75;stroke-width:2;"/>
   </g>
   <g id="LineCollection_8">
    <path clip-path="url(#p78fb76c15f)" d="M 208.157647 178.045714 
L 218.634383 178.045714 
" style="fill:none;stroke:#433e85;stroke-opacity:0.75;stroke-width:2;"/>
   </g>
   <g id="line2d_1">
    <defs>
     <path d="M 0 2.25 
C 0.596707 2.25 1.169055 2.012926 1.59099 1.59099 
C 2.012926 1.169055 2.25 0.596707 2.25 0 
C 2.25 -0.596707 2.012926 -1.169055 1.59099 -1.59099 
C 1.169055 -2.012926 0.596707 -2.25 0 -2.25 
C -0.596707 -2.25 -1.169055 -2.012926 -1.59099 -1.59099 
C -2.012926 -1.169055 -2.25 -0.596707 -2.25 0 
C -2.25 0.596707 -2.012926 1.169055 -1.59099 1.59099 
C -1.169055 2.012926 -0.596707 2.25 0 2.25 
z
" id="mf226d0b6e5" style="stroke:#1e9b8a;"/>
    </defs>
    <g clip-path="url(#p78fb76c15f)">
     <use style="fill:#1e9b8a;stroke:#1e9b8a;" x="161.323254" xlink:href="#mf226d0b6e5" y="53.794286"/>
    </g>
   </g>
   <g id="line2d_2">
    <g clip-path="url(#p78fb76c15f)">
     <use style="fill:#1e9b8a;stroke:#1e9b8a;" x="178.721602" xlink:href="#mf226d0b6e5" y="53.794286"/>
    </g>
   </g>
   <g id="line2d_3">
    <defs>
     <path d="M 0 2.25 
C 0.596707 2.25 1.169055 2.012926 1.59099 1.59099 
C 2.012926 1.169055 2.25 0.596707 2.25 0 
C 2.25 -0.596707 2.012926 -1.169055 1.59099 -1.59099 
C 1.169055 -2.012926 0.596707 -2.25 0 -2.25 
C -0.596707 -2.25 -1.169055 -2.012926 -1.59099 -1.59099 
C -2.012926 -1.169055 -2.25 -0.596707 -2.25 0 
C -2.25 0.596707 -2.012926 1.169055 -1.59099 1.59099 
C -1.169055 2.012926 -0.596707 2.25 0 2.25 
z
" id="m524d1e5ace" style="stroke:#38588c;"/>
    </defs>
    <g clip-path="url(#p78fb76c15f)">
     <use style="fill:#38588c;stroke:#38588c;" x="208.774516" xlink:href="#m524d1e5ace" y="146.982857"/>
    </g>
   </g>
   <g id="line2d_4">
    <g clip-path="url(#p78fb76c15f)">
     <use style="fill:#38588c;stroke:#38588c;" x="214.070533" xlink:href="#m524d1e5ace" y="146.982857"/>
    </g>
   </g>
   <g id="line2d_5">
    <defs>
     <path d="M 0 2.25 
C 0.596707 2.25 1.169055 2.012926 1.59099 1.59099 
C 2.012926 1.169055 2.25 0.596707 2.25 0 
C 2.25 -0.596707 2.012926 -1.169055 1.59099 -1.59099 
C 1.169055 -2.012926 0.596707 -2.25 0 -2.25 
C -0.596707 -2.25 -1.169055 -2.012926 -1.59099 -1.59099 
C -2.012926 -1.169055 -2.25 -0.596707 -2.25 0 
C -2.25 0.596707 -2.012926 1.169055 -1.59099 1.59099 
C -1.169055 2.012926 -0.596707 2.25 0 2.25 
z
" id="m1723062019" style="stroke:#25858e;"/>
    </defs>
    <g clip-path="url(#p78fb76c15f)">
     <use style="fill:#25858e;stroke:#25858e;" x="155.15093" xlink:href="#m1723062019" y="84.857143"/>
    </g>
   </g>
   <g id="line2d_6">
    <g clip-path="url(#p78fb76c15f)">
     <use style="fill:#25858e;stroke:#25858e;" x="192.494562" xlink:href="#m1723062019" y="84.857143"/>
    </g>
   </g>
   <g id="line2d_7">
    <defs>
     <path d="M 0 2.25 
C 0.596707 2.25 1.169055 2.012926 1.59099 1.59099 
C 2.012926 1.169055 2.25 0.596707 2.25 0 
C 2.25 -0.596707 2.012926 -1.169055 1.59099 -1.59099 
C 1.169055 -2.012926 0.596707 -2.25 0 -2.25 
C -0.596707 -2.25 -1.169055 -2.012926 -1.59099 -1.59099 
C -2.012926 -1.169055 -2.25 -0.596707 -2.25 0 
C -2.25 0.596707 -2.012926 1.169055 -1.59099 1.59099 
C -1.169055 2.012926 -0.596707 2.25 0 2.25 
z
" id="m521d38e5c3" style="stroke:#2ab07f;"/>
    </defs>
    <g clip-path="url(#p78fb76c15f)">
     <use style="fill:#2ab07f;stroke:#2ab07f;" x="82.980405" xlink:href="#m521d38e5c3" y="22.731429"/>
    </g>
   </g>
   <g id="line2d_8">
    <g clip-path="url(#p78fb76c15f)">
     <use style="fill:#2ab07f;stroke:#2ab07f;" x="138.839063" xlink:href="#m521d38e5c3" y="22.731429"/>
    </g>
   </g>
   <g id="line2d_9">
    <defs>
     <path d="M 0 2.25 
C 0.596707 2.25 1.169055 2.012926 1.59099 1.59099 
C 2.012926 1.169055 2.25 0.596707 2.25 0 
C 2.25 -0.596707 2.012926 -1.169055 1.59099 -1.59099 
C 1.169055 -2.012926 0.596707 -2.25 0 -2.25 
C -0.596707 -2.25 -1.169055 -2.012926 -1.59099 -1.59099 
C -2.012926 -1.169055 -2.25 -0.596707 -2.25 0 
C -2.25 0.596707 -2.012926 1.169055 -1.59099 1.59099 
C -1.169055 2.012926 -0.596707 2.25 0 2.25 
z
" id="m562664d869" style="stroke:#2d708e;"/>
    </defs>
    <g clip-path="url(#p78fb76c15f)">
     <use style="fill:#2d708e;stroke:#2d708e;" x="152.432842" xlink:href="#m562664d869" y="115.92"/>
    </g>
   </g>
   <g id="line2d_10">
    <g clip-path="url(#p78fb76c15f)">
     <use style="fill:#2d708e;stroke:#2d708e;" x="197.185683" xlink:href="#m562664d869" y="115.92"/>
    </g>
   </g>
   <g id="line2d_11">
    <defs>
     <path d="M 0 2.25 
C 0.596707 2.25 1.169055 2.012926 1.59099 1.59099 
C 2.012926 1.169055 2.25 0.596707 2.25 0 
C 2.25 -0.596707 2.012926 -1.169055 1.59099 -1.59099 
C 1.169055 -2.012926 0.596707 -2.25 0 -2.25 
C -0.596707 -2.25 -1.169055 -2.012926 -1.59099 -1.59099 
C -2.012926 -1.169055 -2.25 -0.596707 -2.25 0 
C -2.25 0.596707 -2.012926 1.169055 -1.59099 1.59099 
C -1.169055 2.012926 -0.596707 2.25 0 2.25 
z
" id="m3c7dd3fa7a" style="stroke:#482173;"/>
    </defs>
    <g clip-path="url(#p78fb76c15f)">
     <use style="fill:#482173;stroke:#482173;" x="208.778702" xlink:href="#m3c7dd3fa7a" y="209.108571"/>
    </g>
   </g>
   <g id="line2d_12">
    <g clip-path="url(#p78fb76c15f)">
     <use style="fill:#482173;stroke:#482173;" x="228.624575" xlink:href="#m3c7dd3fa7a" y="209.108571"/>
    </g>
   </g>
   <g id="line2d_13">
    <defs>
     <path d="M 0 2.25 
C 0.596707 2.25 1.169055 2.012926 1.59099 1.59099 
C 2.012926 1.169055 2.25 0.596707 2.25 0 
C 2.25 -0.596707 2.012926 -1.169055 1.59099 -1.59099 
C 1.169055 -2.012926 0.596707 -2.25 0 -2.25 
C -0.596707 -2.25 -1.169055 -2.012926 -1.59099 -1.59099 
C -2.012926 -1.169055 -2.25 -0.596707 -2.25 0 
C -2.25 0.596707 -2.012926 1.169055 -1.59099 1.59099 
C -1.169055 2.012926 -0.596707 2.25 0 2.25 
z
" id="m7ba377e47f" style="stroke:#433e85;"/>
    </defs>
    <g clip-path="url(#p78fb76c15f)">
     <use style="fill:#433e85;stroke:#433e85;" x="208.157647" xlink:href="#m7ba377e47f" y="178.045714"/>
    </g>
   </g>
   <g id="line2d_14">
    <g clip-path="url(#p78fb76c15f)">
     <use style="fill:#433e85;stroke:#433e85;" x="218.634383" xlink:href="#m7ba377e47f" y="178.045714"/>
    </g>
   </g>
   <g id="patch_3">
    <path d="M 77.849375 224.64 
L 77.849375 7.2 
" style="fill:none;stroke:#ffffff;stroke-linecap:square;stroke-linejoin:miter;stroke-width:0.8;"/>
   </g>
   <g id="patch_4">
    <path d="M 245.249375 224.64 
L 245.249375 7.2 
" style="fill:none;stroke:#ffffff;stroke-linecap:square;stroke-linejoin:miter;stroke-width:0.8;"/>
   </g>
   <g id="patch_5">
    <path d="M 77.849375 224.64 
L 245.249375 224.64 
" style="fill:none;stroke:#ffffff;stroke-linecap:square;stroke-linejoin:miter;stroke-width:0.8;"/>
   </g>
   <g id="patch_6">
    <path d="M 77.849375 7.2 
L 245.249375 7.2 
" style="fill:none;stroke:#ffffff;stroke-linecap:square;stroke-linejoin:miter;stroke-width:0.8;"/>
   </g>
  </g>
 </g>
 <defs>
  <clipPath id="p78fb76c15f">
   <rect height="217.44" width="167.4" x="77.849375" y="7.2"/>
  </clipPath>
 </defs>
</svg>
